# MagicaVoxel @ Ephtracy

# group
g ClayTile3.1

# material
mtllib ClayTile3.1.mtl
usemtl palette

# normals
vn -1 0 0
vn 1 0 0
vn 0 0 1
vn 0 0 -1
vn 0 -1 0
vn 0 1 0

# texcoords
vt 0.396484 0.5
vt 0.541016 0.5
vt 0.544922 0.5
vt 0.982422 0.5

# verts
v -16 0 16
v -16 0 -16
v -16 10 16
v -16 10 -5
v -16 11 16
v -16 11 -2
v -16 11 -5
v -16 12 -2
v -16 12 -16
v -6 11 -1
v -6 11 -5
v -6 12 -1
v -6 12 -5
v -3 10 9
v -3 10 6
v -3 11 9
v -3 11 6
v -2 10 16
v -2 10 9
v -2 10 4
v -2 10 3
v -2 11 16
v -2 11 9
v -2 11 4
v -2 11 3
v -1 10 5
v -1 10 4
v -1 11 16
v -1 11 10
v -1 11 5
v -1 11 4
v -1 11 -0
v -1 11 -1
v -1 12 16
v -1 12 10
v -1 12 -0
v -1 12 -1
v 0 10 6
v 0 10 5
v 0 11 6
v 0 11 5
v 0 11 1
v 0 11 -0
v 0 12 1
v 0 12 -0
v 1 10 8
v 1 10 6
v 1 11 8
v 1 11 6
v 2 10 9
v 2 10 8
v 2 11 9
v 2 11 8
v 2 11 5
v 2 11 1
v 2 12 5
v 2 12 1
v 3 10 11
v 3 10 9
v 3 11 11
v 3 11 9
v 4 10 12
v 4 10 11
v 4 11 12
v 4 11 11
v 4 11 8
v 4 11 5
v 4 12 8
v 4 12 5
v 5 10 16
v 5 10 12
v 5 11 16
v 5 11 12
v 6 11 10
v 6 11 8
v 6 12 10
v 6 12 8
v 8 10 -8
v 8 10 -9
v 8 11 -8
v 8 11 -9
v 9 10 -7
v 9 10 -8
v 9 11 -7
v 9 11 -8
v 10 10 -6
v 10 10 -7
v 10 11 -6
v 10 11 -7
v 10 11 -8
v 10 11 -9
v 10 12 -8
v 10 12 -9
v 11 10 2
v 11 10 -6
v 11 11 2
v 11 11 -6
v 11 11 -8
v 11 12 -6
v 11 12 -8
v 14 10 16
v 14 10 13
v 14 11 16
v 14 11 13
v 15 11 -3
v 15 11 -6
v 15 12 -3
v 15 12 -6
v -14 11 -2
v -14 11 -3
v -14 12 -2
v -14 12 -3
v -12 11 -3
v -12 11 -5
v -12 12 -3
v -12 12 -5
v -10 11 -5
v -10 11 -6
v -10 11 -7
v -10 12 -5
v -10 12 -6
v -10 12 -7
v -8 11 -7
v -8 11 -9
v -8 12 -7
v -8 12 -9
v -4 10 16
v -4 10 3
v -4 11 16
v -4 11 3
v -3 10 -8
v -3 10 -9
v -3 11 -8
v -3 11 -9
v -2 10 -7
v -2 10 -8
v -2 11 -7
v -2 11 -8
v -1 10 9
v -1 10 6
v -1 10 -6
v -1 10 -7
v -1 11 9
v -1 11 6
v -1 11 -6
v -1 11 -7
v 0 11 12
v 0 11 10
v 0 11 -2
v 0 11 -5
v 0 12 12
v 0 12 10
v 0 12 -2
v 0 12 -5
v 1 10 11
v 1 10 9
v 1 11 16
v 1 11 12
v 1 11 11
v 1 11 9
v 1 12 16
v 1 12 12
v 2 10 16
v 2 10 11
v 2 10 -4
v 2 10 -5
v 2 10 -6
v 2 11 16
v 2 11 11
v 2 11 -4
v 2 11 -5
v 2 11 -6
v 5 10 -3
v 5 10 -4
v 5 11 1
v 5 11 -2
v 5 11 -3
v 5 11 -4
v 5 12 1
v 5 12 -2
v 6 11 4
v 6 11 1
v 6 12 4
v 6 12 1
v 7 10 -1
v 7 10 -2
v 7 10 -3
v 7 11 5
v 7 11 4
v 7 11 -1
v 7 11 -2
v 7 11 -3
v 7 12 5
v 7 12 4
v 8 10 1
v 8 10 -0
v 8 10 -1
v 8 11 6
v 8 11 5
v 8 11 1
v 8 11 -0
v 8 11 -1
v 8 12 6
v 8 12 5
v 9 10 16
v 9 10 13
v 9 10 2
v 9 10 1
v 9 11 16
v 9 11 13
v 9 11 10
v 9 11 6
v 9 11 2
v 9 11 1
v 9 12 10
v 9 12 6
v 11 10 13
v 11 10 4
v 11 11 13
v 11 11 4
v 16 0 16
v 16 0 -16
v 16 9 16
v 16 9 -12
v 16 10 16
v 16 10 13
v 16 10 4
v 16 10 -12
v 16 10 -13
v 16 11 16
v 16 11 13
v 16 11 4
v 16 11 -3
v 16 11 -8
v 16 11 -11
v 16 11 -13
v 16 12 -3
v 16 12 -8
v 16 12 -11
v 16 12 -16
v -16 0 16
v -16 10 16
v -16 11 16
v -8 9 16
v -8 10 16
v -4 10 16
v -4 11 16
v -2 10 16
v -2 11 16
v -1 11 16
v -1 12 16
v 1 11 16
v 1 12 16
v 2 10 16
v 2 11 16
v 5 10 16
v 5 11 16
v 9 10 16
v 9 11 16
v 14 10 16
v 14 11 16
v 16 0 16
v 16 9 16
v 16 10 16
v 16 11 16
v 9 10 13
v 9 11 13
v 11 10 13
v 11 11 13
v 4 10 12
v 4 11 12
v 5 10 12
v 5 11 12
v 3 10 11
v 3 11 11
v 4 10 11
v 4 11 11
v 6 11 10
v 6 12 10
v 9 11 10
v 9 12 10
v -3 10 9
v -3 11 9
v -2 10 9
v -2 11 9
v 2 10 9
v 2 11 9
v 3 10 9
v 3 11 9
v 1 10 8
v 1 11 8
v 2 10 8
v 2 11 8
v 4 11 8
v 4 12 8
v 6 11 8
v 6 12 8
v 0 10 6
v 0 11 6
v 1 10 6
v 1 11 6
v -1 10 5
v -1 11 5
v 0 10 5
v 0 11 5
v 2 11 5
v 2 12 5
v 4 11 5
v 4 12 5
v -2 10 4
v -2 11 4
v -1 10 4
v -1 11 4
v 11 10 4
v 11 11 4
v 16 10 4
v 16 11 4
v -4 10 3
v -4 11 3
v -2 10 3
v -2 11 3
v 0 11 1
v 0 12 1
v 2 11 1
v 2 12 1
v -1 11 -0
v -1 12 -0
v 0 11 -0
v 0 12 -0
v -6 11 -1
v -6 12 -1
v -1 11 -1
v -1 12 -1
v -16 11 -2
v -16 12 -2
v -14 11 -2
v -14 12 -2
v -14 11 -3
v -14 12 -3
v -12 11 -3
v -12 12 -3
v 15 11 -3
v 15 12 -3
v 16 11 -3
v 16 12 -3
v -12 11 -5
v -12 12 -5
v -11 11 -5
v -11 12 -5
v -10 11 -5
v -10 12 -5
v 10 10 -6
v 10 11 -6
v 11 10 -6
v 11 11 -6
v 11 12 -6
v 15 11 -6
v 15 12 -6
v -10 11 -7
v -10 12 -7
v -8 11 -7
v -8 12 -7
v 9 10 -7
v 9 11 -7
v 10 10 -7
v 10 11 -7
v 8 10 -8
v 8 11 -8
v 9 10 -8
v 9 11 -8
v 10 11 -8
v 10 12 -8
v 11 11 -8
v 11 12 -8
v -8 11 -9
v -8 12 -9
v -3 10 -9
v -3 11 -9
v 8 10 -9
v 8 11 -9
v 10 11 -9
v 10 12 -9
v 14 10 13
v 14 11 13
v 16 10 13
v 16 11 13
v 0 11 12
v 0 12 12
v 1 11 12
v 1 12 12
v 1 10 11
v 1 11 11
v 2 10 11
v 2 11 11
v -1 11 10
v -1 12 10
v 0 11 10
v 0 12 10
v -1 10 9
v -1 11 9
v 1 10 9
v 1 11 9
v -3 10 6
v -3 11 6
v -1 10 6
v -1 11 6
v 8 11 6
v 8 12 6
v 9 11 6
v 9 12 6
v 7 11 5
v 7 12 5
v 8 11 5
v 8 12 5
v 6 11 4
v 6 12 4
v 7 11 4
v 7 12 4
v 9 10 2
v 9 11 2
v 11 10 2
v 11 11 2
v 5 11 1
v 5 12 1
v 6 11 1
v 6 12 1
v 8 10 1
v 8 11 1
v 9 10 1
v 9 11 1
v 7 10 -1
v 7 11 -1
v 8 10 -1
v 8 11 -1
v 0 11 -2
v 0 12 -2
v 5 11 -2
v 5 12 -2
v 5 10 -3
v 5 11 -3
v 6 10 -3
v 6 11 -3
v 7 10 -3
v 7 11 -3
v 2 10 -4
v 2 11 -4
v 3 10 -4
v 3 11 -4
v 5 10 -4
v 5 11 -4
v -6 11 -5
v -6 12 -5
v 0 11 -5
v 0 12 -5
v -1 10 -6
v -1 11 -6
v 1 10 -6
v 1 11 -6
v 2 10 -6
v 2 11 -6
v -2 10 -7
v -2 11 -7
v -1 10 -7
v -1 11 -7
v -3 10 -8
v -3 11 -8
v -2 10 -8
v -2 11 -8
v -16 0 -16
v -16 12 -16
v 16 0 -16
v 16 12 -16
v -16 0 16
v 16 0 16
v -16 0 -16
v 16 0 -16
v -4 10 16
v -2 10 16
v 2 10 16
v 5 10 16
v 9 10 16
v 14 10 16
v 9 10 13
v 11 10 13
v 14 10 13
v 16 10 13
v 4 10 12
v 5 10 12
v 1 10 11
v 2 10 11
v 3 10 11
v 4 10 11
v -3 10 9
v -2 10 9
v -1 10 9
v 1 10 9
v 2 10 9
v 3 10 9
v 1 10 8
v 2 10 8
v -3 10 6
v -1 10 6
v 0 10 6
v 1 10 6
v -1 10 5
v 0 10 5
v -2 10 4
v -1 10 4
v 11 10 4
v 16 10 4
v -4 10 3
v -2 10 3
v 9 10 2
v 11 10 2
v 8 10 1
v 9 10 1
v 8 10 -0
v 7 10 -1
v 8 10 -1
v 7 10 -2
v 5 10 -3
v 6 10 -3
v 7 10 -3
v 2 10 -4
v 3 10 -4
v 5 10 -4
v 2 10 -5
v -1 10 -6
v 1 10 -6
v 2 10 -6
v 10 10 -6
v 11 10 -6
v -2 10 -7
v -1 10 -7
v 9 10 -7
v 10 10 -7
v -3 10 -8
v -2 10 -8
v 8 10 -8
v 9 10 -8
v -3 10 -9
v 8 10 -9
v -16 11 16
v -4 11 16
v -2 11 16
v -1 11 16
v 1 11 16
v 2 11 16
v 5 11 16
v 9 11 16
v 14 11 16
v 16 11 16
v 9 11 13
v 11 11 13
v 14 11 13
v 16 11 13
v 0 11 12
v 1 11 12
v 4 11 12
v 5 11 12
v 1 11 11
v 2 11 11
v 3 11 11
v 4 11 11
v -1 11 10
v 0 11 10
v 6 11 10
v 9 11 10
v -3 11 9
v -2 11 9
v -1 11 9
v 1 11 9
v 2 11 9
v 3 11 9
v 1 11 8
v 2 11 8
v 4 11 8
v 6 11 8
v -3 11 6
v -1 11 6
v 0 11 6
v 1 11 6
v 8 11 6
v 9 11 6
v -1 11 5
v 0 11 5
v 2 11 5
v 4 11 5
v 7 11 5
v 8 11 5
v -2 11 4
v -1 11 4
v 6 11 4
v 7 11 4
v 11 11 4
v 16 11 4
v -4 11 3
v -2 11 3
v 9 11 2
v 11 11 2
v 0 11 1
v 2 11 1
v 5 11 1
v 6 11 1
v 8 11 1
v 9 11 1
v -1 11 -0
v 0 11 -0
v 7 11 -0
v 8 11 -0
v -6 11 -1
v -1 11 -1
v 7 11 -1
v 8 11 -1
v -16 11 -2
v -14 11 -2
v 0 11 -2
v 5 11 -2
v 6 11 -2
v 7 11 -2
v -14 11 -3
v -12 11 -3
v 3 11 -3
v 5 11 -3
v 6 11 -3
v 7 11 -3
v 15 11 -3
v 16 11 -3
v 2 11 -4
v 3 11 -4
v 5 11 -4
v -12 11 -5
v -11 11 -5
v -10 11 -5
v -6 11 -5
v 0 11 -5
v 1 11 -5
v 2 11 -5
v -10 11 -6
v -1 11 -6
v 1 11 -6
v 2 11 -6
v 10 11 -6
v 11 11 -6
v 15 11 -6
v -10 11 -7
v -8 11 -7
v -2 11 -7
v -1 11 -7
v 9 11 -7
v 10 11 -7
v -3 11 -8
v -2 11 -8
v 8 11 -8
v 9 11 -8
v 10 11 -8
v 11 11 -8
v -8 11 -9
v -3 11 -9
v 8 11 -9
v 10 11 -9
v -1 12 16
v 1 12 16
v 0 12 12
v 1 12 12
v -1 12 10
v 0 12 10
v 6 12 10
v 9 12 10
v 4 12 8
v 6 12 8
v 8 12 6
v 9 12 6
v 2 12 5
v 4 12 5
v 7 12 5
v 8 12 5
v 6 12 4
v 7 12 4
v 0 12 1
v 2 12 1
v 5 12 1
v 6 12 1
v -1 12 -0
v 0 12 -0
v -6 12 -1
v -1 12 -1
v -16 12 -2
v -14 12 -2
v 0 12 -2
v 5 12 -2
v -14 12 -3
v -12 12 -3
v 15 12 -3
v 16 12 -3
v -12 12 -5
v -11 12 -5
v -10 12 -5
v -6 12 -5
v 0 12 -5
v -11 12 -6
v -10 12 -6
v 11 12 -6
v 15 12 -6
v -10 12 -7
v -8 12 -7
v 10 12 -8
v 11 12 -8
v 13 12 -8
v 14 12 -8
v 15 12 -8
v 16 12 -8
v -8 12 -9
v 10 12 -9
v 12 12 -9
v 13 12 -9
v 14 12 -9
v 15 12 -9
v 13 12 -10
v 15 12 -10
v 12 12 -11
v 13 12 -11
v 15 12 -11
v 16 12 -11
v -16 12 -16
v 16 12 -16

# faces
f 3/1/1 2/1/1 1/1/1
f 4/1/1 2/1/1 3/1/1
f 5/2/1 4/2/1 3/2/1
f 6/2/1 4/2/1 5/2/1
f 7/1/1 2/1/1 4/1/1
f 7/2/1 4/2/1 6/2/1
f 8/1/1 7/1/1 6/1/1
f 9/1/1 2/1/1 7/1/1
f 9/1/1 7/1/1 8/1/1
f 12/1/1 11/1/1 10/1/1
f 13/1/1 11/1/1 12/1/1
f 16/2/1 15/2/1 14/2/1
f 17/2/1 15/2/1 16/2/1
f 22/2/1 19/2/1 18/2/1
f 23/2/1 19/2/1 22/2/1
f 24/2/1 21/2/1 20/2/1
f 25/2/1 21/2/1 24/2/1
f 30/2/1 27/2/1 26/2/1
f 31/2/1 27/2/1 30/2/1
f 34/1/1 29/1/1 28/1/1
f 35/1/1 29/1/1 34/1/1
f 36/1/1 33/1/1 32/1/1
f 37/1/1 33/1/1 36/1/1
f 40/2/1 39/2/1 38/2/1
f 41/2/1 39/2/1 40/2/1
f 44/1/1 43/1/1 42/1/1
f 45/1/1 43/1/1 44/1/1
f 48/2/1 47/2/1 46/2/1
f 49/2/1 47/2/1 48/2/1
f 52/2/1 51/2/1 50/2/1
f 53/2/1 51/2/1 52/2/1
f 56/1/1 55/1/1 54/1/1
f 57/1/1 55/1/1 56/1/1
f 60/2/1 59/2/1 58/2/1
f 61/2/1 59/2/1 60/2/1
f 64/2/1 63/2/1 62/2/1
f 65/2/1 63/2/1 64/2/1
f 68/1/1 67/1/1 66/1/1
f 69/1/1 67/1/1 68/1/1
f 72/2/1 71/2/1 70/2/1
f 73/2/1 71/2/1 72/2/1
f 76/1/1 75/1/1 74/1/1
f 77/1/1 75/1/1 76/1/1
f 80/2/1 79/2/1 78/2/1
f 81/2/1 79/2/1 80/2/1
f 84/4/1 83/4/1 82/4/1
f 85/4/1 83/4/1 84/4/1
f 88/2/1 87/2/1 86/2/1
f 89/2/1 87/2/1 88/2/1
f 92/1/1 91/1/1 90/1/1
f 93/1/1 91/1/1 92/1/1
f 96/2/1 95/2/1 94/2/1
f 97/2/1 95/2/1 96/2/1
f 99/1/1 98/1/1 97/1/1
f 100/1/1 98/1/1 99/1/1
f 103/2/1 102/2/1 101/2/1
f 104/2/1 102/2/1 103/2/1
f 107/1/1 106/1/1 105/1/1
f 108/1/1 106/1/1 107/1/1
f 109/1/2 110/1/2 111/1/2
f 111/1/2 110/1/2 112/1/2
f 113/1/2 114/1/2 115/1/2
f 115/1/2 114/1/2 116/1/2
f 117/4/2 118/4/2 120/4/2
f 118/1/2 119/1/2 121/1/2
f 120/4/2 118/4/2 121/4/2
f 121/1/2 119/1/2 122/1/2
f 123/1/2 124/1/2 125/1/2
f 125/1/2 124/1/2 126/1/2
f 127/2/2 128/2/2 129/2/2
f 129/2/2 128/2/2 130/2/2
f 131/2/2 132/2/2 133/2/2
f 133/2/2 132/2/2 134/2/2
f 135/2/2 136/2/2 137/2/2
f 137/2/2 136/2/2 138/2/2
f 139/2/2 140/2/2 143/2/2
f 143/2/2 140/2/2 144/2/2
f 141/2/2 142/2/2 145/2/2
f 145/2/2 142/2/2 146/2/2
f 147/1/2 148/1/2 151/1/2
f 151/1/2 148/1/2 152/1/2
f 149/1/2 150/1/2 153/1/2
f 153/1/2 150/1/2 154/1/2
f 155/2/2 156/2/2 159/2/2
f 159/2/2 156/2/2 160/2/2
f 157/1/2 158/1/2 161/1/2
f 161/1/2 158/1/2 162/1/2
f 163/2/2 164/2/2 168/2/2
f 168/2/2 164/2/2 169/2/2
f 165/2/2 166/2/2 170/2/2
f 166/4/2 167/4/2 171/4/2
f 170/2/2 166/2/2 171/2/2
f 171/4/2 167/4/2 172/4/2
f 173/4/2 174/4/2 177/4/2
f 177/4/2 174/4/2 178/4/2
f 175/1/2 176/1/2 179/1/2
f 179/1/2 176/1/2 180/1/2
f 181/1/2 182/1/2 183/1/2
f 183/1/2 182/1/2 184/1/2
f 185/2/2 186/2/2 190/2/2
f 186/4/2 187/4/2 191/4/2
f 190/2/2 186/2/2 191/2/2
f 191/4/2 187/4/2 192/4/2
f 188/1/2 189/1/2 193/1/2
f 193/1/2 189/1/2 194/1/2
f 195/2/2 196/2/2 200/2/2
f 196/4/2 197/4/2 201/4/2
f 200/2/2 196/2/2 201/2/2
f 201/4/2 197/4/2 202/4/2
f 198/1/2 199/1/2 203/1/2
f 203/1/2 199/1/2 204/1/2
f 205/2/2 206/2/2 209/2/2
f 209/2/2 206/2/2 210/2/2
f 207/2/2 208/2/2 213/2/2
f 213/2/2 208/2/2 214/2/2
f 211/1/2 212/1/2 215/1/2
f 215/1/2 212/1/2 216/1/2
f 217/2/2 218/2/2 219/2/2
f 219/2/2 218/2/2 220/2/2
f 221/1/2 222/1/2 223/1/2
f 223/1/2 222/1/2 224/1/2
f 223/3/2 224/3/2 225/3/2
f 225/3/2 224/3/2 226/3/2
f 226/3/2 224/3/2 227/3/2
f 224/1/2 222/1/2 228/1/2
f 227/3/2 224/3/2 228/3/2
f 228/1/2 222/1/2 229/1/2
f 225/2/2 226/2/2 230/2/2
f 230/2/2 226/2/2 231/2/2
f 228/2/2 229/2/2 232/2/2
f 227/2/2 228/2/2 232/2/2
f 232/2/2 229/2/2 233/2/2
f 233/2/2 229/2/2 234/2/2
f 234/2/2 229/2/2 235/2/2
f 229/1/2 222/1/2 236/1/2
f 235/2/2 229/2/2 236/2/2
f 233/1/2 234/1/2 237/1/2
f 234/4/2 235/4/2 238/4/2
f 237/1/2 234/1/2 238/1/2
f 235/1/2 236/1/2 239/1/2
f 238/4/2 235/4/2 239/4/2
f 236/1/2 222/1/2 240/1/2
f 239/1/2 236/1/2 240/1/2
f 244/1/3 242/1/3 241/1/3
f 245/2/3 243/2/3 242/2/3
f 245/1/3 242/1/3 244/1/3
f 246/3/3 245/3/3 244/3/3
f 246/2/3 243/2/3 245/2/3
f 247/2/3 243/2/3 246/2/3
f 248/3/3 246/3/3 244/3/3
f 250/2/3 249/2/3 248/2/3
f 252/2/3 250/2/3 248/2/3
f 252/1/3 251/1/3 250/1/3
f 253/1/3 251/1/3 252/1/3
f 254/3/3 248/3/3 244/3/3
f 254/2/3 252/2/3 248/2/3
f 255/2/3 252/2/3 254/2/3
f 256/3/3 254/3/3 244/3/3
f 258/3/3 256/3/3 244/3/3
f 258/2/3 257/2/3 256/2/3
f 259/2/3 257/2/3 258/2/3
f 260/3/3 258/3/3 244/3/3
f 262/1/3 244/1/3 241/1/3
f 263/3/3 260/3/3 244/3/3
f 263/1/3 244/1/3 262/1/3
f 264/2/3 261/2/3 260/2/3
f 264/3/3 260/3/3 263/3/3
f 265/2/3 261/2/3 264/2/3
f 268/2/3 267/2/3 266/2/3
f 269/2/3 267/2/3 268/2/3
f 272/2/3 271/2/3 270/2/3
f 273/2/3 271/2/3 272/2/3
f 276/2/3 275/2/3 274/2/3
f 277/2/3 275/2/3 276/2/3
f 280/1/3 279/1/3 278/1/3
f 281/1/3 279/1/3 280/1/3
f 284/2/3 283/2/3 282/2/3
f 285/2/3 283/2/3 284/2/3
f 288/2/3 287/2/3 286/2/3
f 289/2/3 287/2/3 288/2/3
f 292/2/3 291/2/3 290/2/3
f 293/2/3 291/2/3 292/2/3
f 296/1/3 295/1/3 294/1/3
f 297/1/3 295/1/3 296/1/3
f 300/2/3 299/2/3 298/2/3
f 301/2/3 299/2/3 300/2/3
f 304/2/3 303/2/3 302/2/3
f 305/2/3 303/2/3 304/2/3
f 308/1/3 307/1/3 306/1/3
f 309/1/3 307/1/3 308/1/3
f 312/2/3 311/2/3 310/2/3
f 313/2/3 311/2/3 312/2/3
f 316/2/3 315/2/3 314/2/3
f 317/2/3 315/2/3 316/2/3
f 320/2/3 319/2/3 318/2/3
f 321/2/3 319/2/3 320/2/3
f 324/1/3 323/1/3 322/1/3
f 325/1/3 323/1/3 324/1/3
f 328/1/3 327/1/3 326/1/3
f 329/1/3 327/1/3 328/1/3
f 332/1/3 331/1/3 330/1/3
f 333/1/3 331/1/3 332/1/3
f 336/1/3 335/1/3 334/1/3
f 337/1/3 335/1/3 336/1/3
f 340/1/3 339/1/3 338/1/3
f 341/1/3 339/1/3 340/1/3
f 344/1/3 343/1/3 342/1/3
f 345/1/3 343/1/3 344/1/3
f 348/1/3 347/1/3 346/1/3
f 349/1/3 347/1/3 348/1/3
f 350/4/3 349/4/3 348/4/3
f 351/4/3 349/4/3 350/4/3
f 354/2/3 353/2/3 352/2/3
f 355/2/3 353/2/3 354/2/3
f 357/1/3 356/1/3 355/1/3
f 358/1/3 356/1/3 357/1/3
f 361/1/3 360/1/3 359/1/3
f 362/1/3 360/1/3 361/1/3
f 365/4/3 364/4/3 363/4/3
f 366/4/3 364/4/3 365/4/3
f 369/2/3 368/2/3 367/2/3
f 370/2/3 368/2/3 369/2/3
f 373/1/3 372/1/3 371/1/3
f 374/1/3 372/1/3 373/1/3
f 378/1/3 376/1/3 375/1/3
f 379/2/3 378/2/3 377/2/3
f 380/1/3 376/1/3 378/1/3
f 380/2/3 378/2/3 379/2/3
f 381/1/3 376/1/3 380/1/3
f 382/1/3 376/1/3 381/1/3
f 383/2/4 384/2/4 385/2/4
f 385/2/4 384/2/4 386/2/4
f 387/1/4 388/1/4 389/1/4
f 389/1/4 388/1/4 390/1/4
f 391/2/4 392/2/4 393/2/4
f 393/2/4 392/2/4 394/2/4
f 395/1/4 396/1/4 397/1/4
f 397/1/4 396/1/4 398/1/4
f 399/2/4 400/2/4 401/2/4
f 401/2/4 400/2/4 402/2/4
f 403/2/4 404/2/4 405/2/4
f 405/2/4 404/2/4 406/2/4
f 407/1/4 408/1/4 409/1/4
f 409/1/4 408/1/4 410/1/4
f 411/1/4 412/1/4 413/1/4
f 413/1/4 412/1/4 414/1/4
f 415/1/4 416/1/4 417/1/4
f 417/1/4 416/1/4 418/1/4
f 419/2/4 420/2/4 421/2/4
f 421/2/4 420/2/4 422/2/4
f 423/1/4 424/1/4 425/1/4
f 425/1/4 424/1/4 426/1/4
f 427/2/4 428/2/4 429/2/4
f 429/2/4 428/2/4 430/2/4
f 431/4/4 432/4/4 433/4/4
f 433/4/4 432/4/4 434/4/4
f 435/1/4 436/1/4 437/1/4
f 437/1/4 436/1/4 438/1/4
f 439/2/4 440/2/4 441/2/4
f 441/2/4 440/2/4 442/2/4
f 441/4/4 442/4/4 443/4/4
f 443/4/4 442/4/4 444/4/4
f 445/2/4 446/2/4 447/2/4
f 447/2/4 446/2/4 448/2/4
f 447/4/4 448/4/4 449/4/4
f 449/4/4 448/4/4 450/4/4
f 451/1/4 452/1/4 453/1/4
f 453/1/4 452/1/4 454/1/4
f 455/2/4 456/2/4 457/2/4
f 457/2/4 456/2/4 458/2/4
f 457/4/4 458/4/4 459/4/4
f 459/4/4 458/4/4 460/4/4
f 461/2/4 462/2/4 463/2/4
f 463/2/4 462/2/4 464/2/4
f 465/2/4 466/2/4 467/2/4
f 467/2/4 466/2/4 468/2/4
f 469/1/4 470/1/4 471/1/4
f 471/1/4 470/1/4 472/1/4
f 475/1/5 474/1/5 473/1/5
f 476/1/5 474/1/5 475/1/5
f 481/3/6 482/3/6 483/3/6
f 483/3/6 482/3/6 484/3/6
f 484/3/6 482/3/6 485/3/6
f 479/3/6 480/3/6 487/3/6
f 487/3/6 480/3/6 488/3/6
f 479/3/6 487/3/6 490/3/6
f 490/3/6 487/3/6 491/3/6
f 491/3/6 487/3/6 492/3/6
f 477/3/6 478/3/6 493/3/6
f 493/3/6 478/3/6 494/3/6
f 489/3/6 490/3/6 496/3/6
f 490/3/6 491/3/6 496/3/6
f 496/3/6 491/3/6 497/3/6
f 497/3/6 491/3/6 498/3/6
f 495/3/6 496/3/6 499/3/6
f 496/3/6 497/3/6 499/3/6
f 499/3/6 497/3/6 500/3/6
f 477/3/6 493/3/6 501/3/6
f 495/3/6 499/3/6 502/3/6
f 502/3/6 499/3/6 503/3/6
f 503/3/6 499/3/6 504/3/6
f 501/3/6 502/3/6 505/3/6
f 502/3/6 503/3/6 505/3/6
f 505/3/6 503/3/6 506/3/6
f 501/3/6 505/3/6 507/3/6
f 507/3/6 505/3/6 508/3/6
f 485/3/6 486/3/6 509/3/6
f 484/3/6 485/3/6 509/3/6
f 509/3/6 486/3/6 510/3/6
f 501/3/6 507/3/6 511/3/6
f 477/3/6 501/3/6 511/3/6
f 511/3/6 507/3/6 512/3/6
f 513/3/6 514/3/6 516/3/6
f 515/3/6 516/3/6 517/3/6
f 517/3/6 516/3/6 519/3/6
f 518/3/6 519/3/6 520/3/6
f 520/3/6 519/3/6 523/3/6
f 521/3/6 522/3/6 526/3/6
f 522/3/6 523/3/6 526/3/6
f 524/3/6 525/3/6 527/3/6
f 525/3/6 526/3/6 527/3/6
f 527/3/6 526/3/6 530/3/6
f 516/3/6 514/3/6 531/3/6
f 519/3/6 516/3/6 531/3/6
f 530/3/6 526/3/6 531/3/6
f 526/3/6 523/3/6 531/3/6
f 523/3/6 519/3/6 531/3/6
f 531/3/6 514/3/6 532/3/6
f 529/3/6 530/3/6 534/3/6
f 528/3/6 529/3/6 534/3/6
f 530/3/6 531/3/6 534/3/6
f 534/3/6 531/3/6 535/3/6
f 535/3/6 531/3/6 536/3/6
f 533/3/6 534/3/6 538/3/6
f 534/3/6 535/3/6 538/3/6
f 538/3/6 535/3/6 539/3/6
f 539/3/6 535/3/6 540/3/6
f 537/3/6 538/3/6 541/3/6
f 538/3/6 539/3/6 541/3/6
f 541/3/6 539/3/6 542/3/6
f 549/2/6 550/2/6 553/2/6
f 551/2/6 552/2/6 555/2/6
f 555/2/6 552/2/6 556/2/6
f 547/2/6 548/2/6 558/2/6
f 553/2/6 554/2/6 560/2/6
f 549/2/6 553/2/6 560/2/6
f 557/2/6 558/2/6 561/2/6
f 558/2/6 548/2/6 561/2/6
f 561/2/6 548/2/6 562/2/6
f 559/2/6 560/2/6 564/2/6
f 545/2/6 546/2/6 565/2/6
f 557/2/6 561/2/6 566/2/6
f 563/2/6 564/2/6 567/2/6
f 564/2/6 560/2/6 567/2/6
f 560/2/6 554/2/6 567/2/6
f 567/2/6 554/2/6 568/2/6
f 565/2/6 566/2/6 570/2/6
f 545/2/6 565/2/6 570/2/6
f 570/2/6 566/2/6 571/2/6
f 566/2/6 561/2/6 572/2/6
f 571/2/6 566/2/6 572/2/6
f 563/2/6 567/2/6 574/2/6
f 573/2/6 574/2/6 576/2/6
f 574/2/6 567/2/6 577/2/6
f 576/2/6 574/2/6 577/2/6
f 577/2/6 567/2/6 578/2/6
f 570/2/6 571/2/6 579/2/6
f 569/2/6 570/2/6 579/2/6
f 579/2/6 571/2/6 580/2/6
f 575/2/6 576/2/6 582/2/6
f 576/2/6 577/2/6 582/2/6
f 568/2/6 554/2/6 584/2/6
f 581/2/6 582/2/6 586/2/6
f 582/2/6 577/2/6 587/2/6
f 586/2/6 582/2/6 587/2/6
f 587/2/6 577/2/6 588/2/6
f 583/2/6 584/2/6 590/2/6
f 585/2/6 586/2/6 592/2/6
f 586/2/6 587/2/6 592/2/6
f 589/2/6 590/2/6 594/2/6
f 590/2/6 584/2/6 595/2/6
f 584/2/6 554/2/6 595/2/6
f 594/2/6 590/2/6 595/2/6
f 543/2/6 544/2/6 597/2/6
f 591/2/6 592/2/6 598/2/6
f 595/2/6 596/2/6 599/2/6
f 593/2/6 594/2/6 599/2/6
f 594/2/6 595/2/6 599/2/6
f 599/2/6 596/2/6 600/2/6
f 597/2/6 598/2/6 601/2/6
f 598/2/6 592/2/6 601/2/6
f 592/2/6 587/2/6 601/2/6
f 601/2/6 587/2/6 602/2/6
f 593/2/6 599/2/6 604/2/6
f 604/2/6 599/2/6 605/2/6
f 605/2/6 599/2/6 606/2/6
f 597/2/6 601/2/6 607/2/6
f 607/2/6 601/2/6 608/2/6
f 604/2/6 605/2/6 609/2/6
f 603/2/6 604/2/6 609/2/6
f 609/2/6 605/2/6 610/2/6
f 543/2/6 597/2/6 611/2/6
f 597/2/6 607/2/6 611/2/6
f 611/2/6 607/2/6 612/2/6
f 609/4/6 610/4/6 613/4/6
f 603/2/6 609/2/6 613/2/6
f 613/4/6 610/4/6 614/4/6
f 543/2/6 611/2/6 615/2/6
f 615/2/6 611/2/6 616/2/6
f 603/2/6 613/2/6 618/2/6
f 618/2/6 613/2/6 619/2/6
f 619/2/6 613/2/6 620/2/6
f 616/2/6 611/2/6 621/2/6
f 621/2/6 611/2/6 622/2/6
f 617/2/6 618/2/6 623/2/6
f 618/2/6 619/2/6 623/2/6
f 623/2/6 619/2/6 624/2/6
f 619/4/6 620/4/6 625/4/6
f 624/2/6 619/2/6 625/2/6
f 625/4/6 620/4/6 626/4/6
f 600/2/6 596/2/6 627/2/6
f 627/2/6 596/2/6 628/2/6
f 617/2/6 623/2/6 629/2/6
f 623/4/6 624/4/6 630/4/6
f 629/2/6 623/2/6 630/2/6
f 630/4/6 624/4/6 631/4/6
f 622/2/6 611/2/6 632/2/6
f 632/2/6 611/2/6 633/2/6
f 633/2/6 611/2/6 634/2/6
f 634/2/6 611/2/6 635/2/6
f 617/2/6 629/2/6 636/2/6
f 636/2/6 629/2/6 637/2/6
f 637/2/6 629/2/6 638/2/6
f 634/2/6 635/2/6 639/2/6
f 636/2/6 637/2/6 639/2/6
f 635/2/6 636/2/6 639/2/6
f 639/2/6 637/2/6 640/2/6
f 637/4/6 638/4/6 641/4/6
f 640/2/6 637/2/6 641/2/6
f 641/4/6 638/4/6 642/4/6
f 600/2/6 627/2/6 644/2/6
f 644/2/6 627/2/6 645/2/6
f 639/2/6 640/2/6 646/2/6
f 646/2/6 640/2/6 647/2/6
f 647/2/6 640/2/6 648/2/6
f 648/2/6 640/2/6 649/2/6
f 643/2/6 644/2/6 651/2/6
f 647/2/6 648/2/6 652/2/6
f 652/2/6 648/2/6 653/2/6
f 650/4/6 651/4/6 655/4/6
f 651/2/6 644/2/6 656/2/6
f 655/4/6 651/4/6 656/4/6
f 656/2/6 644/2/6 657/2/6
f 647/2/6 652/2/6 658/2/6
f 658/2/6 652/2/6 659/2/6
f 654/2/6 655/2/6 660/2/6
f 655/2/6 656/2/6 660/2/6
f 660/2/6 656/2/6 661/2/6
f 662/1/6 663/1/6 664/1/6
f 664/1/6 663/1/6 665/1/6
f 662/1/6 664/1/6 666/1/6
f 666/1/6 664/1/6 667/1/6
f 668/1/6 669/1/6 671/1/6
f 671/1/6 669/1/6 672/1/6
f 670/1/6 671/1/6 672/1/6
f 672/1/6 669/1/6 673/1/6
f 670/1/6 672/1/6 675/1/6
f 675/1/6 672/1/6 676/1/6
f 676/1/6 672/1/6 677/1/6
f 674/1/6 675/1/6 678/1/6
f 675/1/6 676/1/6 678/1/6
f 678/1/6 676/1/6 679/1/6
f 674/1/6 678/1/6 681/1/6
f 681/1/6 678/1/6 682/1/6
f 682/1/6 678/1/6 683/1/6
f 680/1/6 681/1/6 685/1/6
f 681/1/6 682/1/6 685/1/6
f 684/1/6 685/1/6 687/1/6
f 685/1/6 682/1/6 690/1/6
f 687/1/6 685/1/6 690/1/6
f 686/1/6 687/1/6 690/1/6
f 690/1/6 682/1/6 691/1/6
f 688/1/6 689/1/6 692/1/6
f 692/1/6 693/1/6 696/1/6
f 686/1/6 690/1/6 699/1/6
f 699/1/6 690/1/6 700/1/6
f 697/4/6 698/4/6 701/4/6
f 696/1/6 697/1/6 701/1/6
f 701/4/6 698/4/6 702/4/6
f 694/1/6 695/1/6 704/1/6
f 701/1/6 702/1/6 705/1/6
f 703/1/6 704/1/6 708/1/6
f 708/1/6 704/1/6 709/1/6
f 709/1/6 704/1/6 710/1/6
f 704/1/6 695/1/6 711/1/6
f 710/1/6 704/1/6 711/1/6
f 711/1/6 695/1/6 712/1/6
f 705/1/6 706/1/6 713/1/6
f 707/1/6 708/1/6 714/1/6
f 708/1/6 709/1/6 714/1/6
f 714/1/6 709/1/6 715/1/6
f 709/4/6 710/4/6 716/4/6
f 715/1/6 709/1/6 716/1/6
f 710/1/6 711/1/6 717/1/6
f 716/4/6 710/4/6 717/4/6
f 711/4/6 712/4/6 718/4/6
f 717/1/6 711/1/6 718/1/6
f 716/4/6 717/4/6 719/4/6
f 715/4/6 716/4/6 719/4/6
f 717/4/6 718/4/6 719/4/6
f 718/4/6 712/4/6 720/4/6
f 719/4/6 718/4/6 720/4/6
f 714/1/6 715/1/6 721/1/6
f 715/4/6 719/4/6 721/4/6
f 713/1/6 714/1/6 721/1/6
f 719/1/6 720/1/6 722/1/6
f 721/4/6 719/4/6 722/4/6
f 720/4/6 712/4/6 723/4/6
f 722/1/6 720/1/6 723/1/6
f 723/4/6 712/4/6 724/4/6
f 696/1/6 701/1/6 725/1/6
f 688/1/6 692/1/6 725/1/6
f 723/1/6 724/1/6 725/1/6
f 722/1/6 723/1/6 725/1/6
f 692/1/6 696/1/6 725/1/6
f 713/1/6 721/1/6 725/1/6
f 705/1/6 713/1/6 725/1/6
f 721/1/6 722/1/6 725/1/6
f 701/1/6 705/1/6 725/1/6
f 725/1/6 724/1/6 726/1/6
