# MagicaVoxel @ Ephtracy

# group
g ClayTile1.2

# material
mtllib ClayTile1.2.mtl
usemtl palette

# normals
vn -1 0 0
vn 1 0 0
vn 0 0 1
vn 0 0 -1
vn 0 -1 0
vn 0 1 0

# texcoords
vt 0.396484 0.5
vt 0.541016 0.5
vt 0.544922 0.5
vt 0.982422 0.5

# verts
v -16 0 16
v -16 0 -16
v -16 9 16
v -16 9 -12
v -16 10 16
v -16 10 13
v -16 10 4
v -16 10 -12
v -16 10 -13
v -16 11 16
v -16 11 14
v -16 11 13
v -16 11 4
v -16 11 -3
v -16 11 -8
v -16 11 -11
v -16 11 -13
v -16 12 16
v -16 12 14
v -16 12 -3
v -16 12 -8
v -16 12 -11
v -16 12 -16
v -14 11 -1
v -14 11 -3
v -14 12 -1
v -14 12 -3
v -12 10 10
v -12 10 8
v -12 10 4
v -12 11 10
v -12 11 8
v -12 11 4
v -11 11 1
v -11 11 -1
v -11 12 1
v -11 12 -1
v -9 10 16
v -9 10 14
v -9 11 16
v -9 11 14
v -9 11 3
v -9 11 1
v -9 12 3
v -9 12 1
v -8 11 16
v -8 11 15
v -8 12 16
v -8 12 15
v -6 10 14
v -6 10 10
v -6 11 14
v -6 11 10
v -5 11 9
v -5 11 -2
v -5 12 9
v -5 12 -2
v -4 11 15
v -4 11 9
v -4 12 15
v -4 12 9
v 1 10 8
v 1 10 5
v 1 11 8
v 1 11 5
v 2 10 -2
v 2 10 -7
v 2 11 9
v 2 11 6
v 2 11 -2
v 2 11 -7
v 2 12 9
v 2 12 6
v 3 11 -3
v 3 11 -6
v 3 12 -3
v 3 12 -6
v 5 11 16
v 5 11 13
v 5 12 16
v 5 12 13
v 6 11 13
v 6 11 7
v 6 12 13
v 6 12 7
v 8 10 -2
v 8 10 -5
v 8 10 -11
v 8 10 -12
v 8 11 -2
v 8 11 -5
v 8 11 -11
v 8 11 -12
v 9 10 5
v 9 10 -2
v 9 11 5
v 9 11 -2
v 11 10 -5
v 11 10 -11
v 11 11 16
v 11 11 6
v 11 11 -5
v 11 11 -11
v 11 12 16
v 11 12 6
v 12 11 6
v 12 11 -13
v 12 12 6
v 12 12 -13
v 15 11 16
v 15 11 -7
v 15 12 16
v 15 12 -7
v -13 11 16
v -13 11 14
v -13 12 16
v -13 12 14
v -12 10 16
v -12 10 13
v -12 11 16
v -12 11 13
v -8 11 3
v -8 11 -13
v -8 12 3
v -8 12 -13
v -7 10 -7
v -7 10 -12
v -7 11 -7
v -7 11 -12
v -1 11 9
v -1 11 -2
v -1 12 9
v -1 12 -2
v 0 10 8
v 0 10 -7
v 0 11 8
v 0 11 -7
v 2 11 16
v 2 11 10
v 2 12 16
v 2 12 10
v 5 11 10
v 5 11 6
v 5 11 -3
v 5 11 -6
v 5 12 10
v 5 12 6
v 5 12 -3
v 5 12 -6
v 6 10 -2
v 6 10 -3
v 6 10 -7
v 6 11 -2
v 6 11 -3
v 6 11 -7
v 7 11 16
v 7 11 13
v 7 12 16
v 7 12 13
v 10 11 13
v 10 11 7
v 10 12 13
v 10 12 7
v 12 11 16
v 12 11 8
v 12 12 16
v 12 12 8
v 14 11 8
v 14 11 -13
v 14 12 8
v 14 12 -13
v 16 0 16
v 16 0 -16
v 16 10 16
v 16 10 -13
v 16 11 16
v 16 11 -7
v 16 11 -13
v 16 12 16
v 16 12 -7
v 16 12 -13
v 16 12 -16
v -16 0 16
v -16 9 16
v -16 10 16
v -16 11 16
v -16 12 16
v -13 11 16
v -13 12 16
v -12 10 16
v -12 11 16
v -9 10 16
v -9 11 16
v -8 11 16
v -8 12 16
v 2 11 16
v 2 12 16
v 5 11 16
v 5 12 16
v 7 11 16
v 7 12 16
v 8 9 16
v 8 10 16
v 11 11 16
v 11 12 16
v 12 11 16
v 12 12 16
v 15 11 16
v 15 12 16
v 16 0 16
v 16 10 16
v 16 11 16
v 16 12 16
v 7 11 13
v 7 12 13
v 10 11 13
v 10 12 13
v -12 10 10
v -12 11 10
v -10 10 10
v -10 11 10
v -6 10 10
v -6 11 10
v 2 11 10
v 2 12 10
v 5 11 10
v 5 12 10
v -5 11 9
v -5 12 9
v -4 11 9
v -4 12 9
v 12 11 8
v 12 12 8
v 14 11 8
v 14 12 8
v -16 10 4
v -16 11 4
v -12 10 4
v -12 11 4
v -9 11 3
v -9 12 3
v -8 11 3
v -8 12 3
v -11 11 1
v -11 12 1
v -9 11 1
v -9 12 1
v -14 11 -1
v -14 12 -1
v -11 11 -1
v -11 12 -1
v 2 10 -2
v 2 11 -2
v 5 10 -2
v 5 11 -2
v 6 10 -2
v 6 11 -2
v 8 10 -2
v 8 11 -2
v 9 10 -2
v 9 11 -2
v -16 11 -3
v -16 12 -3
v -14 11 -3
v -14 12 -3
v 3 11 -3
v 3 12 -3
v 5 11 -3
v 5 12 -3
v 8 10 -11
v 8 11 -11
v 11 10 -11
v 11 11 -11
v -7 10 -12
v -7 11 -12
v 8 10 -12
v 8 11 -12
v -8 11 -13
v -8 12 -13
v 12 11 -13
v 12 12 -13
v 14 11 -13
v 14 12 -13
v 16 11 -13
v 16 12 -13
v -8 11 15
v -8 12 15
v -4 11 15
v -4 12 15
v -16 11 14
v -16 12 14
v -13 11 14
v -13 12 14
v -9 10 14
v -9 11 14
v -6 10 14
v -6 11 14
v -16 10 13
v -16 11 13
v -12 10 13
v -12 11 13
v 5 11 13
v 5 12 13
v 6 11 13
v 6 12 13
v -1 11 9
v -1 12 9
v 2 11 9
v 2 12 9
v 0 10 8
v 0 11 8
v 1 10 8
v 1 11 8
v 6 11 7
v 6 12 7
v 10 11 7
v 10 12 7
v 2 11 6
v 2 12 6
v 5 11 6
v 5 12 6
v 11 11 6
v 11 12 6
v 12 11 6
v 12 12 6
v 1 10 5
v 1 11 5
v 9 10 5
v 9 11 5
v -5 11 -2
v -5 12 -2
v -1 11 -2
v -1 12 -2
v 8 10 -5
v 8 11 -5
v 11 10 -5
v 11 11 -5
v 3 11 -6
v 3 12 -6
v 5 11 -6
v 5 12 -6
v -7 10 -7
v -7 11 -7
v 0 10 -7
v 0 11 -7
v 2 10 -7
v 2 11 -7
v 6 10 -7
v 6 11 -7
v 15 11 -7
v 15 12 -7
v 16 11 -7
v 16 12 -7
v -16 0 -16
v -16 12 -16
v 16 0 -16
v 16 12 -16
v -16 0 16
v 16 0 16
v -16 0 -16
v 16 0 -16
v -12 10 16
v -9 10 16
v -9 10 14
v -6 10 14
v -16 10 13
v -12 10 13
v -12 10 10
v -10 10 10
v -6 10 10
v -12 10 8
v 0 10 8
v 1 10 8
v 1 10 5
v 9 10 5
v -16 10 4
v -12 10 4
v 2 10 -2
v 5 10 -2
v 6 10 -2
v 8 10 -2
v 9 10 -2
v 6 10 -3
v 8 10 -5
v 11 10 -5
v -7 10 -7
v 0 10 -7
v 2 10 -7
v 6 10 -7
v 8 10 -11
v 11 10 -11
v -7 10 -12
v 8 10 -12
v -13 11 16
v -12 11 16
v -9 11 16
v -8 11 16
v 2 11 16
v 5 11 16
v 7 11 16
v 11 11 16
v 12 11 16
v 15 11 16
v -8 11 15
v -4 11 15
v -16 11 14
v -13 11 14
v -9 11 14
v -6 11 14
v -16 11 13
v -12 11 13
v 5 11 13
v 6 11 13
v 7 11 13
v 10 11 13
v -12 11 10
v -10 11 10
v -6 11 10
v 2 11 10
v 5 11 10
v -11 11 9
v -10 11 9
v -5 11 9
v -4 11 9
v -1 11 9
v 2 11 9
v -12 11 8
v -11 11 8
v 0 11 8
v 1 11 8
v 12 11 8
v 14 11 8
v 6 11 7
v 10 11 7
v 2 11 6
v 5 11 6
v 11 11 6
v 12 11 6
v 1 11 5
v 9 11 5
v -16 11 4
v -12 11 4
v -9 11 3
v -8 11 3
v -11 11 1
v -9 11 1
v -14 11 -1
v -11 11 -1
v -5 11 -2
v -1 11 -2
v 2 11 -2
v 5 11 -2
v 6 11 -2
v 8 11 -2
v 9 11 -2
v -16 11 -3
v -14 11 -3
v 3 11 -3
v 5 11 -3
v 6 11 -3
v 8 11 -5
v 11 11 -5
v 3 11 -6
v 5 11 -6
v -7 11 -7
v 0 11 -7
v 2 11 -7
v 6 11 -7
v 15 11 -7
v 16 11 -7
v 8 11 -11
v 11 11 -11
v -7 11 -12
v 8 11 -12
v -8 11 -13
v 12 11 -13
v 14 11 -13
v 16 11 -13
v -16 12 16
v -13 12 16
v -8 12 16
v 2 12 16
v 5 12 16
v 7 12 16
v 11 12 16
v 12 12 16
v 15 12 16
v 16 12 16
v -8 12 15
v -4 12 15
v -16 12 14
v -13 12 14
v 5 12 13
v 6 12 13
v 7 12 13
v 10 12 13
v 2 12 10
v 5 12 10
v -5 12 9
v -4 12 9
v -1 12 9
v 2 12 9
v 12 12 8
v 14 12 8
v 6 12 7
v 10 12 7
v 2 12 6
v 5 12 6
v 11 12 6
v 12 12 6
v -9 12 3
v -8 12 3
v -11 12 1
v -9 12 1
v -14 12 -1
v -11 12 -1
v -5 12 -2
v -1 12 -2
v -16 12 -3
v -14 12 -3
v 3 12 -3
v 5 12 -3
v 3 12 -6
v 5 12 -6
v 15 12 -7
v 16 12 -7
v -16 12 -8
v -13 12 -8
v -16 12 -11
v -15 12 -11
v -14 12 -11
v -13 12 -11
v -15 12 -12
v -14 12 -12
v -8 12 -13
v 12 12 -13
v 14 12 -13
v 16 12 -13
v -16 12 -16
v 16 12 -16

# faces
f 3/1/1 2/1/1 1/1/1
f 4/1/1 2/1/1 3/1/1
f 5/3/1 4/3/1 3/3/1
f 6/3/1 4/3/1 5/3/1
f 7/3/1 4/3/1 6/3/1
f 8/1/1 2/1/1 4/1/1
f 8/3/1 4/3/1 7/3/1
f 9/1/1 2/1/1 8/1/1
f 10/2/1 6/2/1 5/2/1
f 11/2/1 6/2/1 10/2/1
f 12/2/1 6/2/1 11/2/1
f 13/2/1 9/2/1 8/2/1
f 13/2/1 8/2/1 7/2/1
f 14/2/1 9/2/1 13/2/1
f 15/2/1 9/2/1 14/2/1
f 16/2/1 9/2/1 15/2/1
f 17/1/1 2/1/1 9/1/1
f 17/2/1 9/2/1 16/2/1
f 18/1/1 11/1/1 10/1/1
f 19/1/1 11/1/1 18/1/1
f 20/1/1 15/1/1 14/1/1
f 21/4/1 16/4/1 15/4/1
f 21/1/1 15/1/1 20/1/1
f 22/1/1 17/1/1 16/1/1
f 22/4/1 16/4/1 21/4/1
f 23/1/1 2/1/1 17/1/1
f 23/1/1 17/1/1 22/1/1
f 26/1/1 25/1/1 24/1/1
f 27/1/1 25/1/1 26/1/1
f 31/4/1 29/4/1 28/4/1
f 32/2/1 30/2/1 29/2/1
f 32/4/1 29/4/1 31/4/1
f 33/2/1 30/2/1 32/2/1
f 36/1/1 35/1/1 34/1/1
f 37/1/1 35/1/1 36/1/1
f 40/2/1 39/2/1 38/2/1
f 41/2/1 39/2/1 40/2/1
f 44/1/1 43/1/1 42/1/1
f 45/1/1 43/1/1 44/1/1
f 48/1/1 47/1/1 46/1/1
f 49/1/1 47/1/1 48/1/1
f 52/2/1 51/2/1 50/2/1
f 53/2/1 51/2/1 52/2/1
f 56/1/1 55/1/1 54/1/1
f 57/1/1 55/1/1 56/1/1
f 60/1/1 59/1/1 58/1/1
f 61/1/1 59/1/1 60/1/1
f 64/2/1 63/2/1 62/2/1
f 65/2/1 63/2/1 64/2/1
f 70/2/1 67/2/1 66/2/1
f 71/2/1 67/2/1 70/2/1
f 72/1/1 69/1/1 68/1/1
f 73/1/1 69/1/1 72/1/1
f 76/1/1 75/1/1 74/1/1
f 77/1/1 75/1/1 76/1/1
f 80/1/1 79/1/1 78/1/1
f 81/1/1 79/1/1 80/1/1
f 84/1/1 83/1/1 82/1/1
f 85/1/1 83/1/1 84/1/1
f 90/2/1 87/2/1 86/2/1
f 91/2/1 87/2/1 90/2/1
f 92/2/1 89/2/1 88/2/1
f 93/2/1 89/2/1 92/2/1
f 96/2/1 95/2/1 94/2/1
f 97/2/1 95/2/1 96/2/1
f 102/2/1 99/2/1 98/2/1
f 103/2/1 99/2/1 102/2/1
f 104/1/1 101/1/1 100/1/1
f 105/1/1 101/1/1 104/1/1
f 108/1/1 107/1/1 106/1/1
f 109/1/1 107/1/1 108/1/1
f 112/1/1 111/1/1 110/1/1
f 113/1/1 111/1/1 112/1/1
f 114/1/2 115/1/2 116/1/2
f 116/1/2 115/1/2 117/1/2
f 118/2/2 119/2/2 120/2/2
f 120/2/2 119/2/2 121/2/2
f 122/1/2 123/1/2 124/1/2
f 124/1/2 123/1/2 125/1/2
f 126/2/2 127/2/2 128/2/2
f 128/2/2 127/2/2 129/2/2
f 130/1/2 131/1/2 132/1/2
f 132/1/2 131/1/2 133/1/2
f 134/2/2 135/2/2 136/2/2
f 136/2/2 135/2/2 137/2/2
f 138/1/2 139/1/2 140/1/2
f 140/1/2 139/1/2 141/1/2
f 142/1/2 143/1/2 146/1/2
f 146/1/2 143/1/2 147/1/2
f 144/1/2 145/1/2 148/1/2
f 148/1/2 145/1/2 149/1/2
f 150/4/2 151/4/2 153/4/2
f 151/2/2 152/2/2 154/2/2
f 153/4/2 151/4/2 154/4/2
f 154/2/2 152/2/2 155/2/2
f 156/1/2 157/1/2 158/1/2
f 158/1/2 157/1/2 159/1/2
f 160/1/2 161/1/2 162/1/2
f 162/1/2 161/1/2 163/1/2
f 164/1/2 165/1/2 166/1/2
f 166/1/2 165/1/2 167/1/2
f 168/1/2 169/1/2 170/1/2
f 170/1/2 169/1/2 171/1/2
f 172/1/2 173/1/2 174/1/2
f 174/1/2 173/1/2 175/1/2
f 174/2/2 175/2/2 176/2/2
f 176/2/2 175/2/2 177/2/2
f 175/1/2 173/1/2 178/1/2
f 177/2/2 175/2/2 178/2/2
f 176/1/2 177/1/2 179/1/2
f 179/1/2 177/1/2 180/1/2
f 178/1/2 173/1/2 181/1/2
f 181/1/2 173/1/2 182/1/2
f 188/2/3 186/2/3 185/2/3
f 188/1/3 187/1/3 186/1/3
f 189/1/3 187/1/3 188/1/3
f 190/3/3 185/3/3 184/3/3
f 190/2/3 188/2/3 185/2/3
f 191/2/3 188/2/3 190/2/3
f 192/3/3 190/3/3 184/3/3
f 194/2/3 193/2/3 192/2/3
f 196/2/3 194/2/3 192/2/3
f 196/1/3 195/1/3 194/1/3
f 197/1/3 195/1/3 196/1/3
f 198/2/3 196/2/3 192/2/3
f 200/2/3 198/2/3 192/2/3
f 200/1/3 199/1/3 198/1/3
f 201/1/3 199/1/3 200/1/3
f 202/1/3 184/1/3 183/1/3
f 202/3/3 192/3/3 184/3/3
f 203/2/3 200/2/3 192/2/3
f 203/3/3 192/3/3 202/3/3
f 204/2/3 200/2/3 203/2/3
f 206/2/3 204/2/3 203/2/3
f 206/1/3 205/1/3 204/1/3
f 207/1/3 205/1/3 206/1/3
f 208/2/3 206/2/3 203/2/3
f 210/1/3 202/1/3 183/1/3
f 210/1/3 203/1/3 202/1/3
f 211/2/3 208/2/3 203/2/3
f 211/1/3 203/1/3 210/1/3
f 212/1/3 209/1/3 208/1/3
f 212/2/3 208/2/3 211/2/3
f 213/1/3 209/1/3 212/1/3
f 216/1/3 215/1/3 214/1/3
f 217/1/3 215/1/3 216/1/3
f 220/4/3 219/4/3 218/4/3
f 221/4/3 219/4/3 220/4/3
f 222/2/3 221/2/3 220/2/3
f 223/2/3 221/2/3 222/2/3
f 226/1/3 225/1/3 224/1/3
f 227/1/3 225/1/3 226/1/3
f 230/1/3 229/1/3 228/1/3
f 231/1/3 229/1/3 230/1/3
f 234/1/3 233/1/3 232/1/3
f 235/1/3 233/1/3 234/1/3
f 238/2/3 237/2/3 236/2/3
f 239/2/3 237/2/3 238/2/3
f 242/1/3 241/1/3 240/1/3
f 243/1/3 241/1/3 242/1/3
f 246/1/3 245/1/3 244/1/3
f 247/1/3 245/1/3 246/1/3
f 250/1/3 249/1/3 248/1/3
f 251/1/3 249/1/3 250/1/3
f 254/2/3 253/2/3 252/2/3
f 255/2/3 253/2/3 254/2/3
f 256/4/3 255/4/3 254/4/3
f 257/4/3 255/4/3 256/4/3
f 260/2/3 259/2/3 258/2/3
f 261/2/3 259/2/3 260/2/3
f 264/1/3 263/1/3 262/1/3
f 265/1/3 263/1/3 264/1/3
f 268/1/3 267/1/3 266/1/3
f 269/1/3 267/1/3 268/1/3
f 272/2/3 271/2/3 270/2/3
f 273/2/3 271/2/3 272/2/3
f 276/2/3 275/2/3 274/2/3
f 277/2/3 275/2/3 276/2/3
f 280/1/3 279/1/3 278/1/3
f 281/1/3 279/1/3 280/1/3
f 284/1/3 283/1/3 282/1/3
f 285/1/3 283/1/3 284/1/3
f 286/1/4 287/1/4 288/1/4
f 288/1/4 287/1/4 289/1/4
f 290/1/4 291/1/4 292/1/4
f 292/1/4 291/1/4 293/1/4
f 294/2/4 295/2/4 296/2/4
f 296/2/4 295/2/4 297/2/4
f 298/2/4 299/2/4 300/2/4
f 300/2/4 299/2/4 301/2/4
f 302/1/4 303/1/4 304/1/4
f 304/1/4 303/1/4 305/1/4
f 306/1/4 307/1/4 308/1/4
f 308/1/4 307/1/4 309/1/4
f 310/2/4 311/2/4 312/2/4
f 312/2/4 311/2/4 313/2/4
f 314/1/4 315/1/4 316/1/4
f 316/1/4 315/1/4 317/1/4
f 318/1/4 319/1/4 320/1/4
f 320/1/4 319/1/4 321/1/4
f 322/1/4 323/1/4 324/1/4
f 324/1/4 323/1/4 325/1/4
f 326/2/4 327/2/4 328/2/4
f 328/2/4 327/2/4 329/2/4
f 330/1/4 331/1/4 332/1/4
f 332/1/4 331/1/4 333/1/4
f 334/2/4 335/2/4 336/2/4
f 336/2/4 335/2/4 337/2/4
f 338/1/4 339/1/4 340/1/4
f 340/1/4 339/1/4 341/1/4
f 342/2/4 343/2/4 344/2/4
f 344/2/4 343/2/4 345/2/4
f 346/2/4 347/2/4 348/2/4
f 348/2/4 347/2/4 349/2/4
f 350/1/4 351/1/4 352/1/4
f 352/1/4 351/1/4 353/1/4
f 354/1/4 355/1/4 356/1/4
f 356/1/4 355/1/4 357/1/4
f 360/1/5 359/1/5 358/1/5
f 361/1/5 359/1/5 360/1/5
f 362/3/6 363/3/6 364/3/6
f 362/3/6 364/3/6 367/3/6
f 364/3/6 365/3/6 367/3/6
f 367/3/6 365/3/6 368/3/6
f 366/3/6 367/3/6 368/3/6
f 368/3/6 365/3/6 369/3/6
f 369/3/6 365/3/6 370/3/6
f 366/3/6 368/3/6 371/3/6
f 372/3/6 373/3/6 374/3/6
f 366/3/6 371/3/6 376/3/6
f 376/3/6 371/3/6 377/3/6
f 374/3/6 375/3/6 378/3/6
f 378/3/6 375/3/6 379/3/6
f 379/3/6 375/3/6 380/3/6
f 380/3/6 375/3/6 381/3/6
f 381/3/6 375/3/6 382/3/6
f 380/3/6 381/3/6 383/3/6
f 383/3/6 381/3/6 384/3/6
f 372/3/6 374/3/6 387/3/6
f 374/3/6 378/3/6 387/3/6
f 387/3/6 378/3/6 388/3/6
f 384/3/6 385/3/6 389/3/6
f 383/3/6 384/3/6 389/3/6
f 387/3/6 388/3/6 390/3/6
f 388/3/6 389/3/6 390/3/6
f 389/3/6 385/3/6 390/3/6
f 386/3/6 387/3/6 390/3/6
f 390/3/6 385/3/6 391/3/6
f 386/3/6 390/3/6 392/3/6
f 392/3/6 390/3/6 393/3/6
f 396/2/6 397/2/6 404/2/6
f 394/2/6 395/2/6 407/2/6
f 404/2/6 405/2/6 408/2/6
f 396/2/6 404/2/6 408/2/6
f 408/2/6 405/2/6 409/2/6
f 406/2/6 407/2/6 410/2/6
f 407/2/6 395/2/6 411/2/6
f 410/2/6 407/2/6 411/2/6
f 398/2/6 399/2/6 412/2/6
f 400/2/6 401/2/6 414/2/6
f 414/2/6 401/2/6 415/2/6
f 409/2/6 405/2/6 418/2/6
f 412/2/6 413/2/6 419/2/6
f 398/2/6 412/2/6 419/2/6
f 419/2/6 413/2/6 420/2/6
f 416/4/6 417/4/6 421/4/6
f 417/2/6 418/2/6 422/2/6
f 421/4/6 417/4/6 422/4/6
f 418/2/6 405/2/6 423/2/6
f 422/2/6 418/2/6 423/2/6
f 423/2/6 405/2/6 424/2/6
f 416/4/6 421/4/6 427/4/6
f 421/2/6 422/2/6 428/2/6
f 427/4/6 421/4/6 428/4/6
f 422/2/6 423/2/6 428/2/6
f 425/2/6 426/2/6 429/2/6
f 429/2/6 426/2/6 430/2/6
f 402/2/6 403/2/6 431/2/6
f 431/2/6 403/2/6 432/2/6
f 420/2/6 413/2/6 433/2/6
f 415/2/6 401/2/6 434/2/6
f 430/2/6 426/2/6 435/2/6
f 433/2/6 434/2/6 436/2/6
f 420/2/6 433/2/6 436/2/6
f 434/2/6 401/2/6 437/2/6
f 436/2/6 434/2/6 437/2/6
f 430/2/6 435/2/6 439/2/6
f 437/2/6 438/2/6 439/2/6
f 436/2/6 437/2/6 439/2/6
f 435/2/6 436/2/6 439/2/6
f 439/2/6 438/2/6 440/2/6
f 427/2/6 428/2/6 442/2/6
f 428/2/6 423/2/6 443/2/6
f 441/2/6 442/2/6 443/2/6
f 442/2/6 428/2/6 443/2/6
f 443/2/6 423/2/6 444/2/6
f 441/2/6 443/2/6 445/2/6
f 445/2/6 443/2/6 446/2/6
f 441/2/6 445/2/6 447/2/6
f 447/2/6 445/2/6 448/2/6
f 444/2/6 423/2/6 449/2/6
f 425/2/6 429/2/6 450/2/6
f 440/2/6 438/2/6 455/2/6
f 441/2/6 447/2/6 456/2/6
f 456/2/6 447/2/6 457/2/6
f 451/2/6 452/2/6 458/2/6
f 452/4/6 453/4/6 459/4/6
f 458/2/6 452/2/6 459/2/6
f 459/4/6 453/4/6 460/4/6
f 454/2/6 455/2/6 461/2/6
f 455/2/6 438/2/6 462/2/6
f 461/2/6 455/2/6 462/2/6
f 451/2/6 458/2/6 463/2/6
f 459/2/6 460/2/6 464/2/6
f 444/2/6 449/2/6 465/2/6
f 449/2/6 450/2/6 465/2/6
f 450/2/6 429/2/6 466/2/6
f 465/2/6 450/2/6 466/2/6
f 463/2/6 464/2/6 467/2/6
f 451/2/6 463/2/6 467/2/6
f 464/2/6 460/2/6 468/2/6
f 467/2/6 464/2/6 468/2/6
f 432/2/6 403/2/6 469/2/6
f 462/2/6 438/2/6 472/2/6
f 444/2/6 465/2/6 473/2/6
f 471/2/6 472/2/6 474/2/6
f 444/2/6 473/2/6 475/2/6
f 473/2/6 474/2/6 475/2/6
f 474/2/6 472/2/6 476/2/6
f 475/2/6 474/2/6 476/2/6
f 472/2/6 438/2/6 476/2/6
f 469/2/6 470/2/6 477/2/6
f 432/2/6 469/2/6 477/2/6
f 477/2/6 470/2/6 478/2/6
f 481/1/6 482/1/6 489/1/6
f 489/1/6 482/1/6 490/1/6
f 479/1/6 480/1/6 491/1/6
f 491/1/6 480/1/6 492/1/6
f 483/1/6 484/1/6 493/1/6
f 493/1/6 484/1/6 494/1/6
f 494/1/6 484/1/6 495/1/6
f 490/1/6 482/1/6 497/1/6
f 490/1/6 497/1/6 500/1/6
f 497/1/6 498/1/6 500/1/6
f 500/1/6 498/1/6 501/1/6
f 501/1/6 498/1/6 502/1/6
f 485/1/6 486/1/6 503/1/6
f 495/1/6 496/1/6 505/1/6
f 494/1/6 495/1/6 505/1/6
f 505/1/6 496/1/6 506/1/6
f 502/1/6 498/1/6 507/1/6
f 507/1/6 498/1/6 508/1/6
f 503/1/6 504/1/6 509/1/6
f 485/1/6 503/1/6 509/1/6
f 509/1/6 504/1/6 510/1/6
f 511/1/6 512/1/6 514/1/6
f 513/1/6 514/1/6 516/1/6
f 499/1/6 500/1/6 517/1/6
f 500/1/6 501/1/6 517/1/6
f 517/1/6 501/1/6 518/1/6
f 515/1/6 516/1/6 520/1/6
f 521/1/6 522/1/6 523/1/6
f 523/1/6 522/1/6 524/1/6
f 487/1/6 488/1/6 525/1/6
f 525/1/6 488/1/6 526/1/6
f 519/1/6 520/1/6 527/1/6
f 520/1/6 516/1/6 528/1/6
f 527/1/6 520/1/6 528/1/6
f 527/4/6 528/4/6 529/4/6
f 529/4/6 528/4/6 530/4/6
f 530/4/6 528/4/6 531/4/6
f 528/1/6 516/1/6 532/1/6
f 531/4/6 528/4/6 532/4/6
f 530/4/6 531/4/6 533/4/6
f 529/1/6 530/1/6 533/1/6
f 531/1/6 532/1/6 534/1/6
f 533/4/6 531/4/6 534/4/6
f 516/1/6 514/1/6 535/1/6
f 534/1/6 532/1/6 535/1/6
f 533/1/6 534/1/6 535/1/6
f 514/1/6 512/1/6 535/1/6
f 532/1/6 516/1/6 535/1/6
f 510/1/6 504/1/6 536/1/6
f 536/1/6 504/1/6 537/1/6
f 533/1/6 535/1/6 539/1/6
f 537/1/6 538/1/6 539/1/6
f 536/1/6 537/1/6 539/1/6
f 535/1/6 536/1/6 539/1/6
f 529/1/6 533/1/6 539/1/6
f 539/1/6 538/1/6 540/1/6
