# MagicaVoxel @ Ephtracy

# group
g ClayTile2.3

# material
mtllib ClayTile2.3.mtl
usemtl palette

# normals
vn -1 0 0
vn 1 0 0
vn 0 0 1
vn 0 0 -1
vn 0 -1 0
vn 0 1 0

# texcoords
vt 0.396484 0.5
vt 0.541016 0.5
vt 0.544922 0.5
vt 0.982422 0.5

# verts
v -16 0 16
v -16 0 -16
v -16 10 1
v -16 10 -14
v -16 11 1
v -16 11 -14
v -16 12 16
v -16 12 1
v -16 12 -14
v -16 12 -16
v -14 11 1
v -14 11 -9
v -14 12 1
v -14 12 -9
v -4 10 -10
v -4 10 -13
v -4 11 -10
v -4 11 -13
v -3 10 -9
v -3 10 -10
v -3 11 -9
v -3 11 -10
v -3 11 -11
v -3 11 -14
v -3 12 -11
v -3 12 -14
v -1 10 8
v -1 10 7
v -1 11 8
v -1 11 7
v -1 11 4
v -1 11 3
v -1 12 4
v -1 12 3
v 0 10 9
v 0 10 8
v 0 11 9
v 0 11 8
v 0 11 5
v 0 11 4
v 0 12 5
v 0 12 4
v 1 10 10
v 1 10 9
v 1 10 -3
v 1 10 -9
v 1 11 10
v 1 11 9
v 1 11 -3
v 1 11 -9
v 2 10 16
v 2 10 10
v 2 11 16
v 2 11 10
v 2 11 6
v 2 11 5
v 2 11 -1
v 2 11 -11
v 2 12 6
v 2 12 5
v 2 12 -1
v 2 12 -11
v 3 11 7
v 3 11 6
v 3 12 7
v 3 12 6
v 4 11 16
v 4 11 7
v 4 12 16
v 4 12 7
v 9 10 6
v 9 10 5
v 9 11 6
v 9 11 5
v 10 10 5
v 10 10 4
v 10 11 5
v 10 11 4
v 11 10 4
v 11 10 3
v 11 11 4
v 11 11 3
v 12 10 3
v 12 10 -0
v 12 11 7
v 12 11 6
v 12 11 3
v 12 11 -0
v 12 12 7
v 12 12 6
v 13 10 -0
v 13 10 -4
v 13 11 -0
v 13 11 -4
v 14 11 6
v 14 11 5
v 14 11 -4
v 14 11 -5
v 14 12 6
v 14 12 5
v 14 12 -4
v 14 12 -5
v 15 11 -3
v 15 11 -4
v 15 12 -3
v 15 12 -4
v -11 10 -10
v -11 10 -13
v -11 11 16
v -11 11 8
v -11 11 -10
v -11 11 -13
v -11 12 16
v -11 12 8
v -10 11 8
v -10 11 7
v -10 12 8
v -10 12 7
v -9 10 16
v -9 10 10
v -9 11 16
v -9 11 10
v -9 11 7
v -9 11 6
v -9 12 7
v -9 12 6
v -8 10 10
v -8 10 9
v -8 11 10
v -8 11 9
v -8 11 6
v -8 11 5
v -8 12 6
v -8 12 5
v -7 10 9
v -7 10 8
v -7 11 9
v -7 11 8
v -6 10 8
v -6 10 7
v -6 11 8
v -6 11 7
v -6 11 5
v -6 11 4
v -6 11 -5
v -6 11 -9
v -6 12 5
v -6 12 4
v -6 12 -5
v -6 12 -9
v -5 10 -6
v -5 10 -10
v -5 11 4
v -5 11 3
v -5 11 -6
v -5 11 -10
v -5 12 4
v -5 12 3
v -1 11 -1
v -1 11 -5
v -1 12 -1
v -1 12 -5
v 0 10 -3
v 0 10 -6
v 0 11 -3
v 0 11 -6
v 5 11 6
v 5 11 1
v 5 12 6
v 5 12 1
v 6 10 5
v 6 10 2
v 6 11 16
v 6 11 12
v 6 11 7
v 6 11 6
v 6 11 5
v 6 11 2
v 6 11 1
v 6 11 -0
v 6 12 16
v 6 12 12
v 6 12 7
v 6 12 6
v 6 12 1
v 6 12 -0
v 7 10 6
v 7 10 5
v 7 10 2
v 7 10 1
v 7 11 6
v 7 11 5
v 7 11 2
v 7 11 1
v 7 11 -0
v 7 11 -4
v 7 12 -0
v 7 12 -4
v 8 10 1
v 8 10 -3
v 8 11 1
v 8 11 -3
v 9 11 -15
v 9 11 -16
v 9 12 -15
v 9 12 -16
v 11 11 -4
v 11 11 -5
v 11 12 -4
v 11 12 -5
v 12 10 -3
v 12 10 -4
v 12 11 -3
v 12 11 -4
v 13 11 -14
v 13 11 -15
v 13 12 -14
v 13 12 -15
v 15 11 -13
v 15 11 -14
v 15 12 -13
v 15 12 -14
v 16 0 16
v 16 0 -16
v 16 10 16
v 16 10 -16
v 16 11 16
v 16 11 12
v 16 11 5
v 16 11 -3
v 16 11 -4
v 16 11 -13
v 16 11 -16
v 16 12 12
v 16 12 5
v 16 12 -3
v 16 12 -4
v 16 12 -13
v -16 0 16
v -16 12 16
v -11 10 16
v -11 11 16
v -11 12 16
v -9 9 16
v -9 10 16
v -9 11 16
v 2 9 16
v 2 10 16
v 2 11 16
v 4 11 16
v 4 12 16
v 6 11 16
v 6 12 16
v 16 0 16
v 16 10 16
v 16 11 16
v 6 11 12
v 6 12 12
v 16 11 12
v 16 12 12
v -9 10 10
v -9 11 10
v -8 10 10
v -8 11 10
v 1 10 10
v 1 11 10
v 2 10 10
v 2 11 10
v -8 10 9
v -8 11 9
v -7 10 9
v -7 11 9
v 0 10 9
v 0 11 9
v 1 10 9
v 1 11 9
v -11 11 8
v -11 12 8
v -10 11 8
v -10 12 8
v -7 10 8
v -7 11 8
v -6 10 8
v -6 11 8
v -1 10 8
v -1 11 8
v 0 10 8
v 0 11 8
v -10 11 7
v -10 12 7
v -9 11 7
v -9 12 7
v -6 10 7
v -6 11 7
v -1 10 7
v -1 11 7
v 3 11 7
v 3 12 7
v 4 11 7
v 4 12 7
v -9 11 6
v -9 12 6
v -8 11 6
v -8 12 6
v 2 11 6
v 2 12 6
v 3 11 6
v 3 12 6
v -8 11 5
v -8 12 5
v -6 11 5
v -6 12 5
v 0 11 5
v 0 12 5
v 2 11 5
v 2 12 5
v -6 11 4
v -6 12 4
v -5 11 4
v -5 12 4
v -1 11 4
v -1 12 4
v 0 11 4
v 0 12 4
v -5 11 3
v -5 12 3
v -1 11 3
v -1 12 3
v 6 10 2
v 6 11 2
v 7 10 2
v 7 11 2
v 5 11 1
v 5 12 1
v 6 11 1
v 6 12 1
v 7 10 1
v 7 11 1
v 8 10 1
v 8 11 1
v 6 11 -0
v 6 12 -0
v 7 11 -0
v 7 12 -0
v 8 10 -3
v 8 11 -3
v 12 10 -3
v 12 11 -3
v 15 11 -3
v 15 12 -3
v 16 11 -3
v 16 12 -3
v 7 11 -4
v 7 12 -4
v 11 11 -4
v 11 12 -4
v 12 10 -4
v 12 11 -4
v 13 10 -4
v 13 11 -4
v 14 11 -4
v 14 12 -4
v 15 11 -4
v 15 12 -4
v 11 11 -5
v 11 12 -5
v 14 11 -5
v 14 12 -5
v -3 10 -9
v -3 11 -9
v 1 10 -9
v 1 11 -9
v -4 10 -10
v -4 11 -10
v -3 10 -10
v -3 11 -10
v -3 11 -11
v -3 12 -11
v 2 11 -11
v 2 12 -11
v -11 10 -13
v -11 11 -13
v -4 10 -13
v -4 11 -13
v -16 11 -14
v -16 12 -14
v -3 11 -14
v -3 12 -14
v 6 11 7
v 6 12 7
v 12 11 7
v 12 12 7
v 5 11 6
v 5 12 6
v 6 11 6
v 6 12 6
v 7 10 6
v 7 11 6
v 9 10 6
v 9 11 6
v 12 11 6
v 12 12 6
v 14 11 6
v 14 12 6
v 6 10 5
v 6 11 5
v 7 10 5
v 7 11 5
v 9 10 5
v 9 11 5
v 10 10 5
v 10 11 5
v 14 11 5
v 14 12 5
v 16 11 5
v 16 12 5
v 10 10 4
v 10 11 4
v 11 10 4
v 11 11 4
v 11 10 3
v 11 11 3
v 12 10 3
v 12 11 3
v -16 11 1
v -16 12 1
v -14 11 1
v -14 12 1
v 12 10 -0
v 12 11 -0
v 13 10 -0
v 13 11 -0
v -1 11 -1
v -1 12 -1
v 2 11 -1
v 2 12 -1
v 0 10 -3
v 0 11 -3
v 1 10 -3
v 1 11 -3
v -6 11 -5
v -6 12 -5
v -1 11 -5
v -1 12 -5
v -5 10 -6
v -5 11 -6
v 0 10 -6
v 0 11 -6
v -14 11 -9
v -14 12 -9
v -6 11 -9
v -6 12 -9
v -11 10 -10
v -11 11 -10
v -5 10 -10
v -5 11 -10
v 15 11 -13
v 15 12 -13
v 16 11 -13
v 16 12 -13
v 13 11 -14
v 13 12 -14
v 15 11 -14
v 15 12 -14
v 9 11 -15
v 9 12 -15
v 13 11 -15
v 13 12 -15
v -16 0 -16
v -16 12 -16
v -11 10 -16
v -11 11 -16
v 9 11 -16
v 9 12 -16
v 16 0 -16
v 16 10 -16
v 16 11 -16
v -16 0 16
v 16 0 16
v -16 0 -16
v 16 0 -16
v -9 10 16
v 2 10 16
v -9 10 10
v -8 10 10
v 1 10 10
v 2 10 10
v -8 10 9
v -7 10 9
v 0 10 9
v 1 10 9
v -7 10 8
v -6 10 8
v -1 10 8
v 0 10 8
v -6 10 7
v -1 10 7
v 7 10 6
v 9 10 6
v 6 10 5
v 7 10 5
v 9 10 5
v 10 10 5
v 10 10 4
v 11 10 4
v 11 10 3
v 12 10 3
v 6 10 2
v 7 10 2
v 7 10 1
v 8 10 1
v 12 10 -0
v 13 10 -0
v 0 10 -3
v 1 10 -3
v 8 10 -3
v 12 10 -3
v 12 10 -4
v 13 10 -4
v -5 10 -6
v 0 10 -6
v -3 10 -9
v 1 10 -9
v -11 10 -10
v -5 10 -10
v -4 10 -10
v -3 10 -10
v -11 10 -13
v -4 10 -13
v -11 11 16
v -9 11 16
v 2 11 16
v 4 11 16
v 6 11 16
v 16 11 16
v 6 11 12
v 16 11 12
v -9 11 10
v -8 11 10
v 1 11 10
v 2 11 10
v -8 11 9
v -7 11 9
v 0 11 9
v 1 11 9
v -11 11 8
v -10 11 8
v -7 11 8
v -6 11 8
v -1 11 8
v 0 11 8
v -10 11 7
v -9 11 7
v -6 11 7
v -1 11 7
v 3 11 7
v 4 11 7
v 6 11 7
v 12 11 7
v -9 11 6
v -8 11 6
v 2 11 6
v 3 11 6
v 5 11 6
v 6 11 6
v 7 11 6
v 9 11 6
v 12 11 6
v 14 11 6
v -8 11 5
v -6 11 5
v 0 11 5
v 2 11 5
v 6 11 5
v 7 11 5
v 9 11 5
v 10 11 5
v 14 11 5
v 16 11 5
v -6 11 4
v -5 11 4
v -1 11 4
v 0 11 4
v 10 11 4
v 11 11 4
v -5 11 3
v -1 11 3
v 11 11 3
v 12 11 3
v 6 11 2
v 7 11 2
v -16 11 1
v -14 11 1
v 5 11 1
v 6 11 1
v 7 11 1
v 8 11 1
v 6 11 -0
v 7 11 -0
v 12 11 -0
v 13 11 -0
v -1 11 -1
v 2 11 -1
v 0 11 -3
v 1 11 -3
v 8 11 -3
v 12 11 -3
v 15 11 -3
v 16 11 -3
v 7 11 -4
v 11 11 -4
v 12 11 -4
v 13 11 -4
v 14 11 -4
v 15 11 -4
v -6 11 -5
v -1 11 -5
v 11 11 -5
v 14 11 -5
v -5 11 -6
v 0 11 -6
v -14 11 -9
v -6 11 -9
v -3 11 -9
v 1 11 -9
v -11 11 -10
v -5 11 -10
v -4 11 -10
v -3 11 -10
v -3 11 -11
v 2 11 -11
v -11 11 -13
v -4 11 -13
v 15 11 -13
v 16 11 -13
v -16 11 -14
v -3 11 -14
v 13 11 -14
v 15 11 -14
v 9 11 -15
v 13 11 -15
v 9 11 -16
v 16 11 -16
v -16 12 16
v -11 12 16
v 4 12 16
v 6 12 16
v 6 12 12
v 16 12 12
v -11 12 8
v -10 12 8
v -10 12 7
v -9 12 7
v 3 12 7
v 4 12 7
v 6 12 7
v 12 12 7
v -9 12 6
v -8 12 6
v 2 12 6
v 3 12 6
v 5 12 6
v 6 12 6
v 12 12 6
v 14 12 6
v -8 12 5
v -6 12 5
v 0 12 5
v 2 12 5
v 14 12 5
v 16 12 5
v -6 12 4
v -5 12 4
v -1 12 4
v 0 12 4
v -5 12 3
v -1 12 3
v -16 12 1
v -14 12 1
v 5 12 1
v 6 12 1
v 6 12 -0
v 7 12 -0
v -1 12 -1
v 2 12 -1
v 15 12 -3
v 16 12 -3
v 7 12 -4
v 11 12 -4
v 14 12 -4
v 15 12 -4
v 16 12 -4
v -6 12 -5
v -1 12 -5
v 11 12 -5
v 14 12 -5
v -14 12 -9
v -6 12 -9
v -3 12 -11
v 2 12 -11
v 15 12 -13
v 16 12 -13
v -16 12 -14
v -3 12 -14
v 13 12 -14
v 15 12 -14
v 9 12 -15
v 13 12 -15
v -16 12 -16
v 9 12 -16

# faces
f 3/1/1 2/1/1 1/1/1
f 4/1/1 2/1/1 3/1/1
f 5/1/1 3/1/1 1/1/1
f 5/2/1 4/2/1 3/2/1
f 6/1/1 2/1/1 4/1/1
f 6/2/1 4/2/1 5/2/1
f 7/1/1 5/1/1 1/1/1
f 8/1/1 5/1/1 7/1/1
f 9/1/1 2/1/1 6/1/1
f 10/1/1 2/1/1 9/1/1
f 13/1/1 12/1/1 11/1/1
f 14/1/1 12/1/1 13/1/1
f 17/2/1 16/2/1 15/2/1
f 18/2/1 16/2/1 17/2/1
f 21/2/1 20/2/1 19/2/1
f 22/2/1 20/2/1 21/2/1
f 25/1/1 24/1/1 23/1/1
f 26/1/1 24/1/1 25/1/1
f 29/2/1 28/2/1 27/2/1
f 30/2/1 28/2/1 29/2/1
f 33/1/1 32/1/1 31/1/1
f 34/1/1 32/1/1 33/1/1
f 37/2/1 36/2/1 35/2/1
f 38/2/1 36/2/1 37/2/1
f 41/1/1 40/1/1 39/1/1
f 42/1/1 40/1/1 41/1/1
f 47/2/1 44/2/1 43/2/1
f 48/2/1 44/2/1 47/2/1
f 49/2/1 46/2/1 45/2/1
f 50/2/1 46/2/1 49/2/1
f 53/2/1 52/2/1 51/2/1
f 54/2/1 52/2/1 53/2/1
f 59/1/1 56/1/1 55/1/1
f 60/1/1 56/1/1 59/1/1
f 61/1/1 58/1/1 57/1/1
f 62/1/1 58/1/1 61/1/1
f 65/1/1 64/1/1 63/1/1
f 66/1/1 64/1/1 65/1/1
f 69/1/1 68/1/1 67/1/1
f 70/1/1 68/1/1 69/1/1
f 73/2/1 72/2/1 71/2/1
f 74/2/1 72/2/1 73/2/1
f 77/2/1 76/2/1 75/2/1
f 78/2/1 76/2/1 77/2/1
f 81/2/1 80/2/1 79/2/1
f 82/2/1 80/2/1 81/2/1
f 87/2/1 84/2/1 83/2/1
f 88/2/1 84/2/1 87/2/1
f 89/1/1 86/1/1 85/1/1
f 90/1/1 86/1/1 89/1/1
f 93/2/1 92/2/1 91/2/1
f 94/2/1 92/2/1 93/2/1
f 99/1/1 96/1/1 95/1/1
f 100/1/1 96/1/1 99/1/1
f 101/1/1 98/1/1 97/1/1
f 102/1/1 98/1/1 101/1/1
f 105/4/1 104/4/1 103/4/1
f 106/4/1 104/4/1 105/4/1
f 107/2/2 108/2/2 111/2/2
f 111/2/2 108/2/2 112/2/2
f 109/1/2 110/1/2 113/1/2
f 113/1/2 110/1/2 114/1/2
f 115/1/2 116/1/2 117/1/2
f 117/1/2 116/1/2 118/1/2
f 119/2/2 120/2/2 121/2/2
f 121/2/2 120/2/2 122/2/2
f 123/1/2 124/1/2 125/1/2
f 125/1/2 124/1/2 126/1/2
f 127/2/2 128/2/2 129/2/2
f 129/2/2 128/2/2 130/2/2
f 131/1/2 132/1/2 133/1/2
f 133/1/2 132/1/2 134/1/2
f 135/2/2 136/2/2 137/2/2
f 137/2/2 136/2/2 138/2/2
f 139/2/2 140/2/2 141/2/2
f 141/2/2 140/2/2 142/2/2
f 143/1/2 144/1/2 147/1/2
f 147/1/2 144/1/2 148/1/2
f 145/1/2 146/1/2 149/1/2
f 149/1/2 146/1/2 150/1/2
f 151/2/2 152/2/2 155/2/2
f 155/2/2 152/2/2 156/2/2
f 153/1/2 154/1/2 157/1/2
f 157/1/2 154/1/2 158/1/2
f 159/1/2 160/1/2 161/1/2
f 161/1/2 160/1/2 162/1/2
f 163/2/2 164/2/2 165/2/2
f 165/2/2 164/2/2 166/2/2
f 167/1/2 168/1/2 169/1/2
f 169/1/2 168/1/2 170/1/2
f 171/2/2 172/2/2 177/2/2
f 177/2/2 172/2/2 178/2/2
f 173/1/2 174/1/2 181/1/2
f 181/1/2 174/1/2 182/1/2
f 175/1/2 176/1/2 183/1/2
f 183/1/2 176/1/2 184/1/2
f 179/1/2 180/1/2 185/1/2
f 185/1/2 180/1/2 186/1/2
f 187/2/2 188/2/2 191/2/2
f 191/2/2 188/2/2 192/2/2
f 189/2/2 190/2/2 193/2/2
f 193/2/2 190/2/2 194/2/2
f 195/1/2 196/1/2 197/1/2
f 197/1/2 196/1/2 198/1/2
f 199/2/2 200/2/2 201/2/2
f 201/2/2 200/2/2 202/2/2
f 203/1/2 204/1/2 205/1/2
f 205/1/2 204/1/2 206/1/2
f 207/1/2 208/1/2 209/1/2
f 209/1/2 208/1/2 210/1/2
f 211/2/2 212/2/2 213/2/2
f 213/2/2 212/2/2 214/2/2
f 215/1/2 216/1/2 217/1/2
f 217/1/2 216/1/2 218/1/2
f 219/1/2 220/1/2 221/1/2
f 221/1/2 220/1/2 222/1/2
f 223/1/2 224/1/2 225/1/2
f 225/1/2 224/1/2 226/1/2
f 225/2/2 226/2/2 227/2/2
f 227/2/2 226/2/2 228/2/2
f 228/2/2 226/2/2 229/2/2
f 229/2/2 226/2/2 230/2/2
f 230/2/2 226/2/2 231/2/2
f 231/2/2 226/2/2 232/2/2
f 232/2/2 226/2/2 233/2/2
f 228/1/2 229/1/2 234/1/2
f 234/1/2 229/1/2 235/1/2
f 230/4/2 231/4/2 236/4/2
f 231/1/2 232/1/2 237/1/2
f 236/4/2 231/4/2 237/4/2
f 237/1/2 232/1/2 238/1/2
f 241/1/3 240/1/3 239/1/3
f 242/1/3 240/1/3 241/1/3
f 243/1/3 240/1/3 242/1/3
f 244/1/3 241/1/3 239/1/3
f 245/2/3 242/2/3 241/2/3
f 245/1/3 241/1/3 244/1/3
f 246/2/3 242/2/3 245/2/3
f 247/1/3 244/1/3 239/1/3
f 247/3/3 245/3/3 244/3/3
f 248/3/3 245/3/3 247/3/3
f 250/2/3 249/2/3 248/2/3
f 252/2/3 250/2/3 248/2/3
f 252/1/3 251/1/3 250/1/3
f 253/1/3 251/1/3 252/1/3
f 254/1/3 248/1/3 247/1/3
f 254/1/3 247/1/3 239/1/3
f 255/2/3 252/2/3 248/2/3
f 255/1/3 248/1/3 254/1/3
f 256/2/3 252/2/3 255/2/3
f 259/1/3 258/1/3 257/1/3
f 260/1/3 258/1/3 259/1/3
f 263/2/3 262/2/3 261/2/3
f 264/2/3 262/2/3 263/2/3
f 267/2/3 266/2/3 265/2/3
f 268/2/3 266/2/3 267/2/3
f 271/2/3 270/2/3 269/2/3
f 272/2/3 270/2/3 271/2/3
f 275/2/3 274/2/3 273/2/3
f 276/2/3 274/2/3 275/2/3
f 279/1/3 278/1/3 277/1/3
f 280/1/3 278/1/3 279/1/3
f 283/2/3 282/2/3 281/2/3
f 284/2/3 282/2/3 283/2/3
f 287/2/3 286/2/3 285/2/3
f 288/2/3 286/2/3 287/2/3
f 291/1/3 290/1/3 289/1/3
f 292/1/3 290/1/3 291/1/3
f 295/2/3 294/2/3 293/2/3
f 296/2/3 294/2/3 295/2/3
f 299/1/3 298/1/3 297/1/3
f 300/1/3 298/1/3 299/1/3
f 303/1/3 302/1/3 301/1/3
f 304/1/3 302/1/3 303/1/3
f 307/1/3 306/1/3 305/1/3
f 308/1/3 306/1/3 307/1/3
f 311/1/3 310/1/3 309/1/3
f 312/1/3 310/1/3 311/1/3
f 315/1/3 314/1/3 313/1/3
f 316/1/3 314/1/3 315/1/3
f 319/1/3 318/1/3 317/1/3
f 320/1/3 318/1/3 319/1/3
f 323/1/3 322/1/3 321/1/3
f 324/1/3 322/1/3 323/1/3
f 327/1/3 326/1/3 325/1/3
f 328/1/3 326/1/3 327/1/3
f 331/2/3 330/2/3 329/2/3
f 332/2/3 330/2/3 331/2/3
f 335/1/3 334/1/3 333/1/3
f 336/1/3 334/1/3 335/1/3
f 339/2/3 338/2/3 337/2/3
f 340/2/3 338/2/3 339/2/3
f 343/1/3 342/1/3 341/1/3
f 344/1/3 342/1/3 343/1/3
f 347/2/3 346/2/3 345/2/3
f 348/2/3 346/2/3 347/2/3
f 351/4/3 350/4/3 349/4/3
f 352/4/3 350/4/3 351/4/3
f 355/1/3 354/1/3 353/1/3
f 356/1/3 354/1/3 355/1/3
f 359/2/3 358/2/3 357/2/3
f 360/2/3 358/2/3 359/2/3
f 363/1/3 362/1/3 361/1/3
f 364/1/3 362/1/3 363/1/3
f 367/1/3 366/1/3 365/1/3
f 368/1/3 366/1/3 367/1/3
f 371/2/3 370/2/3 369/2/3
f 372/2/3 370/2/3 371/2/3
f 375/2/3 374/2/3 373/2/3
f 376/2/3 374/2/3 375/2/3
f 379/1/3 378/1/3 377/1/3
f 380/1/3 378/1/3 379/1/3
f 383/2/3 382/2/3 381/2/3
f 384/2/3 382/2/3 383/2/3
f 387/1/3 386/1/3 385/1/3
f 388/1/3 386/1/3 387/1/3
f 389/1/4 390/1/4 391/1/4
f 391/1/4 390/1/4 392/1/4
f 393/1/4 394/1/4 395/1/4
f 395/1/4 394/1/4 396/1/4
f 397/2/4 398/2/4 399/2/4
f 399/2/4 398/2/4 400/2/4
f 401/1/4 402/1/4 403/1/4
f 403/1/4 402/1/4 404/1/4
f 405/2/4 406/2/4 407/2/4
f 407/2/4 406/2/4 408/2/4
f 409/2/4 410/2/4 411/2/4
f 411/2/4 410/2/4 412/2/4
f 413/1/4 414/1/4 415/1/4
f 415/1/4 414/1/4 416/1/4
f 417/2/4 418/2/4 419/2/4
f 419/2/4 418/2/4 420/2/4
f 421/2/4 422/2/4 423/2/4
f 423/2/4 422/2/4 424/2/4
f 425/1/4 426/1/4 427/1/4
f 427/1/4 426/1/4 428/1/4
f 429/2/4 430/2/4 431/2/4
f 431/2/4 430/2/4 432/2/4
f 433/1/4 434/1/4 435/1/4
f 435/1/4 434/1/4 436/1/4
f 437/2/4 438/2/4 439/2/4
f 439/2/4 438/2/4 440/2/4
f 441/1/4 442/1/4 443/1/4
f 443/1/4 442/1/4 444/1/4
f 445/2/4 446/2/4 447/2/4
f 447/2/4 446/2/4 448/2/4
f 449/1/4 450/1/4 451/1/4
f 451/1/4 450/1/4 452/1/4
f 453/2/4 454/2/4 455/2/4
f 455/2/4 454/2/4 456/2/4
f 457/1/4 458/1/4 459/1/4
f 459/1/4 458/1/4 460/1/4
f 461/1/4 462/1/4 463/1/4
f 463/1/4 462/1/4 464/1/4
f 465/1/4 466/1/4 467/1/4
f 467/1/4 466/1/4 468/1/4
f 469/1/4 470/1/4 471/1/4
f 471/1/4 470/1/4 472/1/4
f 471/2/4 472/2/4 473/2/4
f 472/1/4 470/1/4 473/1/4
f 473/1/4 470/1/4 474/1/4
f 469/1/4 471/1/4 475/1/4
f 471/2/4 473/2/4 476/2/4
f 475/1/4 471/1/4 476/1/4
f 476/2/4 473/2/4 477/2/4
f 480/1/5 479/1/5 478/1/5
f 481/1/5 479/1/5 480/1/5
f 482/3/6 483/3/6 484/3/6
f 484/3/6 483/3/6 485/3/6
f 485/3/6 483/3/6 486/3/6
f 486/3/6 483/3/6 487/3/6
f 485/3/6 486/3/6 488/3/6
f 488/3/6 486/3/6 489/3/6
f 489/3/6 486/3/6 490/3/6
f 490/3/6 486/3/6 491/3/6
f 489/3/6 490/3/6 492/3/6
f 492/3/6 490/3/6 493/3/6
f 493/3/6 490/3/6 494/3/6
f 494/3/6 490/3/6 495/3/6
f 493/3/6 494/3/6 496/3/6
f 496/3/6 494/3/6 497/3/6
f 498/3/6 499/3/6 501/3/6
f 501/3/6 499/3/6 502/3/6
f 500/3/6 501/3/6 504/3/6
f 502/3/6 503/3/6 504/3/6
f 501/3/6 502/3/6 504/3/6
f 504/3/6 505/3/6 506/3/6
f 500/3/6 504/3/6 508/3/6
f 506/3/6 507/3/6 508/3/6
f 504/3/6 506/3/6 508/3/6
f 508/3/6 507/3/6 509/3/6
f 509/3/6 507/3/6 510/3/6
f 510/3/6 507/3/6 511/3/6
f 511/3/6 507/3/6 512/3/6
f 511/3/6 512/3/6 516/3/6
f 512/3/6 513/3/6 516/3/6
f 516/3/6 513/3/6 517/3/6
f 517/3/6 513/3/6 518/3/6
f 518/3/6 513/3/6 519/3/6
f 514/3/6 515/3/6 521/3/6
f 520/3/6 521/3/6 522/3/6
f 521/3/6 515/3/6 523/3/6
f 522/3/6 521/3/6 523/3/6
f 520/3/6 522/3/6 525/3/6
f 525/3/6 522/3/6 526/3/6
f 526/3/6 522/3/6 527/3/6
f 524/3/6 525/3/6 528/3/6
f 525/3/6 526/3/6 528/3/6
f 528/3/6 526/3/6 529/3/6
f 534/2/6 535/2/6 536/2/6
f 536/2/6 535/2/6 537/2/6
f 530/2/6 531/2/6 538/2/6
f 532/2/6 533/2/6 541/2/6
f 538/2/6 539/2/6 542/2/6
f 540/2/6 541/2/6 545/2/6
f 542/2/6 543/2/6 546/2/6
f 530/2/6 538/2/6 546/2/6
f 538/2/6 542/2/6 546/2/6
f 546/2/6 543/2/6 547/2/6
f 547/2/6 543/2/6 548/2/6
f 544/2/6 545/2/6 551/2/6
f 548/2/6 549/2/6 552/2/6
f 547/2/6 548/2/6 552/2/6
f 552/2/6 549/2/6 553/2/6
f 553/2/6 549/2/6 554/2/6
f 550/2/6 551/2/6 555/2/6
f 545/2/6 541/2/6 556/2/6
f 541/2/6 533/2/6 556/2/6
f 555/2/6 551/2/6 556/2/6
f 551/2/6 545/2/6 556/2/6
f 556/2/6 533/2/6 557/2/6
f 553/2/6 554/2/6 560/2/6
f 554/2/6 555/2/6 560/2/6
f 555/2/6 556/2/6 560/2/6
f 560/2/6 556/2/6 561/2/6
f 561/2/6 556/2/6 562/2/6
f 562/2/6 556/2/6 563/2/6
f 558/2/6 559/2/6 565/2/6
f 565/2/6 559/2/6 566/2/6
f 566/2/6 559/2/6 567/2/6
f 567/2/6 559/2/6 568/2/6
f 561/2/6 562/2/6 570/2/6
f 570/2/6 562/2/6 571/2/6
f 571/2/6 562/2/6 572/2/6
f 572/2/6 562/2/6 573/2/6
f 565/2/6 566/2/6 574/2/6
f 564/2/6 565/2/6 574/2/6
f 574/2/6 566/2/6 575/2/6
f 568/2/6 569/2/6 576/2/6
f 567/2/6 568/2/6 576/2/6
f 576/2/6 569/2/6 577/2/6
f 577/2/6 569/2/6 578/2/6
f 571/2/6 572/2/6 580/2/6
f 580/2/6 572/2/6 581/2/6
f 581/2/6 572/2/6 582/2/6
f 582/2/6 572/2/6 583/2/6
f 578/2/6 579/2/6 584/2/6
f 577/2/6 578/2/6 584/2/6
f 584/2/6 579/2/6 585/2/6
f 581/2/6 582/2/6 586/2/6
f 586/2/6 582/2/6 587/2/6
f 585/2/6 579/2/6 588/2/6
f 588/2/6 579/2/6 589/2/6
f 564/2/6 574/2/6 590/2/6
f 564/2/6 590/2/6 594/2/6
f 590/2/6 591/2/6 594/2/6
f 594/2/6 591/2/6 595/2/6
f 595/2/6 591/2/6 596/2/6
f 596/2/6 597/2/6 598/2/6
f 595/2/6 596/2/6 598/2/6
f 598/2/6 597/2/6 599/2/6
f 589/2/6 579/2/6 600/2/6
f 600/2/6 579/2/6 601/2/6
f 602/2/6 603/2/6 604/2/6
f 604/2/6 603/2/6 605/2/6
f 599/2/6 597/2/6 606/2/6
f 601/2/6 579/2/6 608/2/6
f 608/2/6 579/2/6 609/2/6
f 606/2/6 607/2/6 610/2/6
f 599/2/6 606/2/6 610/2/6
f 610/2/6 607/2/6 611/2/6
f 611/2/6 607/2/6 612/2/6
f 601/2/6 608/2/6 613/2/6
f 613/2/6 608/2/6 614/2/6
f 614/2/6 608/2/6 615/2/6
f 602/2/6 604/2/6 617/2/6
f 613/2/6 614/2/6 618/2/6
f 611/2/6 612/2/6 618/2/6
f 612/2/6 613/2/6 618/2/6
f 618/2/6 614/2/6 619/2/6
f 616/2/6 617/2/6 620/2/6
f 617/2/6 604/2/6 621/2/6
f 620/2/6 617/2/6 621/2/6
f 592/2/6 593/2/6 622/2/6
f 616/2/6 620/2/6 623/2/6
f 605/2/6 603/2/6 625/2/6
f 622/2/6 623/2/6 626/2/6
f 623/2/6 620/2/6 627/2/6
f 626/2/6 623/2/6 627/2/6
f 624/2/6 625/2/6 629/2/6
f 628/2/6 629/2/6 630/2/6
f 629/2/6 625/2/6 630/2/6
f 625/2/6 603/2/6 631/2/6
f 630/2/6 625/2/6 631/2/6
f 622/2/6 626/2/6 632/2/6
f 628/2/6 630/2/6 633/2/6
f 632/2/6 633/2/6 636/2/6
f 592/2/6 622/2/6 636/2/6
f 622/2/6 632/2/6 636/2/6
f 633/2/6 630/2/6 637/2/6
f 636/2/6 633/2/6 637/2/6
f 634/2/6 635/2/6 639/2/6
f 638/2/6 639/2/6 641/2/6
f 640/2/6 641/2/6 642/2/6
f 639/2/6 635/2/6 643/2/6
f 642/2/6 641/2/6 643/2/6
f 641/2/6 639/2/6 643/2/6
f 646/1/6 647/1/6 648/1/6
f 644/1/6 645/1/6 650/1/6
f 650/1/6 651/1/6 652/1/6
f 648/1/6 649/1/6 655/1/6
f 646/1/6 648/1/6 655/1/6
f 655/1/6 649/1/6 656/1/6
f 656/1/6 649/1/6 657/1/6
f 652/1/6 653/1/6 658/1/6
f 654/1/6 655/1/6 661/1/6
f 655/1/6 656/1/6 661/1/6
f 661/1/6 656/1/6 662/1/6
f 662/1/6 656/1/6 663/1/6
f 657/1/6 649/1/6 664/1/6
f 664/1/6 649/1/6 665/1/6
f 658/1/6 659/1/6 666/1/6
f 660/1/6 661/1/6 669/1/6
f 661/1/6 662/1/6 669/1/6
f 665/1/6 649/1/6 670/1/6
f 670/1/6 649/1/6 671/1/6
f 666/1/6 667/1/6 672/1/6
f 668/1/6 669/1/6 675/1/6
f 672/1/6 673/1/6 676/1/6
f 674/1/6 675/1/6 677/1/6
f 672/1/6 676/1/6 678/1/6
f 676/1/6 677/1/6 678/1/6
f 650/1/6 652/1/6 678/1/6
f 644/1/6 650/1/6 678/1/6
f 652/1/6 658/1/6 678/1/6
f 658/1/6 666/1/6 678/1/6
f 666/1/6 672/1/6 678/1/6
f 678/1/6 677/1/6 679/1/6
f 677/1/6 675/1/6 680/1/6
f 679/1/6 677/1/6 680/1/6
f 675/1/6 669/1/6 680/1/6
f 669/1/6 662/1/6 680/1/6
f 680/1/6 681/1/6 682/1/6
f 679/1/6 680/1/6 682/1/6
f 679/1/6 682/1/6 684/1/6
f 682/1/6 683/1/6 684/1/6
f 684/1/6 683/1/6 685/1/6
f 685/1/6 683/1/6 688/1/6
f 686/4/6 687/4/6 691/4/6
f 691/4/6 687/4/6 692/4/6
f 679/1/6 684/1/6 693/1/6
f 693/1/6 684/1/6 694/1/6
f 688/1/6 689/1/6 695/1/6
f 690/1/6 691/1/6 696/1/6
f 691/1/6 692/1/6 696/1/6
f 679/1/6 693/1/6 697/1/6
f 697/1/6 693/1/6 698/1/6
f 695/1/6 696/1/6 700/1/6
f 685/1/6 688/1/6 700/1/6
f 688/1/6 695/1/6 700/1/6
f 696/1/6 692/1/6 701/1/6
f 699/1/6 700/1/6 701/1/6
f 700/1/6 696/1/6 701/1/6
f 701/1/6 692/1/6 702/1/6
f 699/1/6 701/1/6 704/1/6
f 704/1/6 701/1/6 705/1/6
f 705/1/6 701/1/6 706/1/6
f 703/1/6 704/1/6 707/1/6
f 704/1/6 705/1/6 707/1/6
f 707/1/6 705/1/6 708/1/6
f 703/1/6 707/1/6 709/1/6
f 709/1/6 707/1/6 710/1/6
