# MagicaVoxel @ Ephtracy

# group
g ClayTile2.2

# material
mtllib ClayTile2.2.mtl
usemtl palette

# normals
vn -1 0 0
vn 1 0 0
vn 0 0 1
vn 0 0 -1
vn 0 -1 0
vn 0 1 0

# texcoords
vt 0.396484 0.5
vt 0.541016 0.5
vt 0.544922 0.5
vt 0.982422 0.5

# verts
v -16 0 16
v -16 0 -16
v -16 9 16
v -16 9 5
v -16 10 16
v -16 10 8
v -16 10 5
v -16 10 -13
v -16 11 16
v -16 11 15
v -16 11 9
v -16 11 8
v -16 11 5
v -16 11 1
v -16 11 -7
v -16 11 -10
v -16 11 -13
v -16 12 15
v -16 12 9
v -16 12 1
v -16 12 -7
v -16 12 -10
v -16 12 -16
v -15 11 -7
v -15 11 -8
v -15 12 -7
v -15 12 -8
v -13 11 2
v -13 11 1
v -13 12 2
v -13 12 1
v -12 11 16
v -12 11 15
v -12 11 3
v -12 11 2
v -12 12 16
v -12 12 15
v -12 12 3
v -12 12 2
v -11 11 15
v -11 11 14
v -11 12 15
v -11 12 14
v -10 11 14
v -10 11 13
v -10 12 14
v -10 12 13
v -9 11 13
v -9 11 12
v -9 12 13
v -9 12 12
v -8 11 12
v -8 11 11
v -8 12 12
v -8 12 11
v -7 11 11
v -7 11 10
v -7 12 11
v -7 12 10
v -3 10 8
v -3 10 5
v -3 11 8
v -3 11 5
v -1 11 10
v -1 11 8
v -1 12 10
v -1 12 8
v 0 11 8
v 0 11 7
v 0 12 8
v 0 12 7
v 1 11 7
v 1 11 6
v 1 12 7
v 1 12 6
v 2 11 16
v 2 11 15
v 2 12 16
v 2 12 15
v 4 11 -0
v 4 11 -13
v 4 12 -0
v 4 12 -13
v 14 10 3
v 14 10 2
v 14 11 3
v 14 11 2
v 15 10 16
v 15 10 3
v 15 11 16
v 15 11 3
v -15 11 15
v -15 11 9
v -15 11 -10
v -15 11 -11
v -15 12 15
v -15 12 9
v -15 12 -10
v -15 12 -11
v -6 11 16
v -6 11 15
v -6 12 16
v -6 12 15
v -5 11 3
v -5 11 2
v -5 12 3
v -5 12 2
v -4 10 5
v -4 10 3
v -4 11 5
v -4 11 3
v -4 11 2
v -4 11 1
v -4 12 2
v -4 12 1
v -3 10 3
v -3 10 2
v -3 11 3
v -3 11 2
v -1 11 1
v -1 11 -0
v -1 12 1
v -1 12 -0
v 0 11 -0
v 0 11 -8
v 0 11 -11
v 0 11 -13
v 0 12 -0
v 0 12 -8
v 0 12 -11
v 0 12 -13
v 4 11 7
v 4 11 6
v 4 12 7
v 4 12 6
v 5 11 9
v 5 11 8
v 5 11 7
v 5 12 9
v 5 12 8
v 5 12 7
v 6 10 6
v 6 10 5
v 6 11 6
v 6 11 5
v 7 11 10
v 7 11 9
v 7 12 10
v 7 12 9
v 8 10 9
v 8 10 6
v 8 11 13
v 8 11 10
v 8 11 9
v 8 11 6
v 8 12 13
v 8 12 10
v 9 11 14
v 9 11 13
v 9 12 14
v 9 12 13
v 10 11 16
v 10 11 14
v 10 11 -0
v 10 11 -2
v 10 12 16
v 10 12 14
v 10 12 -0
v 10 12 -2
v 11 10 12
v 11 10 9
v 11 11 12
v 11 11 9
v 13 10 16
v 13 10 12
v 13 11 16
v 13 11 12
v 16 0 16
v 16 0 -16
v 16 10 16
v 16 10 -2
v 16 11 16
v 16 11 -2
v 16 12 -2
v 16 12 -16
v -16 0 16
v -16 9 16
v -16 10 16
v -16 11 16
v -12 11 16
v -12 12 16
v -6 11 16
v -6 12 16
v 2 11 16
v 2 12 16
v 10 11 16
v 10 12 16
v 13 10 16
v 13 11 16
v 15 9 16
v 15 10 16
v 15 11 16
v 16 0 16
v 16 10 16
v 16 11 16
v -16 11 15
v -16 12 15
v -15 11 15
v -15 12 15
v -6 11 15
v -6 12 15
v 2 11 15
v 2 12 15
v -16 10 5
v -16 11 5
v -4 10 5
v -4 11 5
v -12 11 3
v -12 12 3
v -5 11 3
v -5 12 3
v -4 10 3
v -4 11 3
v -3 10 3
v -3 11 3
v 14 10 3
v 14 11 3
v 15 10 3
v 15 11 3
v -13 11 2
v -13 12 2
v -12 11 2
v -12 12 2
v -5 11 2
v -5 12 2
v -4 11 2
v -4 12 2
v -3 10 2
v -3 11 2
v 14 10 2
v 14 11 2
v -16 11 1
v -16 12 1
v -13 11 1
v -13 12 1
v -4 11 1
v -4 12 1
v -1 11 1
v -1 12 1
v -1 11 -0
v -1 12 -0
v 0 11 -0
v 0 12 -0
v 4 11 -0
v 4 12 -0
v 10 11 -0
v 10 12 -0
v 10 11 -2
v 10 12 -2
v 16 11 -2
v 16 12 -2
v -16 11 -10
v -16 12 -10
v -15 11 -10
v -15 12 -10
v -15 11 -11
v -15 12 -11
v 0 11 -11
v 0 12 -11
v 0 11 -13
v 0 12 -13
v 4 11 -13
v 4 12 -13
v -12 11 15
v -12 12 15
v -11 11 15
v -11 12 15
v -11 11 14
v -11 12 14
v -10 11 14
v -10 12 14
v 9 11 14
v 9 12 14
v 10 11 14
v 10 12 14
v -10 11 13
v -10 12 13
v -9 11 13
v -9 12 13
v 8 11 13
v 8 12 13
v 9 11 13
v 9 12 13
v -9 11 12
v -9 12 12
v -8 11 12
v -8 12 12
v 11 10 12
v 11 11 12
v 13 10 12
v 13 11 12
v -8 11 11
v -8 12 11
v -7 11 11
v -7 12 11
v -7 11 10
v -7 12 10
v -1 11 10
v -1 12 10
v 7 11 10
v 7 12 10
v 8 11 10
v 8 12 10
v -16 11 9
v -16 12 9
v -15 11 9
v -15 12 9
v 5 11 9
v 5 12 9
v 7 11 9
v 7 12 9
v 8 10 9
v 8 11 9
v 11 10 9
v 11 11 9
v -16 10 8
v -16 11 8
v -3 10 8
v -3 11 8
v -1 11 8
v -1 12 8
v 0 11 8
v 0 12 8
v 0 11 7
v 0 12 7
v 1 11 7
v 1 12 7
v 4 11 7
v 4 12 7
v 5 11 7
v 5 12 7
v 1 11 6
v 1 12 6
v 3 11 6
v 3 12 6
v 4 11 6
v 4 12 6
v 6 10 6
v 6 11 6
v 8 10 6
v 8 11 6
v -3 10 5
v -3 11 5
v 6 10 5
v 6 11 5
v -16 11 -7
v -16 12 -7
v -15 11 -7
v -15 12 -7
v -15 11 -8
v -15 12 -8
v 0 11 -8
v 0 12 -8
v -16 0 -16
v -16 12 -16
v 16 0 -16
v 16 12 -16
v -16 0 16
v 16 0 16
v -16 0 -16
v 16 0 -16
v 13 10 16
v 15 10 16
v 11 10 12
v 13 10 12
v 8 10 9
v 11 10 9
v -16 10 8
v -3 10 8
v 6 10 6
v 8 10 6
v -16 10 5
v -4 10 5
v -3 10 5
v 6 10 5
v -4 10 3
v -3 10 3
v 14 10 3
v 15 10 3
v -3 10 2
v 14 10 2
v -16 11 16
v -12 11 16
v -6 11 16
v 2 11 16
v 10 11 16
v 13 11 16
v 15 11 16
v 16 11 16
v -16 11 15
v -15 11 15
v -12 11 15
v -11 11 15
v -6 11 15
v 2 11 15
v -11 11 14
v -10 11 14
v 9 11 14
v 10 11 14
v -10 11 13
v -9 11 13
v 8 11 13
v 9 11 13
v -9 11 12
v -8 11 12
v 11 11 12
v 13 11 12
v -8 11 11
v -7 11 11
v -7 11 10
v -1 11 10
v 7 11 10
v 8 11 10
v -16 11 9
v -15 11 9
v 5 11 9
v 7 11 9
v 8 11 9
v 11 11 9
v -16 11 8
v -3 11 8
v -1 11 8
v 0 11 8
v 5 11 8
v 0 11 7
v 1 11 7
v 4 11 7
v 5 11 7
v 1 11 6
v 3 11 6
v 4 11 6
v 6 11 6
v 8 11 6
v -16 11 5
v -4 11 5
v -3 11 5
v 6 11 5
v -12 11 3
v -5 11 3
v -4 11 3
v -3 11 3
v 14 11 3
v 15 11 3
v -13 11 2
v -12 11 2
v -5 11 2
v -4 11 2
v -3 11 2
v 14 11 2
v -16 11 1
v -13 11 1
v -4 11 1
v -1 11 1
v -1 11 -0
v 0 11 -0
v 4 11 -0
v 10 11 -0
v 10 11 -2
v 16 11 -2
v -16 11 -7
v -15 11 -7
v -15 11 -8
v 0 11 -8
v -16 11 -10
v -15 11 -10
v -15 11 -11
v 0 11 -11
v 0 11 -13
v 4 11 -13
v -12 12 16
v -6 12 16
v 2 12 16
v 10 12 16
v -16 12 15
v -15 12 15
v -12 12 15
v -11 12 15
v -6 12 15
v 2 12 15
v -11 12 14
v -10 12 14
v 9 12 14
v 10 12 14
v -10 12 13
v -9 12 13
v 8 12 13
v 9 12 13
v -9 12 12
v -8 12 12
v -8 12 11
v -7 12 11
v -7 12 10
v -1 12 10
v 7 12 10
v 8 12 10
v -16 12 9
v -15 12 9
v 5 12 9
v 7 12 9
v -1 12 8
v 0 12 8
v 4 12 8
v 5 12 8
v 0 12 7
v 1 12 7
v 3 12 7
v 4 12 7
v 5 12 7
v 1 12 6
v 3 12 6
v 4 12 6
v -12 12 3
v -5 12 3
v -13 12 2
v -12 12 2
v -5 12 2
v -4 12 2
v -16 12 1
v -13 12 1
v -4 12 1
v -1 12 1
v -1 12 -0
v 0 12 -0
v 4 12 -0
v 10 12 -0
v 10 12 -2
v 16 12 -2
v -16 12 -7
v -15 12 -7
v -15 12 -8
v 0 12 -8
v -16 12 -10
v -15 12 -10
v -15 12 -11
v 0 12 -11
v 0 12 -13
v 4 12 -13
v -16 12 -16
v 16 12 -16

# faces
f 3/1/1 2/1/1 1/1/1
f 4/1/1 2/1/1 3/1/1
f 5/3/1 4/3/1 3/3/1
f 6/3/1 4/3/1 5/3/1
f 7/1/1 2/1/1 4/1/1
f 7/3/1 4/3/1 6/3/1
f 8/1/1 2/1/1 7/1/1
f 9/2/1 6/2/1 5/2/1
f 10/2/1 6/2/1 9/2/1
f 11/2/1 6/2/1 10/2/1
f 12/2/1 6/2/1 11/2/1
f 13/2/1 8/2/1 7/2/1
f 14/2/1 8/2/1 13/2/1
f 15/2/1 8/2/1 14/2/1
f 16/2/1 8/2/1 15/2/1
f 17/1/1 2/1/1 8/1/1
f 17/2/1 8/2/1 16/2/1
f 18/1/1 11/1/1 10/1/1
f 19/1/1 11/1/1 18/1/1
f 20/1/1 15/1/1 14/1/1
f 21/1/1 15/1/1 20/1/1
f 22/1/1 17/1/1 16/1/1
f 23/1/1 2/1/1 17/1/1
f 23/1/1 17/1/1 22/1/1
f 26/1/1 25/1/1 24/1/1
f 27/1/1 25/1/1 26/1/1
f 30/1/1 29/1/1 28/1/1
f 31/1/1 29/1/1 30/1/1
f 36/1/1 33/1/1 32/1/1
f 37/1/1 33/1/1 36/1/1
f 38/1/1 35/1/1 34/1/1
f 39/1/1 35/1/1 38/1/1
f 42/1/1 41/1/1 40/1/1
f 43/1/1 41/1/1 42/1/1
f 46/1/1 45/1/1 44/1/1
f 47/1/1 45/1/1 46/1/1
f 50/1/1 49/1/1 48/1/1
f 51/1/1 49/1/1 50/1/1
f 54/1/1 53/1/1 52/1/1
f 55/1/1 53/1/1 54/1/1
f 58/1/1 57/1/1 56/1/1
f 59/1/1 57/1/1 58/1/1
f 62/2/1 61/2/1 60/2/1
f 63/2/1 61/2/1 62/2/1
f 66/1/1 65/1/1 64/1/1
f 67/1/1 65/1/1 66/1/1
f 70/1/1 69/1/1 68/1/1
f 71/1/1 69/1/1 70/1/1
f 74/1/1 73/1/1 72/1/1
f 75/1/1 73/1/1 74/1/1
f 78/1/1 77/1/1 76/1/1
f 79/1/1 77/1/1 78/1/1
f 82/1/1 81/1/1 80/1/1
f 83/1/1 81/1/1 82/1/1
f 86/2/1 85/2/1 84/2/1
f 87/2/1 85/2/1 86/2/1
f 90/2/1 89/2/1 88/2/1
f 91/2/1 89/2/1 90/2/1
f 92/1/2 93/1/2 96/1/2
f 96/1/2 93/1/2 97/1/2
f 94/1/2 95/1/2 98/1/2
f 98/1/2 95/1/2 99/1/2
f 100/1/2 101/1/2 102/1/2
f 102/1/2 101/1/2 103/1/2
f 104/1/2 105/1/2 106/1/2
f 106/1/2 105/1/2 107/1/2
f 108/2/2 109/2/2 110/2/2
f 110/2/2 109/2/2 111/2/2
f 112/1/2 113/1/2 114/1/2
f 114/1/2 113/1/2 115/1/2
f 116/2/2 117/2/2 118/2/2
f 118/2/2 117/2/2 119/2/2
f 120/1/2 121/1/2 122/1/2
f 122/1/2 121/1/2 123/1/2
f 124/1/2 125/1/2 128/1/2
f 128/1/2 125/1/2 129/1/2
f 126/1/2 127/1/2 130/1/2
f 130/1/2 127/1/2 131/1/2
f 132/4/2 133/4/2 134/4/2
f 134/4/2 133/4/2 135/4/2
f 136/1/2 137/1/2 139/1/2
f 137/4/2 138/4/2 140/4/2
f 139/1/2 137/1/2 140/1/2
f 140/4/2 138/4/2 141/4/2
f 142/2/2 143/2/2 144/2/2
f 144/2/2 143/2/2 145/2/2
f 146/1/2 147/1/2 148/1/2
f 148/1/2 147/1/2 149/1/2
f 150/2/2 151/2/2 154/2/2
f 154/2/2 151/2/2 155/2/2
f 152/1/2 153/1/2 156/1/2
f 156/1/2 153/1/2 157/1/2
f 158/1/2 159/1/2 160/1/2
f 160/1/2 159/1/2 161/1/2
f 162/1/2 163/1/2 166/1/2
f 166/1/2 163/1/2 167/1/2
f 164/1/2 165/1/2 168/1/2
f 168/1/2 165/1/2 169/1/2
f 170/2/2 171/2/2 172/2/2
f 172/2/2 171/2/2 173/2/2
f 174/2/2 175/2/2 176/2/2
f 176/2/2 175/2/2 177/2/2
f 178/1/2 179/1/2 180/1/2
f 180/1/2 179/1/2 181/1/2
f 180/2/2 181/2/2 182/2/2
f 181/1/2 179/1/2 183/1/2
f 182/2/2 181/2/2 183/2/2
f 183/1/2 179/1/2 184/1/2
f 184/1/2 179/1/2 185/1/2
f 190/2/3 189/2/3 188/2/3
f 192/2/3 190/2/3 188/2/3
f 192/1/3 191/1/3 190/1/3
f 193/1/3 191/1/3 192/1/3
f 194/2/3 192/2/3 188/2/3
f 196/2/3 194/2/3 188/2/3
f 196/1/3 195/1/3 194/1/3
f 197/1/3 195/1/3 196/1/3
f 198/3/3 188/3/3 187/3/3
f 198/2/3 196/2/3 188/2/3
f 199/2/3 196/2/3 198/2/3
f 200/1/3 187/1/3 186/1/3
f 200/3/3 198/3/3 187/3/3
f 201/3/3 198/3/3 200/3/3
f 203/1/3 200/1/3 186/1/3
f 203/1/3 201/1/3 200/1/3
f 204/2/3 202/2/3 201/2/3
f 204/1/3 201/1/3 203/1/3
f 205/2/3 202/2/3 204/2/3
f 208/1/3 207/1/3 206/1/3
f 209/1/3 207/1/3 208/1/3
f 212/1/3 211/1/3 210/1/3
f 213/1/3 211/1/3 212/1/3
f 216/2/3 215/2/3 214/2/3
f 217/2/3 215/2/3 216/2/3
f 220/1/3 219/1/3 218/1/3
f 221/1/3 219/1/3 220/1/3
f 224/2/3 223/2/3 222/2/3
f 225/2/3 223/2/3 224/2/3
f 228/2/3 227/2/3 226/2/3
f 229/2/3 227/2/3 228/2/3
f 232/1/3 231/1/3 230/1/3
f 233/1/3 231/1/3 232/1/3
f 236/1/3 235/1/3 234/1/3
f 237/1/3 235/1/3 236/1/3
f 240/2/3 239/2/3 238/2/3
f 241/2/3 239/2/3 240/2/3
f 244/1/3 243/1/3 242/1/3
f 245/1/3 243/1/3 244/1/3
f 248/1/3 247/1/3 246/1/3
f 249/1/3 247/1/3 248/1/3
f 252/1/3 251/1/3 250/1/3
f 253/1/3 251/1/3 252/1/3
f 256/1/3 255/1/3 254/1/3
f 257/1/3 255/1/3 256/1/3
f 260/1/3 259/1/3 258/1/3
f 261/1/3 259/1/3 260/1/3
f 264/1/3 263/1/3 262/1/3
f 265/1/3 263/1/3 264/1/3
f 268/1/3 267/1/3 266/1/3
f 269/1/3 267/1/3 268/1/3
f 272/1/3 271/1/3 270/1/3
f 273/1/3 271/1/3 272/1/3
f 274/1/4 275/1/4 276/1/4
f 276/1/4 275/1/4 277/1/4
f 278/1/4 279/1/4 280/1/4
f 280/1/4 279/1/4 281/1/4
f 282/1/4 283/1/4 284/1/4
f 284/1/4 283/1/4 285/1/4
f 286/1/4 287/1/4 288/1/4
f 288/1/4 287/1/4 289/1/4
f 290/1/4 291/1/4 292/1/4
f 292/1/4 291/1/4 293/1/4
f 294/1/4 295/1/4 296/1/4
f 296/1/4 295/1/4 297/1/4
f 298/2/4 299/2/4 300/2/4
f 300/2/4 299/2/4 301/2/4
f 302/1/4 303/1/4 304/1/4
f 304/1/4 303/1/4 305/1/4
f 306/1/4 307/1/4 308/1/4
f 308/1/4 307/1/4 309/1/4
f 310/1/4 311/1/4 312/1/4
f 312/1/4 311/1/4 313/1/4
f 314/1/4 315/1/4 316/1/4
f 316/1/4 315/1/4 317/1/4
f 318/1/4 319/1/4 320/1/4
f 320/1/4 319/1/4 321/1/4
f 322/2/4 323/2/4 324/2/4
f 324/2/4 323/2/4 325/2/4
f 326/2/4 327/2/4 328/2/4
f 328/2/4 327/2/4 329/2/4
f 330/1/4 331/1/4 332/1/4
f 332/1/4 331/1/4 333/1/4
f 334/1/4 335/1/4 336/1/4
f 336/1/4 335/1/4 337/1/4
f 338/4/4 339/4/4 340/4/4
f 340/4/4 339/4/4 341/4/4
f 342/1/4 343/1/4 344/1/4
f 344/1/4 343/1/4 345/1/4
f 344/4/4 345/4/4 346/4/4
f 346/4/4 345/4/4 347/4/4
f 348/2/4 349/2/4 350/2/4
f 350/2/4 349/2/4 351/2/4
f 352/2/4 353/2/4 354/2/4
f 354/2/4 353/2/4 355/2/4
f 356/1/4 357/1/4 358/1/4
f 358/1/4 357/1/4 359/1/4
f 360/1/4 361/1/4 362/1/4
f 362/1/4 361/1/4 363/1/4
f 364/1/4 365/1/4 366/1/4
f 366/1/4 365/1/4 367/1/4
f 370/1/5 369/1/5 368/1/5
f 371/1/5 369/1/5 370/1/5
f 372/3/6 373/3/6 375/3/6
f 374/3/6 375/3/6 377/3/6
f 376/3/6 377/3/6 381/3/6
f 378/3/6 379/3/6 382/3/6
f 382/3/6 379/3/6 383/3/6
f 383/3/6 379/3/6 384/3/6
f 380/3/6 381/3/6 385/3/6
f 383/3/6 384/3/6 386/3/6
f 384/3/6 385/3/6 386/3/6
f 386/3/6 385/3/6 387/3/6
f 375/3/6 373/3/6 388/3/6
f 387/3/6 385/3/6 388/3/6
f 377/3/6 375/3/6 388/3/6
f 385/3/6 381/3/6 388/3/6
f 381/3/6 377/3/6 388/3/6
f 388/3/6 373/3/6 389/3/6
f 387/3/6 388/3/6 390/3/6
f 390/3/6 388/3/6 391/3/6
f 392/2/6 393/2/6 400/2/6
f 400/2/6 393/2/6 401/2/6
f 401/2/6 393/2/6 402/2/6
f 394/2/6 395/2/6 404/2/6
f 404/2/6 395/2/6 405/2/6
f 402/2/6 403/2/6 406/2/6
f 401/2/6 402/2/6 406/2/6
f 396/2/6 397/2/6 409/2/6
f 406/2/6 407/2/6 410/2/6
f 408/2/6 409/2/6 413/2/6
f 410/2/6 411/2/6 414/2/6
f 412/2/6 413/2/6 416/2/6
f 409/2/6 397/2/6 416/2/6
f 413/2/6 409/2/6 416/2/6
f 416/2/6 397/2/6 417/2/6
f 414/2/6 415/2/6 418/2/6
f 418/2/6 419/2/6 420/2/6
f 412/2/6 416/2/6 423/2/6
f 401/2/6 406/2/6 425/2/6
f 410/2/6 414/2/6 425/2/6
f 406/2/6 410/2/6 425/2/6
f 420/2/6 421/2/6 425/2/6
f 418/2/6 420/2/6 425/2/6
f 414/2/6 418/2/6 425/2/6
f 422/2/6 423/2/6 427/2/6
f 423/2/6 416/2/6 428/2/6
f 427/2/6 423/2/6 428/2/6
f 428/2/6 416/2/6 429/2/6
f 424/2/6 425/2/6 430/2/6
f 425/2/6 421/2/6 431/2/6
f 430/2/6 425/2/6 431/2/6
f 431/2/6 421/2/6 432/2/6
f 426/2/6 427/2/6 434/2/6
f 427/2/6 428/2/6 434/2/6
f 432/2/6 433/2/6 435/2/6
f 431/2/6 432/2/6 435/2/6
f 434/2/6 428/2/6 438/2/6
f 435/2/6 436/2/6 439/2/6
f 437/2/6 438/2/6 441/2/6
f 438/2/6 428/2/6 442/2/6
f 441/2/6 438/2/6 442/2/6
f 442/2/6 428/2/6 443/2/6
f 439/2/6 440/2/6 446/2/6
f 431/2/6 435/2/6 446/2/6
f 440/2/6 441/2/6 446/2/6
f 441/2/6 442/2/6 446/2/6
f 435/2/6 439/2/6 446/2/6
f 446/2/6 442/2/6 447/2/6
f 444/2/6 445/2/6 448/2/6
f 448/2/6 445/2/6 449/2/6
f 449/2/6 445/2/6 450/2/6
f 398/2/6 399/2/6 453/2/6
f 444/2/6 448/2/6 454/2/6
f 454/2/6 448/2/6 455/2/6
f 450/2/6 451/2/6 456/2/6
f 449/2/6 450/2/6 456/2/6
f 456/2/6 451/2/6 457/2/6
f 457/2/6 451/2/6 458/2/6
f 452/2/6 453/2/6 459/2/6
f 444/2/6 454/2/6 460/2/6
f 460/2/6 454/2/6 461/2/6
f 458/2/6 459/2/6 462/2/6
f 457/2/6 458/2/6 462/2/6
f 462/2/6 459/2/6 463/2/6
f 463/2/6 459/2/6 464/2/6
f 464/2/6 459/2/6 465/2/6
f 465/2/6 459/2/6 466/2/6
f 466/2/6 459/2/6 467/2/6
f 467/2/6 459/2/6 468/2/6
f 459/2/6 453/2/6 469/2/6
f 468/2/6 459/2/6 469/2/6
f 453/2/6 399/2/6 469/2/6
f 470/2/6 471/2/6 472/2/6
f 465/2/6 466/2/6 473/2/6
f 470/2/6 472/2/6 474/2/6
f 472/2/6 473/2/6 474/2/6
f 474/2/6 473/2/6 475/2/6
f 475/2/6 473/2/6 476/2/6
f 473/2/6 466/2/6 477/2/6
f 476/2/6 473/2/6 477/2/6
f 477/2/6 466/2/6 478/2/6
f 478/2/6 466/2/6 479/2/6
f 480/1/6 481/1/6 486/1/6
f 486/1/6 481/1/6 487/1/6
f 487/1/6 481/1/6 488/1/6
f 482/1/6 483/1/6 489/1/6
f 487/1/6 488/1/6 490/1/6
f 488/1/6 489/1/6 490/1/6
f 490/1/6 489/1/6 491/1/6
f 489/1/6 483/1/6 492/1/6
f 491/1/6 489/1/6 492/1/6
f 492/1/6 483/1/6 493/1/6
f 491/1/6 492/1/6 494/1/6
f 494/1/6 492/1/6 495/1/6
f 495/1/6 492/1/6 496/1/6
f 496/1/6 492/1/6 497/1/6
f 495/1/6 496/1/6 498/1/6
f 498/1/6 496/1/6 499/1/6
f 499/1/6 496/1/6 500/1/6
f 500/1/6 496/1/6 501/1/6
f 501/1/6 496/1/6 502/1/6
f 502/1/6 496/1/6 503/1/6
f 503/1/6 496/1/6 504/1/6
f 504/1/6 496/1/6 505/1/6
f 484/1/6 485/1/6 506/1/6
f 506/1/6 485/1/6 507/1/6
f 503/1/6 504/1/6 508/1/6
f 508/1/6 504/1/6 509/1/6
f 503/1/6 508/1/6 510/1/6
f 510/1/6 508/1/6 511/1/6
f 511/1/6 508/1/6 512/1/6
f 512/1/6 508/1/6 513/1/6
f 511/1/6 512/1/6 514/1/6
f 514/1/6 512/1/6 515/1/6
f 515/1/6 512/1/6 516/1/6
f 512/4/6 513/4/6 517/4/6
f 516/1/6 512/1/6 517/1/6
f 517/4/6 513/4/6 518/4/6
f 515/1/6 516/1/6 519/1/6
f 516/4/6 517/4/6 520/4/6
f 519/1/6 516/1/6 520/1/6
f 520/4/6 517/4/6 521/4/6
f 522/1/6 523/1/6 525/1/6
f 525/1/6 523/1/6 526/1/6
f 524/1/6 525/1/6 529/1/6
f 526/1/6 527/1/6 529/1/6
f 525/1/6 526/1/6 529/1/6
f 529/1/6 527/1/6 530/1/6
f 528/1/6 529/1/6 532/1/6
f 530/1/6 531/1/6 532/1/6
f 529/1/6 530/1/6 532/1/6
f 534/1/6 535/1/6 536/1/6
f 532/1/6 533/1/6 538/1/6
f 528/1/6 532/1/6 538/1/6
f 538/1/6 533/1/6 539/1/6
f 539/1/6 533/1/6 540/1/6
f 540/1/6 533/1/6 541/1/6
f 542/1/6 543/1/6 544/1/6
f 544/1/6 545/1/6 546/1/6
f 536/1/6 537/1/6 547/1/6
f 534/1/6 536/1/6 547/1/6
f 544/1/6 546/1/6 548/1/6
f 546/1/6 547/1/6 548/1/6
f 542/1/6 544/1/6 548/1/6
f 547/1/6 537/1/6 549/1/6
f 548/1/6 547/1/6 549/1/6
