# MagicaVoxel @ Ephtracy

# group
g ClayTile2.1

# material
mtllib ClayTile2.1.mtl
usemtl palette

# normals
vn -1 0 0
vn 1 0 0
vn 0 0 1
vn 0 0 -1
vn 0 -1 0
vn 0 1 0

# texcoords
vt 0.396484 0.5
vt 0.541016 0.5
vt 0.544922 0.5
vt 0.982422 0.5

# verts
v -16 0 16
v -16 0 -16
v -16 10 -1
v -16 10 -13
v -16 11 -1
v -16 11 -3
v -16 11 -6
v -16 11 -8
v -16 11 -13
v -16 12 16
v -16 12 -1
v -16 12 -3
v -16 12 -6
v -16 12 -8
v -16 12 -16
v -3 10 -5
v -3 10 -6
v -3 11 -5
v -3 11 -6
v -3 11 -7
v -3 11 -8
v -3 12 -7
v -3 12 -8
v 3 10 6
v 3 10 3
v 3 10 -10
v 3 10 -11
v 3 10 -12
v 3 10 -13
v 3 11 6
v 3 11 3
v 3 11 -10
v 3 11 -11
v 3 11 -12
v 3 11 -13
v 4 10 3
v 4 10 -5
v 4 11 15
v 4 11 8
v 4 11 3
v 4 11 -5
v 4 11 -9
v 4 11 -10
v 4 12 15
v 4 12 8
v 4 12 -9
v 4 12 -10
v 5 11 -13
v 5 11 -14
v 5 12 -13
v 5 12 -14
v 6 10 -11
v 6 10 -12
v 6 11 -11
v 6 11 -12
v 7 11 -10
v 7 11 -13
v 7 12 -10
v 7 12 -13
v 8 11 2
v 8 11 -7
v 8 12 2
v 8 12 -7
v 9 11 14
v 9 11 4
v 9 12 14
v 9 12 4
v 13 11 15
v 13 11 14
v 13 12 15
v 13 12 14
v 15 11 -0
v 15 11 -4
v 15 12 -0
v 15 12 -4
v -8 11 -3
v -8 11 -5
v -8 11 -6
v -8 12 -3
v -8 12 -5
v -8 12 -6
v -7 11 1
v -7 11 -1
v -7 12 1
v -7 12 -1
v -5 10 -0
v -5 10 -6
v -5 11 4
v -5 11 1
v -5 11 -0
v -5 11 -6
v -5 12 4
v -5 12 1
v -3 11 7
v -3 11 4
v -3 11 -10
v -3 11 -13
v -3 12 7
v -3 12 4
v -3 12 -10
v -3 12 -13
v -2 10 3
v -2 10 -0
v -2 10 -11
v -2 10 -12
v -2 11 3
v -2 11 -0
v -2 11 -11
v -2 11 -12
v -1 10 6
v -1 10 3
v -1 11 6
v -1 11 3
v -1 11 -13
v -1 11 -14
v -1 12 -13
v -1 12 -14
v 0 11 14
v 0 11 7
v 0 11 -9
v 0 11 -10
v 0 12 14
v 0 12 7
v 0 12 -9
v 0 12 -10
v 1 10 -10
v 1 10 -11
v 1 10 -12
v 1 10 -13
v 1 11 15
v 1 11 14
v 1 11 -10
v 1 11 -11
v 1 11 -12
v 1 11 -13
v 1 12 15
v 1 12 14
v 5 11 9
v 5 11 8
v 5 11 -7
v 5 11 -8
v 5 12 9
v 5 12 8
v 5 12 -7
v 5 12 -8
v 6 11 14
v 6 11 9
v 6 11 -8
v 6 11 -9
v 6 12 14
v 6 12 9
v 6 12 -8
v 6 12 -9
v 7 11 16
v 7 11 14
v 7 12 16
v 7 12 14
v 9 11 -9
v 9 11 -10
v 9 12 -9
v 9 12 -10
v 12 11 2
v 12 11 -3
v 12 11 -7
v 12 12 2
v 12 12 -3
v 12 12 -7
v 15 11 9
v 15 11 4
v 15 12 9
v 15 12 4
v 16 0 16
v 16 0 -16
v 16 10 16
v 16 10 -13
v 16 11 16
v 16 11 15
v 16 11 9
v 16 11 -0
v 16 11 -4
v 16 11 -10
v 16 11 -13
v 16 12 15
v 16 12 9
v 16 12 -0
v 16 12 -4
v 16 12 -10
v 16 12 -16
v -16 0 16
v -16 12 16
v -11 10 16
v -11 11 16
v 7 11 16
v 7 12 16
v 16 0 16
v 16 10 16
v 16 11 16
v 13 11 15
v 13 12 15
v 16 11 15
v 16 12 15
v 9 11 14
v 9 12 14
v 13 11 14
v 13 12 14
v 8 11 2
v 8 12 2
v 12 11 2
v 12 12 2
v 15 11 -0
v 15 12 -0
v 16 11 -0
v 16 12 -0
v -16 11 -3
v -16 12 -3
v -8 11 -3
v -8 12 -3
v -3 10 -5
v -3 11 -5
v 4 10 -5
v 4 11 -5
v -5 10 -6
v -5 11 -6
v -3 10 -6
v -3 11 -6
v -3 11 -7
v -3 12 -7
v 5 11 -7
v 5 12 -7
v -16 11 -8
v -16 12 -8
v -3 11 -8
v -3 12 -8
v 5 11 -8
v 5 12 -8
v 6 11 -8
v 6 12 -8
v 6 11 -9
v 6 12 -9
v 9 11 -9
v 9 12 -9
v 9 11 -10
v 9 12 -10
v 16 11 -10
v 16 12 -10
v -2 10 -12
v -2 11 -12
v 1 10 -12
v 1 11 -12
v 3 10 -12
v 3 11 -12
v 6 10 -12
v 6 11 -12
v -3 11 -13
v -3 12 -13
v -1 11 -13
v -1 12 -13
v 1 10 -13
v 1 11 -13
v 3 10 -13
v 3 11 -13
v 5 11 -13
v 5 12 -13
v 7 11 -13
v 7 12 -13
v -1 11 -14
v -1 12 -14
v 5 11 -14
v 5 12 -14
v 1 11 15
v 1 12 15
v 4 11 15
v 4 12 15
v 0 11 14
v 0 12 14
v 1 11 14
v 1 12 14
v 6 11 14
v 6 12 14
v 7 11 14
v 7 12 14
v 5 11 9
v 5 12 9
v 6 11 9
v 6 12 9
v 15 11 9
v 15 12 9
v 16 11 9
v 16 12 9
v 4 11 8
v 4 12 8
v 5 11 8
v 5 12 8
v -3 11 7
v -3 12 7
v 0 11 7
v 0 12 7
v -1 10 6
v -1 11 6
v 3 10 6
v 3 11 6
v -5 11 4
v -5 12 4
v -3 11 4
v -3 12 4
v 9 11 4
v 9 12 4
v 15 11 4
v 15 12 4
v -2 10 3
v -2 11 3
v -1 10 3
v -1 11 3
v 3 10 3
v 3 11 3
v 4 10 3
v 4 11 3
v -7 11 1
v -7 12 1
v -5 11 1
v -5 12 1
v -5 10 -0
v -5 11 -0
v -2 10 -0
v -2 11 -0
v -16 11 -1
v -16 12 -1
v -7 11 -1
v -7 12 -1
v 15 11 -4
v 15 12 -4
v 16 11 -4
v 16 12 -4
v -16 11 -6
v -16 12 -6
v -9 11 -6
v -9 12 -6
v -8 11 -6
v -8 12 -6
v 8 11 -7
v 8 12 -7
v 9 11 -7
v 9 12 -7
v 12 11 -7
v 12 12 -7
v 0 11 -9
v 0 12 -9
v 4 11 -9
v 4 12 -9
v -3 11 -10
v -3 12 -10
v 0 11 -10
v 0 12 -10
v 1 10 -10
v 1 11 -10
v 3 10 -10
v 3 11 -10
v 4 11 -10
v 4 12 -10
v 7 11 -10
v 7 12 -10
v -2 10 -11
v -2 11 -11
v 1 10 -11
v 1 11 -11
v 3 10 -11
v 3 11 -11
v 4 10 -11
v 4 11 -11
v 6 10 -11
v 6 11 -11
v -16 0 -16
v -16 12 -16
v 16 0 -16
v 16 12 -16
v -16 0 16
v 16 0 16
v -16 0 -16
v 16 0 -16
v -1 10 6
v 3 10 6
v -2 10 3
v -1 10 3
v 3 10 3
v 4 10 3
v -5 10 -0
v -2 10 -0
v -3 10 -5
v 4 10 -5
v -5 10 -6
v -3 10 -6
v 1 10 -10
v 3 10 -10
v -2 10 -11
v 1 10 -11
v 3 10 -11
v 4 10 -11
v 6 10 -11
v -2 10 -12
v 1 10 -12
v 3 10 -12
v 6 10 -12
v 1 10 -13
v 3 10 -13
v 7 11 16
v 16 11 16
v 1 11 15
v 4 11 15
v 13 11 15
v 16 11 15
v 0 11 14
v 1 11 14
v 6 11 14
v 7 11 14
v 9 11 14
v 13 11 14
v 5 11 9
v 6 11 9
v 15 11 9
v 16 11 9
v 4 11 8
v 5 11 8
v -3 11 7
v 0 11 7
v -1 11 6
v 3 11 6
v -5 11 4
v -3 11 4
v 9 11 4
v 15 11 4
v -2 11 3
v -1 11 3
v 3 11 3
v 4 11 3
v 8 11 2
v 12 11 2
v -7 11 1
v -5 11 1
v -5 11 -0
v -2 11 -0
v 15 11 -0
v 16 11 -0
v -16 11 -1
v -7 11 -1
v -16 11 -3
v -8 11 -3
v 12 11 -3
v 15 11 -4
v 16 11 -4
v -8 11 -5
v -3 11 -5
v 4 11 -5
v -16 11 -6
v -9 11 -6
v -8 11 -6
v -5 11 -6
v -3 11 -6
v -3 11 -7
v 5 11 -7
v 8 11 -7
v 9 11 -7
v 12 11 -7
v -16 11 -8
v -3 11 -8
v 5 11 -8
v 6 11 -8
v 0 11 -9
v 4 11 -9
v 6 11 -9
v 9 11 -9
v -3 11 -10
v 0 11 -10
v 1 11 -10
v 3 11 -10
v 4 11 -10
v 7 11 -10
v 9 11 -10
v 16 11 -10
v -2 11 -11
v 1 11 -11
v 3 11 -11
v 4 11 -11
v 6 11 -11
v -2 11 -12
v 1 11 -12
v 3 11 -12
v 6 11 -12
v -3 11 -13
v -1 11 -13
v 1 11 -13
v 3 11 -13
v 5 11 -13
v 7 11 -13
v -1 11 -14
v 5 11 -14
v -16 12 16
v 7 12 16
v 1 12 15
v 4 12 15
v 13 12 15
v 16 12 15
v 0 12 14
v 1 12 14
v 6 12 14
v 7 12 14
v 9 12 14
v 13 12 14
v 5 12 9
v 6 12 9
v 15 12 9
v 16 12 9
v 4 12 8
v 5 12 8
v -3 12 7
v 0 12 7
v -5 12 4
v -3 12 4
v 9 12 4
v 15 12 4
v 8 12 2
v 12 12 2
v -7 12 1
v -5 12 1
v 15 12 -0
v 16 12 -0
v -16 12 -1
v -7 12 -1
v -16 12 -3
v -8 12 -3
v 11 12 -3
v 12 12 -3
v 15 12 -4
v 16 12 -4
v -9 12 -5
v -8 12 -5
v 10 12 -5
v 11 12 -5
v -16 12 -6
v -9 12 -6
v -8 12 -6
v 9 12 -6
v 10 12 -6
v -3 12 -7
v 5 12 -7
v 8 12 -7
v 9 12 -7
v 12 12 -7
v -16 12 -8
v -3 12 -8
v 5 12 -8
v 6 12 -8
v 0 12 -9
v 4 12 -9
v 6 12 -9
v 9 12 -9
v -3 12 -10
v 0 12 -10
v 4 12 -10
v 7 12 -10
v 9 12 -10
v 16 12 -10
v -3 12 -13
v -1 12 -13
v 5 12 -13
v 7 12 -13
v -1 12 -14
v 5 12 -14
v -16 12 -16
v 16 12 -16

# faces
f 3/1/1 2/1/1 1/1/1
f 4/1/1 2/1/1 3/1/1
f 5/1/1 3/1/1 1/1/1
f 5/2/1 4/2/1 3/2/1
f 6/2/1 4/2/1 5/2/1
f 7/2/1 4/2/1 6/2/1
f 8/2/1 4/2/1 7/2/1
f 9/1/1 2/1/1 4/1/1
f 9/2/1 4/2/1 8/2/1
f 10/1/1 5/1/1 1/1/1
f 11/1/1 5/1/1 10/1/1
f 12/1/1 7/1/1 6/1/1
f 13/1/1 7/1/1 12/1/1
f 14/1/1 9/1/1 8/1/1
f 15/1/1 2/1/1 9/1/1
f 15/1/1 9/1/1 14/1/1
f 18/2/1 17/2/1 16/2/1
f 19/2/1 17/2/1 18/2/1
f 22/1/1 21/1/1 20/1/1
f 23/1/1 21/1/1 22/1/1
f 30/2/1 25/2/1 24/2/1
f 31/2/1 25/2/1 30/2/1
f 32/4/1 27/4/1 26/4/1
f 33/4/1 27/4/1 32/4/1
f 34/2/1 29/2/1 28/2/1
f 35/2/1 29/2/1 34/2/1
f 40/2/1 37/2/1 36/2/1
f 41/2/1 37/2/1 40/2/1
f 44/1/1 39/1/1 38/1/1
f 45/1/1 39/1/1 44/1/1
f 46/1/1 43/1/1 42/1/1
f 47/1/1 43/1/1 46/1/1
f 50/1/1 49/1/1 48/1/1
f 51/1/1 49/1/1 50/1/1
f 54/2/1 53/2/1 52/2/1
f 55/2/1 53/2/1 54/2/1
f 58/1/1 57/1/1 56/1/1
f 59/1/1 57/1/1 58/1/1
f 62/1/1 61/1/1 60/1/1
f 63/1/1 61/1/1 62/1/1
f 66/1/1 65/1/1 64/1/1
f 67/1/1 65/1/1 66/1/1
f 70/1/1 69/1/1 68/1/1
f 71/1/1 69/1/1 70/1/1
f 74/1/1 73/1/1 72/1/1
f 75/1/1 73/1/1 74/1/1
f 76/1/2 77/1/2 79/1/2
f 77/4/2 78/4/2 80/4/2
f 79/1/2 77/1/2 80/1/2
f 80/4/2 78/4/2 81/4/2
f 82/1/2 83/1/2 84/1/2
f 84/1/2 83/1/2 85/1/2
f 86/2/2 87/2/2 90/2/2
f 90/2/2 87/2/2 91/2/2
f 88/1/2 89/1/2 92/1/2
f 92/1/2 89/1/2 93/1/2
f 94/1/2 95/1/2 98/1/2
f 98/1/2 95/1/2 99/1/2
f 96/1/2 97/1/2 100/1/2
f 100/1/2 97/1/2 101/1/2
f 102/2/2 103/2/2 106/2/2
f 106/2/2 103/2/2 107/2/2
f 104/2/2 105/2/2 108/2/2
f 108/2/2 105/2/2 109/2/2
f 110/2/2 111/2/2 112/2/2
f 112/2/2 111/2/2 113/2/2
f 114/1/2 115/1/2 116/1/2
f 116/1/2 115/1/2 117/1/2
f 118/1/2 119/1/2 122/1/2
f 122/1/2 119/1/2 123/1/2
f 120/1/2 121/1/2 124/1/2
f 124/1/2 121/1/2 125/1/2
f 126/2/2 127/2/2 132/2/2
f 132/2/2 127/2/2 133/2/2
f 128/2/2 129/2/2 134/2/2
f 134/2/2 129/2/2 135/2/2
f 130/1/2 131/1/2 136/1/2
f 136/1/2 131/1/2 137/1/2
f 138/1/2 139/1/2 142/1/2
f 142/1/2 139/1/2 143/1/2
f 140/1/2 141/1/2 144/1/2
f 144/1/2 141/1/2 145/1/2
f 146/1/2 147/1/2 150/1/2
f 150/1/2 147/1/2 151/1/2
f 148/1/2 149/1/2 152/1/2
f 152/1/2 149/1/2 153/1/2
f 154/1/2 155/1/2 156/1/2
f 156/1/2 155/1/2 157/1/2
f 158/1/2 159/1/2 160/1/2
f 160/1/2 159/1/2 161/1/2
f 162/1/2 163/1/2 165/1/2
f 163/4/2 164/4/2 166/4/2
f 165/1/2 163/1/2 166/1/2
f 166/4/2 164/4/2 167/4/2
f 168/1/2 169/1/2 170/1/2
f 170/1/2 169/1/2 171/1/2
f 172/1/2 173/1/2 174/1/2
f 174/1/2 173/1/2 175/1/2
f 174/2/2 175/2/2 176/2/2
f 176/2/2 175/2/2 177/2/2
f 177/2/2 175/2/2 178/2/2
f 178/2/2 175/2/2 179/2/2
f 179/2/2 175/2/2 180/2/2
f 180/2/2 175/2/2 181/2/2
f 175/1/2 173/1/2 182/1/2
f 181/2/2 175/2/2 182/2/2
f 177/1/2 178/1/2 183/1/2
f 183/1/2 178/1/2 184/1/2
f 179/1/2 180/1/2 185/1/2
f 185/1/2 180/1/2 186/1/2
f 181/1/2 182/1/2 187/1/2
f 182/1/2 173/1/2 188/1/2
f 187/1/2 182/1/2 188/1/2
f 191/1/3 190/1/3 189/1/3
f 192/1/3 190/1/3 191/1/3
f 193/2/3 192/2/3 191/2/3
f 193/1/3 190/1/3 192/1/3
f 194/1/3 190/1/3 193/1/3
f 195/1/3 191/1/3 189/1/3
f 196/2/3 193/2/3 191/2/3
f 196/1/3 191/1/3 195/1/3
f 197/2/3 193/2/3 196/2/3
f 200/1/3 199/1/3 198/1/3
f 201/1/3 199/1/3 200/1/3
f 204/1/3 203/1/3 202/1/3
f 205/1/3 203/1/3 204/1/3
f 208/1/3 207/1/3 206/1/3
f 209/1/3 207/1/3 208/1/3
f 212/1/3 211/1/3 210/1/3
f 213/1/3 211/1/3 212/1/3
f 216/1/3 215/1/3 214/1/3
f 217/1/3 215/1/3 216/1/3
f 220/2/3 219/2/3 218/2/3
f 221/2/3 219/2/3 220/2/3
f 224/2/3 223/2/3 222/2/3
f 225/2/3 223/2/3 224/2/3
f 228/1/3 227/1/3 226/1/3
f 229/1/3 227/1/3 228/1/3
f 232/1/3 231/1/3 230/1/3
f 233/1/3 231/1/3 232/1/3
f 236/1/3 235/1/3 234/1/3
f 237/1/3 235/1/3 236/1/3
f 240/1/3 239/1/3 238/1/3
f 241/1/3 239/1/3 240/1/3
f 244/1/3 243/1/3 242/1/3
f 245/1/3 243/1/3 244/1/3
f 248/2/3 247/2/3 246/2/3
f 249/2/3 247/2/3 248/2/3
f 252/2/3 251/2/3 250/2/3
f 253/2/3 251/2/3 252/2/3
f 256/1/3 255/1/3 254/1/3
f 257/1/3 255/1/3 256/1/3
f 260/2/3 259/2/3 258/2/3
f 261/2/3 259/2/3 260/2/3
f 264/1/3 263/1/3 262/1/3
f 265/1/3 263/1/3 264/1/3
f 268/1/3 267/1/3 266/1/3
f 269/1/3 267/1/3 268/1/3
f 270/1/4 271/1/4 272/1/4
f 272/1/4 271/1/4 273/1/4
f 274/1/4 275/1/4 276/1/4
f 276/1/4 275/1/4 277/1/4
f 278/1/4 279/1/4 280/1/4
f 280/1/4 279/1/4 281/1/4
f 282/1/4 283/1/4 284/1/4
f 284/1/4 283/1/4 285/1/4
f 286/1/4 287/1/4 288/1/4
f 288/1/4 287/1/4 289/1/4
f 290/1/4 291/1/4 292/1/4
f 292/1/4 291/1/4 293/1/4
f 294/1/4 295/1/4 296/1/4
f 296/1/4 295/1/4 297/1/4
f 298/2/4 299/2/4 300/2/4
f 300/2/4 299/2/4 301/2/4
f 302/1/4 303/1/4 304/1/4
f 304/1/4 303/1/4 305/1/4
f 306/1/4 307/1/4 308/1/4
f 308/1/4 307/1/4 309/1/4
f 310/2/4 311/2/4 312/2/4
f 312/2/4 311/2/4 313/2/4
f 314/2/4 315/2/4 316/2/4
f 316/2/4 315/2/4 317/2/4
f 318/1/4 319/1/4 320/1/4
f 320/1/4 319/1/4 321/1/4
f 322/2/4 323/2/4 324/2/4
f 324/2/4 323/2/4 325/2/4
f 326/1/4 327/1/4 328/1/4
f 328/1/4 327/1/4 329/1/4
f 330/1/4 331/1/4 332/1/4
f 332/1/4 331/1/4 333/1/4
f 334/1/4 335/1/4 336/1/4
f 336/1/4 335/1/4 337/1/4
f 336/4/4 337/4/4 338/4/4
f 338/4/4 337/4/4 339/4/4
f 340/1/4 341/1/4 342/1/4
f 342/1/4 341/1/4 343/1/4
f 342/4/4 343/4/4 344/4/4
f 344/4/4 343/4/4 345/4/4
f 346/1/4 347/1/4 348/1/4
f 348/1/4 347/1/4 349/1/4
f 350/1/4 351/1/4 352/1/4
f 352/1/4 351/1/4 353/1/4
f 354/2/4 355/2/4 356/2/4
f 356/2/4 355/2/4 357/2/4
f 358/1/4 359/1/4 360/1/4
f 360/1/4 359/1/4 361/1/4
f 362/2/4 363/2/4 364/2/4
f 364/2/4 363/2/4 365/2/4
f 366/4/4 367/4/4 368/4/4
f 368/4/4 367/4/4 369/4/4
f 368/2/4 369/2/4 370/2/4
f 370/2/4 369/2/4 371/2/4
f 372/1/4 373/1/4 374/1/4
f 374/1/4 373/1/4 375/1/4
f 378/1/5 377/1/5 376/1/5
f 379/1/5 377/1/5 378/1/5
f 380/3/6 381/3/6 383/3/6
f 383/3/6 381/3/6 384/3/6
f 382/3/6 383/3/6 387/3/6
f 384/3/6 385/3/6 387/3/6
f 383/3/6 384/3/6 387/3/6
f 386/3/6 387/3/6 388/3/6
f 387/3/6 385/3/6 389/3/6
f 388/3/6 387/3/6 389/3/6
f 386/3/6 388/3/6 390/3/6
f 390/3/6 388/3/6 391/3/6
f 392/3/6 393/3/6 395/3/6
f 395/3/6 393/3/6 396/3/6
f 396/3/6 397/3/6 399/3/6
f 397/3/6 398/3/6 399/3/6
f 395/3/6 396/3/6 399/3/6
f 394/3/6 395/3/6 399/3/6
f 399/3/6 398/3/6 400/3/6
f 400/3/6 398/3/6 401/3/6
f 401/3/6 398/3/6 402/3/6
f 400/3/6 401/3/6 403/3/6
f 403/3/6 401/3/6 404/3/6
f 405/2/6 406/2/6 409/2/6
f 409/2/6 406/2/6 410/2/6
f 407/2/6 408/2/6 412/2/6
f 405/2/6 409/2/6 414/2/6
f 414/2/6 409/2/6 415/2/6
f 415/2/6 409/2/6 416/2/6
f 413/2/6 414/2/6 418/2/6
f 414/2/6 415/2/6 418/2/6
f 411/2/6 412/2/6 421/2/6
f 412/2/6 408/2/6 421/2/6
f 417/2/6 418/2/6 422/2/6
f 411/2/6 421/2/6 424/2/6
f 421/2/6 422/2/6 424/2/6
f 423/2/6 424/2/6 425/2/6
f 424/2/6 422/2/6 426/2/6
f 425/2/6 424/2/6 426/2/6
f 423/2/6 425/2/6 428/2/6
f 418/2/6 415/2/6 429/2/6
f 422/2/6 418/2/6 429/2/6
f 426/2/6 422/2/6 429/2/6
f 419/2/6 420/2/6 430/2/6
f 427/2/6 428/2/6 431/2/6
f 428/2/6 425/2/6 431/2/6
f 431/2/6 425/2/6 432/2/6
f 426/2/6 429/2/6 433/2/6
f 429/2/6 430/2/6 433/2/6
f 433/2/6 430/2/6 434/2/6
f 434/2/6 430/2/6 435/2/6
f 435/2/6 430/2/6 436/2/6
f 427/2/6 431/2/6 438/2/6
f 438/2/6 431/2/6 439/2/6
f 437/2/6 438/2/6 439/2/6
f 439/2/6 431/2/6 440/2/6
f 436/2/6 430/2/6 441/2/6
f 430/2/6 420/2/6 441/2/6
f 441/2/6 420/2/6 442/2/6
f 437/2/6 439/2/6 444/2/6
f 443/2/6 444/2/6 445/2/6
f 445/2/6 444/2/6 446/2/6
f 436/2/6 441/2/6 447/2/6
f 447/2/6 441/2/6 448/2/6
f 446/2/6 444/2/6 450/2/6
f 434/2/6 435/2/6 452/2/6
f 450/2/6 444/2/6 455/2/6
f 444/2/6 439/2/6 456/2/6
f 455/2/6 444/2/6 456/2/6
f 451/2/6 452/2/6 457/2/6
f 453/2/6 454/2/6 458/2/6
f 456/2/6 457/2/6 458/2/6
f 457/2/6 452/2/6 458/2/6
f 454/2/6 455/2/6 458/2/6
f 455/2/6 456/2/6 458/2/6
f 452/2/6 435/2/6 459/2/6
f 458/2/6 452/2/6 459/2/6
f 459/2/6 435/2/6 460/2/6
f 448/2/6 449/2/6 462/2/6
f 447/2/6 448/2/6 462/2/6
f 453/2/6 458/2/6 463/2/6
f 463/2/6 458/2/6 464/2/6
f 460/2/6 461/2/6 465/2/6
f 459/2/6 460/2/6 465/2/6
f 461/2/6 462/2/6 465/2/6
f 465/2/6 462/2/6 466/2/6
f 466/2/6 462/2/6 469/2/6
f 469/2/6 462/2/6 470/2/6
f 467/2/6 468/2/6 472/2/6
f 472/2/6 468/2/6 473/2/6
f 473/2/6 468/2/6 474/2/6
f 474/2/6 468/2/6 475/2/6
f 470/2/6 462/2/6 477/2/6
f 462/2/6 449/2/6 478/2/6
f 477/2/6 462/2/6 478/2/6
f 471/2/6 472/2/6 479/2/6
f 472/2/6 473/2/6 479/2/6
f 479/2/6 473/2/6 480/2/6
f 474/4/6 475/4/6 481/4/6
f 475/2/6 476/2/6 482/2/6
f 481/4/6 475/4/6 482/4/6
f 482/2/6 476/2/6 483/2/6
f 471/2/6 479/2/6 484/2/6
f 483/2/6 476/2/6 487/2/6
f 484/2/6 485/2/6 488/2/6
f 471/2/6 484/2/6 488/2/6
f 488/2/6 485/2/6 489/2/6
f 489/2/6 485/2/6 490/2/6
f 486/2/6 487/2/6 491/2/6
f 491/2/6 487/2/6 492/2/6
f 487/2/6 476/2/6 493/2/6
f 492/2/6 487/2/6 493/2/6
f 489/2/6 490/2/6 494/2/6
f 491/2/6 492/2/6 494/2/6
f 490/2/6 491/2/6 494/2/6
f 494/2/6 492/2/6 495/2/6
f 496/1/6 497/1/6 498/1/6
f 498/1/6 497/1/6 499/1/6
f 496/1/6 498/1/6 502/1/6
f 502/1/6 498/1/6 503/1/6
f 499/1/6 497/1/6 504/1/6
f 504/1/6 497/1/6 505/1/6
f 500/1/6 501/1/6 507/1/6
f 499/1/6 504/1/6 508/1/6
f 508/1/6 504/1/6 509/1/6
f 506/1/6 507/1/6 510/1/6
f 507/1/6 501/1/6 510/1/6
f 510/1/6 501/1/6 511/1/6
f 499/1/6 508/1/6 512/1/6
f 512/1/6 508/1/6 513/1/6
f 496/1/6 502/1/6 514/1/6
f 514/1/6 502/1/6 515/1/6
f 496/1/6 514/1/6 516/1/6
f 516/1/6 514/1/6 517/1/6
f 506/1/6 510/1/6 518/1/6
f 518/1/6 510/1/6 519/1/6
f 496/1/6 516/1/6 522/1/6
f 522/1/6 516/1/6 523/1/6
f 496/1/6 522/1/6 526/1/6
f 526/1/6 522/1/6 527/1/6
f 520/1/6 521/1/6 530/1/6
f 530/1/6 521/1/6 531/1/6
f 524/1/6 525/1/6 532/1/6
f 532/1/6 525/1/6 533/1/6
f 528/1/6 529/1/6 534/1/6
f 534/1/6 529/1/6 535/1/6
f 520/1/6 530/1/6 536/1/6
f 530/4/6 531/4/6 537/4/6
f 536/1/6 530/1/6 537/1/6
f 528/1/6 534/1/6 538/1/6
f 534/4/6 535/4/6 539/4/6
f 538/1/6 534/1/6 539/1/6
f 539/4/6 535/4/6 540/4/6
f 520/1/6 536/1/6 541/1/6
f 536/4/6 537/4/6 542/4/6
f 541/1/6 536/1/6 542/1/6
f 520/1/6 541/1/6 545/1/6
f 541/4/6 542/4/6 546/4/6
f 545/1/6 541/1/6 546/1/6
f 542/4/6 537/4/6 547/4/6
f 546/4/6 542/4/6 547/4/6
f 537/4/6 531/4/6 547/4/6
f 543/1/6 544/1/6 549/1/6
f 549/1/6 544/1/6 550/1/6
f 548/1/6 549/1/6 552/1/6
f 550/1/6 551/1/6 552/1/6
f 549/1/6 550/1/6 552/1/6
f 552/1/6 551/1/6 553/1/6
f 553/1/6 551/1/6 554/1/6
f 548/1/6 552/1/6 556/1/6
f 556/1/6 552/1/6 557/1/6
f 554/1/6 555/1/6 558/1/6
f 553/1/6 554/1/6 558/1/6
f 558/1/6 555/1/6 559/1/6
f 559/1/6 555/1/6 560/1/6
f 548/1/6 556/1/6 562/1/6
f 559/1/6 560/1/6 565/1/6
f 560/1/6 561/1/6 565/1/6
f 562/1/6 563/1/6 566/1/6
f 564/1/6 565/1/6 567/1/6
f 562/1/6 566/1/6 568/1/6
f 566/1/6 567/1/6 568/1/6
f 548/1/6 562/1/6 568/1/6
f 567/1/6 565/1/6 569/1/6
f 568/1/6 567/1/6 569/1/6
f 565/1/6 561/1/6 569/1/6
