# MagicaVoxel @ Ephtracy

# group
g ClusterGrenade

# material
mtllib ClusterGrenade.mtl
usemtl palette

# normals
vn -1 0 0
vn 1 0 0
vn 0 0 1
vn 0 0 -1
vn 0 -1 0
vn 0 1 0

# texcoords
vt 0.794922 0.5
vt 0.798828 0.5
vt 0.994141 0.5

# verts
v -2 2 1
v -2 2 -1
v -2 3 1
v -2 3 -1
v -2 4 1
v -2 4 -1
v -2 5 1
v -2 5 -1
v -1 1 1
v -1 1 -1
v -1 2 2
v -1 2 1
v -1 2 -1
v -1 2 -2
v -1 3 2
v -1 3 1
v -1 3 -1
v -1 3 -2
v -1 4 2
v -1 4 1
v -1 4 -1
v -1 4 -2
v -1 5 2
v -1 5 1
v -1 5 -1
v -1 5 -2
v -1 6 1
v -1 6 -1
v 1 1 1
v 1 1 -1
v 1 2 2
v 1 2 1
v 1 2 -1
v 1 2 -2
v 1 3 2
v 1 3 1
v 1 3 -1
v 1 3 -2
v 1 4 2
v 1 4 1
v 1 4 -1
v 1 4 -2
v 1 5 2
v 1 5 1
v 1 5 -1
v 1 5 -2
v 1 6 1
v 1 6 -1
v 2 2 1
v 2 2 -1
v 2 3 1
v 2 3 -1
v 2 4 1
v 2 4 -1
v 2 5 1
v 2 5 -1
v -1 2 2
v -1 3 2
v -1 4 2
v -1 5 2
v 1 2 2
v 1 3 2
v 1 4 2
v 1 5 2
v -2 2 1
v -2 3 1
v -2 4 1
v -2 5 1
v -1 1 1
v -1 2 1
v -1 3 1
v -1 4 1
v -1 5 1
v -1 6 1
v 1 1 1
v 1 2 1
v 1 3 1
v 1 4 1
v 1 5 1
v 1 6 1
v 2 2 1
v 2 3 1
v 2 4 1
v 2 5 1
v -2 2 -1
v -2 3 -1
v -2 4 -1
v -2 5 -1
v -1 1 -1
v -1 2 -1
v -1 3 -1
v -1 4 -1
v -1 5 -1
v -1 6 -1
v 1 1 -1
v 1 2 -1
v 1 3 -1
v 1 4 -1
v 1 5 -1
v 1 6 -1
v 2 2 -1
v 2 3 -1
v 2 4 -1
v 2 5 -1
v -1 2 -2
v -1 3 -2
v -1 4 -2
v -1 5 -2
v 1 2 -2
v 1 3 -2
v 1 4 -2
v 1 5 -2
v -1 1 1
v 1 1 1
v -1 1 -1
v 1 1 -1
v -1 2 2
v 1 2 2
v -2 2 1
v -1 2 1
v 1 2 1
v 2 2 1
v -2 2 -1
v -1 2 -1
v 1 2 -1
v 2 2 -1
v -1 2 -2
v 1 2 -2
v -1 5 2
v 1 5 2
v -2 5 1
v -1 5 1
v 1 5 1
v 2 5 1
v -2 5 -1
v -1 5 -1
v 1 5 -1
v 2 5 -1
v -1 5 -2
v 1 5 -2
v -1 6 1
v 1 6 1
v -1 6 -1
v 1 6 -1

# faces
f 3/1/1 2/1/1 1/1/1
f 4/1/1 2/1/1 3/1/1
f 5/3/1 4/3/1 3/3/1
f 6/3/1 4/3/1 5/3/1
f 7/1/1 6/1/1 5/1/1
f 8/1/1 6/1/1 7/1/1
f 12/2/1 10/2/1 9/2/1
f 13/2/1 10/2/1 12/2/1
f 15/1/1 12/1/1 11/1/1
f 16/1/1 12/1/1 15/1/1
f 17/1/1 14/1/1 13/1/1
f 18/1/1 14/1/1 17/1/1
f 19/3/1 16/3/1 15/3/1
f 20/3/1 16/3/1 19/3/1
f 21/3/1 18/3/1 17/3/1
f 22/3/1 18/3/1 21/3/1
f 23/1/1 20/1/1 19/1/1
f 24/1/1 20/1/1 23/1/1
f 25/1/1 22/1/1 21/1/1
f 26/1/1 22/1/1 25/1/1
f 27/2/1 25/2/1 24/2/1
f 28/2/1 25/2/1 27/2/1
f 29/2/2 30/2/2 32/2/2
f 32/2/2 30/2/2 33/2/2
f 31/1/2 32/1/2 35/1/2
f 35/1/2 32/1/2 36/1/2
f 33/1/2 34/1/2 37/1/2
f 37/1/2 34/1/2 38/1/2
f 35/3/2 36/3/2 39/3/2
f 39/3/2 36/3/2 40/3/2
f 37/3/2 38/3/2 41/3/2
f 41/3/2 38/3/2 42/3/2
f 39/1/2 40/1/2 43/1/2
f 43/1/2 40/1/2 44/1/2
f 41/1/2 42/1/2 45/1/2
f 45/1/2 42/1/2 46/1/2
f 44/2/2 45/2/2 47/2/2
f 47/2/2 45/2/2 48/2/2
f 49/1/2 50/1/2 51/1/2
f 51/1/2 50/1/2 52/1/2
f 51/3/2 52/3/2 53/3/2
f 53/3/2 52/3/2 54/3/2
f 53/1/2 54/1/2 55/1/2
f 55/1/2 54/1/2 56/1/2
f 61/1/3 58/1/3 57/1/3
f 62/3/3 59/3/3 58/3/3
f 62/1/3 58/1/3 61/1/3
f 63/1/3 60/1/3 59/1/3
f 63/3/3 59/3/3 62/3/3
f 64/1/3 60/1/3 63/1/3
f 70/1/3 66/1/3 65/1/3
f 71/3/3 67/3/3 66/3/3
f 71/1/3 66/1/3 70/1/3
f 72/1/3 68/1/3 67/1/3
f 72/3/3 67/3/3 71/3/3
f 73/1/3 68/1/3 72/1/3
f 75/2/3 70/2/3 69/2/3
f 76/2/3 70/2/3 75/2/3
f 79/2/3 74/2/3 73/2/3
f 80/2/3 74/2/3 79/2/3
f 81/1/3 77/1/3 76/1/3
f 82/3/3 78/3/3 77/3/3
f 82/1/3 77/1/3 81/1/3
f 83/1/3 79/1/3 78/1/3
f 83/3/3 78/3/3 82/3/3
f 84/1/3 79/1/3 83/1/3
f 85/1/4 86/1/4 90/1/4
f 86/3/4 87/3/4 91/3/4
f 90/1/4 86/1/4 91/1/4
f 87/1/4 88/1/4 92/1/4
f 91/3/4 87/3/4 92/3/4
f 92/1/4 88/1/4 93/1/4
f 89/2/4 90/2/4 95/2/4
f 95/2/4 90/2/4 96/2/4
f 93/2/4 94/2/4 99/2/4
f 99/2/4 94/2/4 100/2/4
f 96/1/4 97/1/4 101/1/4
f 97/3/4 98/3/4 102/3/4
f 101/1/4 97/1/4 102/1/4
f 98/1/4 99/1/4 103/1/4
f 102/3/4 98/3/4 103/3/4
f 103/1/4 99/1/4 104/1/4
f 105/1/4 106/1/4 109/1/4
f 106/3/4 107/3/4 110/3/4
f 109/1/4 106/1/4 110/1/4
f 107/1/4 108/1/4 111/1/4
f 110/3/4 107/3/4 111/3/4
f 111/1/4 108/1/4 112/1/4
f 115/2/5 114/2/5 113/2/5
f 116/2/5 114/2/5 115/2/5
f 120/1/5 118/1/5 117/1/5
f 121/1/5 118/1/5 120/1/5
f 123/1/5 120/1/5 119/1/5
f 124/1/5 120/1/5 123/1/5
f 125/1/5 122/1/5 121/1/5
f 126/1/5 122/1/5 125/1/5
f 127/1/5 125/1/5 124/1/5
f 128/1/5 125/1/5 127/1/5
f 129/1/6 130/1/6 132/1/6
f 132/1/6 130/1/6 133/1/6
f 131/1/6 132/1/6 135/1/6
f 135/1/6 132/1/6 136/1/6
f 133/1/6 134/1/6 137/1/6
f 137/1/6 134/1/6 138/1/6
f 136/1/6 137/1/6 139/1/6
f 139/1/6 137/1/6 140/1/6
f 141/2/6 142/2/6 143/2/6
f 143/2/6 142/2/6 144/2/6
