# MagicaVoxel @ Ephtracy

# group
g CornerWallMid

# material
mtllib CornerWallMid.mtl
usemtl palette

# normals
vn -1 0 0
vn 1 0 0
vn 0 0 1
vn 0 0 -1
vn 0 -1 0
vn 0 1 0

# texcoords
vt 0.982422 0.5

# verts
v -32 0 29
v -32 0 -32
v -32 5 29
v -32 5 28
v -32 17 29
v -32 17 28
v -32 31 29
v -32 31 28
v -32 32 30
v -32 32 28
v -32 38 30
v -32 38 28
v -32 39 29
v -32 39 28
v -32 40 29
v -32 40 28
v -32 44 29
v -32 44 28
v -32 45 29
v -32 45 28
v -32 46 29
v -32 46 28
v -32 48 30
v -32 48 29
v -32 64 30
v -32 64 -32
v -28 0 32
v -28 0 31
v -28 32 32
v -28 32 31
v -28 62 32
v -28 62 31
v -28 64 32
v -28 64 31
v -27 32 32
v -27 32 31
v -27 35 32
v -27 35 31
v -27 54 32
v -27 54 31
v -27 62 32
v -27 62 31
v -26 0 31
v -26 0 30
v -26 34 31
v -26 34 30
v -26 36 32
v -26 36 31
v -26 54 32
v -26 54 31
v -26 62 31
v -26 62 30
v -26 64 31
v -26 64 30
v -25 37 31
v -25 37 30
v -25 53 31
v -25 53 30
v -24 53 31
v -24 53 30
v -24 62 31
v -24 62 30
v -23 1 30
v -23 1 29
v -23 33 30
v -23 33 29
v -23 38 30
v -23 38 29
v -23 39 26
v -23 39 25
v -23 45 26
v -23 45 25
v -23 52 30
v -23 52 29
v -22 52 30
v -22 52 29
v -22 64 30
v -22 64 29
v -19 6 26
v -19 6 25
v -19 36 26
v -19 36 25
v -18 0 30
v -18 0 26
v -18 1 30
v -18 1 29
v -18 33 30
v -18 33 29
v -18 34 31
v -18 34 30
v -18 35 32
v -18 35 31
v -18 36 32
v -18 36 31
v -18 37 31
v -18 37 30
v -18 38 30
v -18 38 29
v -18 64 29
v -18 64 26
v -31 6 28
v -31 6 27
v -31 17 28
v -31 17 27
v -31 19 29
v -31 19 28
v -31 31 29
v -31 31 28
v -31 32 30
v -31 32 28
v -31 38 30
v -31 38 28
v -31 39 29
v -31 39 28
v -31 40 29
v -31 40 28
v -31 44 29
v -31 44 28
v -31 45 29
v -31 45 28
v -31 46 29
v -31 46 28
v -31 46 27
v -31 47 28
v -31 47 27
v -31 48 30
v -31 48 29
v -31 48 28
v -31 64 30
v -31 64 29
v -30 0 29
v -30 0 28
v -30 1 29
v -30 1 28
v -30 4 29
v -30 4 28
v -30 5 29
v -30 5 28
v -30 5 26
v -30 6 28
v -30 6 27
v -30 17 29
v -30 17 27
v -30 19 29
v -30 19 28
v -30 46 28
v -30 46 27
v -30 47 28
v -30 47 27
v -30 48 29
v -30 48 28
v -30 64 29
v -30 64 26
v -29 0 28
v -29 0 26
v -29 1 29
v -29 1 28
v -29 4 29
v -29 4 28
v -29 5 28
v -29 5 26
v -28 6 26
v -28 6 25
v -28 36 26
v -28 36 25
v -27 39 26
v -27 39 25
v -27 45 26
v -27 45 25
v 32 0 32
v 32 0 -32
v 32 64 32
v 32 64 -32
v -28 0 32
v -28 32 32
v -28 62 32
v -28 64 32
v -27 32 32
v -27 35 32
v -27 54 32
v -27 62 32
v -26 36 32
v -26 54 32
v -18 35 32
v -18 36 32
v 32 0 32
v 32 64 32
v -32 32 30
v -32 38 30
v -32 48 30
v -32 64 30
v -31 32 30
v -31 38 30
v -31 48 30
v -31 64 30
v -32 0 29
v -32 5 29
v -32 17 29
v -32 31 29
v -32 39 29
v -32 40 29
v -32 44 29
v -32 45 29
v -32 46 29
v -32 48 29
v -31 19 29
v -31 31 29
v -31 39 29
v -31 40 29
v -31 44 29
v -31 45 29
v -31 46 29
v -31 48 29
v -31 64 29
v -30 0 29
v -30 1 29
v -30 4 29
v -30 5 29
v -30 17 29
v -30 19 29
v -30 48 29
v -30 64 29
v -29 1 29
v -29 4 29
v -32 5 28
v -32 17 28
v -32 31 28
v -32 32 28
v -32 38 28
v -32 39 28
v -32 40 28
v -32 44 28
v -32 45 28
v -32 46 28
v -31 6 28
v -31 17 28
v -31 19 28
v -31 31 28
v -31 32 28
v -31 38 28
v -31 39 28
v -31 40 28
v -31 44 28
v -31 45 28
v -31 46 28
v -31 47 28
v -31 48 28
v -30 0 28
v -30 1 28
v -30 4 28
v -30 5 28
v -30 6 28
v -30 19 28
v -30 46 28
v -30 47 28
v -30 48 28
v -29 0 28
v -29 1 28
v -29 4 28
v -29 5 28
v -31 6 27
v -31 17 27
v -31 46 27
v -31 47 27
v -30 6 27
v -30 17 27
v -30 46 27
v -30 47 27
v -30 5 26
v -30 64 26
v -29 0 26
v -29 5 26
v -28 6 26
v -28 36 26
v -27 39 26
v -27 45 26
v -23 39 26
v -23 45 26
v -19 6 26
v -19 36 26
v -18 0 26
v -18 64 26
v -28 6 25
v -28 36 25
v -27 39 25
v -27 45 25
v -23 39 25
v -23 45 25
v -19 6 25
v -19 36 25
v -28 0 31
v -28 32 31
v -28 62 31
v -28 64 31
v -27 32 31
v -27 35 31
v -27 54 31
v -27 62 31
v -26 0 31
v -26 34 31
v -26 36 31
v -26 54 31
v -26 62 31
v -26 64 31
v -25 37 31
v -25 53 31
v -24 53 31
v -24 62 31
v -18 34 31
v -18 35 31
v -18 36 31
v -18 37 31
v -26 0 30
v -26 34 30
v -26 62 30
v -26 64 30
v -25 37 30
v -25 53 30
v -24 53 30
v -24 62 30
v -23 1 30
v -23 33 30
v -23 38 30
v -23 52 30
v -22 52 30
v -22 64 30
v -18 0 30
v -18 1 30
v -18 33 30
v -18 34 30
v -18 37 30
v -18 38 30
v -23 1 29
v -23 33 29
v -23 38 29
v -23 52 29
v -22 52 29
v -22 64 29
v -18 1 29
v -18 33 29
v -18 38 29
v -18 64 29
v -32 0 -32
v -32 64 -32
v 32 0 -32
v 32 64 -32
v -28 0 32
v 32 0 32
v -28 0 31
v -26 0 31
v -26 0 30
v -18 0 30
v -32 0 29
v -30 0 29
v -30 0 28
v -29 0 28
v -29 0 26
v -18 0 26
v -32 0 -32
v 32 0 -32
v -23 1 30
v -18 1 30
v -30 1 29
v -29 1 29
v -23 1 29
v -18 1 29
v -30 1 28
v -29 1 28
v -32 17 29
v -30 17 29
v -32 17 28
v -31 17 28
v -31 17 27
v -30 17 27
v -32 32 30
v -31 32 30
v -32 32 28
v -31 32 28
v -26 36 32
v -18 36 32
v -26 36 31
v -18 36 31
v -28 36 26
v -19 36 26
v -28 36 25
v -19 36 25
v -25 37 31
v -18 37 31
v -25 37 30
v -18 37 30
v -23 38 30
v -18 38 30
v -23 38 29
v -18 38 29
v -32 39 29
v -31 39 29
v -32 39 28
v -31 39 28
v -32 44 29
v -31 44 29
v -32 44 28
v -31 44 28
v -27 45 26
v -23 45 26
v -27 45 25
v -23 45 25
v -32 46 29
v -31 46 29
v -32 46 28
v -31 46 28
v -31 47 28
v -30 47 28
v -31 47 27
v -30 47 27
v -32 48 30
v -31 48 30
v -32 48 29
v -31 48 29
v -30 48 29
v -31 48 28
v -30 48 28
v -27 54 32
v -26 54 32
v -27 54 31
v -26 54 31
v -28 62 32
v -27 62 32
v -28 62 31
v -27 62 31
v -26 62 31
v -24 62 31
v -26 62 30
v -24 62 30
v -30 4 29
v -29 4 29
v -30 4 28
v -29 4 28
v -32 5 29
v -30 5 29
v -32 5 28
v -30 5 28
v -29 5 28
v -30 5 26
v -29 5 26
v -31 6 28
v -30 6 28
v -31 6 27
v -30 6 27
v -28 6 26
v -19 6 26
v -28 6 25
v -19 6 25
v -31 19 29
v -30 19 29
v -31 19 28
v -30 19 28
v -32 31 29
v -31 31 29
v -32 31 28
v -31 31 28
v -28 32 32
v -27 32 32
v -28 32 31
v -27 32 31
v -23 33 30
v -18 33 30
v -23 33 29
v -18 33 29
v -26 34 31
v -18 34 31
v -26 34 30
v -18 34 30
v -27 35 32
v -18 35 32
v -27 35 31
v -18 35 31
v -32 38 30
v -31 38 30
v -32 38 28
v -31 38 28
v -27 39 26
v -23 39 26
v -27 39 25
v -23 39 25
v -32 40 29
v -31 40 29
v -32 40 28
v -31 40 28
v -32 45 29
v -31 45 29
v -32 45 28
v -31 45 28
v -31 46 28
v -30 46 28
v -31 46 27
v -30 46 27
v -23 52 30
v -22 52 30
v -23 52 29
v -22 52 29
v -25 53 31
v -24 53 31
v -25 53 30
v -24 53 30
v -28 64 32
v 32 64 32
v -28 64 31
v -26 64 31
v -32 64 30
v -31 64 30
v -26 64 30
v -22 64 30
v -31 64 29
v -30 64 29
v -22 64 29
v -18 64 29
v -30 64 26
v -18 64 26
v -32 64 -32
v 32 64 -32

# faces
f 3/1/1 2/1/1 1/1/1
f 4/1/1 2/1/1 3/1/1
f 6/1/1 2/1/1 4/1/1
f 7/1/1 6/1/1 5/1/1
f 8/1/1 2/1/1 6/1/1
f 8/1/1 6/1/1 7/1/1
f 10/1/1 2/1/1 8/1/1
f 11/1/1 10/1/1 9/1/1
f 12/1/1 2/1/1 10/1/1
f 12/1/1 10/1/1 11/1/1
f 14/1/1 2/1/1 12/1/1
f 15/1/1 14/1/1 13/1/1
f 16/1/1 2/1/1 14/1/1
f 16/1/1 14/1/1 15/1/1
f 18/1/1 2/1/1 16/1/1
f 19/1/1 18/1/1 17/1/1
f 20/1/1 2/1/1 18/1/1
f 20/1/1 18/1/1 19/1/1
f 22/1/1 2/1/1 20/1/1
f 24/1/1 22/1/1 21/1/1
f 25/1/1 24/1/1 23/1/1
f 26/1/1 2/1/1 22/1/1
f 26/1/1 24/1/1 25/1/1
f 26/1/1 22/1/1 24/1/1
f 29/1/1 28/1/1 27/1/1
f 30/1/1 28/1/1 29/1/1
f 33/1/1 32/1/1 31/1/1
f 34/1/1 32/1/1 33/1/1
f 37/1/1 36/1/1 35/1/1
f 38/1/1 36/1/1 37/1/1
f 41/1/1 40/1/1 39/1/1
f 42/1/1 40/1/1 41/1/1
f 45/1/1 44/1/1 43/1/1
f 46/1/1 44/1/1 45/1/1
f 49/1/1 48/1/1 47/1/1
f 50/1/1 48/1/1 49/1/1
f 53/1/1 52/1/1 51/1/1
f 54/1/1 52/1/1 53/1/1
f 57/1/1 56/1/1 55/1/1
f 58/1/1 56/1/1 57/1/1
f 61/1/1 60/1/1 59/1/1
f 62/1/1 60/1/1 61/1/1
f 65/1/1 64/1/1 63/1/1
f 66/1/1 64/1/1 65/1/1
f 71/1/1 70/1/1 69/1/1
f 72/1/1 70/1/1 71/1/1
f 73/1/1 68/1/1 67/1/1
f 74/1/1 68/1/1 73/1/1
f 77/1/1 76/1/1 75/1/1
f 78/1/1 76/1/1 77/1/1
f 81/1/1 80/1/1 79/1/1
f 82/1/1 80/1/1 81/1/1
f 85/1/1 84/1/1 83/1/1
f 86/1/1 84/1/1 85/1/1
f 88/1/1 84/1/1 86/1/1
f 90/1/1 88/1/1 87/1/1
f 92/1/1 90/1/1 89/1/1
f 93/1/1 92/1/1 91/1/1
f 94/1/1 90/1/1 92/1/1
f 94/1/1 92/1/1 93/1/1
f 95/1/1 90/1/1 94/1/1
f 96/1/1 88/1/1 90/1/1
f 96/1/1 90/1/1 95/1/1
f 97/1/1 88/1/1 96/1/1
f 98/1/1 84/1/1 88/1/1
f 98/1/1 88/1/1 97/1/1
f 99/1/1 84/1/1 98/1/1
f 100/1/1 84/1/1 99/1/1
f 101/1/2 102/1/2 103/1/2
f 103/1/2 102/1/2 104/1/2
f 105/1/2 106/1/2 107/1/2
f 107/1/2 106/1/2 108/1/2
f 109/1/2 110/1/2 111/1/2
f 111/1/2 110/1/2 112/1/2
f 113/1/2 114/1/2 115/1/2
f 115/1/2 114/1/2 116/1/2
f 117/1/2 118/1/2 119/1/2
f 119/1/2 118/1/2 120/1/2
f 121/1/2 122/1/2 124/1/2
f 122/1/2 123/1/2 124/1/2
f 124/1/2 123/1/2 125/1/2
f 121/1/2 124/1/2 127/1/2
f 127/1/2 124/1/2 128/1/2
f 126/1/2 127/1/2 129/1/2
f 129/1/2 127/1/2 130/1/2
f 131/1/2 132/1/2 133/1/2
f 133/1/2 132/1/2 134/1/2
f 135/1/2 136/1/2 137/1/2
f 137/1/2 136/1/2 138/1/2
f 138/1/2 139/1/2 140/1/2
f 140/1/2 139/1/2 141/1/2
f 141/1/2 139/1/2 143/1/2
f 142/1/2 143/1/2 144/1/2
f 144/1/2 143/1/2 145/1/2
f 145/1/2 143/1/2 146/1/2
f 143/1/2 139/1/2 147/1/2
f 146/1/2 143/1/2 147/1/2
f 147/1/2 139/1/2 149/1/2
f 148/1/2 149/1/2 151/1/2
f 150/1/2 151/1/2 152/1/2
f 149/1/2 139/1/2 153/1/2
f 152/1/2 151/1/2 153/1/2
f 151/1/2 149/1/2 153/1/2
f 154/1/2 155/1/2 157/1/2
f 156/1/2 157/1/2 158/1/2
f 157/1/2 155/1/2 159/1/2
f 158/1/2 157/1/2 159/1/2
f 159/1/2 155/1/2 160/1/2
f 160/1/2 155/1/2 161/1/2
f 162/1/2 163/1/2 164/1/2
f 164/1/2 163/1/2 165/1/2
f 166/1/2 167/1/2 168/1/2
f 168/1/2 167/1/2 169/1/2
f 170/1/2 171/1/2 172/1/2
f 172/1/2 171/1/2 173/1/2
f 178/1/3 175/1/3 174/1/3
f 181/1/3 177/1/3 176/1/3
f 183/1/3 181/1/3 180/1/3
f 184/1/3 179/1/3 178/1/3
f 185/1/3 183/1/3 182/1/3
f 186/1/3 184/1/3 178/1/3
f 186/1/3 185/1/3 184/1/3
f 186/1/3 178/1/3 174/1/3
f 187/1/3 183/1/3 185/1/3
f 187/1/3 185/1/3 186/1/3
f 187/1/3 177/1/3 181/1/3
f 187/1/3 181/1/3 183/1/3
f 192/1/3 189/1/3 188/1/3
f 193/1/3 189/1/3 192/1/3
f 194/1/3 191/1/3 190/1/3
f 195/1/3 191/1/3 194/1/3
f 206/1/3 199/1/3 198/1/3
f 207/1/3 199/1/3 206/1/3
f 208/1/3 201/1/3 200/1/3
f 209/1/3 201/1/3 208/1/3
f 210/1/3 203/1/3 202/1/3
f 211/1/3 203/1/3 210/1/3
f 212/1/3 205/1/3 204/1/3
f 213/1/3 205/1/3 212/1/3
f 215/1/3 197/1/3 196/1/3
f 216/1/3 197/1/3 215/1/3
f 217/1/3 197/1/3 216/1/3
f 218/1/3 197/1/3 217/1/3
f 219/1/3 206/1/3 198/1/3
f 220/1/3 206/1/3 219/1/3
f 221/1/3 214/1/3 213/1/3
f 222/1/3 214/1/3 221/1/3
f 223/1/3 217/1/3 216/1/3
f 224/1/3 217/1/3 223/1/3
f 235/1/3 226/1/3 225/1/3
f 236/1/3 226/1/3 235/1/3
f 238/1/3 228/1/3 227/1/3
f 239/1/3 228/1/3 238/1/3
f 240/1/3 230/1/3 229/1/3
f 241/1/3 230/1/3 240/1/3
f 242/1/3 232/1/3 231/1/3
f 243/1/3 232/1/3 242/1/3
f 244/1/3 234/1/3 233/1/3
f 245/1/3 234/1/3 244/1/3
f 251/1/3 235/1/3 225/1/3
f 252/1/3 235/1/3 251/1/3
f 253/1/3 243/1/3 242/1/3
f 253/1/3 239/1/3 238/1/3
f 253/1/3 241/1/3 240/1/3
f 253/1/3 238/1/3 237/1/3
f 253/1/3 245/1/3 244/1/3
f 253/1/3 244/1/3 243/1/3
f 253/1/3 240/1/3 239/1/3
f 253/1/3 242/1/3 241/1/3
f 254/1/3 245/1/3 253/1/3
f 255/1/3 247/1/3 246/1/3
f 256/1/3 247/1/3 255/1/3
f 257/1/3 249/1/3 248/1/3
f 258/1/3 249/1/3 257/1/3
f 259/1/3 251/1/3 250/1/3
f 260/1/3 251/1/3 259/1/3
f 265/1/3 262/1/3 261/1/3
f 266/1/3 262/1/3 265/1/3
f 267/1/3 264/1/3 263/1/3
f 268/1/3 264/1/3 267/1/3
f 272/1/3 270/1/3 269/1/3
f 273/1/3 270/1/3 272/1/3
f 273/1/3 272/1/3 271/1/3
f 274/1/3 270/1/3 273/1/3
f 275/1/3 270/1/3 274/1/3
f 276/1/3 270/1/3 275/1/3
f 277/1/3 275/1/3 274/1/3
f 278/1/3 270/1/3 276/1/3
f 279/1/3 273/1/3 271/1/3
f 280/1/3 278/1/3 277/1/3
f 280/1/3 277/1/3 274/1/3
f 281/1/3 279/1/3 271/1/3
f 281/1/3 280/1/3 279/1/3
f 282/1/3 278/1/3 280/1/3
f 282/1/3 280/1/3 281/1/3
f 282/1/3 270/1/3 278/1/3
f 287/1/3 286/1/3 285/1/3
f 288/1/3 286/1/3 287/1/3
f 289/1/3 284/1/3 283/1/3
f 290/1/3 284/1/3 289/1/3
f 291/1/4 292/1/4 295/1/4
f 293/1/4 294/1/4 298/1/4
f 295/1/4 296/1/4 299/1/4
f 291/1/4 295/1/4 299/1/4
f 299/1/4 296/1/4 300/1/4
f 297/1/4 298/1/4 302/1/4
f 298/1/4 294/1/4 303/1/4
f 302/1/4 298/1/4 303/1/4
f 303/1/4 294/1/4 304/1/4
f 301/1/4 302/1/4 305/1/4
f 302/1/4 303/1/4 305/1/4
f 305/1/4 303/1/4 306/1/4
f 306/1/4 303/1/4 307/1/4
f 307/1/4 303/1/4 308/1/4
f 300/1/4 296/1/4 309/1/4
f 309/1/4 296/1/4 310/1/4
f 301/1/4 305/1/4 311/1/4
f 311/1/4 305/1/4 312/1/4
f 317/1/4 318/1/4 319/1/4
f 315/1/4 316/1/4 320/1/4
f 313/1/4 314/1/4 321/1/4
f 321/1/4 314/1/4 322/1/4
f 319/1/4 320/1/4 323/1/4
f 317/1/4 319/1/4 323/1/4
f 323/1/4 320/1/4 324/1/4
f 324/1/4 320/1/4 325/1/4
f 320/1/4 316/1/4 326/1/4
f 325/1/4 320/1/4 326/1/4
f 313/1/4 321/1/4 327/1/4
f 327/1/4 321/1/4 328/1/4
f 322/1/4 314/1/4 329/1/4
f 329/1/4 314/1/4 330/1/4
f 317/1/4 323/1/4 331/1/4
f 331/1/4 323/1/4 332/1/4
f 335/1/4 336/1/4 337/1/4
f 333/1/4 334/1/4 339/1/4
f 339/1/4 334/1/4 340/1/4
f 337/1/4 338/1/4 341/1/4
f 335/1/4 337/1/4 341/1/4
f 341/1/4 338/1/4 342/1/4
f 343/1/4 344/1/4 345/1/4
f 345/1/4 344/1/4 346/1/4
f 349/1/5 348/1/5 347/1/5
f 350/1/5 348/1/5 349/1/5
f 351/1/5 348/1/5 350/1/5
f 352/1/5 348/1/5 351/1/5
f 355/1/5 354/1/5 353/1/5
f 357/1/5 356/1/5 355/1/5
f 358/1/5 348/1/5 352/1/5
f 359/1/5 357/1/5 355/1/5
f 359/1/5 358/1/5 357/1/5
f 359/1/5 355/1/5 353/1/5
f 360/1/5 348/1/5 358/1/5
f 360/1/5 358/1/5 359/1/5
f 365/1/5 362/1/5 361/1/5
f 366/1/5 362/1/5 365/1/5
f 367/1/5 364/1/5 363/1/5
f 368/1/5 364/1/5 367/1/5
f 371/1/5 370/1/5 369/1/5
f 372/1/5 370/1/5 371/1/5
f 373/1/5 370/1/5 372/1/5
f 374/1/5 370/1/5 373/1/5
f 377/1/5 376/1/5 375/1/5
f 378/1/5 376/1/5 377/1/5
f 381/1/5 380/1/5 379/1/5
f 382/1/5 380/1/5 381/1/5
f 385/1/5 384/1/5 383/1/5
f 386/1/5 384/1/5 385/1/5
f 389/1/5 388/1/5 387/1/5
f 390/1/5 388/1/5 389/1/5
f 393/1/5 392/1/5 391/1/5
f 394/1/5 392/1/5 393/1/5
f 397/1/5 396/1/5 395/1/5
f 398/1/5 396/1/5 397/1/5
f 401/1/5 400/1/5 399/1/5
f 402/1/5 400/1/5 401/1/5
f 405/1/5 404/1/5 403/1/5
f 406/1/5 404/1/5 405/1/5
f 409/1/5 408/1/5 407/1/5
f 410/1/5 408/1/5 409/1/5
f 413/1/5 412/1/5 411/1/5
f 414/1/5 412/1/5 413/1/5
f 417/1/5 416/1/5 415/1/5
f 418/1/5 416/1/5 417/1/5
f 420/1/5 419/1/5 418/1/5
f 421/1/5 419/1/5 420/1/5
f 424/1/5 423/1/5 422/1/5
f 425/1/5 423/1/5 424/1/5
f 428/1/5 427/1/5 426/1/5
f 429/1/5 427/1/5 428/1/5
f 432/1/5 431/1/5 430/1/5
f 433/1/5 431/1/5 432/1/5
f 434/1/6 435/1/6 436/1/6
f 436/1/6 435/1/6 437/1/6
f 438/1/6 439/1/6 440/1/6
f 440/1/6 439/1/6 441/1/6
f 441/1/6 442/1/6 443/1/6
f 443/1/6 442/1/6 444/1/6
f 445/1/6 446/1/6 447/1/6
f 447/1/6 446/1/6 448/1/6
f 449/1/6 450/1/6 451/1/6
f 451/1/6 450/1/6 452/1/6
f 453/1/6 454/1/6 455/1/6
f 455/1/6 454/1/6 456/1/6
f 457/1/6 458/1/6 459/1/6
f 459/1/6 458/1/6 460/1/6
f 461/1/6 462/1/6 463/1/6
f 463/1/6 462/1/6 464/1/6
f 465/1/6 466/1/6 467/1/6
f 467/1/6 466/1/6 468/1/6
f 469/1/6 470/1/6 471/1/6
f 471/1/6 470/1/6 472/1/6
f 473/1/6 474/1/6 475/1/6
f 475/1/6 474/1/6 476/1/6
f 477/1/6 478/1/6 479/1/6
f 479/1/6 478/1/6 480/1/6
f 481/1/6 482/1/6 483/1/6
f 483/1/6 482/1/6 484/1/6
f 485/1/6 486/1/6 487/1/6
f 487/1/6 486/1/6 488/1/6
f 489/1/6 490/1/6 491/1/6
f 491/1/6 490/1/6 492/1/6
f 493/1/6 494/1/6 495/1/6
f 495/1/6 494/1/6 496/1/6
f 497/1/6 498/1/6 499/1/6
f 499/1/6 498/1/6 500/1/6
f 501/1/6 502/1/6 503/1/6
f 503/1/6 502/1/6 504/1/6
f 505/1/6 506/1/6 507/1/6
f 507/1/6 506/1/6 508/1/6
f 508/1/6 506/1/6 511/1/6
f 511/1/6 506/1/6 512/1/6
f 509/1/6 510/1/6 513/1/6
f 512/1/6 506/1/6 515/1/6
f 515/1/6 506/1/6 516/1/6
f 513/1/6 514/1/6 517/1/6
f 516/1/6 506/1/6 518/1/6
f 513/1/6 517/1/6 519/1/6
f 517/1/6 518/1/6 519/1/6
f 509/1/6 513/1/6 519/1/6
f 518/1/6 506/1/6 520/1/6
f 519/1/6 518/1/6 520/1/6
