# MagicaVoxel @ Ephtracy

# group
g DirtTile3.1

# material
mtllib DirtTile3.1.mtl
usemtl palette

# normals
vn -1 0 0
vn 1 0 0
vn 0 0 1
vn 0 0 -1
vn 0 -1 0
vn 0 1 0

# texcoords
vt 0.537109 0.5
vt 0.541016 0.5
vt 0.544922 0.5

# verts
v -16 0 16
v -16 0 -16
v -16 6 16
v -16 6 -16
v -3 4 16
v -3 4 -8
v -3 4 -14
v -3 4 -15
v -3 5 16
v -3 5 -8
v -3 5 -14
v -3 5 -15
v -2 4 -13
v -2 4 -14
v -2 5 16
v -2 5 -8
v -2 5 -13
v -2 5 -14
v -2 6 16
v -2 6 -8
v 1 4 -8
v 1 4 -13
v 1 5 -8
v 1 5 -9
v 1 5 -12
v 1 5 -13
v 1 6 -8
v 1 6 -9
v 1 6 -12
v 1 6 -13
v 2 5 -13
v 2 5 -14
v 2 6 -13
v 2 6 -14
v 4 5 -14
v 4 5 -15
v 4 6 -14
v 4 6 -15
v 5 5 -15
v 5 5 -16
v 5 6 -15
v 5 6 -16
v 6 5 -6
v 6 5 -7
v 6 6 -6
v 6 6 -7
v 7 5 -7
v 7 5 -9
v 7 5 -11
v 7 5 -12
v 7 6 -7
v 7 6 -9
v 7 6 -11
v 7 6 -12
v 10 5 7
v 10 5 4
v 10 6 7
v 10 6 4
v 12 5 4
v 12 5 3
v 12 6 4
v 12 6 3
v 13 5 3
v 13 5 2
v 13 5 1
v 13 5 -3
v 13 5 -9
v 13 5 -10
v 13 6 3
v 13 6 2
v 13 6 1
v 13 6 -3
v 13 6 -9
v 13 6 -10
v -12 4 -8
v -12 4 -13
v -12 6 -8
v -12 6 -13
v -11 5 16
v -11 5 -8
v -11 5 -13
v -11 5 -16
v -11 6 16
v -11 6 -8
v -11 6 -13
v -11 6 -16
v -10 4 -13
v -10 4 -14
v -10 5 -13
v -10 5 -14
v -9 4 16
v -9 4 -8
v -9 4 -14
v -9 4 -15
v -9 5 16
v -9 5 -8
v -9 5 -14
v -9 5 -15
v 2 5 5
v 2 5 2
v 2 5 -8
v 2 5 -9
v 2 6 5
v 2 6 2
v 2 6 -8
v 2 6 -9
v 3 5 -7
v 3 5 -8
v 3 6 -7
v 3 6 -8
v 4 5 -6
v 4 5 -7
v 4 6 -6
v 4 6 -7
v 6 5 7
v 6 5 5
v 6 5 2
v 6 5 -1
v 6 6 7
v 6 6 5
v 6 6 2
v 6 6 -1
v 10 5 -1
v 10 5 -4
v 10 6 -1
v 10 6 -4
v 11 5 16
v 11 5 10
v 11 6 16
v 11 6 10
v 12 5 10
v 12 5 9
v 12 6 10
v 12 6 9
v 14 4 16
v 14 4 12
v 14 5 16
v 14 5 12
v 14 5 -4
v 14 5 -8
v 14 6 -4
v 14 6 -8
v 15 4 12
v 15 4 11
v 15 4 -3
v 15 4 -6
v 15 5 12
v 15 5 11
v 15 5 -3
v 15 5 -6
v 16 0 16
v 16 0 -16
v 16 3 16
v 16 3 -15
v 16 4 16
v 16 4 11
v 16 4 -3
v 16 4 -6
v 16 4 -15
v 16 4 -16
v 16 5 11
v 16 5 9
v 16 5 2
v 16 5 1
v 16 5 -3
v 16 5 -6
v 16 5 -8
v 16 5 -10
v 16 5 -11
v 16 5 -16
v 16 6 9
v 16 6 2
v 16 6 1
v 16 6 -3
v 16 6 -8
v 16 6 -10
v 16 6 -11
v 16 6 -16
v -16 0 16
v -16 6 16
v -12 3 16
v -12 4 16
v -11 4 16
v -11 5 16
v -11 6 16
v -9 4 16
v -9 5 16
v -3 4 16
v -3 5 16
v -2 5 16
v -2 6 16
v 11 5 16
v 11 6 16
v 14 4 16
v 14 5 16
v 16 0 16
v 16 3 16
v 16 4 16
v 14 4 12
v 14 5 12
v 15 4 12
v 15 5 12
v 15 4 11
v 15 5 11
v 16 4 11
v 16 5 11
v 11 5 10
v 11 6 10
v 12 5 10
v 12 6 10
v 12 5 9
v 12 6 9
v 16 5 9
v 16 6 9
v 2 5 2
v 2 6 2
v 6 5 2
v 6 6 2
v 13 5 1
v 13 6 1
v 16 5 1
v 16 6 1
v 6 5 -1
v 6 6 -1
v 10 5 -1
v 10 6 -1
v 10 5 -4
v 10 6 -4
v 14 5 -4
v 14 6 -4
v 15 4 -6
v 15 5 -6
v 16 4 -6
v 16 5 -6
v 14 5 -8
v 14 6 -8
v 16 5 -8
v 16 6 -8
v 7 5 -11
v 7 6 -11
v 16 5 -11
v 16 6 -11
v 1 5 -12
v 1 6 -12
v 7 5 -12
v 7 6 -12
v -12 4 -13
v -12 6 -13
v -11 4 -13
v -11 5 -13
v -11 6 -13
v -10 4 -13
v -10 5 -13
v -2 4 -13
v -2 5 -13
v 1 4 -13
v 1 5 -13
v -10 4 -14
v -10 5 -14
v -9 4 -14
v -9 5 -14
v -3 4 -14
v -3 5 -14
v -2 4 -14
v -2 5 -14
v -9 4 -15
v -9 5 -15
v -3 4 -15
v -3 5 -15
v 6 5 7
v 6 6 7
v 10 5 7
v 10 6 7
v 2 5 5
v 2 6 5
v 6 5 5
v 6 6 5
v 10 5 4
v 10 6 4
v 12 5 4
v 12 6 4
v 12 5 3
v 12 6 3
v 13 5 3
v 13 6 3
v 13 5 2
v 13 6 2
v 16 5 2
v 16 6 2
v 13 5 -3
v 13 6 -3
v 15 4 -3
v 15 5 -3
v 16 4 -3
v 16 5 -3
v 16 6 -3
v 4 5 -6
v 4 6 -6
v 6 5 -6
v 6 6 -6
v 3 5 -7
v 3 6 -7
v 4 5 -7
v 4 6 -7
v 6 5 -7
v 6 6 -7
v 7 5 -7
v 7 6 -7
v -12 4 -8
v -12 6 -8
v -11 4 -8
v -11 5 -8
v -11 6 -8
v -9 4 -8
v -9 5 -8
v -3 4 -8
v -3 5 -8
v -2 5 -8
v -2 6 -8
v 1 4 -8
v 1 5 -8
v 1 6 -8
v 2 5 -8
v 2 6 -8
v 3 5 -8
v 3 6 -8
v 1 5 -9
v 1 6 -9
v 2 5 -9
v 2 6 -9
v 7 5 -9
v 7 6 -9
v 13 5 -9
v 13 6 -9
v 13 5 -10
v 13 6 -10
v 16 5 -10
v 16 6 -10
v 1 5 -13
v 1 6 -13
v 2 5 -13
v 2 6 -13
v 2 5 -14
v 2 6 -14
v 4 5 -14
v 4 6 -14
v 4 5 -15
v 4 6 -15
v 5 5 -15
v 5 6 -15
v -16 0 -16
v -16 6 -16
v -11 4 -16
v -11 5 -16
v -11 6 -16
v 5 5 -16
v 5 6 -16
v 16 0 -16
v 16 4 -16
v 16 5 -16
v 16 6 -16
v -16 0 16
v 16 0 16
v -16 0 -16
v 16 0 -16
v -9 4 16
v -3 4 16
v 14 4 16
v 16 4 16
v 14 4 12
v 15 4 12
v 15 4 11
v 16 4 11
v 15 4 -3
v 16 4 -3
v 15 4 -6
v 16 4 -6
v -12 4 -8
v -11 4 -8
v -9 4 -8
v -3 4 -8
v 1 4 -8
v -12 4 -13
v -11 4 -13
v -10 4 -13
v -2 4 -13
v 1 4 -13
v -10 4 -14
v -9 4 -14
v -3 4 -14
v -2 4 -14
v -9 4 -15
v -3 4 -15
v -11 5 16
v -9 5 16
v -3 5 16
v -2 5 16
v 11 5 16
v 14 5 16
v 14 5 12
v 15 5 12
v 15 5 11
v 16 5 11
v 11 5 10
v 12 5 10
v 12 5 9
v 16 5 9
v 6 5 7
v 10 5 7
v 2 5 5
v 6 5 5
v 10 5 4
v 12 5 4
v 12 5 3
v 13 5 3
v 2 5 2
v 6 5 2
v 13 5 2
v 16 5 2
v 13 5 1
v 16 5 1
v 6 5 -1
v 10 5 -1
v 13 5 -3
v 15 5 -3
v 10 5 -4
v 14 5 -4
v 4 5 -6
v 6 5 -6
v 15 5 -6
v 16 5 -6
v 3 5 -7
v 4 5 -7
v 6 5 -7
v 7 5 -7
v -11 5 -8
v -9 5 -8
v -3 5 -8
v -2 5 -8
v 2 5 -8
v 3 5 -8
v 14 5 -8
v 16 5 -8
v 1 5 -9
v 2 5 -9
v 7 5 -9
v 13 5 -9
v 13 5 -10
v 16 5 -10
v 7 5 -11
v 16 5 -11
v 1 5 -12
v 7 5 -12
v -11 5 -13
v -10 5 -13
v -2 5 -13
v 1 5 -13
v 2 5 -13
v -10 5 -14
v -9 5 -14
v -3 5 -14
v -2 5 -14
v 2 5 -14
v 4 5 -14
v -9 5 -15
v -3 5 -15
v 4 5 -15
v 5 5 -15
v -11 5 -16
v 5 5 -16
v -16 6 16
v -11 6 16
v -2 6 16
v 11 6 16
v 11 6 10
v 12 6 10
v 12 6 9
v 16 6 9
v 6 6 7
v 10 6 7
v 2 6 5
v 6 6 5
v 10 6 4
v 12 6 4
v 12 6 3
v 13 6 3
v 2 6 2
v 6 6 2
v 13 6 2
v 16 6 2
v 13 6 1
v 16 6 1
v 6 6 -1
v 10 6 -1
v 13 6 -3
v 16 6 -3
v 10 6 -4
v 14 6 -4
v 4 6 -6
v 6 6 -6
v 3 6 -7
v 4 6 -7
v 6 6 -7
v 7 6 -7
v -12 6 -8
v -11 6 -8
v -2 6 -8
v 1 6 -8
v 2 6 -8
v 3 6 -8
v 14 6 -8
v 16 6 -8
v 1 6 -9
v 2 6 -9
v 7 6 -9
v 13 6 -9
v 13 6 -10
v 16 6 -10
v 7 6 -11
v 16 6 -11
v 1 6 -12
v 7 6 -12
v -12 6 -13
v -11 6 -13
v 1 6 -13
v 2 6 -13
v 2 6 -14
v 4 6 -14
v 4 6 -15
v 5 6 -15
v -16 6 -16
v -11 6 -16
v 5 6 -16
v 16 6 -16

# faces
f 3/1/1 2/1/1 1/1/1
f 4/1/1 2/1/1 3/1/1
f 9/2/1 6/2/1 5/2/1
f 10/2/1 6/2/1 9/2/1
f 11/2/1 8/2/1 7/2/1
f 12/2/1 8/2/1 11/2/1
f 17/2/1 14/2/1 13/2/1
f 18/2/1 14/2/1 17/2/1
f 19/1/1 16/1/1 15/1/1
f 20/1/1 16/1/1 19/1/1
f 23/2/1 22/2/1 21/2/1
f 24/2/1 22/2/1 23/2/1
f 25/2/1 22/2/1 24/2/1
f 26/2/1 22/2/1 25/2/1
f 27/1/1 24/1/1 23/1/1
f 28/1/1 24/1/1 27/1/1
f 29/1/1 26/1/1 25/1/1
f 30/1/1 26/1/1 29/1/1
f 33/1/1 32/1/1 31/1/1
f 34/1/1 32/1/1 33/1/1
f 37/1/1 36/1/1 35/1/1
f 38/1/1 36/1/1 37/1/1
f 41/1/1 40/1/1 39/1/1
f 42/1/1 40/1/1 41/1/1
f 45/1/1 44/1/1 43/1/1
f 46/1/1 44/1/1 45/1/1
f 51/1/1 48/1/1 47/1/1
f 52/1/1 48/1/1 51/1/1
f 53/1/1 50/1/1 49/1/1
f 54/1/1 50/1/1 53/1/1
f 57/1/1 56/1/1 55/1/1
f 58/1/1 56/1/1 57/1/1
f 61/1/1 60/1/1 59/1/1
f 62/1/1 60/1/1 61/1/1
f 69/1/1 64/1/1 63/1/1
f 70/1/1 64/1/1 69/1/1
f 71/1/1 66/1/1 65/1/1
f 72/1/1 66/1/1 71/1/1
f 73/1/1 68/1/1 67/1/1
f 74/1/1 68/1/1 73/1/1
f 75/1/2 76/1/2 77/1/2
f 77/1/2 76/1/2 78/1/2
f 79/1/2 80/1/2 83/1/2
f 83/1/2 80/1/2 84/1/2
f 81/1/2 82/1/2 85/1/2
f 85/1/2 82/1/2 86/1/2
f 87/2/2 88/2/2 89/2/2
f 89/2/2 88/2/2 90/2/2
f 91/2/2 92/2/2 95/2/2
f 95/2/2 92/2/2 96/2/2
f 93/2/2 94/2/2 97/2/2
f 97/2/2 94/2/2 98/2/2
f 99/1/2 100/1/2 103/1/2
f 103/1/2 100/1/2 104/1/2
f 101/1/2 102/1/2 105/1/2
f 105/1/2 102/1/2 106/1/2
f 107/1/2 108/1/2 109/1/2
f 109/1/2 108/1/2 110/1/2
f 111/1/2 112/1/2 113/1/2
f 113/1/2 112/1/2 114/1/2
f 115/1/2 116/1/2 119/1/2
f 119/1/2 116/1/2 120/1/2
f 117/1/2 118/1/2 121/1/2
f 121/1/2 118/1/2 122/1/2
f 123/1/2 124/1/2 125/1/2
f 125/1/2 124/1/2 126/1/2
f 127/1/2 128/1/2 129/1/2
f 129/1/2 128/1/2 130/1/2
f 131/1/2 132/1/2 133/1/2
f 133/1/2 132/1/2 134/1/2
f 135/2/2 136/2/2 137/2/2
f 137/2/2 136/2/2 138/2/2
f 139/1/2 140/1/2 141/1/2
f 141/1/2 140/1/2 142/1/2
f 143/2/2 144/2/2 147/2/2
f 147/2/2 144/2/2 148/2/2
f 145/2/2 146/2/2 149/2/2
f 149/2/2 146/2/2 150/2/2
f 151/1/2 152/1/2 153/1/2
f 153/1/2 152/1/2 154/1/2
f 153/3/2 154/3/2 155/3/2
f 155/3/2 154/3/2 156/3/2
f 156/3/2 154/3/2 157/3/2
f 157/3/2 154/3/2 158/3/2
f 154/1/2 152/1/2 159/1/2
f 158/3/2 154/3/2 159/3/2
f 159/1/2 152/1/2 160/1/2
f 156/2/2 157/2/2 161/2/2
f 161/2/2 157/2/2 162/2/2
f 162/2/2 157/2/2 163/2/2
f 163/2/2 157/2/2 164/2/2
f 164/2/2 157/2/2 165/2/2
f 159/2/2 160/2/2 166/2/2
f 158/2/2 159/2/2 166/2/2
f 166/2/2 160/2/2 167/2/2
f 167/2/2 160/2/2 168/2/2
f 168/2/2 160/2/2 169/2/2
f 169/2/2 160/2/2 170/2/2
f 162/1/2 163/1/2 171/1/2
f 171/1/2 163/1/2 172/1/2
f 164/1/2 165/1/2 173/1/2
f 173/1/2 165/1/2 174/1/2
f 167/1/2 168/1/2 175/1/2
f 175/1/2 168/1/2 176/1/2
f 169/1/2 170/1/2 177/1/2
f 177/1/2 170/1/2 178/1/2
f 181/1/3 180/1/3 179/1/3
f 182/1/3 180/1/3 181/1/3
f 183/3/3 182/3/3 181/3/3
f 183/1/3 180/1/3 182/1/3
f 184/1/3 180/1/3 183/1/3
f 185/1/3 180/1/3 184/1/3
f 186/3/3 183/3/3 181/3/3
f 186/2/3 184/2/3 183/2/3
f 187/2/3 184/2/3 186/2/3
f 188/3/3 186/3/3 181/3/3
f 190/2/3 189/2/3 188/2/3
f 192/2/3 190/2/3 188/2/3
f 192/1/3 191/1/3 190/1/3
f 193/1/3 191/1/3 192/1/3
f 194/3/3 188/3/3 181/3/3
f 194/2/3 192/2/3 188/2/3
f 195/2/3 192/2/3 194/2/3
f 196/1/3 181/1/3 179/1/3
f 197/3/3 194/3/3 181/3/3
f 197/1/3 181/1/3 196/1/3
f 198/3/3 194/3/3 197/3/3
f 201/2/3 200/2/3 199/2/3
f 202/2/3 200/2/3 201/2/3
f 205/2/3 204/2/3 203/2/3
f 206/2/3 204/2/3 205/2/3
f 209/1/3 208/1/3 207/1/3
f 210/1/3 208/1/3 209/1/3
f 213/1/3 212/1/3 211/1/3
f 214/1/3 212/1/3 213/1/3
f 217/1/3 216/1/3 215/1/3
f 218/1/3 216/1/3 217/1/3
f 221/1/3 220/1/3 219/1/3
f 222/1/3 220/1/3 221/1/3
f 225/1/3 224/1/3 223/1/3
f 226/1/3 224/1/3 225/1/3
f 229/1/3 228/1/3 227/1/3
f 230/1/3 228/1/3 229/1/3
f 233/2/3 232/2/3 231/2/3
f 234/2/3 232/2/3 233/2/3
f 237/1/3 236/1/3 235/1/3
f 238/1/3 236/1/3 237/1/3
f 241/1/3 240/1/3 239/1/3
f 242/1/3 240/1/3 241/1/3
f 245/1/3 244/1/3 243/1/3
f 246/1/3 244/1/3 245/1/3
f 249/1/3 248/1/3 247/1/3
f 250/1/3 248/1/3 249/1/3
f 251/1/3 248/1/3 250/1/3
f 252/2/3 250/2/3 249/2/3
f 253/2/3 250/2/3 252/2/3
f 256/2/3 255/2/3 254/2/3
f 257/2/3 255/2/3 256/2/3
f 260/2/3 259/2/3 258/2/3
f 261/2/3 259/2/3 260/2/3
f 264/2/3 263/2/3 262/2/3
f 265/2/3 263/2/3 264/2/3
f 268/2/3 267/2/3 266/2/3
f 269/2/3 267/2/3 268/2/3
f 270/1/4 271/1/4 272/1/4
f 272/1/4 271/1/4 273/1/4
f 274/1/4 275/1/4 276/1/4
f 276/1/4 275/1/4 277/1/4
f 278/1/4 279/1/4 280/1/4
f 280/1/4 279/1/4 281/1/4
f 282/1/4 283/1/4 284/1/4
f 284/1/4 283/1/4 285/1/4
f 286/1/4 287/1/4 288/1/4
f 288/1/4 287/1/4 289/1/4
f 290/1/4 291/1/4 293/1/4
f 292/2/4 293/2/4 294/2/4
f 293/1/4 291/1/4 295/1/4
f 294/2/4 293/2/4 295/2/4
f 295/1/4 291/1/4 296/1/4
f 297/1/4 298/1/4 299/1/4
f 299/1/4 298/1/4 300/1/4
f 301/1/4 302/1/4 303/1/4
f 303/1/4 302/1/4 304/1/4
f 305/1/4 306/1/4 307/1/4
f 307/1/4 306/1/4 308/1/4
f 309/1/4 310/1/4 311/1/4
f 311/1/4 310/1/4 312/1/4
f 312/1/4 310/1/4 313/1/4
f 311/2/4 312/2/4 314/2/4
f 314/2/4 312/2/4 315/2/4
f 316/2/4 317/2/4 318/2/4
f 316/2/4 318/2/4 320/2/4
f 318/1/4 319/1/4 321/1/4
f 320/2/4 318/2/4 321/2/4
f 321/1/4 319/1/4 322/1/4
f 323/1/4 324/1/4 325/1/4
f 325/1/4 324/1/4 326/1/4
f 327/1/4 328/1/4 329/1/4
f 329/1/4 328/1/4 330/1/4
f 331/1/4 332/1/4 333/1/4
f 333/1/4 332/1/4 334/1/4
f 335/1/4 336/1/4 337/1/4
f 337/1/4 336/1/4 338/1/4
f 339/1/4 340/1/4 341/1/4
f 341/1/4 340/1/4 342/1/4
f 343/1/4 344/1/4 345/1/4
f 345/1/4 344/1/4 346/1/4
f 347/1/4 348/1/4 349/1/4
f 349/1/4 348/1/4 350/1/4
f 351/1/4 352/1/4 353/1/4
f 353/1/4 352/1/4 354/1/4
f 354/1/4 352/1/4 355/1/4
f 353/2/4 354/2/4 356/2/4
f 351/1/4 353/1/4 358/1/4
f 353/2/4 356/2/4 359/2/4
f 358/1/4 353/1/4 359/1/4
f 356/1/4 357/1/4 360/1/4
f 359/2/4 356/2/4 360/2/4
f 360/1/4 357/1/4 361/1/4
f 364/1/5 363/1/5 362/1/5
f 365/1/5 363/1/5 364/1/5
f 368/3/6 369/3/6 370/3/6
f 370/3/6 369/3/6 371/3/6
f 371/3/6 369/3/6 372/3/6
f 372/3/6 369/3/6 373/3/6
f 374/3/6 375/3/6 376/3/6
f 376/3/6 375/3/6 377/3/6
f 366/3/6 367/3/6 380/3/6
f 380/3/6 367/3/6 381/3/6
f 378/3/6 379/3/6 383/3/6
f 381/3/6 382/3/6 383/3/6
f 380/3/6 381/3/6 383/3/6
f 379/3/6 380/3/6 383/3/6
f 383/3/6 382/3/6 384/3/6
f 384/3/6 382/3/6 385/3/6
f 385/3/6 382/3/6 386/3/6
f 386/3/6 382/3/6 387/3/6
f 385/3/6 386/3/6 388/3/6
f 388/3/6 386/3/6 389/3/6
f 389/3/6 386/3/6 390/3/6
f 390/3/6 386/3/6 391/3/6
f 389/3/6 390/3/6 392/3/6
f 392/3/6 390/3/6 393/3/6
f 398/2/6 399/2/6 400/2/6
f 400/2/6 401/2/6 402/2/6
f 398/2/6 400/2/6 404/2/6
f 402/2/6 403/2/6 404/2/6
f 400/2/6 402/2/6 404/2/6
f 404/2/6 403/2/6 405/2/6
f 405/2/6 403/2/6 406/2/6
f 406/2/6 403/2/6 407/2/6
f 408/2/6 409/2/6 411/2/6
f 411/2/6 409/2/6 412/2/6
f 410/2/6 411/2/6 412/2/6
f 412/2/6 413/2/6 414/2/6
f 410/2/6 412/2/6 416/2/6
f 414/2/6 415/2/6 416/2/6
f 412/2/6 414/2/6 416/2/6
f 416/2/6 415/2/6 417/2/6
f 417/2/6 415/2/6 418/2/6
f 418/2/6 419/2/6 420/2/6
f 417/2/6 418/2/6 420/2/6
f 420/2/6 419/2/6 421/2/6
f 417/2/6 420/2/6 422/2/6
f 422/2/6 420/2/6 423/2/6
f 423/2/6 420/2/6 424/2/6
f 423/2/6 424/2/6 426/2/6
f 424/2/6 425/2/6 426/2/6
f 426/2/6 425/2/6 427/2/6
f 427/2/6 425/2/6 430/2/6
f 428/2/6 429/2/6 433/2/6
f 433/2/6 429/2/6 434/2/6
f 394/2/6 395/2/6 436/2/6
f 436/2/6 395/2/6 437/2/6
f 396/2/6 397/2/6 438/2/6
f 438/2/6 397/2/6 439/2/6
f 434/2/6 435/2/6 441/2/6
f 432/2/6 433/2/6 441/2/6
f 433/2/6 434/2/6 441/2/6
f 430/2/6 431/2/6 442/2/6
f 427/2/6 430/2/6 442/2/6
f 442/2/6 431/2/6 443/2/6
f 440/2/6 441/2/6 445/2/6
f 441/2/6 435/2/6 446/2/6
f 445/2/6 441/2/6 446/2/6
f 444/2/6 445/2/6 448/2/6
f 446/2/6 447/2/6 448/2/6
f 445/2/6 446/2/6 448/2/6
f 444/2/6 448/2/6 450/2/6
f 448/2/6 449/2/6 450/2/6
f 450/2/6 449/2/6 451/2/6
f 444/2/6 450/2/6 452/2/6
f 452/2/6 450/2/6 453/2/6
f 454/2/6 455/2/6 459/2/6
f 457/2/6 458/2/6 462/2/6
f 456/2/6 457/2/6 462/2/6
f 462/2/6 458/2/6 463/2/6
f 459/2/6 460/2/6 465/2/6
f 463/2/6 464/2/6 466/2/6
f 461/2/6 462/2/6 466/2/6
f 462/2/6 463/2/6 466/2/6
f 466/2/6 464/2/6 467/2/6
f 459/2/6 465/2/6 469/2/6
f 467/2/6 468/2/6 469/2/6
f 466/2/6 467/2/6 469/2/6
f 465/2/6 466/2/6 469/2/6
f 454/2/6 459/2/6 469/2/6
f 469/2/6 468/2/6 470/2/6
f 473/1/6 474/1/6 475/1/6
f 475/1/6 476/1/6 477/1/6
f 473/1/6 475/1/6 479/1/6
f 477/1/6 478/1/6 479/1/6
f 475/1/6 477/1/6 479/1/6
f 479/1/6 478/1/6 480/1/6
f 473/1/6 479/1/6 481/1/6
f 481/1/6 479/1/6 482/1/6
f 480/1/6 478/1/6 483/1/6
f 483/1/6 478/1/6 484/1/6
f 484/1/6 478/1/6 485/1/6
f 485/1/6 478/1/6 486/1/6
f 473/1/6 481/1/6 487/1/6
f 486/1/6 478/1/6 489/1/6
f 489/1/6 478/1/6 490/1/6
f 487/1/6 488/1/6 493/1/6
f 491/1/6 492/1/6 495/1/6
f 495/1/6 492/1/6 496/1/6
f 493/1/6 494/1/6 497/1/6
f 487/1/6 493/1/6 499/1/6
f 497/1/6 498/1/6 499/1/6
f 493/1/6 497/1/6 499/1/6
f 499/1/6 498/1/6 500/1/6
f 487/1/6 499/1/6 501/1/6
f 501/1/6 499/1/6 502/1/6
f 500/1/6 498/1/6 503/1/6
f 503/1/6 498/1/6 504/1/6
f 471/1/6 472/1/6 505/1/6
f 505/1/6 472/1/6 506/1/6
f 473/1/6 487/1/6 507/1/6
f 487/1/6 501/1/6 507/1/6
f 507/1/6 501/1/6 508/1/6
f 508/1/6 501/1/6 509/1/6
f 509/1/6 501/1/6 510/1/6
f 504/1/6 498/1/6 511/1/6
f 508/1/6 509/1/6 513/1/6
f 513/1/6 509/1/6 514/1/6
f 511/1/6 512/1/6 515/1/6
f 504/1/6 511/1/6 515/1/6
f 515/1/6 512/1/6 516/1/6
f 516/1/6 512/1/6 517/1/6
f 517/1/6 512/1/6 518/1/6
f 519/1/6 520/1/6 522/1/6
f 471/1/6 505/1/6 523/1/6
f 521/1/6 522/1/6 525/1/6
f 525/1/6 522/1/6 526/1/6
f 526/1/6 522/1/6 527/1/6
f 527/1/6 522/1/6 528/1/6
f 528/1/6 522/1/6 529/1/6
f 529/1/6 522/1/6 530/1/6
f 523/1/6 524/1/6 531/1/6
f 471/1/6 523/1/6 531/1/6
f 531/1/6 524/1/6 532/1/6
f 530/1/6 522/1/6 533/1/6
f 522/1/6 520/1/6 534/1/6
f 533/1/6 522/1/6 534/1/6
