# MagicaVoxel @ Ephtracy

# group
g DirtTile2.2

# material
mtllib DirtTile2.2.mtl
usemtl palette

# normals
vn -1 0 0
vn 1 0 0
vn 0 0 1
vn 0 0 -1
vn 0 -1 0
vn 0 1 0

# texcoords
vt 0.537109 0.5
vt 0.541016 0.5
vt 0.544922 0.5

# verts
v -16 0 16
v -16 0 -16
v -16 4 16
v -16 4 7
v -16 5 16
v -16 5 10
v -16 5 7
v -16 6 10
v -16 6 -16
v -6 4 -3
v -6 4 -6
v -6 5 -3
v -6 5 -6
v -4 4 14
v -4 4 6
v -4 5 14
v -4 5 6
v -3 4 -6
v -3 4 -7
v -3 5 -6
v -3 5 -7
v -2 4 16
v -2 4 14
v -2 5 16
v -2 5 14
v -1 4 -7
v -1 4 -8
v -1 5 -7
v -1 5 -8
v 1 4 -1
v 1 4 -15
v 1 5 16
v 1 5 4
v 1 5 -1
v 1 5 -15
v 1 6 16
v 1 6 4
v 2 5 -13
v 2 5 -14
v 2 6 -13
v 2 6 -14
v 3 4 -15
v 3 4 -16
v 3 5 1
v 3 5 -13
v 3 5 -15
v 3 5 -16
v 3 6 1
v 3 6 -13
v 4 5 -14
v 4 5 -15
v 4 6 -14
v 4 6 -15
v 5 5 -15
v 5 5 -16
v 5 6 -15
v 5 6 -16
v 6 5 16
v 6 5 3
v 6 6 16
v 6 6 3
v 13 4 16
v 13 4 -10
v 13 5 16
v 13 5 -10
v 14 5 16
v 14 5 -13
v 14 6 16
v 14 6 -13
v -13 5 10
v -13 5 7
v -13 5 1
v -13 5 -5
v -13 5 -6
v -13 6 10
v -13 6 7
v -13 6 1
v -13 6 -6
v -12 4 -1
v -12 4 -5
v -12 5 7
v -12 5 4
v -12 5 -1
v -12 5 -5
v -12 5 -6
v -12 5 -7
v -12 6 7
v -12 6 4
v -12 6 -6
v -12 6 -7
v -11 5 -7
v -11 5 -8
v -11 6 -7
v -11 6 -8
v -10 5 -8
v -10 5 -10
v -10 6 -8
v -10 6 -10
v -9 4 -5
v -9 4 -7
v -9 5 -5
v -9 5 -7
v -9 5 -10
v -9 5 -11
v -9 6 -10
v -9 6 -11
v -8 4 -7
v -8 4 -8
v -8 5 -7
v -8 5 -8
v -8 5 -11
v -8 5 -12
v -8 6 -11
v -8 6 -12
v -7 5 -12
v -7 5 -13
v -7 6 -12
v -7 6 -13
v -6 4 16
v -6 4 6
v -6 4 -8
v -6 4 -10
v -6 5 16
v -6 5 6
v -6 5 -8
v -6 5 -10
v -3 5 -14
v -3 5 -16
v -3 6 -14
v -3 6 -16
v -2 4 -15
v -2 4 -16
v -2 5 -13
v -2 5 -14
v -2 5 -15
v -2 5 -16
v -2 6 -13
v -2 6 -14
v -1 4 -10
v -1 4 -15
v -1 5 -10
v -1 5 -15
v 0 4 -3
v 0 4 -8
v 0 5 -3
v 0 5 -8
v 3 5 16
v 3 5 3
v 3 6 16
v 3 6 3
v 8 5 16
v 8 5 -13
v 8 6 16
v 8 6 -13
v 9 4 16
v 9 4 10
v 9 4 5
v 9 4 -10
v 9 5 16
v 9 5 10
v 9 5 5
v 9 5 -10
v 10 4 10
v 10 4 5
v 10 5 10
v 10 5 5
v 16 0 16
v 16 0 -16
v 16 3 16
v 16 3 -0
v 16 4 16
v 16 4 -0
v 16 4 -13
v 16 5 16
v 16 5 -13
v 16 6 16
v 16 6 -16
v -16 0 16
v -16 4 16
v -16 5 16
v -8 3 16
v -8 4 16
v -6 4 16
v -6 5 16
v -2 3 16
v -2 4 16
v -2 5 16
v 1 5 16
v 1 6 16
v 3 5 16
v 3 6 16
v 6 5 16
v 6 6 16
v 7 3 16
v 7 4 16
v 8 5 16
v 8 6 16
v 9 4 16
v 9 5 16
v 13 4 16
v 13 5 16
v 14 5 16
v 14 6 16
v 16 0 16
v 16 3 16
v 16 4 16
v 16 5 16
v 16 6 16
v -4 4 14
v -4 5 14
v -2 4 14
v -2 5 14
v -16 5 10
v -16 6 10
v -13 5 10
v -13 6 10
v 9 4 10
v 9 5 10
v 10 4 10
v 10 5 10
v -13 5 7
v -13 6 7
v -12 5 7
v -12 6 7
v -6 4 6
v -6 5 6
v -4 4 6
v -4 5 6
v -12 5 4
v -12 6 4
v 1 5 4
v 1 6 4
v 3 5 3
v 3 6 3
v 6 5 3
v 6 6 3
v -6 4 -3
v -6 5 -3
v 0 4 -3
v 0 5 -3
v -12 4 -5
v -12 5 -5
v -9 4 -5
v -9 5 -5
v -13 5 -6
v -13 6 -6
v -12 5 -6
v -12 6 -6
v -12 5 -7
v -12 6 -7
v -11 5 -7
v -11 6 -7
v -9 4 -7
v -9 5 -7
v -8 4 -7
v -8 5 -7
v -11 5 -8
v -11 6 -8
v -10 5 -8
v -10 6 -8
v -8 4 -8
v -8 5 -8
v -6 4 -8
v -6 5 -8
v -10 5 -10
v -10 6 -10
v -9 5 -10
v -9 6 -10
v -6 4 -10
v -6 5 -10
v -1 4 -10
v -1 5 -10
v 9 4 -10
v 9 5 -10
v 13 4 -10
v 13 5 -10
v -9 5 -11
v -9 6 -11
v -8 5 -11
v -8 6 -11
v -8 5 -12
v -8 6 -12
v -7 5 -12
v -7 6 -12
v -7 5 -13
v -7 6 -13
v -2 5 -13
v -2 6 -13
v 2 5 -13
v 2 6 -13
v 3 5 -13
v 3 6 -13
v 8 5 -13
v 8 6 -13
v 14 5 -13
v 14 6 -13
v 9 4 5
v 9 5 5
v 10 4 5
v 10 5 5
v -13 5 1
v -13 6 1
v 3 5 1
v 3 6 1
v -12 4 -1
v -12 5 -1
v 1 4 -1
v 1 5 -1
v -6 4 -6
v -6 5 -6
v -3 4 -6
v -3 5 -6
v -3 4 -7
v -3 5 -7
v -1 4 -7
v -1 5 -7
v -1 4 -8
v -1 5 -8
v 0 4 -8
v 0 5 -8
v -3 5 -14
v -3 6 -14
v -2 5 -14
v -2 6 -14
v 2 5 -14
v 2 6 -14
v 4 5 -14
v 4 6 -14
v -2 4 -15
v -2 5 -15
v -1 4 -15
v -1 5 -15
v 1 4 -15
v 1 5 -15
v 3 4 -15
v 3 5 -15
v 4 5 -15
v 4 6 -15
v 5 5 -15
v 5 6 -15
v -16 0 -16
v -16 6 -16
v -12 3 -16
v -12 4 -16
v -12 5 -16
v -3 5 -16
v -3 6 -16
v -2 4 -16
v -2 5 -16
v 3 3 -16
v 3 4 -16
v 3 5 -16
v 5 4 -16
v 5 5 -16
v 5 6 -16
v 16 0 -16
v 16 6 -16
v -16 0 16
v 16 0 16
v -16 0 -16
v 16 0 -16
v -6 4 16
v -2 4 16
v 9 4 16
v 13 4 16
v -4 4 14
v -2 4 14
v 9 4 10
v 10 4 10
v -6 4 6
v -4 4 6
v 9 4 5
v 10 4 5
v -12 4 -1
v 1 4 -1
v -6 4 -3
v 0 4 -3
v -12 4 -5
v -9 4 -5
v -6 4 -6
v -3 4 -6
v -9 4 -7
v -8 4 -7
v -3 4 -7
v -1 4 -7
v -8 4 -8
v -6 4 -8
v -1 4 -8
v 0 4 -8
v -6 4 -10
v -1 4 -10
v 9 4 -10
v 13 4 -10
v -2 4 -15
v -1 4 -15
v 1 4 -15
v 3 4 -15
v -2 4 -16
v 3 4 -16
v -16 5 16
v -6 5 16
v -2 5 16
v 1 5 16
v 3 5 16
v 6 5 16
v 8 5 16
v 9 5 16
v 13 5 16
v 14 5 16
v -4 5 14
v -2 5 14
v -16 5 10
v -13 5 10
v 9 5 10
v 10 5 10
v -13 5 7
v -12 5 7
v -6 5 6
v -4 5 6
v 9 5 5
v 10 5 5
v -12 5 4
v 1 5 4
v 3 5 3
v 6 5 3
v -13 5 1
v 3 5 1
v -12 5 -1
v 1 5 -1
v -6 5 -3
v 0 5 -3
v -13 5 -5
v -12 5 -5
v -9 5 -5
v -13 5 -6
v -12 5 -6
v -6 5 -6
v -3 5 -6
v -12 5 -7
v -11 5 -7
v -9 5 -7
v -8 5 -7
v -3 5 -7
v -1 5 -7
v -11 5 -8
v -10 5 -8
v -8 5 -8
v -6 5 -8
v -1 5 -8
v 0 5 -8
v -10 5 -10
v -9 5 -10
v -6 5 -10
v -1 5 -10
v 9 5 -10
v 13 5 -10
v -9 5 -11
v -8 5 -11
v -8 5 -12
v -7 5 -12
v -7 5 -13
v -2 5 -13
v 2 5 -13
v 3 5 -13
v 8 5 -13
v 14 5 -13
v -3 5 -14
v -2 5 -14
v 2 5 -14
v 4 5 -14
v -2 5 -15
v -1 5 -15
v 1 5 -15
v 3 5 -15
v 4 5 -15
v 5 5 -15
v -3 5 -16
v -2 5 -16
v 3 5 -16
v 5 5 -16
v 1 6 16
v 3 6 16
v 6 6 16
v 8 6 16
v 14 6 16
v 16 6 16
v -16 6 10
v -13 6 10
v -13 6 7
v -12 6 7
v -12 6 4
v 1 6 4
v 3 6 3
v 6 6 3
v -13 6 1
v 3 6 1
v -13 6 -6
v -12 6 -6
v -12 6 -7
v -11 6 -7
v -11 6 -8
v -10 6 -8
v -10 6 -10
v -9 6 -10
v -9 6 -11
v -8 6 -11
v -8 6 -12
v -7 6 -12
v -7 6 -13
v -2 6 -13
v 2 6 -13
v 3 6 -13
v 8 6 -13
v 14 6 -13
v -3 6 -14
v -2 6 -14
v 2 6 -14
v 4 6 -14
v 4 6 -15
v 5 6 -15
v -16 6 -16
v -3 6 -16
v 5 6 -16
v 16 6 -16

# faces
f 3/1/1 2/1/1 1/1/1
f 4/1/1 2/1/1 3/1/1
f 5/2/1 4/2/1 3/2/1
f 6/2/1 4/2/1 5/2/1
f 7/1/1 2/1/1 4/1/1
f 7/2/1 4/2/1 6/2/1
f 8/1/1 7/1/1 6/1/1
f 9/1/1 2/1/1 7/1/1
f 9/1/1 7/1/1 8/1/1
f 12/2/1 11/2/1 10/2/1
f 13/2/1 11/2/1 12/2/1
f 16/2/1 15/2/1 14/2/1
f 17/2/1 15/2/1 16/2/1
f 20/2/1 19/2/1 18/2/1
f 21/2/1 19/2/1 20/2/1
f 24/2/1 23/2/1 22/2/1
f 25/2/1 23/2/1 24/2/1
f 28/2/1 27/2/1 26/2/1
f 29/2/1 27/2/1 28/2/1
f 34/2/1 31/2/1 30/2/1
f 35/2/1 31/2/1 34/2/1
f 36/1/1 33/1/1 32/1/1
f 37/1/1 33/1/1 36/1/1
f 40/1/1 39/1/1 38/1/1
f 41/1/1 39/1/1 40/1/1
f 46/2/1 43/2/1 42/2/1
f 47/2/1 43/2/1 46/2/1
f 48/1/1 45/1/1 44/1/1
f 49/1/1 45/1/1 48/1/1
f 52/1/1 51/1/1 50/1/1
f 53/1/1 51/1/1 52/1/1
f 56/1/1 55/1/1 54/1/1
f 57/1/1 55/1/1 56/1/1
f 60/1/1 59/1/1 58/1/1
f 61/1/1 59/1/1 60/1/1
f 64/2/1 63/2/1 62/2/1
f 65/2/1 63/2/1 64/2/1
f 68/1/1 67/1/1 66/1/1
f 69/1/1 67/1/1 68/1/1
f 70/1/2 71/1/2 75/1/2
f 75/1/2 71/1/2 76/1/2
f 73/1/2 74/1/2 77/1/2
f 72/1/2 73/1/2 77/1/2
f 77/1/2 74/1/2 78/1/2
f 79/2/2 80/2/2 83/2/2
f 83/2/2 80/2/2 84/2/2
f 81/1/2 82/1/2 87/1/2
f 87/1/2 82/1/2 88/1/2
f 85/1/2 86/1/2 89/1/2
f 89/1/2 86/1/2 90/1/2
f 91/1/2 92/1/2 93/1/2
f 93/1/2 92/1/2 94/1/2
f 95/1/2 96/1/2 97/1/2
f 97/1/2 96/1/2 98/1/2
f 99/2/2 100/2/2 101/2/2
f 101/2/2 100/2/2 102/2/2
f 103/1/2 104/1/2 105/1/2
f 105/1/2 104/1/2 106/1/2
f 107/2/2 108/2/2 109/2/2
f 109/2/2 108/2/2 110/2/2
f 111/1/2 112/1/2 113/1/2
f 113/1/2 112/1/2 114/1/2
f 115/1/2 116/1/2 117/1/2
f 117/1/2 116/1/2 118/1/2
f 119/2/2 120/2/2 123/2/2
f 123/2/2 120/2/2 124/2/2
f 121/2/2 122/2/2 125/2/2
f 125/2/2 122/2/2 126/2/2
f 127/1/2 128/1/2 129/1/2
f 129/1/2 128/1/2 130/1/2
f 131/2/2 132/2/2 135/2/2
f 135/2/2 132/2/2 136/2/2
f 133/1/2 134/1/2 137/1/2
f 137/1/2 134/1/2 138/1/2
f 139/2/2 140/2/2 141/2/2
f 141/2/2 140/2/2 142/2/2
f 143/2/2 144/2/2 145/2/2
f 145/2/2 144/2/2 146/2/2
f 147/1/2 148/1/2 149/1/2
f 149/1/2 148/1/2 150/1/2
f 151/1/2 152/1/2 153/1/2
f 153/1/2 152/1/2 154/1/2
f 155/2/2 156/2/2 159/2/2
f 159/2/2 156/2/2 160/2/2
f 157/2/2 158/2/2 161/2/2
f 161/2/2 158/2/2 162/2/2
f 163/2/2 164/2/2 165/2/2
f 165/2/2 164/2/2 166/2/2
f 167/1/2 168/1/2 169/1/2
f 169/1/2 168/1/2 170/1/2
f 169/3/2 170/3/2 171/3/2
f 170/1/2 168/1/2 172/1/2
f 171/3/2 170/3/2 172/3/2
f 172/1/2 168/1/2 173/1/2
f 171/2/2 172/2/2 174/2/2
f 172/2/2 173/2/2 174/2/2
f 173/1/2 168/1/2 175/1/2
f 174/2/2 173/2/2 175/2/2
f 174/1/2 175/1/2 176/1/2
f 175/1/2 168/1/2 177/1/2
f 176/1/2 175/1/2 177/1/2
f 181/1/3 179/1/3 178/1/3
f 182/2/3 180/2/3 179/2/3
f 182/1/3 179/1/3 181/1/3
f 183/3/3 182/3/3 181/3/3
f 183/2/3 180/2/3 182/2/3
f 184/2/3 180/2/3 183/2/3
f 185/1/3 181/1/3 178/1/3
f 185/3/3 183/3/3 181/3/3
f 186/3/3 183/3/3 185/3/3
f 188/2/3 187/2/3 186/2/3
f 190/2/3 188/2/3 186/2/3
f 190/1/3 189/1/3 188/1/3
f 191/1/3 189/1/3 190/1/3
f 192/2/3 190/2/3 186/2/3
f 194/1/3 186/1/3 185/1/3
f 194/1/3 185/1/3 178/1/3
f 195/2/3 192/2/3 186/2/3
f 195/1/3 186/1/3 194/1/3
f 196/1/3 193/1/3 192/1/3
f 196/2/3 192/2/3 195/2/3
f 197/1/3 193/1/3 196/1/3
f 198/3/3 195/3/3 194/3/3
f 198/2/3 196/2/3 195/2/3
f 199/2/3 196/2/3 198/2/3
f 200/3/3 198/3/3 194/3/3
f 202/2/3 201/2/3 200/2/3
f 204/1/3 194/1/3 178/1/3
f 205/3/3 200/3/3 194/3/3
f 205/1/3 194/1/3 204/1/3
f 206/2/3 202/2/3 200/2/3
f 206/3/3 200/3/3 205/3/3
f 207/1/3 203/1/3 202/1/3
f 207/2/3 202/2/3 206/2/3
f 208/1/3 203/1/3 207/1/3
f 211/2/3 210/2/3 209/2/3
f 212/2/3 210/2/3 211/2/3
f 215/1/3 214/1/3 213/1/3
f 216/1/3 214/1/3 215/1/3
f 219/2/3 218/2/3 217/2/3
f 220/2/3 218/2/3 219/2/3
f 223/1/3 222/1/3 221/1/3
f 224/1/3 222/1/3 223/1/3
f 227/2/3 226/2/3 225/2/3
f 228/2/3 226/2/3 227/2/3
f 231/1/3 230/1/3 229/1/3
f 232/1/3 230/1/3 231/1/3
f 235/1/3 234/1/3 233/1/3
f 236/1/3 234/1/3 235/1/3
f 239/2/3 238/2/3 237/2/3
f 240/2/3 238/2/3 239/2/3
f 243/2/3 242/2/3 241/2/3
f 244/2/3 242/2/3 243/2/3
f 247/1/3 246/1/3 245/1/3
f 248/1/3 246/1/3 247/1/3
f 251/1/3 250/1/3 249/1/3
f 252/1/3 250/1/3 251/1/3
f 255/2/3 254/2/3 253/2/3
f 256/2/3 254/2/3 255/2/3
f 259/1/3 258/1/3 257/1/3
f 260/1/3 258/1/3 259/1/3
f 263/2/3 262/2/3 261/2/3
f 264/2/3 262/2/3 263/2/3
f 267/1/3 266/1/3 265/1/3
f 268/1/3 266/1/3 267/1/3
f 271/2/3 270/2/3 269/2/3
f 272/2/3 270/2/3 271/2/3
f 275/2/3 274/2/3 273/2/3
f 276/2/3 274/2/3 275/2/3
f 279/1/3 278/1/3 277/1/3
f 280/1/3 278/1/3 279/1/3
f 283/1/3 282/1/3 281/1/3
f 284/1/3 282/1/3 283/1/3
f 287/1/3 286/1/3 285/1/3
f 288/1/3 286/1/3 287/1/3
f 291/1/3 290/1/3 289/1/3
f 292/1/3 290/1/3 291/1/3
f 295/1/3 294/1/3 293/1/3
f 296/1/3 294/1/3 295/1/3
f 297/2/4 298/2/4 299/2/4
f 299/2/4 298/2/4 300/2/4
f 301/1/4 302/1/4 303/1/4
f 303/1/4 302/1/4 304/1/4
f 305/2/4 306/2/4 307/2/4
f 307/2/4 306/2/4 308/2/4
f 309/2/4 310/2/4 311/2/4
f 311/2/4 310/2/4 312/2/4
f 313/2/4 314/2/4 315/2/4
f 315/2/4 314/2/4 316/2/4
f 317/2/4 318/2/4 319/2/4
f 319/2/4 318/2/4 320/2/4
f 321/1/4 322/1/4 323/1/4
f 323/1/4 322/1/4 324/1/4
f 325/1/4 326/1/4 327/1/4
f 327/1/4 326/1/4 328/1/4
f 329/2/4 330/2/4 331/2/4
f 331/2/4 330/2/4 332/2/4
f 333/2/4 334/2/4 335/2/4
f 335/2/4 334/2/4 336/2/4
f 337/1/4 338/1/4 339/1/4
f 339/1/4 338/1/4 340/1/4
f 341/1/4 342/1/4 343/1/4
f 343/1/4 342/1/4 344/1/4
f 344/1/4 342/1/4 345/1/4
f 344/2/4 345/2/4 346/2/4
f 345/1/4 342/1/4 346/1/4
f 346/1/4 342/1/4 347/1/4
f 343/3/4 344/3/4 348/3/4
f 344/2/4 346/2/4 348/2/4
f 348/2/4 346/2/4 349/2/4
f 341/1/4 343/1/4 350/1/4
f 343/3/4 348/3/4 350/3/4
f 350/3/4 348/3/4 351/3/4
f 350/1/4 351/1/4 353/1/4
f 351/2/4 352/2/4 353/2/4
f 353/2/4 352/2/4 354/2/4
f 353/1/4 354/1/4 356/1/4
f 354/1/4 355/1/4 356/1/4
f 350/1/4 353/1/4 356/1/4
f 341/1/4 350/1/4 356/1/4
f 356/1/4 355/1/4 357/1/4
f 360/1/5 359/1/5 358/1/5
f 361/1/5 359/1/5 360/1/5
f 362/3/6 363/3/6 366/3/6
f 366/3/6 363/3/6 367/3/6
f 364/3/6 365/3/6 368/3/6
f 368/3/6 365/3/6 369/3/6
f 362/3/6 366/3/6 370/3/6
f 370/3/6 366/3/6 371/3/6
f 369/3/6 365/3/6 373/3/6
f 374/3/6 375/3/6 376/3/6
f 376/3/6 375/3/6 377/3/6
f 374/3/6 376/3/6 378/3/6
f 378/3/6 376/3/6 379/3/6
f 379/3/6 376/3/6 380/3/6
f 379/3/6 380/3/6 382/3/6
f 380/3/6 381/3/6 382/3/6
f 382/3/6 381/3/6 383/3/6
f 383/3/6 381/3/6 384/3/6
f 384/3/6 385/3/6 386/3/6
f 383/3/6 384/3/6 386/3/6
f 386/3/6 385/3/6 387/3/6
f 387/3/6 385/3/6 388/3/6
f 377/3/6 375/3/6 389/3/6
f 387/3/6 388/3/6 390/3/6
f 388/3/6 389/3/6 390/3/6
f 390/3/6 389/3/6 391/3/6
f 372/3/6 373/3/6 392/3/6
f 373/3/6 365/3/6 393/3/6
f 392/3/6 373/3/6 393/3/6
f 391/3/6 389/3/6 395/3/6
f 389/3/6 375/3/6 396/3/6
f 395/3/6 389/3/6 396/3/6
f 394/3/6 395/3/6 398/3/6
f 396/3/6 397/3/6 398/3/6
f 395/3/6 396/3/6 398/3/6
f 398/3/6 397/3/6 399/3/6
f 402/2/6 403/2/6 411/2/6
f 400/2/6 401/2/6 412/2/6
f 412/2/6 401/2/6 413/2/6
f 406/2/6 407/2/6 414/2/6
f 413/2/6 401/2/6 416/2/6
f 416/2/6 401/2/6 417/2/6
f 417/2/6 401/2/6 418/2/6
f 410/2/6 411/2/6 419/2/6
f 414/2/6 415/2/6 420/2/6
f 406/2/6 414/2/6 420/2/6
f 420/2/6 415/2/6 421/2/6
f 417/2/6 418/2/6 422/2/6
f 418/2/6 419/2/6 422/2/6
f 411/2/6 403/2/6 423/2/6
f 422/2/6 419/2/6 423/2/6
f 419/2/6 411/2/6 423/2/6
f 404/2/6 405/2/6 424/2/6
f 424/2/6 405/2/6 425/2/6
f 426/2/6 427/2/6 428/2/6
f 428/2/6 427/2/6 429/2/6
f 426/2/6 428/2/6 432/2/6
f 432/2/6 428/2/6 433/2/6
f 432/1/6 433/1/6 435/1/6
f 433/2/6 434/2/6 436/2/6
f 435/1/6 433/1/6 436/1/6
f 430/2/6 431/2/6 437/2/6
f 437/2/6 431/2/6 438/2/6
f 436/2/6 434/2/6 439/2/6
f 439/2/6 434/2/6 440/2/6
f 440/2/6 434/2/6 441/2/6
f 438/2/6 431/2/6 443/2/6
f 443/2/6 431/2/6 444/2/6
f 441/2/6 442/2/6 445/2/6
f 440/2/6 441/2/6 445/2/6
f 445/2/6 442/2/6 446/2/6
f 446/2/6 442/2/6 447/2/6
f 444/2/6 431/2/6 449/2/6
f 449/2/6 431/2/6 450/2/6
f 447/2/6 448/2/6 451/2/6
f 446/2/6 447/2/6 451/2/6
f 451/2/6 448/2/6 452/2/6
f 452/2/6 448/2/6 453/2/6
f 406/2/6 420/2/6 455/2/6
f 408/2/6 409/2/6 456/2/6
f 453/2/6 454/2/6 457/2/6
f 452/2/6 453/2/6 457/2/6
f 457/2/6 454/2/6 458/2/6
f 458/2/6 454/2/6 459/2/6
f 459/2/6 454/2/6 460/2/6
f 460/2/6 454/2/6 461/2/6
f 461/2/6 454/2/6 462/2/6
f 429/2/6 427/2/6 463/2/6
f 463/2/6 427/2/6 464/2/6
f 406/2/6 455/2/6 465/2/6
f 455/2/6 456/2/6 465/2/6
f 456/2/6 409/2/6 466/2/6
f 465/2/6 456/2/6 466/2/6
f 462/2/6 454/2/6 468/2/6
f 429/2/6 463/2/6 469/2/6
f 467/2/6 468/2/6 471/2/6
f 468/2/6 454/2/6 471/2/6
f 471/2/6 454/2/6 472/2/6
f 469/2/6 470/2/6 473/2/6
f 429/2/6 469/2/6 473/2/6
f 473/2/6 470/2/6 474/2/6
f 474/2/6 470/2/6 475/2/6
f 467/2/6 471/2/6 477/2/6
f 477/2/6 471/2/6 478/2/6
f 475/2/6 476/2/6 479/2/6
f 474/2/6 475/2/6 479/2/6
f 479/2/6 476/2/6 480/2/6
f 487/1/6 488/1/6 489/1/6
f 489/1/6 490/1/6 491/1/6
f 481/1/6 482/1/6 492/1/6
f 492/1/6 482/1/6 493/1/6
f 491/1/6 492/1/6 493/1/6
f 483/1/6 484/1/6 494/1/6
f 489/1/6 491/1/6 495/1/6
f 493/1/6 494/1/6 495/1/6
f 491/1/6 493/1/6 495/1/6
f 487/1/6 489/1/6 495/1/6
f 495/1/6 494/1/6 496/1/6
f 487/1/6 495/1/6 497/1/6
f 497/1/6 498/1/6 499/1/6
f 499/1/6 500/1/6 501/1/6
f 501/1/6 502/1/6 503/1/6
f 503/1/6 504/1/6 505/1/6
f 505/1/6 506/1/6 507/1/6
f 507/1/6 508/1/6 509/1/6
f 496/1/6 494/1/6 512/1/6
f 494/1/6 484/1/6 513/1/6
f 512/1/6 494/1/6 513/1/6
f 485/1/6 486/1/6 514/1/6
f 509/1/6 510/1/6 515/1/6
f 515/1/6 510/1/6 516/1/6
f 511/1/6 512/1/6 517/1/6
f 512/1/6 513/1/6 517/1/6
f 513/1/6 514/1/6 517/1/6
f 517/1/6 514/1/6 518/1/6
f 518/1/6 514/1/6 519/1/6
f 519/1/6 514/1/6 520/1/6
f 509/1/6 515/1/6 521/1/6
f 487/1/6 497/1/6 521/1/6
f 497/1/6 499/1/6 521/1/6
f 499/1/6 501/1/6 521/1/6
f 501/1/6 503/1/6 521/1/6
f 507/1/6 509/1/6 521/1/6
f 505/1/6 507/1/6 521/1/6
f 503/1/6 505/1/6 521/1/6
f 521/1/6 515/1/6 522/1/6
f 520/1/6 514/1/6 523/1/6
f 514/1/6 486/1/6 524/1/6
f 523/1/6 514/1/6 524/1/6
