# MagicaVoxel @ Ephtracy

# group
g DirtTile2.4

# material
mtllib DirtTile2.4.mtl
usemtl palette

# normals
vn -1 0 0
vn 1 0 0
vn 0 0 1
vn 0 0 -1
vn 0 -1 0
vn 0 1 0

# texcoords
vt 0.537109 0.5
vt 0.541016 0.5
vt 0.544922 0.5

# verts
v -16 0 16
v -16 0 -16
v -16 3 16
v -16 3 -0
v -16 4 16
v -16 4 -0
v -16 4 -16
v -16 5 16
v -16 5 -6
v -16 5 -16
v -16 6 16
v -16 6 -6
v -15 5 -13
v -15 5 -16
v -15 6 -13
v -15 6 -16
v -12 4 15
v -12 4 9
v -12 5 15
v -12 5 9
v -11 4 9
v -11 4 7
v -11 4 -11
v -11 4 -12
v -11 5 9
v -11 5 7
v -11 5 -11
v -11 5 -12
v -10 4 7
v -10 4 5
v -10 4 -10
v -10 4 -11
v -10 5 7
v -10 5 5
v -10 5 -10
v -10 5 -11
v -9 4 5
v -9 4 -1
v -9 5 5
v -9 5 -1
v -8 4 -1
v -8 4 -6
v -8 5 16
v -8 5 14
v -8 5 -1
v -8 5 -6
v -8 6 16
v -8 6 14
v -7 4 -6
v -7 4 -10
v -7 5 14
v -7 5 13
v -7 5 -6
v -7 5 -10
v -7 6 14
v -7 6 13
v -6 5 13
v -6 5 12
v -6 6 13
v -6 6 12
v -5 5 12
v -5 5 -8
v -5 6 12
v -5 6 -8
v -4 5 -12
v -4 5 -13
v -4 6 -12
v -4 6 -13
v 0 4 15
v 0 4 -0
v 0 5 15
v 0 5 -0
v 1 4 16
v 1 4 15
v 1 5 16
v 1 5 15
v 3 4 -0
v 3 4 -1
v 3 5 -0
v 3 5 -1
v 4 4 1
v 4 4 -0
v 4 5 1
v 4 5 -0
v 5 4 16
v 5 4 1
v 5 5 16
v 5 5 1
v 7 5 9
v 7 5 -2
v 7 6 9
v 7 6 -2
v 9 5 16
v 9 5 14
v 9 6 16
v 9 6 14
v 10 4 -9
v 10 4 -10
v 10 5 -9
v 10 5 -10
v 11 4 -6
v 11 4 -9
v 11 5 10
v 11 5 9
v 11 5 -6
v 11 5 -9
v 11 6 10
v 11 6 9
v 12 4 2
v 12 4 -1
v 12 5 12
v 12 5 10
v 12 5 2
v 12 5 -1
v 12 6 12
v 12 6 10
v 13 4 4
v 13 4 2
v 13 5 15
v 13 5 12
v 13 5 4
v 13 5 2
v 13 5 -0
v 13 5 -2
v 13 5 -4
v 13 5 -12
v 13 6 15
v 13 6 12
v 13 6 -0
v 13 6 -2
v 13 6 -4
v 13 6 -12
v 14 4 7
v 14 4 4
v 14 5 7
v 14 5 4
v 14 5 2
v 14 5 -0
v 14 6 2
v 14 6 -0
v -15 4 -7
v -15 4 -10
v -15 5 16
v -15 5 -6
v -15 5 -7
v -15 5 -10
v -15 6 16
v -15 6 -6
v -14 4 15
v -14 4 -7
v -14 4 -10
v -14 4 -11
v -14 5 15
v -14 5 -7
v -14 5 -10
v -14 5 -11
v -13 4 -11
v -13 4 -12
v -13 5 -11
v -13 5 -12
v -4 5 -7
v -4 5 -8
v -4 6 -7
v -4 6 -8
v -3 4 -9
v -3 4 -10
v -3 5 16
v -3 5 -2
v -3 5 -6
v -3 5 -7
v -3 5 -9
v -3 5 -10
v -3 6 16
v -3 6 -2
v -3 6 -6
v -3 6 -7
v -2 4 16
v -2 4 -0
v -2 4 -8
v -2 4 -9
v -2 5 16
v -2 5 -0
v -2 5 -8
v -2 5 -9
v -1 4 -0
v -1 4 -1
v -1 5 -0
v -1 5 -1
v -1 5 -5
v -1 5 -6
v -1 6 -5
v -1 6 -6
v 0 4 -7
v 0 4 -8
v 0 5 -4
v 0 5 -5
v 0 5 -7
v 0 5 -8
v 0 6 -4
v 0 6 -5
v 1 4 2
v 1 4 -0
v 1 4 -6
v 1 4 -7
v 1 5 2
v 1 5 -0
v 1 5 -6
v 1 5 -7
v 2 4 3
v 2 4 2
v 2 5 3
v 2 5 2
v 3 4 16
v 3 4 3
v 3 5 16
v 3 5 3
v 8 5 8
v 8 5 -1
v 8 6 8
v 8 6 -1
v 9 4 7
v 9 4 -0
v 9 5 7
v 9 5 -0
v 9 5 -1
v 9 5 -2
v 9 6 -1
v 9 6 -2
v 10 4 -0
v 10 4 -1
v 10 5 -0
v 10 5 -1
v 11 5 15
v 11 5 14
v 11 6 15
v 11 6 14
v 12 5 16
v 12 5 15
v 12 6 16
v 12 6 15
v 14 5 11
v 14 5 8
v 14 6 11
v 14 6 8
v 16 0 16
v 16 0 -16
v 16 4 11
v 16 4 2
v 16 5 16
v 16 5 15
v 16 5 11
v 16 5 2
v 16 6 15
v 16 6 11
v 16 6 2
v 16 6 -16
v -16 0 16
v -16 3 16
v -16 4 16
v -16 5 16
v -16 6 16
v -15 5 16
v -15 6 16
v -8 5 16
v -8 6 16
v -3 5 16
v -3 6 16
v -2 4 16
v -2 5 16
v 1 4 16
v 1 5 16
v 3 4 16
v 3 5 16
v 5 3 16
v 5 4 16
v 5 5 16
v 9 5 16
v 9 6 16
v 12 5 16
v 12 6 16
v 13 4 16
v 13 5 16
v 16 0 16
v 16 5 16
v 0 4 15
v 0 5 15
v 1 4 15
v 1 5 15
v 13 5 15
v 13 6 15
v 16 5 15
v 16 6 15
v 12 5 12
v 12 6 12
v 13 5 12
v 13 6 12
v 11 5 10
v 11 6 10
v 12 5 10
v 12 6 10
v 7 5 9
v 7 6 9
v 11 5 9
v 11 6 9
v 13 4 4
v 13 5 4
v 14 4 4
v 14 5 4
v 12 4 2
v 12 5 2
v 13 4 2
v 13 5 2
v 14 5 2
v 14 6 2
v 16 5 2
v 16 6 2
v 4 4 1
v 4 5 1
v 5 4 1
v 5 5 1
v -2 4 -0
v -2 5 -0
v -1 4 -0
v -1 5 -0
v 3 4 -0
v 3 5 -0
v 4 4 -0
v 4 5 -0
v 9 4 -0
v 9 5 -0
v 10 4 -0
v 10 5 -0
v 13 5 -0
v 13 6 -0
v 14 5 -0
v 14 6 -0
v -1 4 -1
v -1 5 -1
v 3 4 -1
v 3 5 -1
v 8 5 -1
v 8 6 -1
v 9 5 -1
v 9 6 -1
v 10 4 -1
v 10 5 -1
v 12 4 -1
v 12 5 -1
v -3 5 -2
v -3 6 -2
v 7 5 -2
v 7 6 -2
v 9 5 -2
v 9 6 -2
v 13 5 -2
v 13 6 -2
v 10 4 -9
v 10 5 -9
v 11 4 -9
v 11 5 -9
v -15 4 -10
v -15 5 -10
v -14 4 -10
v -14 5 -10
v -10 4 -10
v -10 5 -10
v -7 4 -10
v -7 5 -10
v -3 4 -10
v -3 5 -10
v 10 4 -10
v 10 5 -10
v -14 4 -11
v -14 5 -11
v -13 4 -11
v -13 5 -11
v -11 4 -11
v -11 5 -11
v -10 4 -11
v -10 5 -11
v -13 4 -12
v -13 5 -12
v -11 4 -12
v -11 5 -12
v -4 5 -12
v -4 6 -12
v 13 5 -12
v 13 6 -12
v -15 5 -13
v -15 6 -13
v -4 5 -13
v -4 6 -13
v -14 4 15
v -14 5 15
v -12 4 15
v -12 5 15
v 11 5 15
v 11 6 15
v 12 5 15
v 12 6 15
v -8 5 14
v -8 6 14
v -7 5 14
v -7 6 14
v 9 5 14
v 9 6 14
v 11 5 14
v 11 6 14
v -7 5 13
v -7 6 13
v -6 5 13
v -6 6 13
v -6 5 12
v -6 6 12
v -5 5 12
v -5 6 12
v 14 5 11
v 14 6 11
v 16 5 11
v 16 6 11
v -12 4 9
v -12 5 9
v -11 4 9
v -11 5 9
v 8 5 8
v 8 6 8
v 14 5 8
v 14 6 8
v -11 4 7
v -11 5 7
v -10 4 7
v -10 5 7
v 9 4 7
v 9 5 7
v 14 4 7
v 14 5 7
v -10 4 5
v -10 5 5
v -9 4 5
v -9 5 5
v 2 4 3
v 2 5 3
v 3 4 3
v 3 5 3
v 1 4 2
v 1 5 2
v 2 4 2
v 2 5 2
v 0 4 -0
v 0 5 -0
v 1 4 -0
v 1 5 -0
v -9 4 -1
v -9 5 -1
v -8 4 -1
v -8 5 -1
v 0 5 -4
v 0 6 -4
v 13 5 -4
v 13 6 -4
v -1 5 -5
v -1 6 -5
v 0 5 -5
v 0 6 -5
v -16 5 -6
v -16 6 -6
v -15 5 -6
v -15 6 -6
v -8 4 -6
v -8 5 -6
v -7 4 -6
v -7 5 -6
v -3 5 -6
v -3 6 -6
v -1 5 -6
v -1 6 -6
v 1 4 -6
v 1 5 -6
v 11 4 -6
v 11 5 -6
v -15 4 -7
v -15 5 -7
v -14 4 -7
v -14 5 -7
v -4 5 -7
v -4 6 -7
v -3 5 -7
v -3 6 -7
v 0 4 -7
v 0 5 -7
v 1 4 -7
v 1 5 -7
v -5 5 -8
v -5 6 -8
v -4 5 -8
v -4 6 -8
v -2 4 -8
v -2 5 -8
v 0 4 -8
v 0 5 -8
v -3 4 -9
v -3 5 -9
v -2 4 -9
v -2 5 -9
v -16 0 -16
v -16 4 -16
v -16 5 -16
v -15 4 -16
v -15 5 -16
v -15 6 -16
v 16 0 -16
v 16 6 -16
v -16 0 16
v 16 0 16
v -16 0 -16
v 16 0 -16
v -2 4 16
v 1 4 16
v 3 4 16
v 5 4 16
v -14 4 15
v -12 4 15
v 0 4 15
v 1 4 15
v -12 4 9
v -11 4 9
v -11 4 7
v -10 4 7
v 9 4 7
v 14 4 7
v -10 4 5
v -9 4 5
v 13 4 4
v 14 4 4
v 2 4 3
v 3 4 3
v 1 4 2
v 2 4 2
v 12 4 2
v 13 4 2
v 4 4 1
v 5 4 1
v -2 4 -0
v -1 4 -0
v 0 4 -0
v 1 4 -0
v 3 4 -0
v 4 4 -0
v 9 4 -0
v 10 4 -0
v -9 4 -1
v -8 4 -1
v -1 4 -1
v 3 4 -1
v 10 4 -1
v 12 4 -1
v -8 4 -6
v -7 4 -6
v 1 4 -6
v 11 4 -6
v -15 4 -7
v -14 4 -7
v 0 4 -7
v 1 4 -7
v -2 4 -8
v 0 4 -8
v -3 4 -9
v -2 4 -9
v 10 4 -9
v 11 4 -9
v -15 4 -10
v -14 4 -10
v -10 4 -10
v -7 4 -10
v -3 4 -10
v 10 4 -10
v -14 4 -11
v -13 4 -11
v -11 4 -11
v -10 4 -11
v -13 4 -12
v -11 4 -12
v -15 5 16
v -8 5 16
v -3 5 16
v -2 5 16
v 1 5 16
v 3 5 16
v 5 5 16
v 9 5 16
v 12 5 16
v 13 5 16
v 16 5 16
v -14 5 15
v -12 5 15
v 0 5 15
v 1 5 15
v 11 5 15
v 12 5 15
v 13 5 15
v 16 5 15
v -8 5 14
v -7 5 14
v 9 5 14
v 11 5 14
v -7 5 13
v -6 5 13
v -6 5 12
v -5 5 12
v 12 5 12
v 13 5 12
v 14 5 11
v 16 5 11
v 11 5 10
v 12 5 10
v -12 5 9
v -11 5 9
v 7 5 9
v 11 5 9
v 8 5 8
v 14 5 8
v -11 5 7
v -10 5 7
v 9 5 7
v 14 5 7
v -10 5 5
v -9 5 5
v 13 5 4
v 14 5 4
v 2 5 3
v 3 5 3
v 1 5 2
v 2 5 2
v 12 5 2
v 13 5 2
v 14 5 2
v 16 5 2
v 4 5 1
v 5 5 1
v -2 5 -0
v -1 5 -0
v 0 5 -0
v 1 5 -0
v 3 5 -0
v 4 5 -0
v 9 5 -0
v 10 5 -0
v 13 5 -0
v 14 5 -0
v -9 5 -1
v -8 5 -1
v -1 5 -1
v 3 5 -1
v 8 5 -1
v 9 5 -1
v 10 5 -1
v 12 5 -1
v -3 5 -2
v 7 5 -2
v 9 5 -2
v 13 5 -2
v 0 5 -4
v 13 5 -4
v -1 5 -5
v 0 5 -5
v -16 5 -6
v -15 5 -6
v -8 5 -6
v -7 5 -6
v -3 5 -6
v -1 5 -6
v 1 5 -6
v 11 5 -6
v -15 5 -7
v -14 5 -7
v -4 5 -7
v -3 5 -7
v 0 5 -7
v 1 5 -7
v -5 5 -8
v -4 5 -8
v -2 5 -8
v 0 5 -8
v -3 5 -9
v -2 5 -9
v 10 5 -9
v 11 5 -9
v -15 5 -10
v -14 5 -10
v -10 5 -10
v -7 5 -10
v -3 5 -10
v 10 5 -10
v -14 5 -11
v -13 5 -11
v -11 5 -11
v -10 5 -11
v -13 5 -12
v -11 5 -12
v -4 5 -12
v 13 5 -12
v -15 5 -13
v -4 5 -13
v -16 5 -16
v -15 5 -16
v -16 6 16
v -15 6 16
v -8 6 16
v -3 6 16
v 9 6 16
v 12 6 16
v 11 6 15
v 12 6 15
v 13 6 15
v 16 6 15
v -8 6 14
v -7 6 14
v 9 6 14
v 11 6 14
v -7 6 13
v -6 6 13
v -6 6 12
v -5 6 12
v 12 6 12
v 13 6 12
v 14 6 11
v 16 6 11
v 11 6 10
v 12 6 10
v 7 6 9
v 11 6 9
v 8 6 8
v 14 6 8
v 14 6 2
v 16 6 2
v 13 6 -0
v 14 6 -0
v 8 6 -1
v 9 6 -1
v -3 6 -2
v 7 6 -2
v 9 6 -2
v 13 6 -2
v 0 6 -4
v 13 6 -4
v -1 6 -5
v 0 6 -5
v -16 6 -6
v -15 6 -6
v -3 6 -6
v -1 6 -6
v -4 6 -7
v -3 6 -7
v -5 6 -8
v -4 6 -8
v -4 6 -12
v 13 6 -12
v -15 6 -13
v -4 6 -13
v -15 6 -16
v 16 6 -16

# faces
f 3/1/1 2/1/1 1/1/1
f 4/1/1 2/1/1 3/1/1
f 5/3/1 4/3/1 3/3/1
f 6/1/1 2/1/1 4/1/1
f 6/3/1 4/3/1 5/3/1
f 7/1/1 2/1/1 6/1/1
f 8/2/1 6/2/1 5/2/1
f 8/2/1 7/2/1 6/2/1
f 9/2/1 7/2/1 8/2/1
f 10/2/1 7/2/1 9/2/1
f 11/1/1 9/1/1 8/1/1
f 12/1/1 9/1/1 11/1/1
f 15/1/1 14/1/1 13/1/1
f 16/1/1 14/1/1 15/1/1
f 19/2/1 18/2/1 17/2/1
f 20/2/1 18/2/1 19/2/1
f 25/2/1 22/2/1 21/2/1
f 26/2/1 22/2/1 25/2/1
f 27/2/1 24/2/1 23/2/1
f 28/2/1 24/2/1 27/2/1
f 33/2/1 30/2/1 29/2/1
f 34/2/1 30/2/1 33/2/1
f 35/2/1 32/2/1 31/2/1
f 36/2/1 32/2/1 35/2/1
f 39/2/1 38/2/1 37/2/1
f 40/2/1 38/2/1 39/2/1
f 45/2/1 42/2/1 41/2/1
f 46/2/1 42/2/1 45/2/1
f 47/1/1 44/1/1 43/1/1
f 48/1/1 44/1/1 47/1/1
f 53/2/1 50/2/1 49/2/1
f 54/2/1 50/2/1 53/2/1
f 55/1/1 52/1/1 51/1/1
f 56/1/1 52/1/1 55/1/1
f 59/1/1 58/1/1 57/1/1
f 60/1/1 58/1/1 59/1/1
f 63/1/1 62/1/1 61/1/1
f 64/1/1 62/1/1 63/1/1
f 67/1/1 66/1/1 65/1/1
f 68/1/1 66/1/1 67/1/1
f 71/2/1 70/2/1 69/2/1
f 72/2/1 70/2/1 71/2/1
f 75/2/1 74/2/1 73/2/1
f 76/2/1 74/2/1 75/2/1
f 79/2/1 78/2/1 77/2/1
f 80/2/1 78/2/1 79/2/1
f 83/2/1 82/2/1 81/2/1
f 84/2/1 82/2/1 83/2/1
f 87/2/1 86/2/1 85/2/1
f 88/2/1 86/2/1 87/2/1
f 91/1/1 90/1/1 89/1/1
f 92/1/1 90/1/1 91/1/1
f 95/1/1 94/1/1 93/1/1
f 96/1/1 94/1/1 95/1/1
f 99/2/1 98/2/1 97/2/1
f 100/2/1 98/2/1 99/2/1
f 105/2/1 102/2/1 101/2/1
f 106/2/1 102/2/1 105/2/1
f 107/1/1 104/1/1 103/1/1
f 108/1/1 104/1/1 107/1/1
f 113/2/1 110/2/1 109/2/1
f 114/2/1 110/2/1 113/2/1
f 115/1/1 112/1/1 111/1/1
f 116/1/1 112/1/1 115/1/1
f 121/2/1 118/2/1 117/2/1
f 122/2/1 118/2/1 121/2/1
f 127/1/1 120/1/1 119/1/1
f 128/1/1 120/1/1 127/1/1
f 129/1/1 124/1/1 123/1/1
f 130/1/1 124/1/1 129/1/1
f 131/1/1 126/1/1 125/1/1
f 132/1/1 126/1/1 131/1/1
f 135/2/1 134/2/1 133/2/1
f 136/2/1 134/2/1 135/2/1
f 139/1/1 138/1/1 137/1/1
f 140/1/1 138/1/1 139/1/1
f 141/2/2 142/2/2 145/2/2
f 145/2/2 142/2/2 146/2/2
f 143/1/2 144/1/2 147/1/2
f 147/1/2 144/1/2 148/1/2
f 149/2/2 150/2/2 153/2/2
f 153/2/2 150/2/2 154/2/2
f 151/2/2 152/2/2 155/2/2
f 155/2/2 152/2/2 156/2/2
f 157/2/2 158/2/2 159/2/2
f 159/2/2 158/2/2 160/2/2
f 161/1/2 162/1/2 163/1/2
f 163/1/2 162/1/2 164/1/2
f 165/2/2 166/2/2 171/2/2
f 171/2/2 166/2/2 172/2/2
f 167/1/2 168/1/2 173/1/2
f 173/1/2 168/1/2 174/1/2
f 169/1/2 170/1/2 175/1/2
f 175/1/2 170/1/2 176/1/2
f 177/2/2 178/2/2 181/2/2
f 181/2/2 178/2/2 182/2/2
f 179/2/2 180/2/2 183/2/2
f 183/2/2 180/2/2 184/2/2
f 185/2/2 186/2/2 187/2/2
f 187/2/2 186/2/2 188/2/2
f 189/1/2 190/1/2 191/1/2
f 191/1/2 190/1/2 192/1/2
f 193/2/2 194/2/2 197/2/2
f 197/2/2 194/2/2 198/2/2
f 195/1/2 196/1/2 199/1/2
f 199/1/2 196/1/2 200/1/2
f 201/2/2 202/2/2 205/2/2
f 205/2/2 202/2/2 206/2/2
f 203/2/2 204/2/2 207/2/2
f 207/2/2 204/2/2 208/2/2
f 209/2/2 210/2/2 211/2/2
f 211/2/2 210/2/2 212/2/2
f 213/2/2 214/2/2 215/2/2
f 215/2/2 214/2/2 216/2/2
f 217/1/2 218/1/2 219/1/2
f 219/1/2 218/1/2 220/1/2
f 221/2/2 222/2/2 223/2/2
f 223/2/2 222/2/2 224/2/2
f 225/1/2 226/1/2 227/1/2
f 227/1/2 226/1/2 228/1/2
f 229/2/2 230/2/2 231/2/2
f 231/2/2 230/2/2 232/2/2
f 233/1/2 234/1/2 235/1/2
f 235/1/2 234/1/2 236/1/2
f 237/1/2 238/1/2 239/1/2
f 239/1/2 238/1/2 240/1/2
f 241/1/2 242/1/2 243/1/2
f 243/1/2 242/1/2 244/1/2
f 245/1/2 246/1/2 247/1/2
f 247/1/2 246/1/2 248/1/2
f 245/1/2 247/1/2 249/1/2
f 249/1/2 247/1/2 250/1/2
f 247/2/2 248/2/2 251/2/2
f 250/1/2 247/1/2 251/1/2
f 248/1/2 246/1/2 252/1/2
f 251/2/2 248/2/2 252/2/2
f 250/1/2 251/1/2 253/1/2
f 253/1/2 251/1/2 254/1/2
f 252/1/2 246/1/2 255/1/2
f 255/1/2 246/1/2 256/1/2
f 262/2/3 260/2/3 259/2/3
f 262/1/3 261/1/3 260/1/3
f 263/1/3 261/1/3 262/1/3
f 264/2/3 262/2/3 259/2/3
f 266/2/3 264/2/3 259/2/3
f 266/1/3 265/1/3 264/1/3
f 267/1/3 265/1/3 266/1/3
f 268/3/3 259/3/3 258/3/3
f 268/2/3 266/2/3 259/2/3
f 269/2/3 266/2/3 268/2/3
f 270/3/3 268/3/3 258/3/3
f 272/3/3 270/3/3 258/3/3
f 272/2/3 271/2/3 270/2/3
f 273/2/3 271/2/3 272/2/3
f 274/1/3 258/1/3 257/1/3
f 274/3/3 272/3/3 258/3/3
f 275/3/3 272/3/3 274/3/3
f 277/2/3 276/2/3 275/2/3
f 279/2/3 277/2/3 275/2/3
f 279/1/3 278/1/3 277/1/3
f 280/1/3 278/1/3 279/1/3
f 281/1/3 275/1/3 274/1/3
f 281/2/3 279/2/3 275/2/3
f 282/2/3 279/2/3 281/2/3
f 283/1/3 274/1/3 257/1/3
f 283/1/3 281/1/3 274/1/3
f 283/1/3 282/1/3 281/1/3
f 284/1/3 282/1/3 283/1/3
f 287/2/3 286/2/3 285/2/3
f 288/2/3 286/2/3 287/2/3
f 291/1/3 290/1/3 289/1/3
f 292/1/3 290/1/3 291/1/3
f 295/1/3 294/1/3 293/1/3
f 296/1/3 294/1/3 295/1/3
f 299/1/3 298/1/3 297/1/3
f 300/1/3 298/1/3 299/1/3
f 303/1/3 302/1/3 301/1/3
f 304/1/3 302/1/3 303/1/3
f 307/2/3 306/2/3 305/2/3
f 308/2/3 306/2/3 307/2/3
f 311/2/3 310/2/3 309/2/3
f 312/2/3 310/2/3 311/2/3
f 315/1/3 314/1/3 313/1/3
f 316/1/3 314/1/3 315/1/3
f 319/2/3 318/2/3 317/2/3
f 320/2/3 318/2/3 319/2/3
f 323/2/3 322/2/3 321/2/3
f 324/2/3 322/2/3 323/2/3
f 327/2/3 326/2/3 325/2/3
f 328/2/3 326/2/3 327/2/3
f 331/2/3 330/2/3 329/2/3
f 332/2/3 330/2/3 331/2/3
f 335/1/3 334/1/3 333/1/3
f 336/1/3 334/1/3 335/1/3
f 339/2/3 338/2/3 337/2/3
f 340/2/3 338/2/3 339/2/3
f 343/1/3 342/1/3 341/1/3
f 344/1/3 342/1/3 343/1/3
f 347/2/3 346/2/3 345/2/3
f 348/2/3 346/2/3 347/2/3
f 351/1/3 350/1/3 349/1/3
f 352/1/3 350/1/3 351/1/3
f 355/1/3 354/1/3 353/1/3
f 356/1/3 354/1/3 355/1/3
f 359/2/3 358/2/3 357/2/3
f 360/2/3 358/2/3 359/2/3
f 363/2/3 362/2/3 361/2/3
f 364/2/3 362/2/3 363/2/3
f 367/2/3 366/2/3 365/2/3
f 368/2/3 366/2/3 367/2/3
f 371/2/3 370/2/3 369/2/3
f 372/2/3 370/2/3 371/2/3
f 375/2/3 374/2/3 373/2/3
f 376/2/3 374/2/3 375/2/3
f 379/2/3 378/2/3 377/2/3
f 380/2/3 378/2/3 379/2/3
f 383/2/3 382/2/3 381/2/3
f 384/2/3 382/2/3 383/2/3
f 387/1/3 386/1/3 385/1/3
f 388/1/3 386/1/3 387/1/3
f 391/1/3 390/1/3 389/1/3
f 392/1/3 390/1/3 391/1/3
f 393/2/4 394/2/4 395/2/4
f 395/2/4 394/2/4 396/2/4
f 397/1/4 398/1/4 399/1/4
f 399/1/4 398/1/4 400/1/4
f 401/1/4 402/1/4 403/1/4
f 403/1/4 402/1/4 404/1/4
f 405/1/4 406/1/4 407/1/4
f 407/1/4 406/1/4 408/1/4
f 409/1/4 410/1/4 411/1/4
f 411/1/4 410/1/4 412/1/4
f 413/1/4 414/1/4 415/1/4
f 415/1/4 414/1/4 416/1/4
f 417/1/4 418/1/4 419/1/4
f 419/1/4 418/1/4 420/1/4
f 421/2/4 422/2/4 423/2/4
f 423/2/4 422/2/4 424/2/4
f 425/1/4 426/1/4 427/1/4
f 427/1/4 426/1/4 428/1/4
f 429/2/4 430/2/4 431/2/4
f 431/2/4 430/2/4 432/2/4
f 433/2/4 434/2/4 435/2/4
f 435/2/4 434/2/4 436/2/4
f 437/2/4 438/2/4 439/2/4
f 439/2/4 438/2/4 440/2/4
f 441/2/4 442/2/4 443/2/4
f 443/2/4 442/2/4 444/2/4
f 445/2/4 446/2/4 447/2/4
f 447/2/4 446/2/4 448/2/4
f 449/2/4 450/2/4 451/2/4
f 451/2/4 450/2/4 452/2/4
f 453/2/4 454/2/4 455/2/4
f 455/2/4 454/2/4 456/2/4
f 457/1/4 458/1/4 459/1/4
f 459/1/4 458/1/4 460/1/4
f 461/1/4 462/1/4 463/1/4
f 463/1/4 462/1/4 464/1/4
f 465/1/4 466/1/4 467/1/4
f 467/1/4 466/1/4 468/1/4
f 469/2/4 470/2/4 471/2/4
f 471/2/4 470/2/4 472/2/4
f 473/1/4 474/1/4 475/1/4
f 475/1/4 474/1/4 476/1/4
f 477/2/4 478/2/4 479/2/4
f 479/2/4 478/2/4 480/2/4
f 481/2/4 482/2/4 483/2/4
f 483/2/4 482/2/4 484/2/4
f 485/1/4 486/1/4 487/1/4
f 487/1/4 486/1/4 488/1/4
f 489/2/4 490/2/4 491/2/4
f 491/2/4 490/2/4 492/2/4
f 493/1/4 494/1/4 495/1/4
f 495/1/4 494/1/4 496/1/4
f 497/2/4 498/2/4 499/2/4
f 499/2/4 498/2/4 500/2/4
f 501/2/4 502/2/4 503/2/4
f 503/2/4 502/2/4 504/2/4
f 505/1/4 506/1/4 508/1/4
f 506/2/4 507/2/4 508/2/4
f 508/2/4 507/2/4 509/2/4
f 505/1/4 508/1/4 511/1/4
f 509/1/4 510/1/4 511/1/4
f 508/1/4 509/1/4 511/1/4
f 511/1/4 510/1/4 512/1/4
f 515/1/5 514/1/5 513/1/5
f 516/1/5 514/1/5 515/1/5
f 517/3/6 518/3/6 523/3/6
f 523/3/6 518/3/6 524/3/6
f 521/3/6 522/3/6 525/3/6
f 525/3/6 526/3/6 527/3/6
f 527/3/6 528/3/6 531/3/6
f 529/3/6 530/3/6 533/3/6
f 533/3/6 530/3/6 534/3/6
f 519/3/6 520/3/6 536/3/6
f 535/3/6 536/3/6 538/3/6
f 529/3/6 533/3/6 539/3/6
f 539/3/6 533/3/6 540/3/6
f 537/3/6 538/3/6 541/3/6
f 536/3/6 520/3/6 541/3/6
f 538/3/6 536/3/6 541/3/6
f 541/3/6 520/3/6 542/3/6
f 517/3/6 523/3/6 543/3/6
f 543/3/6 523/3/6 544/3/6
f 544/3/6 523/3/6 545/3/6
f 537/3/6 541/3/6 546/3/6
f 546/3/6 541/3/6 547/3/6
f 547/3/6 541/3/6 548/3/6
f 529/3/6 539/3/6 549/3/6
f 549/3/6 539/3/6 550/3/6
f 531/3/6 532/3/6 551/3/6
f 546/3/6 547/3/6 553/3/6
f 544/3/6 545/3/6 553/3/6
f 545/3/6 546/3/6 553/3/6
f 553/3/6 547/3/6 554/3/6
f 550/3/6 539/3/6 555/3/6
f 555/3/6 539/3/6 556/3/6
f 551/3/6 552/3/6 557/3/6
f 521/3/6 525/3/6 562/3/6
f 525/3/6 527/3/6 562/3/6
f 557/3/6 558/3/6 562/3/6
f 551/3/6 557/3/6 562/3/6
f 527/3/6 531/3/6 562/3/6
f 531/3/6 551/3/6 562/3/6
f 559/3/6 560/3/6 564/3/6
f 563/3/6 564/3/6 566/3/6
f 565/3/6 566/3/6 568/3/6
f 564/3/6 560/3/6 569/3/6
f 566/3/6 564/3/6 569/3/6
f 568/3/6 566/3/6 569/3/6
f 569/3/6 560/3/6 570/3/6
f 561/3/6 562/3/6 571/3/6
f 562/3/6 558/3/6 572/3/6
f 571/3/6 562/3/6 572/3/6
f 572/3/6 558/3/6 573/3/6
f 573/3/6 558/3/6 574/3/6
f 567/3/6 568/3/6 575/3/6
f 568/3/6 569/3/6 575/3/6
f 575/3/6 569/3/6 576/3/6
f 572/3/6 573/3/6 577/3/6
f 577/3/6 573/3/6 578/3/6
f 578/3/6 573/3/6 579/3/6
f 579/3/6 573/3/6 580/3/6
f 578/3/6 579/3/6 581/3/6
f 581/3/6 579/3/6 582/3/6
f 583/2/6 584/2/6 594/2/6
f 594/2/6 584/2/6 595/2/6
f 587/2/6 588/2/6 597/2/6
f 591/2/6 592/2/6 599/2/6
f 592/1/6 593/1/6 600/1/6
f 599/2/6 592/2/6 600/2/6
f 600/1/6 593/1/6 601/1/6
f 595/2/6 584/2/6 602/2/6
f 589/2/6 590/2/6 604/2/6
f 598/2/6 599/2/6 605/2/6
f 599/2/6 600/2/6 605/2/6
f 602/2/6 603/2/6 606/2/6
f 606/2/6 607/2/6 608/2/6
f 604/2/6 605/2/6 610/2/6
f 605/2/6 600/2/6 610/2/6
f 610/2/6 600/2/6 611/2/6
f 604/2/6 610/2/6 614/2/6
f 614/2/6 610/2/6 615/2/6
f 608/2/6 609/2/6 616/2/6
f 595/2/6 602/2/6 616/2/6
f 606/2/6 608/2/6 616/2/6
f 602/2/6 606/2/6 616/2/6
f 616/2/6 609/2/6 617/2/6
f 589/2/6 604/2/6 618/2/6
f 604/2/6 614/2/6 618/2/6
f 618/2/6 614/2/6 619/2/6
f 612/2/6 613/2/6 621/2/6
f 617/2/6 609/2/6 622/2/6
f 622/2/6 609/2/6 623/2/6
f 620/2/6 621/2/6 624/2/6
f 621/2/6 613/2/6 625/2/6
f 624/2/6 621/2/6 625/2/6
f 623/2/6 609/2/6 626/2/6
f 626/2/6 609/2/6 627/2/6
f 625/2/6 613/2/6 629/2/6
f 596/2/6 597/2/6 630/2/6
f 597/2/6 588/2/6 630/2/6
f 630/2/6 588/2/6 631/2/6
f 596/2/6 630/2/6 632/2/6
f 632/2/6 630/2/6 633/2/6
f 628/2/6 629/2/6 635/2/6
f 629/2/6 613/2/6 636/2/6
f 635/2/6 629/2/6 636/2/6
f 636/2/6 613/2/6 637/2/6
f 589/2/6 618/2/6 639/2/6
f 585/2/6 586/2/6 640/2/6
f 596/2/6 632/2/6 642/2/6
f 642/2/6 632/2/6 643/2/6
f 638/2/6 639/2/6 645/2/6
f 620/2/6 624/2/6 646/2/6
f 635/2/6 636/2/6 648/2/6
f 634/2/6 635/2/6 648/2/6
f 648/2/6 636/2/6 649/2/6
f 627/2/6 609/2/6 650/2/6
f 650/2/6 609/2/6 651/2/6
f 640/2/6 641/2/6 652/2/6
f 644/2/6 645/2/6 653/2/6
f 646/2/6 647/2/6 654/2/6
f 620/2/6 646/2/6 654/2/6
f 654/2/6 647/2/6 655/2/6
f 655/2/6 647/2/6 656/2/6
f 634/2/6 648/2/6 657/2/6
f 652/2/6 653/2/6 658/2/6
f 640/2/6 652/2/6 658/2/6
f 585/2/6 640/2/6 658/2/6
f 653/2/6 645/2/6 659/2/6
f 658/2/6 653/2/6 659/2/6
f 639/2/6 618/2/6 659/2/6
f 645/2/6 639/2/6 659/2/6
f 655/2/6 656/2/6 660/2/6
f 656/2/6 657/2/6 660/2/6
f 657/2/6 648/2/6 661/2/6
f 660/2/6 657/2/6 661/2/6
f 662/2/6 663/2/6 665/2/6
f 583/2/6 594/2/6 667/2/6
f 651/2/6 609/2/6 668/2/6
f 668/2/6 609/2/6 669/2/6
f 664/2/6 665/2/6 671/2/6
f 665/2/6 663/2/6 672/2/6
f 671/2/6 665/2/6 672/2/6
f 672/2/6 663/2/6 673/2/6
f 666/2/6 667/2/6 674/2/6
f 667/2/6 594/2/6 674/2/6
f 674/2/6 594/2/6 675/2/6
f 670/2/6 671/2/6 677/2/6
f 671/2/6 672/2/6 677/2/6
f 677/2/6 672/2/6 678/2/6
f 678/2/6 672/2/6 679/2/6
f 669/2/6 609/2/6 680/2/6
f 677/2/6 678/2/6 681/2/6
f 676/2/6 677/2/6 681/2/6
f 681/2/6 678/2/6 682/2/6
f 682/2/6 678/2/6 683/2/6
f 680/2/6 681/2/6 684/2/6
f 681/2/6 682/2/6 684/2/6
f 684/2/6 682/2/6 685/2/6
f 673/2/6 663/2/6 687/2/6
f 666/2/6 674/2/6 688/2/6
f 680/2/6 684/2/6 691/2/6
f 669/2/6 680/2/6 691/2/6
f 691/2/6 684/2/6 692/2/6
f 686/2/6 687/2/6 693/2/6
f 688/2/6 689/2/6 694/2/6
f 692/2/6 693/2/6 697/2/6
f 691/2/6 692/2/6 697/2/6
f 690/2/6 691/2/6 697/2/6
f 694/2/6 695/2/6 698/2/6
f 696/2/6 697/2/6 699/2/6
f 697/2/6 693/2/6 700/2/6
f 699/2/6 697/2/6 700/2/6
f 687/2/6 663/2/6 701/2/6
f 700/2/6 693/2/6 701/2/6
f 693/2/6 687/2/6 701/2/6
f 694/2/6 698/2/6 702/2/6
f 688/2/6 694/2/6 702/2/6
f 698/2/6 699/2/6 702/2/6
f 666/2/6 688/2/6 702/2/6
f 699/2/6 700/2/6 702/2/6
f 702/2/6 700/2/6 703/2/6
f 666/2/6 702/2/6 704/2/6
f 704/2/6 702/2/6 705/2/6
f 710/1/6 711/1/6 712/1/6
f 712/1/6 711/1/6 713/1/6
f 708/1/6 709/1/6 716/1/6
f 716/1/6 709/1/6 717/1/6
f 710/1/6 712/1/6 718/1/6
f 718/1/6 712/1/6 719/1/6
f 717/1/6 709/1/6 720/1/6
f 720/1/6 709/1/6 721/1/6
f 721/1/6 709/1/6 722/1/6
f 722/1/6 709/1/6 723/1/6
f 714/1/6 715/1/6 725/1/6
f 724/1/6 725/1/6 726/1/6
f 725/1/6 715/1/6 726/1/6
f 726/1/6 715/1/6 727/1/6
f 724/1/6 726/1/6 729/1/6
f 728/1/6 729/1/6 731/1/6
f 730/1/6 731/1/6 732/1/6
f 729/1/6 726/1/6 733/1/6
f 732/1/6 731/1/6 733/1/6
f 731/1/6 729/1/6 733/1/6
f 734/1/6 735/1/6 737/1/6
f 730/1/6 732/1/6 738/1/6
f 723/1/6 709/1/6 740/1/6
f 738/1/6 739/1/6 741/1/6
f 730/1/6 738/1/6 741/1/6
f 741/1/6 739/1/6 742/1/6
f 736/1/6 737/1/6 743/1/6
f 741/1/6 742/1/6 744/1/6
f 742/1/6 743/1/6 744/1/6
f 740/1/6 741/1/6 744/1/6
f 743/1/6 737/1/6 745/1/6
f 744/1/6 743/1/6 745/1/6
f 740/1/6 744/1/6 746/1/6
f 746/1/6 744/1/6 747/1/6
f 706/1/6 707/1/6 748/1/6
f 748/1/6 707/1/6 749/1/6
f 723/1/6 740/1/6 750/1/6
f 740/1/6 746/1/6 750/1/6
f 750/1/6 746/1/6 751/1/6
f 723/1/6 750/1/6 752/1/6
f 752/1/6 750/1/6 753/1/6
f 723/1/6 752/1/6 754/1/6
f 754/1/6 752/1/6 755/1/6
f 745/1/6 737/1/6 757/1/6
f 756/1/6 757/1/6 759/1/6
f 758/1/6 759/1/6 760/1/6
f 737/1/6 735/1/6 761/1/6
f 760/1/6 759/1/6 761/1/6
f 757/1/6 737/1/6 761/1/6
f 759/1/6 757/1/6 761/1/6
