# MagicaVoxel @ Ephtracy

# group
g DirtTile3.2

# material
mtllib DirtTile3.2.mtl
usemtl palette

# normals
vn -1 0 0
vn 1 0 0
vn 0 0 1
vn 0 0 -1
vn 0 -1 0
vn 0 1 0

# texcoords
vt 0.537109 0.5
vt 0.541016 0.5
vt 0.544922 0.5

# verts
v -16 0 16
v -16 0 -16
v -16 3 16
v -16 3 -15
v -16 4 16
v -16 4 11
v -16 4 -3
v -16 4 -7
v -16 4 -15
v -16 4 -16
v -16 5 11
v -16 5 9
v -16 5 2
v -16 5 1
v -16 5 -2
v -16 5 -3
v -16 5 -7
v -16 5 -16
v -16 6 9
v -16 6 2
v -16 6 1
v -16 6 -2
v -15 5 -11
v -15 5 -16
v -15 6 -11
v -15 6 -16
v -14 4 -6
v -14 4 -7
v -14 5 -6
v -14 5 -7
v -13 4 -3
v -13 4 -6
v -13 5 -3
v -13 5 -6
v -13 5 -8
v -13 5 -10
v -13 6 -8
v -13 6 -10
v -12 4 -2
v -12 4 -3
v -12 5 -2
v -12 5 -3
v -11 4 1
v -11 4 -2
v -11 5 1
v -11 5 -2
v -11 5 -3
v -11 5 -8
v -11 6 -3
v -11 6 -8
v -10 5 2
v -10 5 -3
v -10 6 2
v -10 6 -3
v -8 5 -10
v -8 5 -15
v -8 6 -10
v -8 6 -15
v -6 4 12
v -6 4 11
v -6 5 12
v -6 5 11
v -5 4 16
v -5 4 12
v -5 5 16
v -5 5 12
v -4 5 -12
v -4 5 -15
v -4 6 -12
v -4 6 -15
v -3 5 10
v -3 5 9
v -3 6 10
v -3 6 9
v -2 5 16
v -2 5 10
v -2 5 -15
v -2 5 -16
v -2 6 16
v -2 6 10
v -2 6 -15
v -2 6 -16
v 1 5 -2
v 1 5 -12
v 1 6 -2
v 1 6 -12
v 7 5 5
v 7 5 2
v 7 6 5
v 7 6 2
v 13 5 -4
v 13 5 -5
v 13 6 -4
v 13 6 -5
v -15 5 -1
v -15 5 -2
v -15 6 -1
v -15 6 -2
v -14 4 1
v -14 4 -3
v -14 5 1
v -14 5 -1
v -14 5 -3
v -14 6 1
v -14 6 -1
v -11 5 -11
v -11 5 -16
v -11 6 -11
v -11 6 -16
v -6 5 -2
v -6 5 -15
v -6 6 -2
v -6 6 -15
v -1 5 5
v -1 5 2
v -1 6 5
v -1 6 2
v 3 5 2
v 3 5 -5
v 3 6 2
v 3 6 -5
v 13 5 4
v 13 5 2
v 13 6 4
v 13 6 2
v 14 5 5
v 14 5 4
v 14 6 5
v 14 6 4
v 16 0 16
v 16 0 -16
v 16 4 16
v 16 4 -4
v 16 5 16
v 16 5 5
v 16 5 -4
v 16 6 16
v 16 6 5
v 16 6 -4
v 16 6 -16
v -16 0 16
v -16 3 16
v -16 4 16
v -5 4 16
v -5 5 16
v -2 5 16
v -2 6 16
v 14 3 16
v 14 4 16
v 16 0 16
v 16 4 16
v 16 5 16
v 16 6 16
v -6 4 12
v -6 5 12
v -5 4 12
v -5 5 12
v -16 4 11
v -16 5 11
v -6 4 11
v -6 5 11
v -3 5 10
v -3 6 10
v -2 5 10
v -2 6 10
v -16 5 9
v -16 6 9
v -3 5 9
v -3 6 9
v -1 5 2
v -1 6 2
v 3 5 2
v 3 6 2
v -16 5 1
v -16 6 1
v -14 5 1
v -14 6 1
v -12 4 -2
v -12 5 -2
v -11 4 -2
v -11 5 -2
v -13 4 -3
v -13 5 -3
v -12 4 -3
v -12 5 -3
v -11 5 -3
v -11 6 -3
v -10 5 -3
v -10 6 -3
v 13 5 -4
v 13 6 -4
v 16 5 -4
v 16 6 -4
v 3 5 -5
v 3 6 -5
v 13 5 -5
v 13 6 -5
v -14 4 -6
v -14 5 -6
v -13 4 -6
v -13 5 -6
v -16 4 -7
v -16 5 -7
v -14 4 -7
v -14 5 -7
v -13 5 -8
v -13 6 -8
v -11 5 -8
v -11 6 -8
v -15 5 -11
v -15 6 -11
v -11 5 -11
v -11 6 -11
v -4 5 -12
v -4 6 -12
v 1 5 -12
v 1 6 -12
v -1 5 5
v -1 6 5
v 7 5 5
v 7 6 5
v 14 5 5
v 14 6 5
v 16 5 5
v 16 6 5
v 13 5 4
v 13 6 4
v 14 5 4
v 14 6 4
v -16 5 2
v -16 6 2
v -10 5 2
v -10 6 2
v 7 5 2
v 7 6 2
v 13 5 2
v 13 6 2
v -14 4 1
v -14 5 1
v -11 4 1
v -11 5 1
v -15 5 -1
v -15 6 -1
v -14 5 -1
v -14 6 -1
v -16 5 -2
v -16 6 -2
v -15 5 -2
v -15 6 -2
v -6 5 -2
v -6 6 -2
v 1 5 -2
v 1 6 -2
v -16 4 -3
v -16 5 -3
v -14 4 -3
v -14 5 -3
v -13 5 -10
v -13 6 -10
v -8 5 -10
v -8 6 -10
v -8 5 -15
v -8 6 -15
v -6 5 -15
v -6 6 -15
v -4 5 -15
v -4 6 -15
v -2 5 -15
v -2 6 -15
v -16 0 -16
v -16 4 -16
v -16 5 -16
v -15 5 -16
v -15 6 -16
v -11 5 -16
v -11 6 -16
v -2 5 -16
v -2 6 -16
v 13 4 -16
v 13 5 -16
v 16 0 -16
v 16 6 -16
v -16 0 16
v 16 0 16
v -16 0 -16
v 16 0 -16
v -16 4 16
v -5 4 16
v -6 4 12
v -5 4 12
v -16 4 11
v -6 4 11
v -14 4 1
v -11 4 1
v -12 4 -2
v -11 4 -2
v -16 4 -3
v -14 4 -3
v -13 4 -3
v -12 4 -3
v -14 4 -6
v -13 4 -6
v -16 4 -7
v -14 4 -7
v -5 5 16
v -2 5 16
v -6 5 12
v -5 5 12
v -16 5 11
v -6 5 11
v -3 5 10
v -2 5 10
v -16 5 9
v -3 5 9
v -1 5 5
v 7 5 5
v 14 5 5
v 16 5 5
v 13 5 4
v 14 5 4
v -16 5 2
v -10 5 2
v -1 5 2
v 3 5 2
v 7 5 2
v 13 5 2
v -16 5 1
v -14 5 1
v -11 5 1
v -15 5 -1
v -14 5 -1
v -16 5 -2
v -15 5 -2
v -12 5 -2
v -11 5 -2
v -6 5 -2
v 1 5 -2
v -16 5 -3
v -14 5 -3
v -13 5 -3
v -12 5 -3
v -11 5 -3
v -10 5 -3
v 13 5 -4
v 16 5 -4
v 3 5 -5
v 13 5 -5
v -14 5 -6
v -13 5 -6
v -16 5 -7
v -14 5 -7
v -13 5 -8
v -11 5 -8
v -13 5 -10
v -8 5 -10
v -15 5 -11
v -11 5 -11
v -4 5 -12
v 1 5 -12
v -8 5 -15
v -6 5 -15
v -4 5 -15
v -2 5 -15
v -16 5 -16
v -15 5 -16
v -11 5 -16
v -2 5 -16
v -2 6 16
v 16 6 16
v -3 6 10
v -2 6 10
v -16 6 9
v -3 6 9
v -1 6 5
v 7 6 5
v 14 6 5
v 16 6 5
v 13 6 4
v 14 6 4
v -16 6 2
v -10 6 2
v -1 6 2
v 3 6 2
v 7 6 2
v 13 6 2
v -16 6 1
v -14 6 1
v -15 6 -1
v -14 6 -1
v -16 6 -2
v -15 6 -2
v -6 6 -2
v 1 6 -2
v -11 6 -3
v -10 6 -3
v 13 6 -4
v 16 6 -4
v 3 6 -5
v 13 6 -5
v -13 6 -8
v -11 6 -8
v -13 6 -10
v -8 6 -10
v -15 6 -11
v -11 6 -11
v -4 6 -12
v 1 6 -12
v -8 6 -15
v -6 6 -15
v -4 6 -15
v -2 6 -15
v -15 6 -16
v -11 6 -16
v -2 6 -16
v 16 6 -16

# faces
f 3/1/1 2/1/1 1/1/1
f 4/1/1 2/1/1 3/1/1
f 5/3/1 4/3/1 3/3/1
f 6/3/1 4/3/1 5/3/1
f 7/3/1 4/3/1 6/3/1
f 8/3/1 4/3/1 7/3/1
f 9/1/1 2/1/1 4/1/1
f 9/3/1 4/3/1 8/3/1
f 10/1/1 2/1/1 9/1/1
f 11/2/1 7/2/1 6/2/1
f 12/2/1 7/2/1 11/2/1
f 13/2/1 7/2/1 12/2/1
f 14/2/1 7/2/1 13/2/1
f 15/2/1 7/2/1 14/2/1
f 16/2/1 7/2/1 15/2/1
f 17/2/1 10/2/1 9/2/1
f 17/2/1 9/2/1 8/2/1
f 18/2/1 10/2/1 17/2/1
f 19/1/1 13/1/1 12/1/1
f 20/1/1 13/1/1 19/1/1
f 21/1/1 15/1/1 14/1/1
f 22/1/1 15/1/1 21/1/1
f 25/1/1 24/1/1 23/1/1
f 26/1/1 24/1/1 25/1/1
f 29/2/1 28/2/1 27/2/1
f 30/2/1 28/2/1 29/2/1
f 33/2/1 32/2/1 31/2/1
f 34/2/1 32/2/1 33/2/1
f 37/1/1 36/1/1 35/1/1
f 38/1/1 36/1/1 37/1/1
f 41/2/1 40/2/1 39/2/1
f 42/2/1 40/2/1 41/2/1
f 45/2/1 44/2/1 43/2/1
f 46/2/1 44/2/1 45/2/1
f 49/1/1 48/1/1 47/1/1
f 50/1/1 48/1/1 49/1/1
f 53/1/1 52/1/1 51/1/1
f 54/1/1 52/1/1 53/1/1
f 57/1/1 56/1/1 55/1/1
f 58/1/1 56/1/1 57/1/1
f 61/2/1 60/2/1 59/2/1
f 62/2/1 60/2/1 61/2/1
f 65/2/1 64/2/1 63/2/1
f 66/2/1 64/2/1 65/2/1
f 69/1/1 68/1/1 67/1/1
f 70/1/1 68/1/1 69/1/1
f 73/1/1 72/1/1 71/1/1
f 74/1/1 72/1/1 73/1/1
f 79/1/1 76/1/1 75/1/1
f 80/1/1 76/1/1 79/1/1
f 81/1/1 78/1/1 77/1/1
f 82/1/1 78/1/1 81/1/1
f 85/1/1 84/1/1 83/1/1
f 86/1/1 84/1/1 85/1/1
f 89/1/1 88/1/1 87/1/1
f 90/1/1 88/1/1 89/1/1
f 93/1/1 92/1/1 91/1/1
f 94/1/1 92/1/1 93/1/1
f 95/1/2 96/1/2 97/1/2
f 97/1/2 96/1/2 98/1/2
f 99/2/2 100/2/2 101/2/2
f 101/2/2 100/2/2 102/2/2
f 102/2/2 100/2/2 103/2/2
f 101/1/2 102/1/2 104/1/2
f 104/1/2 102/1/2 105/1/2
f 106/1/2 107/1/2 108/1/2
f 108/1/2 107/1/2 109/1/2
f 110/1/2 111/1/2 112/1/2
f 112/1/2 111/1/2 113/1/2
f 114/1/2 115/1/2 116/1/2
f 116/1/2 115/1/2 117/1/2
f 118/1/2 119/1/2 120/1/2
f 120/1/2 119/1/2 121/1/2
f 122/1/2 123/1/2 124/1/2
f 124/1/2 123/1/2 125/1/2
f 126/1/2 127/1/2 128/1/2
f 128/1/2 127/1/2 129/1/2
f 130/1/2 131/1/2 132/1/2
f 132/1/2 131/1/2 133/1/2
f 132/2/2 133/2/2 134/2/2
f 134/2/2 133/2/2 135/2/2
f 133/1/2 131/1/2 136/1/2
f 135/2/2 133/2/2 136/2/2
f 134/1/2 135/1/2 137/1/2
f 137/1/2 135/1/2 138/1/2
f 136/1/2 131/1/2 139/1/2
f 139/1/2 131/1/2 140/1/2
f 144/3/3 143/3/3 142/3/3
f 146/2/3 145/2/3 144/2/3
f 148/1/3 142/1/3 141/1/3
f 148/3/3 144/3/3 142/3/3
f 149/2/3 146/2/3 144/2/3
f 149/3/3 144/3/3 148/3/3
f 150/1/3 148/1/3 141/1/3
f 150/1/3 149/1/3 148/1/3
f 151/2/3 146/2/3 149/2/3
f 151/1/3 149/1/3 150/1/3
f 152/1/3 147/1/3 146/1/3
f 152/2/3 146/2/3 151/2/3
f 153/1/3 147/1/3 152/1/3
f 156/2/3 155/2/3 154/2/3
f 157/2/3 155/2/3 156/2/3
f 160/2/3 159/2/3 158/2/3
f 161/2/3 159/2/3 160/2/3
f 164/1/3 163/1/3 162/1/3
f 165/1/3 163/1/3 164/1/3
f 168/1/3 167/1/3 166/1/3
f 169/1/3 167/1/3 168/1/3
f 172/1/3 171/1/3 170/1/3
f 173/1/3 171/1/3 172/1/3
f 176/1/3 175/1/3 174/1/3
f 177/1/3 175/1/3 176/1/3
f 180/2/3 179/2/3 178/2/3
f 181/2/3 179/2/3 180/2/3
f 184/2/3 183/2/3 182/2/3
f 185/2/3 183/2/3 184/2/3
f 188/1/3 187/1/3 186/1/3
f 189/1/3 187/1/3 188/1/3
f 192/1/3 191/1/3 190/1/3
f 193/1/3 191/1/3 192/1/3
f 196/1/3 195/1/3 194/1/3
f 197/1/3 195/1/3 196/1/3
f 200/2/3 199/2/3 198/2/3
f 201/2/3 199/2/3 200/2/3
f 204/2/3 203/2/3 202/2/3
f 205/2/3 203/2/3 204/2/3
f 208/1/3 207/1/3 206/1/3
f 209/1/3 207/1/3 208/1/3
f 212/1/3 211/1/3 210/1/3
f 213/1/3 211/1/3 212/1/3
f 216/1/3 215/1/3 214/1/3
f 217/1/3 215/1/3 216/1/3
f 218/1/4 219/1/4 220/1/4
f 220/1/4 219/1/4 221/1/4
f 222/1/4 223/1/4 224/1/4
f 224/1/4 223/1/4 225/1/4
f 226/1/4 227/1/4 228/1/4
f 228/1/4 227/1/4 229/1/4
f 230/1/4 231/1/4 232/1/4
f 232/1/4 231/1/4 233/1/4
f 234/1/4 235/1/4 236/1/4
f 236/1/4 235/1/4 237/1/4
f 238/2/4 239/2/4 240/2/4
f 240/2/4 239/2/4 241/2/4
f 242/1/4 243/1/4 244/1/4
f 244/1/4 243/1/4 245/1/4
f 246/1/4 247/1/4 248/1/4
f 248/1/4 247/1/4 249/1/4
f 250/1/4 251/1/4 252/1/4
f 252/1/4 251/1/4 253/1/4
f 254/2/4 255/2/4 256/2/4
f 256/2/4 255/2/4 257/2/4
f 258/1/4 259/1/4 260/1/4
f 260/1/4 259/1/4 261/1/4
f 262/1/4 263/1/4 264/1/4
f 264/1/4 263/1/4 265/1/4
f 266/1/4 267/1/4 268/1/4
f 268/1/4 267/1/4 269/1/4
f 271/2/4 272/2/4 273/2/4
f 271/2/4 273/2/4 275/2/4
f 273/1/4 274/1/4 275/1/4
f 275/1/4 274/1/4 276/1/4
f 271/2/4 275/2/4 277/2/4
f 270/1/4 271/1/4 279/1/4
f 271/2/4 277/2/4 279/2/4
f 277/1/4 278/1/4 280/1/4
f 279/2/4 277/2/4 280/2/4
f 270/1/4 279/1/4 281/1/4
f 279/1/4 280/1/4 281/1/4
f 280/1/4 278/1/4 282/1/4
f 281/1/4 280/1/4 282/1/4
f 285/1/5 284/1/5 283/1/5
f 286/1/5 284/1/5 285/1/5
f 287/3/6 288/3/6 289/3/6
f 289/3/6 288/3/6 290/3/6
f 287/3/6 289/3/6 291/3/6
f 291/3/6 289/3/6 292/3/6
f 293/3/6 294/3/6 295/3/6
f 295/3/6 294/3/6 296/3/6
f 293/3/6 295/3/6 298/3/6
f 298/3/6 295/3/6 299/3/6
f 299/3/6 295/3/6 300/3/6
f 297/3/6 298/3/6 301/3/6
f 298/3/6 299/3/6 301/3/6
f 301/3/6 299/3/6 302/3/6
f 297/3/6 301/3/6 303/3/6
f 303/3/6 301/3/6 304/3/6
f 305/2/6 306/2/6 308/2/6
f 307/2/6 308/2/6 310/2/6
f 308/2/6 306/2/6 311/2/6
f 309/2/6 310/2/6 311/2/6
f 310/2/6 308/2/6 311/2/6
f 311/2/6 306/2/6 312/2/6
f 309/2/6 311/2/6 313/2/6
f 313/2/6 311/2/6 314/2/6
f 317/2/6 318/2/6 320/2/6
f 315/2/6 316/2/6 323/2/6
f 323/2/6 316/2/6 324/2/6
f 324/2/6 316/2/6 325/2/6
f 319/2/6 320/2/6 326/2/6
f 321/2/6 322/2/6 327/2/6
f 327/2/6 322/2/6 328/2/6
f 328/2/6 322/2/6 329/2/6
f 330/2/6 331/2/6 333/2/6
f 329/2/6 322/2/6 335/2/6
f 332/2/6 333/2/6 338/2/6
f 333/2/6 331/2/6 339/2/6
f 338/2/6 333/2/6 339/2/6
f 334/2/6 335/2/6 341/2/6
f 335/2/6 322/2/6 342/2/6
f 341/2/6 335/2/6 342/2/6
f 342/2/6 322/2/6 343/2/6
f 325/2/6 326/2/6 344/2/6
f 324/2/6 325/2/6 344/2/6
f 326/2/6 320/2/6 344/2/6
f 320/2/6 318/2/6 345/2/6
f 344/2/6 320/2/6 345/2/6
f 324/2/6 344/2/6 346/2/6
f 346/2/6 344/2/6 347/2/6
f 341/2/6 342/2/6 349/2/6
f 340/2/6 341/2/6 349/2/6
f 348/2/6 349/2/6 351/2/6
f 349/2/6 342/2/6 352/2/6
f 350/2/6 351/2/6 352/2/6
f 351/2/6 349/2/6 352/2/6
f 352/2/6 342/2/6 353/2/6
f 350/2/6 352/2/6 354/2/6
f 350/2/6 354/2/6 356/2/6
f 354/2/6 355/2/6 356/2/6
f 356/2/6 355/2/6 357/2/6
f 336/2/6 337/2/6 358/2/6
f 358/2/6 337/2/6 359/2/6
f 357/2/6 355/2/6 360/2/6
f 336/2/6 358/2/6 361/2/6
f 361/2/6 358/2/6 362/2/6
f 350/2/6 356/2/6 364/2/6
f 364/2/6 356/2/6 365/2/6
f 362/2/6 363/2/6 366/2/6
f 357/2/6 360/2/6 366/2/6
f 360/2/6 361/2/6 366/2/6
f 361/2/6 362/2/6 366/2/6
f 366/2/6 363/2/6 367/2/6
f 368/1/6 369/1/6 371/1/6
f 370/1/6 371/1/6 373/1/6
f 371/1/6 369/1/6 374/1/6
f 372/1/6 373/1/6 374/1/6
f 373/1/6 371/1/6 374/1/6
f 374/1/6 369/1/6 375/1/6
f 375/1/6 369/1/6 376/1/6
f 376/1/6 369/1/6 377/1/6
f 375/1/6 376/1/6 378/1/6
f 378/1/6 376/1/6 379/1/6
f 372/1/6 374/1/6 380/1/6
f 380/1/6 374/1/6 381/1/6
f 381/1/6 374/1/6 382/1/6
f 375/1/6 378/1/6 384/1/6
f 384/1/6 378/1/6 385/1/6
f 386/1/6 387/1/6 388/1/6
f 388/1/6 387/1/6 389/1/6
f 386/1/6 388/1/6 390/1/6
f 390/1/6 388/1/6 391/1/6
f 382/1/6 383/1/6 392/1/6
f 381/1/6 382/1/6 392/1/6
f 392/1/6 383/1/6 393/1/6
f 381/1/6 392/1/6 395/1/6
f 393/1/6 383/1/6 398/1/6
f 396/1/6 397/1/6 399/1/6
f 394/1/6 395/1/6 401/1/6
f 400/1/6 401/1/6 402/1/6
f 395/1/6 392/1/6 403/1/6
f 402/1/6 401/1/6 403/1/6
f 401/1/6 395/1/6 403/1/6
f 398/1/6 399/1/6 407/1/6
f 393/1/6 398/1/6 407/1/6
f 403/1/6 392/1/6 408/1/6
f 408/1/6 392/1/6 409/1/6
f 406/1/6 407/1/6 410/1/6
f 410/1/6 407/1/6 411/1/6
f 404/1/6 405/1/6 412/1/6
f 412/1/6 405/1/6 413/1/6
f 411/1/6 407/1/6 414/1/6
f 399/1/6 397/1/6 415/1/6
f 414/1/6 407/1/6 415/1/6
f 407/1/6 399/1/6 415/1/6
