# MagicaVoxel @ Ephtracy

# group
g DirtTile1.3

# material
mtllib DirtTile1.3.mtl
usemtl palette

# normals
vn -1 0 0
vn 1 0 0
vn 0 0 1
vn 0 0 -1
vn 0 -1 0
vn 0 1 0

# texcoords
vt 0.537109 0.5
vt 0.541016 0.5
vt 0.544922 0.5
vt 0.548828 0.5

# verts
v -16 0 16
v -16 0 -16
v -16 6 16
v -16 6 -16
v -5 4 10
v -5 4 -9
v -5 5 10
v -5 5 -9
v -2 4 -15
v -2 4 -16
v -2 5 -15
v -2 5 -16
v 10 4 3
v 10 4 1
v 10 5 3
v 10 5 1
v 11 4 4
v 11 4 3
v 11 4 1
v 11 4 -0
v 11 5 4
v 11 5 3
v 11 5 1
v 11 5 -0
v -14 5 13
v -14 5 -11
v -14 6 13
v -14 6 -11
v -13 4 12
v -13 4 10
v -13 5 12
v -13 5 10
v -12 4 10
v -12 4 -9
v -12 5 10
v -12 5 -9
v -9 5 -14
v -9 5 -16
v -9 6 -14
v -9 6 -16
v -8 4 -15
v -8 4 -16
v -8 5 -15
v -8 5 -16
v -4 5 14
v -4 5 13
v -4 5 -11
v -4 5 -13
v -4 6 14
v -4 6 13
v -4 6 -11
v -4 6 -13
v -2 5 -13
v -2 5 -14
v -2 6 -13
v -2 6 -14
v 0 4 -10
v 0 4 -14
v 0 5 -10
v 0 5 -14
v 1 4 -14
v 1 4 -16
v 1 5 -14
v 1 5 -16
v 5 5 16
v 5 5 14
v 5 6 16
v 5 6 14
v 7 4 6
v 7 4 -10
v 7 5 6
v 7 5 -10
v 16 0 16
v 16 0 -16
v 16 2 -2
v 16 2 -16
v 16 3 15
v 16 3 13
v 16 3 12
v 16 3 -2
v 16 3 -16
v 16 4 16
v 16 4 15
v 16 4 13
v 16 4 12
v 16 4 10
v 16 4 6
v 16 4 4
v 16 4 -0
v 16 4 -16
v 16 5 16
v 16 5 12
v 16 5 10
v 16 5 6
v 16 5 4
v 16 5 -0
v -16 0 16
v -16 6 16
v 5 4 16
v 5 5 16
v 5 6 16
v 16 0 16
v 16 4 16
v 16 5 16
v -13 4 10
v -13 5 10
v -12 4 10
v -12 5 10
v -5 4 10
v -5 5 10
v 16 4 10
v 16 5 10
v 11 4 4
v 11 5 4
v 16 4 4
v 16 5 4
v 10 4 3
v 10 5 3
v 11 4 3
v 11 5 3
v -12 4 -9
v -12 5 -9
v -5 4 -9
v -5 5 -9
v -14 5 -11
v -14 6 -11
v -4 5 -11
v -4 6 -11
v -4 5 -13
v -4 6 -13
v -2 5 -13
v -2 6 -13
v 0 4 -14
v 0 5 -14
v 1 4 -14
v 1 5 -14
v -4 5 14
v -4 6 14
v 5 5 14
v 5 6 14
v -14 5 13
v -14 6 13
v -4 5 13
v -4 6 13
v -13 4 12
v -13 5 12
v 16 4 12
v 16 5 12
v 7 4 6
v 7 5 6
v 16 4 6
v 16 5 6
v 10 4 1
v 10 5 1
v 11 4 1
v 11 5 1
v 11 4 -0
v 11 5 -0
v 16 4 -0
v 16 5 -0
v 0 4 -10
v 0 5 -10
v 7 4 -10
v 7 5 -10
v -9 5 -14
v -9 6 -14
v -2 5 -14
v -2 6 -14
v -8 4 -15
v -8 5 -15
v -2 4 -15
v -2 5 -15
v -16 0 -16
v -16 6 -16
v -13 3 -16
v -13 4 -16
v -9 4 -16
v -9 5 -16
v -9 6 -16
v -8 4 -16
v -8 5 -16
v -2 4 -16
v -2 5 -16
v 1 4 -16
v 1 5 -16
v 4 2 -16
v 4 3 -16
v 16 0 -16
v 16 2 -16
v 16 3 -16
v 16 4 -16
v -16 0 16
v 16 0 16
v -16 0 -16
v 16 0 -16
v -13 4 12
v 16 4 12
v -13 4 10
v -12 4 10
v -5 4 10
v 16 4 10
v 7 4 6
v 16 4 6
v 11 4 4
v 16 4 4
v 10 4 3
v 11 4 3
v 10 4 1
v 11 4 1
v 11 4 -0
v 16 4 -0
v -12 4 -9
v -5 4 -9
v 0 4 -10
v 7 4 -10
v 0 4 -14
v 1 4 -14
v -8 4 -15
v -2 4 -15
v -8 4 -16
v -2 4 -16
v 1 4 -16
v 16 4 -16
v 5 5 16
v 16 5 16
v -4 5 14
v 5 5 14
v -14 5 13
v -4 5 13
v -13 5 12
v 16 5 12
v -13 5 10
v -12 5 10
v -5 5 10
v 16 5 10
v 7 5 6
v 16 5 6
v 11 5 4
v 16 5 4
v 10 5 3
v 11 5 3
v 10 5 1
v 11 5 1
v 11 5 -0
v 16 5 -0
v -12 5 -9
v -5 5 -9
v 0 5 -10
v 7 5 -10
v -14 5 -11
v -4 5 -11
v -4 5 -13
v -2 5 -13
v -9 5 -14
v -2 5 -14
v 0 5 -14
v 1 5 -14
v -8 5 -15
v -2 5 -15
v -9 5 -16
v -8 5 -16
v -2 5 -16
v 1 5 -16
v -16 6 16
v 5 6 16
v -4 6 14
v 5 6 14
v -14 6 13
v -4 6 13
v -14 6 -11
v -4 6 -11
v -4 6 -13
v -2 6 -13
v -9 6 -14
v -2 6 -14
v -16 6 -16
v -9 6 -16

# faces
f 3/1/1 2/1/1 1/1/1
f 4/1/1 2/1/1 3/1/1
f 7/2/1 6/2/1 5/2/1
f 8/2/1 6/2/1 7/2/1
f 11/2/1 10/2/1 9/2/1
f 12/2/1 10/2/1 11/2/1
f 15/2/1 14/2/1 13/2/1
f 16/2/1 14/2/1 15/2/1
f 21/2/1 18/2/1 17/2/1
f 22/2/1 18/2/1 21/2/1
f 23/2/1 20/2/1 19/2/1
f 24/2/1 20/2/1 23/2/1
f 25/1/2 26/1/2 27/1/2
f 27/1/2 26/1/2 28/1/2
f 29/2/2 30/2/2 31/2/2
f 31/2/2 30/2/2 32/2/2
f 33/2/2 34/2/2 35/2/2
f 35/2/2 34/2/2 36/2/2
f 37/1/2 38/1/2 39/1/2
f 39/1/2 38/1/2 40/1/2
f 41/2/2 42/2/2 43/2/2
f 43/2/2 42/2/2 44/2/2
f 45/1/2 46/1/2 49/1/2
f 49/1/2 46/1/2 50/1/2
f 47/1/2 48/1/2 51/1/2
f 51/1/2 48/1/2 52/1/2
f 53/1/2 54/1/2 55/1/2
f 55/1/2 54/1/2 56/1/2
f 57/2/2 58/2/2 59/2/2
f 59/2/2 58/2/2 60/2/2
f 61/2/2 62/2/2 63/2/2
f 63/2/2 62/2/2 64/2/2
f 65/1/2 66/1/2 67/1/2
f 67/1/2 66/1/2 68/1/2
f 69/2/2 70/2/2 71/2/2
f 71/2/2 70/2/2 72/2/2
f 73/1/2 74/1/2 75/1/2
f 75/1/2 74/1/2 76/1/2
f 73/1/2 75/1/2 77/1/2
f 77/1/2 75/1/2 78/1/2
f 78/1/2 75/1/2 79/1/2
f 75/4/2 76/4/2 80/4/2
f 79/1/2 75/1/2 80/1/2
f 80/4/2 76/4/2 81/4/2
f 73/1/2 77/1/2 82/1/2
f 77/4/2 78/4/2 83/4/2
f 82/1/2 77/1/2 83/1/2
f 78/1/2 79/1/2 84/1/2
f 83/4/2 78/4/2 84/4/2
f 79/3/2 80/3/2 85/3/2
f 84/1/2 79/1/2 85/1/2
f 80/3/2 81/3/2 85/3/2
f 85/3/2 81/3/2 86/3/2
f 86/3/2 81/3/2 87/3/2
f 87/3/2 81/3/2 88/3/2
f 88/3/2 81/3/2 89/3/2
f 89/3/2 81/3/2 90/3/2
f 82/2/2 83/2/2 91/2/2
f 83/2/2 84/2/2 91/2/2
f 84/2/2 85/2/2 91/2/2
f 91/2/2 85/2/2 92/2/2
f 86/2/2 87/2/2 93/2/2
f 93/2/2 87/2/2 94/2/2
f 88/2/2 89/2/2 95/2/2
f 95/2/2 89/2/2 96/2/2
f 99/1/3 98/1/3 97/1/3
f 100/1/3 98/1/3 99/1/3
f 101/1/3 98/1/3 100/1/3
f 102/1/3 99/1/3 97/1/3
f 103/2/3 100/2/3 99/2/3
f 103/1/3 99/1/3 102/1/3
f 104/2/3 100/2/3 103/2/3
f 107/2/3 106/2/3 105/2/3
f 108/2/3 106/2/3 107/2/3
f 111/2/3 110/2/3 109/2/3
f 112/2/3 110/2/3 111/2/3
f 115/2/3 114/2/3 113/2/3
f 116/2/3 114/2/3 115/2/3
f 119/2/3 118/2/3 117/2/3
f 120/2/3 118/2/3 119/2/3
f 123/2/3 122/2/3 121/2/3
f 124/2/3 122/2/3 123/2/3
f 127/1/3 126/1/3 125/1/3
f 128/1/3 126/1/3 127/1/3
f 131/1/3 130/1/3 129/1/3
f 132/1/3 130/1/3 131/1/3
f 135/2/3 134/2/3 133/2/3
f 136/2/3 134/2/3 135/2/3
f 137/1/4 138/1/4 139/1/4
f 139/1/4 138/1/4 140/1/4
f 141/1/4 142/1/4 143/1/4
f 143/1/4 142/1/4 144/1/4
f 145/2/4 146/2/4 147/2/4
f 147/2/4 146/2/4 148/2/4
f 149/2/4 150/2/4 151/2/4
f 151/2/4 150/2/4 152/2/4
f 153/2/4 154/2/4 155/2/4
f 155/2/4 154/2/4 156/2/4
f 157/2/4 158/2/4 159/2/4
f 159/2/4 158/2/4 160/2/4
f 161/2/4 162/2/4 163/2/4
f 163/2/4 162/2/4 164/2/4
f 165/1/4 166/1/4 167/1/4
f 167/1/4 166/1/4 168/1/4
f 169/2/4 170/2/4 171/2/4
f 171/2/4 170/2/4 172/2/4
f 173/1/4 174/1/4 175/1/4
f 175/1/4 174/1/4 176/1/4
f 175/3/4 176/3/4 177/3/4
f 176/1/4 174/1/4 177/1/4
f 177/1/4 174/1/4 178/1/4
f 178/1/4 174/1/4 179/1/4
f 175/3/4 177/3/4 180/3/4
f 177/2/4 178/2/4 180/2/4
f 180/2/4 178/2/4 181/2/4
f 175/3/4 180/3/4 182/3/4
f 175/3/4 182/3/4 184/3/4
f 182/2/4 183/2/4 184/2/4
f 184/2/4 183/2/4 185/2/4
f 173/1/4 175/1/4 186/1/4
f 175/3/4 184/3/4 187/3/4
f 186/1/4 175/1/4 187/1/4
f 173/1/4 186/1/4 188/1/4
f 186/4/4 187/4/4 189/4/4
f 188/1/4 186/1/4 189/1/4
f 187/3/4 184/3/4 190/3/4
f 189/4/4 187/4/4 190/4/4
f 190/3/4 184/3/4 191/3/4
f 194/1/5 193/1/5 192/1/5
f 195/1/5 193/1/5 194/1/5
f 196/3/6 197/3/6 198/3/6
f 198/3/6 197/3/6 199/3/6
f 199/3/6 197/3/6 200/3/6
f 200/3/6 197/3/6 201/3/6
f 202/3/6 203/3/6 204/3/6
f 204/3/6 203/3/6 205/3/6
f 202/3/6 204/3/6 206/3/6
f 206/3/6 204/3/6 207/3/6
f 202/3/6 206/3/6 208/3/6
f 208/3/6 209/3/6 210/3/6
f 199/3/6 200/3/6 212/3/6
f 212/3/6 200/3/6 213/3/6
f 210/3/6 211/3/6 215/3/6
f 208/3/6 210/3/6 215/3/6
f 202/3/6 208/3/6 215/3/6
f 214/3/6 215/3/6 216/3/6
f 216/3/6 215/3/6 217/3/6
f 218/3/6 219/3/6 220/3/6
f 220/3/6 219/3/6 221/3/6
f 217/3/6 215/3/6 222/3/6
f 215/3/6 211/3/6 223/3/6
f 222/3/6 215/3/6 223/3/6
f 224/2/6 225/2/6 227/2/6
f 226/2/6 227/2/6 229/2/6
f 228/2/6 229/2/6 230/2/6
f 227/2/6 225/2/6 231/2/6
f 230/2/6 229/2/6 231/2/6
f 229/2/6 227/2/6 231/2/6
f 228/2/6 230/2/6 232/2/6
f 234/2/6 235/2/6 236/2/6
f 236/2/6 235/2/6 237/2/6
f 238/2/6 239/2/6 241/2/6
f 240/2/6 241/2/6 242/2/6
f 241/2/6 239/2/6 243/2/6
f 242/2/6 241/2/6 243/2/6
f 243/2/6 239/2/6 244/2/6
f 244/2/6 239/2/6 245/2/6
f 232/2/6 233/2/6 246/2/6
f 234/2/6 236/2/6 247/2/6
f 247/2/6 236/2/6 248/2/6
f 246/2/6 247/2/6 248/2/6
f 248/2/6 236/2/6 249/2/6
f 228/2/6 232/2/6 250/2/6
f 232/2/6 246/2/6 250/2/6
f 246/2/6 248/2/6 250/2/6
f 250/2/6 248/2/6 251/2/6
f 251/2/6 248/2/6 252/2/6
f 252/2/6 248/2/6 253/2/6
f 253/2/6 248/2/6 255/2/6
f 255/2/6 248/2/6 256/2/6
f 254/2/6 255/2/6 258/2/6
f 256/2/6 257/2/6 258/2/6
f 255/2/6 256/2/6 258/2/6
f 258/2/6 257/2/6 259/2/6
f 254/2/6 258/2/6 260/2/6
f 260/2/6 258/2/6 261/2/6
f 259/2/6 257/2/6 262/2/6
f 262/2/6 257/2/6 263/2/6
f 264/1/6 265/1/6 266/1/6
f 266/1/6 265/1/6 267/1/6
f 264/1/6 266/1/6 268/1/6
f 268/1/6 266/1/6 269/1/6
f 264/1/6 268/1/6 270/1/6
f 270/1/6 271/1/6 272/1/6
f 270/1/6 272/1/6 274/1/6
f 272/1/6 273/1/6 274/1/6
f 274/1/6 273/1/6 275/1/6
f 264/1/6 270/1/6 276/1/6
f 270/1/6 274/1/6 276/1/6
f 276/1/6 274/1/6 277/1/6
