# MagicaVoxel @ Ephtracy

# group
g DirtTile3.3

# material
mtllib DirtTile3.3.mtl
usemtl palette

# normals
vn -1 0 0
vn 1 0 0
vn 0 0 1
vn 0 0 -1
vn 0 -1 0
vn 0 1 0

# texcoords
vt 0.537109 0.5
vt 0.541016 0.5
vt 0.544922 0.5

# verts
v -16 0 16
v -16 0 -16
v -16 6 16
v -16 6 -16
v -3 4 -7
v -3 4 -16
v -3 5 -7
v -3 5 -16
v -2 5 -8
v -2 5 -16
v -2 6 -8
v -2 6 -16
v 3 4 5
v 3 4 -7
v 3 5 5
v 3 5 -7
v 4 5 6
v 4 5 -8
v 4 6 6
v 4 6 -8
v 5 5 16
v 5 5 10
v 5 6 16
v 5 6 10
v 15 4 5
v 15 4 2
v 15 5 5
v 15 5 2
v -11 5 -8
v -11 5 -16
v -11 6 -8
v -11 6 -16
v -9 4 -9
v -9 4 -16
v -9 5 -9
v -9 5 -16
v -7 5 6
v -7 5 -8
v -7 6 6
v -7 6 -8
v -6 4 5
v -6 4 -9
v -6 5 5
v -6 5 -9
v -5 5 12
v -5 5 10
v -5 6 12
v -5 6 10
v -3 5 16
v -3 5 12
v -3 6 16
v -3 6 12
v 8 5 13
v 8 5 1
v 8 6 13
v 8 6 1
v 11 4 12
v 11 4 2
v 11 5 12
v 11 5 2
v 11 5 -12
v 11 5 -16
v 11 6 -12
v 11 6 -16
v 12 5 -11
v 12 5 -12
v 12 6 -11
v 12 6 -12
v 14 4 -14
v 14 4 -16
v 14 5 -14
v 14 5 -16
v 15 4 14
v 15 4 13
v 15 4 12
v 15 4 -13
v 15 4 -14
v 15 5 14
v 15 5 13
v 15 5 12
v 15 5 -13
v 15 5 -14
v 15 6 14
v 15 6 13
v 16 0 16
v 16 0 -16
v 16 3 14
v 16 3 -16
v 16 4 16
v 16 4 14
v 16 4 5
v 16 4 -13
v 16 4 -16
v 16 5 16
v 16 5 14
v 16 5 5
v 16 5 1
v 16 5 -11
v 16 5 -13
v 16 6 16
v 16 6 14
v 16 6 1
v 16 6 -11
v -16 0 16
v -16 6 16
v -3 4 16
v -3 5 16
v -3 6 16
v 5 4 16
v 5 5 16
v 5 6 16
v 16 0 16
v 16 4 16
v 16 5 16
v 16 6 16
v -5 5 10
v -5 6 10
v 5 5 10
v 5 6 10
v 15 4 5
v 15 5 5
v 16 4 5
v 16 5 5
v 11 4 2
v 11 5 2
v 15 4 2
v 15 5 2
v 8 5 1
v 8 6 1
v 16 5 1
v 16 6 1
v -3 4 -7
v -3 5 -7
v 3 4 -7
v 3 5 -7
v -2 5 -8
v -2 6 -8
v 4 5 -8
v 4 6 -8
v 15 4 14
v 15 5 14
v 15 6 14
v 16 4 14
v 16 5 14
v 16 6 14
v 8 5 13
v 8 6 13
v 15 5 13
v 15 6 13
v -5 5 12
v -5 6 12
v -3 5 12
v -3 6 12
v 11 4 12
v 11 5 12
v 15 4 12
v 15 5 12
v -7 5 6
v -7 6 6
v 4 5 6
v 4 6 6
v -6 4 5
v -6 5 5
v 3 4 5
v 3 5 5
v -11 5 -8
v -11 6 -8
v -7 5 -8
v -7 6 -8
v -9 4 -9
v -9 5 -9
v -6 4 -9
v -6 5 -9
v 12 5 -11
v 12 6 -11
v 16 5 -11
v 16 6 -11
v 11 5 -12
v 11 6 -12
v 12 5 -12
v 12 6 -12
v 15 4 -13
v 15 5 -13
v 16 4 -13
v 16 5 -13
v 14 4 -14
v 14 5 -14
v 15 4 -14
v 15 5 -14
v -16 0 -16
v -16 6 -16
v -12 3 -16
v -12 4 -16
v -11 4 -16
v -11 5 -16
v -11 6 -16
v -9 4 -16
v -9 5 -16
v -3 4 -16
v -3 5 -16
v -2 5 -16
v -2 6 -16
v 11 5 -16
v 11 6 -16
v 14 4 -16
v 14 5 -16
v 16 0 -16
v 16 3 -16
v 16 4 -16
v -16 0 16
v 16 0 16
v -16 0 -16
v 16 0 -16
v 15 4 14
v 16 4 14
v 15 4 13
v 11 4 12
v 15 4 12
v -6 4 5
v 3 4 5
v 15 4 5
v 16 4 5
v 11 4 2
v 15 4 2
v -3 4 -7
v 3 4 -7
v -9 4 -9
v -6 4 -9
v 15 4 -13
v 16 4 -13
v 14 4 -14
v 15 4 -14
v -9 4 -16
v -3 4 -16
v 14 4 -16
v 16 4 -16
v -3 5 16
v 5 5 16
v 8 5 13
v 15 5 13
v -5 5 12
v -3 5 12
v 11 5 12
v 15 5 12
v -5 5 10
v 5 5 10
v -7 5 6
v 4 5 6
v -6 5 5
v 3 5 5
v 15 5 5
v 16 5 5
v 11 5 2
v 15 5 2
v 8 5 1
v 16 5 1
v -3 5 -7
v 3 5 -7
v -11 5 -8
v -7 5 -8
v -2 5 -8
v 4 5 -8
v -9 5 -9
v -6 5 -9
v 12 5 -11
v 16 5 -11
v 11 5 -12
v 12 5 -12
v 15 5 -13
v 16 5 -13
v 14 5 -14
v 15 5 -14
v -11 5 -16
v -9 5 -16
v -3 5 -16
v -2 5 -16
v 11 5 -16
v 14 5 -16
v -16 6 16
v -3 6 16
v 5 6 16
v 16 6 16
v 15 6 14
v 16 6 14
v 8 6 13
v 15 6 13
v -5 6 12
v -3 6 12
v -5 6 10
v 5 6 10
v -7 6 6
v 4 6 6
v 8 6 1
v 16 6 1
v -11 6 -8
v -7 6 -8
v -2 6 -8
v 4 6 -8
v 12 6 -11
v 16 6 -11
v 11 6 -12
v 12 6 -12
v -16 6 -16
v -11 6 -16
v -2 6 -16
v 11 6 -16

# faces
f 3/1/1 2/1/1 1/1/1
f 4/1/1 2/1/1 3/1/1
f 7/2/1 6/2/1 5/2/1
f 8/2/1 6/2/1 7/2/1
f 11/1/1 10/1/1 9/1/1
f 12/1/1 10/1/1 11/1/1
f 15/2/1 14/2/1 13/2/1
f 16/2/1 14/2/1 15/2/1
f 19/1/1 18/1/1 17/1/1
f 20/1/1 18/1/1 19/1/1
f 23/1/1 22/1/1 21/1/1
f 24/1/1 22/1/1 23/1/1
f 27/2/1 26/2/1 25/2/1
f 28/2/1 26/2/1 27/2/1
f 29/1/2 30/1/2 31/1/2
f 31/1/2 30/1/2 32/1/2
f 33/2/2 34/2/2 35/2/2
f 35/2/2 34/2/2 36/2/2
f 37/1/2 38/1/2 39/1/2
f 39/1/2 38/1/2 40/1/2
f 41/2/2 42/2/2 43/2/2
f 43/2/2 42/2/2 44/2/2
f 45/1/2 46/1/2 47/1/2
f 47/1/2 46/1/2 48/1/2
f 49/1/2 50/1/2 51/1/2
f 51/1/2 50/1/2 52/1/2
f 53/1/2 54/1/2 55/1/2
f 55/1/2 54/1/2 56/1/2
f 57/2/2 58/2/2 59/2/2
f 59/2/2 58/2/2 60/2/2
f 61/1/2 62/1/2 63/1/2
f 63/1/2 62/1/2 64/1/2
f 65/1/2 66/1/2 67/1/2
f 67/1/2 66/1/2 68/1/2
f 69/2/2 70/2/2 71/2/2
f 71/2/2 70/2/2 72/2/2
f 73/3/2 74/3/2 78/3/2
f 74/2/2 75/2/2 79/2/2
f 78/3/2 74/3/2 79/3/2
f 79/2/2 75/2/2 80/2/2
f 76/2/2 77/2/2 81/2/2
f 81/2/2 77/2/2 82/2/2
f 78/1/2 79/1/2 83/1/2
f 83/1/2 79/1/2 84/1/2
f 85/1/2 86/1/2 87/1/2
f 87/1/2 86/1/2 88/1/2
f 85/1/2 87/1/2 89/1/2
f 87/3/2 88/3/2 90/3/2
f 89/1/2 87/1/2 90/1/2
f 90/3/2 88/3/2 91/3/2
f 91/3/2 88/3/2 92/3/2
f 92/3/2 88/3/2 93/3/2
f 89/3/2 90/3/2 94/3/2
f 94/3/2 90/3/2 95/3/2
f 91/2/2 92/2/2 96/2/2
f 96/2/2 92/2/2 97/2/2
f 97/2/2 92/2/2 98/2/2
f 98/2/2 92/2/2 99/2/2
f 94/1/2 95/1/2 100/1/2
f 100/1/2 95/1/2 101/1/2
f 97/1/2 98/1/2 102/1/2
f 102/1/2 98/1/2 103/1/2
f 106/1/3 105/1/3 104/1/3
f 107/1/3 105/1/3 106/1/3
f 108/1/3 105/1/3 107/1/3
f 109/1/3 106/1/3 104/1/3
f 109/2/3 107/2/3 106/2/3
f 110/2/3 107/2/3 109/2/3
f 112/1/3 109/1/3 104/1/3
f 113/3/3 110/3/3 109/3/3
f 113/1/3 109/1/3 112/1/3
f 114/1/3 111/1/3 110/1/3
f 114/3/3 110/3/3 113/3/3
f 115/1/3 111/1/3 114/1/3
f 118/1/3 117/1/3 116/1/3
f 119/1/3 117/1/3 118/1/3
f 122/2/3 121/2/3 120/2/3
f 123/2/3 121/2/3 122/2/3
f 126/2/3 125/2/3 124/2/3
f 127/2/3 125/2/3 126/2/3
f 130/1/3 129/1/3 128/1/3
f 131/1/3 129/1/3 130/1/3
f 134/2/3 133/2/3 132/2/3
f 135/2/3 133/2/3 134/2/3
f 138/1/3 137/1/3 136/1/3
f 139/1/3 137/1/3 138/1/3
f 140/3/4 141/3/4 143/3/4
f 141/1/4 142/1/4 144/1/4
f 143/3/4 141/3/4 144/3/4
f 144/1/4 142/1/4 145/1/4
f 146/1/4 147/1/4 148/1/4
f 148/1/4 147/1/4 149/1/4
f 150/1/4 151/1/4 152/1/4
f 152/1/4 151/1/4 153/1/4
f 154/2/4 155/2/4 156/2/4
f 156/2/4 155/2/4 157/2/4
f 158/1/4 159/1/4 160/1/4
f 160/1/4 159/1/4 161/1/4
f 162/2/4 163/2/4 164/2/4
f 164/2/4 163/2/4 165/2/4
f 166/1/4 167/1/4 168/1/4
f 168/1/4 167/1/4 169/1/4
f 170/2/4 171/2/4 172/2/4
f 172/2/4 171/2/4 173/2/4
f 174/1/4 175/1/4 176/1/4
f 176/1/4 175/1/4 177/1/4
f 178/1/4 179/1/4 180/1/4
f 180/1/4 179/1/4 181/1/4
f 182/2/4 183/2/4 184/2/4
f 184/2/4 183/2/4 185/2/4
f 186/2/4 187/2/4 188/2/4
f 188/2/4 187/2/4 189/2/4
f 190/1/4 191/1/4 192/1/4
f 192/1/4 191/1/4 193/1/4
f 192/3/4 193/3/4 194/3/4
f 193/1/4 191/1/4 194/1/4
f 194/1/4 191/1/4 195/1/4
f 195/1/4 191/1/4 196/1/4
f 192/3/4 194/3/4 197/3/4
f 194/2/4 195/2/4 197/2/4
f 197/2/4 195/2/4 198/2/4
f 192/3/4 197/3/4 199/3/4
f 199/2/4 200/2/4 201/2/4
f 199/2/4 201/2/4 203/2/4
f 201/1/4 202/1/4 203/1/4
f 203/1/4 202/1/4 204/1/4
f 192/3/4 199/3/4 205/3/4
f 199/2/4 203/2/4 205/2/4
f 205/2/4 203/2/4 206/2/4
f 190/1/4 192/1/4 207/1/4
f 192/3/4 205/3/4 208/3/4
f 207/1/4 192/1/4 208/1/4
f 208/3/4 205/3/4 209/3/4
f 212/1/5 211/1/5 210/1/5
f 213/1/5 211/1/5 212/1/5
f 214/3/6 215/3/6 216/3/6
f 216/3/6 215/3/6 218/3/6
f 218/3/6 215/3/6 221/3/6
f 217/3/6 218/3/6 221/3/6
f 221/3/6 215/3/6 222/3/6
f 217/3/6 221/3/6 223/3/6
f 223/3/6 221/3/6 224/3/6
f 219/3/6 220/3/6 225/3/6
f 225/3/6 220/3/6 226/3/6
f 219/3/6 225/3/6 228/3/6
f 229/3/6 230/3/6 232/3/6
f 227/3/6 228/3/6 233/3/6
f 228/3/6 225/3/6 234/3/6
f 233/3/6 228/3/6 234/3/6
f 231/3/6 232/3/6 235/3/6
f 232/3/6 230/3/6 236/3/6
f 235/3/6 232/3/6 236/3/6
f 237/2/6 238/2/6 242/2/6
f 239/2/6 240/2/6 243/2/6
f 243/2/6 240/2/6 244/2/6
f 241/2/6 242/2/6 245/2/6
f 242/2/6 238/2/6 246/2/6
f 245/2/6 242/2/6 246/2/6
f 247/2/6 248/2/6 249/2/6
f 249/2/6 248/2/6 250/2/6
f 239/2/6 243/2/6 253/2/6
f 251/2/6 252/2/6 254/2/6
f 239/2/6 253/2/6 255/2/6
f 253/2/6 254/2/6 255/2/6
f 254/2/6 252/2/6 256/2/6
f 255/2/6 254/2/6 256/2/6
f 250/2/6 248/2/6 258/2/6
f 247/2/6 249/2/6 260/2/6
f 257/2/6 258/2/6 261/2/6
f 258/2/6 248/2/6 262/2/6
f 261/2/6 258/2/6 262/2/6
f 259/2/6 260/2/6 263/2/6
f 260/2/6 249/2/6 264/2/6
f 263/2/6 260/2/6 264/2/6
f 265/2/6 266/2/6 268/2/6
f 268/2/6 266/2/6 269/2/6
f 267/2/6 268/2/6 269/2/6
f 269/2/6 266/2/6 270/2/6
f 267/2/6 269/2/6 271/2/6
f 271/2/6 269/2/6 272/2/6
f 259/2/6 263/2/6 273/2/6
f 273/2/6 263/2/6 274/2/6
f 257/2/6 261/2/6 275/2/6
f 275/2/6 261/2/6 276/2/6
f 267/2/6 271/2/6 277/2/6
f 277/2/6 271/2/6 278/2/6
f 281/1/6 282/1/6 283/1/6
f 283/1/6 282/1/6 284/1/6
f 281/1/6 283/1/6 285/1/6
f 285/1/6 283/1/6 286/1/6
f 279/1/6 280/1/6 287/1/6
f 287/1/6 280/1/6 288/1/6
f 279/1/6 287/1/6 289/1/6
f 281/1/6 285/1/6 290/1/6
f 279/1/6 289/1/6 291/1/6
f 289/1/6 290/1/6 291/1/6
f 291/1/6 290/1/6 292/1/6
f 290/1/6 285/1/6 293/1/6
f 292/1/6 290/1/6 293/1/6
f 279/1/6 291/1/6 295/1/6
f 295/1/6 291/1/6 296/1/6
f 292/1/6 293/1/6 298/1/6
f 293/1/6 294/1/6 298/1/6
f 297/1/6 298/1/6 299/1/6
f 298/1/6 294/1/6 299/1/6
f 299/1/6 294/1/6 300/1/6
f 297/1/6 299/1/6 301/1/6
f 301/1/6 299/1/6 302/1/6
f 279/1/6 295/1/6 303/1/6
f 303/1/6 295/1/6 304/1/6
f 297/1/6 301/1/6 305/1/6
f 305/1/6 301/1/6 306/1/6
