# MagicaVoxel @ Ephtracy

# group
g DirtTile1.1

# material
mtllib DirtTile1.1.mtl
usemtl palette

# normals
vn -1 0 0
vn 1 0 0
vn 0 0 1
vn 0 0 -1
vn 0 -1 0
vn 0 1 0

# texcoords
vt 0.537109 0.5
vt 0.541016 0.5
vt 0.544922 0.5

# verts
v -16 0 16
v -16 0 -16
v -16 4 5
v -16 4 -4
v -16 5 5
v -16 5 -4
v -16 6 16
v -16 6 5
v -16 6 -4
v -16 6 -16
v -13 5 -2
v -13 5 -4
v -13 6 -2
v -13 6 -4
v -10 5 1
v -10 5 -2
v -10 6 1
v -10 6 -2
v -4 5 5
v -4 5 4
v -4 6 5
v -4 6 4
v -2 4 16
v -2 4 8
v -2 5 16
v -2 5 8
v 3 4 -10
v 3 4 -16
v 3 5 4
v 3 5 3
v 3 5 -10
v 3 5 -16
v 3 6 4
v 3 6 3
v 5 5 -9
v 5 5 -16
v 5 6 -9
v 5 6 -16
v 6 5 3
v 6 5 -8
v 6 6 3
v 6 6 -8
v -9 5 16
v -9 5 7
v -9 6 16
v -9 6 7
v -8 4 16
v -8 4 8
v -8 5 16
v -8 5 8
v -3 5 -9
v -3 5 -16
v -3 6 -9
v -3 6 -16
v -2 4 -10
v -2 4 -16
v -2 5 -10
v -2 5 -16
v -1 5 1
v -1 5 -0
v -1 6 1
v -1 6 -0
v 1 4 16
v 1 4 8
v 1 5 16
v 1 5 8
v 1 5 7
v 1 5 6
v 1 6 7
v 1 6 6
v 3 5 -0
v 3 5 -8
v 3 6 -0
v 3 6 -8
v 4 5 6
v 4 5 4
v 4 6 6
v 4 6 4
v 6 4 8
v 6 4 5
v 6 5 8
v 6 5 5
v 7 5 1
v 7 5 -12
v 7 6 1
v 7 6 -12
v 8 4 -0
v 8 4 -6
v 8 5 -0
v 8 5 -6
v 11 4 -6
v 11 4 -13
v 11 5 -6
v 11 5 -12
v 11 5 -13
v 11 6 -12
v 11 6 -13
v 16 0 16
v 16 0 -16
v 16 3 16
v 16 3 -13
v 16 4 16
v 16 4 5
v 16 4 -0
v 16 4 -13
v 16 4 -16
v 16 5 5
v 16 5 4
v 16 5 1
v 16 5 -0
v 16 5 -13
v 16 5 -16
v 16 6 4
v 16 6 1
v 16 6 -13
v 16 6 -16
v -16 0 16
v -16 6 16
v -13 3 16
v -13 4 16
v -9 4 16
v -9 5 16
v -9 6 16
v -8 4 16
v -8 5 16
v -2 4 16
v -2 5 16
v 1 4 16
v 1 5 16
v 16 0 16
v 16 3 16
v 16 4 16
v -8 4 8
v -8 5 8
v -2 4 8
v -2 5 8
v 1 4 8
v 1 5 8
v 6 4 8
v 6 5 8
v -9 5 7
v -9 6 7
v 1 5 7
v 1 6 7
v 1 5 6
v 1 6 6
v 4 5 6
v 4 6 6
v 6 4 5
v 6 5 5
v 16 4 5
v 16 5 5
v 4 5 4
v 4 6 4
v 16 5 4
v 16 6 4
v -10 5 1
v -10 6 1
v -1 5 1
v -1 6 1
v -1 5 -0
v -1 6 -0
v 3 5 -0
v 3 6 -0
v -13 5 -2
v -13 6 -2
v -10 5 -2
v -10 6 -2
v -16 5 -4
v -16 6 -4
v -13 5 -4
v -13 6 -4
v 8 4 -6
v 8 5 -6
v 11 4 -6
v 11 5 -6
v 3 5 -8
v 3 6 -8
v 6 5 -8
v 6 6 -8
v 7 5 -12
v 7 6 -12
v 11 5 -12
v 11 6 -12
v 11 4 -13
v 11 5 -13
v 11 6 -13
v 16 4 -13
v 16 5 -13
v 16 6 -13
v -16 5 5
v -16 6 5
v -4 5 5
v -4 6 5
v -4 5 4
v -4 6 4
v 3 5 4
v 3 6 4
v 3 5 3
v 3 6 3
v 6 5 3
v 6 6 3
v 7 5 1
v 7 6 1
v 16 5 1
v 16 6 1
v 8 4 -0
v 8 5 -0
v 16 4 -0
v 16 5 -0
v -3 5 -9
v -3 6 -9
v 5 5 -9
v 5 6 -9
v -2 4 -10
v -2 5 -10
v 3 4 -10
v 3 5 -10
v -16 0 -16
v -16 6 -16
v -3 4 -16
v -3 5 -16
v -3 6 -16
v -2 3 -16
v -2 4 -16
v -2 5 -16
v 3 3 -16
v 3 4 -16
v 3 5 -16
v 5 5 -16
v 5 6 -16
v 16 0 -16
v 16 4 -16
v 16 5 -16
v 16 6 -16
v -16 0 16
v 16 0 16
v -16 0 -16
v 16 0 -16
v -8 4 16
v -2 4 16
v 1 4 16
v 16 4 16
v -8 4 8
v -2 4 8
v 1 4 8
v 6 4 8
v 6 4 5
v 16 4 5
v 8 4 -0
v 16 4 -0
v 8 4 -6
v 11 4 -6
v -2 4 -10
v 3 4 -10
v 11 4 -13
v 16 4 -13
v -2 4 -16
v 3 4 -16
v -9 5 16
v -8 5 16
v -2 5 16
v 1 5 16
v -8 5 8
v -2 5 8
v 1 5 8
v 6 5 8
v -9 5 7
v 1 5 7
v 1 5 6
v 4 5 6
v -16 5 5
v -4 5 5
v 6 5 5
v 16 5 5
v -4 5 4
v 3 5 4
v 4 5 4
v 16 5 4
v 3 5 3
v 6 5 3
v -10 5 1
v -1 5 1
v 7 5 1
v 16 5 1
v -1 5 -0
v 3 5 -0
v 8 5 -0
v 16 5 -0
v -13 5 -2
v -10 5 -2
v -16 5 -4
v -13 5 -4
v 8 5 -6
v 11 5 -6
v 3 5 -8
v 6 5 -8
v -3 5 -9
v 5 5 -9
v -2 5 -10
v 3 5 -10
v 7 5 -12
v 11 5 -12
v -3 5 -16
v -2 5 -16
v 3 5 -16
v 5 5 -16
v -16 6 16
v -9 6 16
v -9 6 7
v 1 6 7
v 1 6 6
v 4 6 6
v -16 6 5
v -4 6 5
v -4 6 4
v 3 6 4
v 4 6 4
v 16 6 4
v 3 6 3
v 6 6 3
v -10 6 1
v -1 6 1
v 7 6 1
v 16 6 1
v -1 6 -0
v 3 6 -0
v -13 6 -2
v -10 6 -2
v -16 6 -4
v -13 6 -4
v 3 6 -8
v 6 6 -8
v -3 6 -9
v 5 6 -9
v 7 6 -12
v 11 6 -12
v 11 6 -13
v 16 6 -13
v -16 6 -16
v -3 6 -16
v 5 6 -16
v 16 6 -16

# faces
f 3/1/1 2/1/1 1/1/1
f 4/1/1 2/1/1 3/1/1
f 5/1/1 3/1/1 1/1/1
f 5/2/1 4/2/1 3/2/1
f 6/1/1 2/1/1 4/1/1
f 6/2/1 4/2/1 5/2/1
f 7/1/1 5/1/1 1/1/1
f 8/1/1 5/1/1 7/1/1
f 9/1/1 2/1/1 6/1/1
f 10/1/1 2/1/1 9/1/1
f 13/1/1 12/1/1 11/1/1
f 14/1/1 12/1/1 13/1/1
f 17/1/1 16/1/1 15/1/1
f 18/1/1 16/1/1 17/1/1
f 21/1/1 20/1/1 19/1/1
f 22/1/1 20/1/1 21/1/1
f 25/2/1 24/2/1 23/2/1
f 26/2/1 24/2/1 25/2/1
f 31/2/1 28/2/1 27/2/1
f 32/2/1 28/2/1 31/2/1
f 33/1/1 30/1/1 29/1/1
f 34/1/1 30/1/1 33/1/1
f 37/1/1 36/1/1 35/1/1
f 38/1/1 36/1/1 37/1/1
f 41/1/1 40/1/1 39/1/1
f 42/1/1 40/1/1 41/1/1
f 43/1/2 44/1/2 45/1/2
f 45/1/2 44/1/2 46/1/2
f 47/2/2 48/2/2 49/2/2
f 49/2/2 48/2/2 50/2/2
f 51/1/2 52/1/2 53/1/2
f 53/1/2 52/1/2 54/1/2
f 55/2/2 56/2/2 57/2/2
f 57/2/2 56/2/2 58/2/2
f 59/1/2 60/1/2 61/1/2
f 61/1/2 60/1/2 62/1/2
f 63/2/2 64/2/2 65/2/2
f 65/2/2 64/2/2 66/2/2
f 67/1/2 68/1/2 69/1/2
f 69/1/2 68/1/2 70/1/2
f 71/1/2 72/1/2 73/1/2
f 73/1/2 72/1/2 74/1/2
f 75/1/2 76/1/2 77/1/2
f 77/1/2 76/1/2 78/1/2
f 79/2/2 80/2/2 81/2/2
f 81/2/2 80/2/2 82/2/2
f 83/1/2 84/1/2 85/1/2
f 85/1/2 84/1/2 86/1/2
f 87/2/2 88/2/2 89/2/2
f 89/2/2 88/2/2 90/2/2
f 91/2/2 92/2/2 93/2/2
f 93/2/2 92/2/2 94/2/2
f 94/2/2 92/2/2 95/2/2
f 94/1/2 95/1/2 96/1/2
f 96/1/2 95/1/2 97/1/2
f 98/1/2 99/1/2 100/1/2
f 100/1/2 99/1/2 101/1/2
f 100/3/2 101/3/2 102/3/2
f 102/3/2 101/3/2 103/3/2
f 103/3/2 101/3/2 104/3/2
f 101/1/2 99/1/2 105/1/2
f 104/3/2 101/3/2 105/3/2
f 105/1/2 99/1/2 106/1/2
f 103/2/2 104/2/2 107/2/2
f 107/2/2 104/2/2 108/2/2
f 108/2/2 104/2/2 109/2/2
f 109/2/2 104/2/2 110/2/2
f 105/2/2 106/2/2 111/2/2
f 111/2/2 106/2/2 112/2/2
f 108/1/2 109/1/2 113/1/2
f 113/1/2 109/1/2 114/1/2
f 111/1/2 112/1/2 115/1/2
f 115/1/2 112/1/2 116/1/2
f 119/1/3 118/1/3 117/1/3
f 120/1/3 118/1/3 119/1/3
f 121/3/3 120/3/3 119/3/3
f 121/1/3 118/1/3 120/1/3
f 122/1/3 118/1/3 121/1/3
f 123/1/3 118/1/3 122/1/3
f 124/3/3 121/3/3 119/3/3
f 124/2/3 122/2/3 121/2/3
f 125/2/3 122/2/3 124/2/3
f 126/3/3 124/3/3 119/3/3
f 128/3/3 126/3/3 119/3/3
f 128/2/3 127/2/3 126/2/3
f 129/2/3 127/2/3 128/2/3
f 130/1/3 119/1/3 117/1/3
f 131/3/3 128/3/3 119/3/3
f 131/1/3 119/1/3 130/1/3
f 132/3/3 128/3/3 131/3/3
f 135/2/3 134/2/3 133/2/3
f 136/2/3 134/2/3 135/2/3
f 139/2/3 138/2/3 137/2/3
f 140/2/3 138/2/3 139/2/3
f 143/1/3 142/1/3 141/1/3
f 144/1/3 142/1/3 143/1/3
f 147/1/3 146/1/3 145/1/3
f 148/1/3 146/1/3 147/1/3
f 151/2/3 150/2/3 149/2/3
f 152/2/3 150/2/3 151/2/3
f 155/1/3 154/1/3 153/1/3
f 156/1/3 154/1/3 155/1/3
f 159/1/3 158/1/3 157/1/3
f 160/1/3 158/1/3 159/1/3
f 163/1/3 162/1/3 161/1/3
f 164/1/3 162/1/3 163/1/3
f 167/1/3 166/1/3 165/1/3
f 168/1/3 166/1/3 167/1/3
f 171/1/3 170/1/3 169/1/3
f 172/1/3 170/1/3 171/1/3
f 175/2/3 174/2/3 173/2/3
f 176/2/3 174/2/3 175/2/3
f 179/1/3 178/1/3 177/1/3
f 180/1/3 178/1/3 179/1/3
f 183/1/3 182/1/3 181/1/3
f 184/1/3 182/1/3 183/1/3
f 188/2/3 186/2/3 185/2/3
f 189/1/3 187/1/3 186/1/3
f 189/2/3 186/2/3 188/2/3
f 190/1/3 187/1/3 189/1/3
f 191/1/4 192/1/4 193/1/4
f 193/1/4 192/1/4 194/1/4
f 195/1/4 196/1/4 197/1/4
f 197/1/4 196/1/4 198/1/4
f 199/1/4 200/1/4 201/1/4
f 201/1/4 200/1/4 202/1/4
f 203/1/4 204/1/4 205/1/4
f 205/1/4 204/1/4 206/1/4
f 207/2/4 208/2/4 209/2/4
f 209/2/4 208/2/4 210/2/4
f 211/1/4 212/1/4 213/1/4
f 213/1/4 212/1/4 214/1/4
f 215/2/4 216/2/4 217/2/4
f 217/2/4 216/2/4 218/2/4
f 219/1/4 220/1/4 221/1/4
f 221/1/4 220/1/4 222/1/4
f 222/1/4 220/1/4 223/1/4
f 219/1/4 221/1/4 224/1/4
f 221/2/4 222/2/4 225/2/4
f 224/1/4 221/1/4 225/1/4
f 225/2/4 222/2/4 226/2/4
f 219/1/4 224/1/4 227/1/4
f 224/3/4 225/3/4 227/3/4
f 227/3/4 225/3/4 228/3/4
f 228/2/4 229/2/4 230/2/4
f 219/1/4 227/1/4 232/1/4
f 227/1/4 228/1/4 232/1/4
f 228/2/4 230/2/4 233/2/4
f 232/1/4 228/1/4 233/1/4
f 230/1/4 231/1/4 234/1/4
f 233/2/4 230/2/4 234/2/4
f 234/1/4 231/1/4 235/1/4
f 238/1/5 237/1/5 236/1/5
f 239/1/5 237/1/5 238/1/5
f 240/3/6 241/3/6 244/3/6
f 244/3/6 241/3/6 245/3/6
f 242/3/6 243/3/6 246/3/6
f 246/3/6 243/3/6 247/3/6
f 247/3/6 243/3/6 248/3/6
f 248/3/6 243/3/6 249/3/6
f 250/3/6 251/3/6 252/3/6
f 252/3/6 251/3/6 253/3/6
f 253/3/6 251/3/6 256/3/6
f 256/3/6 251/3/6 257/3/6
f 254/3/6 255/3/6 258/3/6
f 258/3/6 255/3/6 259/3/6
f 260/2/6 261/2/6 264/2/6
f 262/2/6 263/2/6 265/2/6
f 265/2/6 263/2/6 266/2/6
f 260/2/6 264/2/6 268/2/6
f 266/2/6 267/2/6 268/2/6
f 265/2/6 266/2/6 268/2/6
f 264/2/6 265/2/6 268/2/6
f 268/2/6 267/2/6 269/2/6
f 269/2/6 267/2/6 270/2/6
f 270/2/6 267/2/6 271/2/6
f 271/2/6 267/2/6 274/2/6
f 272/2/6 273/2/6 276/2/6
f 274/2/6 275/2/6 278/2/6
f 271/2/6 274/2/6 278/2/6
f 278/2/6 275/2/6 279/2/6
f 276/2/6 277/2/6 280/2/6
f 272/2/6 276/2/6 282/2/6
f 280/2/6 281/2/6 282/2/6
f 276/2/6 280/2/6 282/2/6
f 282/2/6 281/2/6 283/2/6
f 283/2/6 281/2/6 286/2/6
f 286/2/6 281/2/6 287/2/6
f 284/2/6 285/2/6 288/2/6
f 288/2/6 285/2/6 289/2/6
f 272/2/6 282/2/6 290/2/6
f 290/2/6 282/2/6 291/2/6
f 272/2/6 290/2/6 292/2/6
f 292/2/6 290/2/6 293/2/6
f 284/2/6 288/2/6 294/2/6
f 287/2/6 281/2/6 296/2/6
f 296/2/6 281/2/6 297/2/6
f 298/2/6 299/2/6 300/2/6
f 300/2/6 299/2/6 301/2/6
f 294/2/6 295/2/6 302/2/6
f 284/2/6 294/2/6 302/2/6
f 302/2/6 295/2/6 303/2/6
f 298/2/6 300/2/6 304/2/6
f 304/2/6 300/2/6 305/2/6
f 301/2/6 299/2/6 306/2/6
f 306/2/6 299/2/6 307/2/6
f 308/1/6 309/1/6 310/1/6
f 310/1/6 311/1/6 312/1/6
f 308/1/6 310/1/6 314/1/6
f 312/1/6 313/1/6 314/1/6
f 310/1/6 312/1/6 314/1/6
f 314/1/6 313/1/6 315/1/6
f 315/1/6 313/1/6 316/1/6
f 316/1/6 313/1/6 317/1/6
f 317/1/6 313/1/6 318/1/6
f 318/1/6 319/1/6 320/1/6
f 317/1/6 318/1/6 320/1/6
f 320/1/6 319/1/6 321/1/6
f 321/1/6 319/1/6 324/1/6
f 324/1/6 319/1/6 325/1/6
f 322/1/6 323/1/6 326/1/6
f 322/1/6 326/1/6 329/1/6
f 326/1/6 327/1/6 329/1/6
f 328/1/6 329/1/6 331/1/6
f 329/1/6 327/1/6 332/1/6
f 330/1/6 331/1/6 332/1/6
f 331/1/6 329/1/6 332/1/6
f 321/1/6 324/1/6 333/1/6
f 330/1/6 332/1/6 334/1/6
f 332/1/6 333/1/6 334/1/6
f 334/1/6 333/1/6 335/1/6
f 333/1/6 324/1/6 336/1/6
f 335/1/6 333/1/6 336/1/6
f 336/1/6 337/1/6 338/1/6
f 330/1/6 334/1/6 340/1/6
f 340/1/6 334/1/6 341/1/6
f 338/1/6 339/1/6 342/1/6
f 335/1/6 336/1/6 342/1/6
f 336/1/6 338/1/6 342/1/6
f 342/1/6 339/1/6 343/1/6
