# MagicaVoxel @ Ephtracy

# group
g DirtTile1.2

# material
mtllib DirtTile1.2.mtl
usemtl palette

# normals
vn -1 0 0
vn 1 0 0
vn 0 0 1
vn 0 0 -1
vn 0 -1 0
vn 0 1 0

# texcoords
vt 0.537109 0.5
vt 0.541016 0.5
vt 0.544922 0.5
vt 0.548828 0.5

# verts
v -16 0 16
v -16 0 -16
v -16 2 16
v -16 2 5
v -16 3 16
v -16 3 5
v -16 3 -13
v -16 4 16
v -16 4 5
v -16 4 -5
v -16 4 -13
v -16 4 -16
v -16 5 5
v -16 5 4
v -16 5 1
v -16 5 -5
v -16 5 -13
v -16 5 -16
v -16 6 4
v -16 6 1
v -15 4 -5
v -15 4 -13
v -15 5 -5
v -15 5 -12
v -15 5 -13
v -15 5 -16
v -15 6 -12
v -15 6 -16
v -14 4 16
v -14 4 11
v -14 5 16
v -14 5 11
v -13 4 11
v -13 4 8
v -13 5 11
v -13 5 8
v -12 5 1
v -12 5 -12
v -12 6 1
v -12 6 -12
v -10 4 8
v -10 4 7
v -10 5 8
v -10 5 7
v -7 4 7
v -7 4 3
v -7 5 7
v -7 5 3
v -7 5 -4
v -7 5 -14
v -7 6 -4
v -7 6 -14
v -5 5 -14
v -5 5 -15
v -5 6 -14
v -5 6 -15
v -2 4 16
v -2 4 12
v -2 5 16
v -2 5 12
v -2 5 -15
v -2 5 -16
v -2 6 -15
v -2 6 -16
v -1 4 12
v -1 4 11
v -1 4 2
v -1 4 1
v -1 5 12
v -1 5 11
v -1 5 2
v -1 5 1
v 0 4 11
v 0 4 10
v 0 4 3
v 0 4 2
v 0 4 1
v 0 4 -0
v 0 5 11
v 0 5 10
v 0 5 3
v 0 5 2
v 0 5 1
v 0 5 -0
v 1 4 10
v 1 4 9
v 1 4 4
v 1 4 3
v 1 5 10
v 1 5 9
v 1 5 4
v 1 5 3
v 2 4 9
v 2 4 4
v 2 4 -0
v 2 4 -4
v 2 5 9
v 2 5 4
v 2 5 -0
v 2 5 -4
v 3 4 -4
v 3 4 -5
v 3 4 -7
v 3 4 -8
v 3 5 -4
v 3 5 -5
v 3 5 -7
v 3 5 -8
v 4 4 -5
v 4 4 -7
v 4 5 -5
v 4 5 -7
v 10 4 -4
v 10 4 -10
v 10 5 -4
v 10 5 -10
v 12 5 -4
v 12 5 -14
v 12 6 -4
v 12 6 -14
v 15 4 16
v 15 4 -4
v 15 5 -4
v 15 6 16
v 15 6 -4
v -11 5 -15
v -11 5 -16
v -11 6 -15
v -11 6 -16
v -10 5 4
v -10 5 -15
v -10 6 4
v -10 6 -15
v -9 4 5
v -9 4 -0
v -9 5 5
v -9 5 -0
v -8 4 -0
v -8 4 -1
v -8 5 -0
v -8 5 -1
v -7 4 16
v -7 4 10
v -7 4 -1
v -7 4 -2
v -7 5 16
v -7 5 10
v -7 5 -1
v -7 5 -2
v -6 4 -2
v -6 4 -3
v -6 5 -2
v -6 5 -3
v -6 5 -4
v -6 5 -10
v -6 6 -4
v -6 6 -10
v -5 4 10
v -5 4 9
v -5 4 -3
v -5 4 -4
v -5 5 10
v -5 5 9
v -5 5 -3
v -5 5 -4
v -5 5 -10
v -5 5 -12
v -5 6 -10
v -5 6 -12
v -4 4 5
v -4 4 3
v -4 5 5
v -4 5 3
v -4 5 -12
v -4 5 -13
v -4 6 -12
v -4 6 -13
v -3 5 -13
v -3 5 -14
v -3 6 -13
v -3 6 -14
v -2 4 9
v -2 4 5
v -2 5 9
v -2 5 5
v 0 4 -4
v 0 4 -10
v 0 5 -4
v 0 5 -10
v 4 4 -0
v 4 4 -1
v 4 5 -0
v 4 5 -1
v 5 4 11
v 5 4 10
v 5 4 1
v 5 4 -0
v 5 4 -1
v 5 4 -2
v 5 5 11
v 5 5 10
v 5 5 1
v 5 5 -0
v 5 5 -1
v 5 5 -2
v 6 4 12
v 6 4 11
v 6 4 10
v 6 4 9
v 6 4 2
v 6 4 1
v 6 4 -2
v 6 4 -3
v 6 4 -7
v 6 4 -8
v 6 5 12
v 6 5 11
v 6 5 10
v 6 5 9
v 6 5 2
v 6 5 1
v 6 5 -2
v 6 5 -3
v 6 5 -7
v 6 5 -8
v 7 4 13
v 7 4 12
v 7 4 9
v 7 4 8
v 7 4 3
v 7 4 2
v 7 4 -3
v 7 4 -4
v 7 4 -6
v 7 4 -7
v 7 5 13
v 7 5 12
v 7 5 9
v 7 5 8
v 7 5 3
v 7 5 2
v 7 5 -3
v 7 5 -4
v 7 5 -6
v 7 5 -7
v 8 4 4
v 8 4 3
v 8 4 -4
v 8 4 -6
v 8 5 4
v 8 5 3
v 8 5 -4
v 8 5 -6
v 9 4 16
v 9 4 15
v 9 4 14
v 9 4 13
v 9 4 8
v 9 4 7
v 9 4 5
v 9 4 4
v 9 5 16
v 9 5 15
v 9 5 14
v 9 5 13
v 9 5 8
v 9 5 7
v 9 5 5
v 9 5 4
v 10 4 15
v 10 4 14
v 10 4 7
v 10 4 5
v 10 5 15
v 10 5 14
v 10 5 7
v 10 5 5
v 16 0 16
v 16 0 -16
v 16 6 16
v 16 6 -16
v -16 0 16
v -16 2 16
v -16 3 16
v -16 4 16
v -14 2 16
v -14 3 16
v -14 4 16
v -14 5 16
v -10 2 16
v -10 3 16
v -7 4 16
v -7 5 16
v -3 2 16
v -3 3 16
v -2 4 16
v -2 5 16
v 9 4 16
v 9 5 16
v 15 3 16
v 15 4 16
v 15 6 16
v 16 0 16
v 16 6 16
v 9 4 15
v 9 5 15
v 10 4 15
v 10 5 15
v -7 4 10
v -7 5 10
v -5 4 10
v -5 5 10
v 5 4 10
v 5 5 10
v 6 4 10
v 6 5 10
v -5 4 9
v -5 5 9
v -2 4 9
v -2 5 9
v 6 4 9
v 6 5 9
v 7 4 9
v 7 5 9
v 7 4 8
v 7 5 8
v 9 4 8
v 9 5 8
v 9 4 7
v 9 5 7
v 10 4 7
v 10 5 7
v -16 4 5
v -16 5 5
v -9 4 5
v -9 5 5
v -16 5 4
v -16 6 4
v -10 5 4
v -10 6 4
v 1 4 4
v 1 5 4
v 2 4 4
v 2 5 4
v 0 4 3
v 0 5 3
v 1 4 3
v 1 5 3
v -1 4 2
v -1 5 2
v 0 4 2
v 0 5 2
v -9 4 -0
v -9 5 -0
v -8 4 -0
v -8 5 -0
v -8 4 -1
v -8 5 -1
v -7 4 -1
v -7 5 -1
v 4 4 -1
v 4 5 -1
v 5 4 -1
v 5 5 -1
v -7 4 -2
v -7 5 -2
v -6 4 -2
v -6 5 -2
v 5 4 -2
v 5 5 -2
v 6 4 -2
v 6 5 -2
v -6 4 -3
v -6 5 -3
v -5 4 -3
v -5 5 -3
v 6 4 -3
v 6 5 -3
v 7 4 -3
v 7 5 -3
v -7 5 -4
v -7 6 -4
v -6 5 -4
v -6 6 -4
v -5 4 -4
v -5 5 -4
v 0 4 -4
v 0 5 -4
v 7 4 -4
v 7 5 -4
v 8 4 -4
v 8 5 -4
v 10 4 -4
v 10 5 -4
v 12 5 -4
v 12 6 -4
v 15 4 -4
v 15 5 -4
v 15 6 -4
v 3 4 -7
v 3 5 -7
v 4 4 -7
v 4 5 -7
v -6 5 -10
v -6 6 -10
v -5 5 -10
v -5 6 -10
v 0 4 -10
v 0 5 -10
v 10 4 -10
v 10 5 -10
v -15 5 -12
v -15 6 -12
v -12 5 -12
v -12 6 -12
v -5 5 -12
v -5 6 -12
v -4 5 -12
v -4 6 -12
v -16 4 -13
v -16 5 -13
v -15 4 -13
v -15 5 -13
v -4 5 -13
v -4 6 -13
v -3 5 -13
v -3 6 -13
v -3 5 -14
v -3 6 -14
v 12 5 -14
v 12 6 -14
v 9 4 14
v 9 5 14
v 10 4 14
v 10 5 14
v 7 4 13
v 7 5 13
v 9 4 13
v 9 5 13
v -2 4 12
v -2 5 12
v -1 4 12
v -1 5 12
v 6 4 12
v 6 5 12
v 7 4 12
v 7 5 12
v -14 4 11
v -14 5 11
v -13 4 11
v -13 5 11
v -1 4 11
v -1 5 11
v 0 4 11
v 0 5 11
v 5 4 11
v 5 5 11
v 6 4 11
v 6 5 11
v 0 4 10
v 0 5 10
v 1 4 10
v 1 5 10
v 1 4 9
v 1 5 9
v 2 4 9
v 2 5 9
v -13 4 8
v -13 5 8
v -10 4 8
v -10 5 8
v -10 4 7
v -10 5 7
v -7 4 7
v -7 5 7
v -4 4 5
v -4 5 5
v -2 4 5
v -2 5 5
v 9 4 5
v 9 5 5
v 10 4 5
v 10 5 5
v 8 4 4
v 8 5 4
v 9 4 4
v 9 5 4
v -7 4 3
v -7 5 3
v -4 4 3
v -4 5 3
v 7 4 3
v 7 5 3
v 8 4 3
v 8 5 3
v 6 4 2
v 6 5 2
v 7 4 2
v 7 5 2
v -16 5 1
v -16 6 1
v -12 5 1
v -12 6 1
v -1 4 1
v -1 5 1
v 0 4 1
v 0 5 1
v 5 4 1
v 5 5 1
v 6 4 1
v 6 5 1
v 0 4 -0
v 0 5 -0
v 2 4 -0
v 2 5 -0
v 4 4 -0
v 4 5 -0
v 5 4 -0
v 5 5 -0
v 2 4 -4
v 2 5 -4
v 3 4 -4
v 3 5 -4
v -16 4 -5
v -16 5 -5
v -15 4 -5
v -15 5 -5
v 3 4 -5
v 3 5 -5
v 4 4 -5
v 4 5 -5
v 7 4 -6
v 7 5 -6
v 8 4 -6
v 8 5 -6
v 6 4 -7
v 6 5 -7
v 7 4 -7
v 7 5 -7
v 3 4 -8
v 3 5 -8
v 6 4 -8
v 6 5 -8
v -7 5 -14
v -7 6 -14
v -5 5 -14
v -5 6 -14
v -11 5 -15
v -11 6 -15
v -10 5 -15
v -10 6 -15
v -5 5 -15
v -5 6 -15
v -2 5 -15
v -2 6 -15
v -16 0 -16
v -16 4 -16
v -16 5 -16
v -15 5 -16
v -15 6 -16
v -11 5 -16
v -11 6 -16
v -2 5 -16
v -2 6 -16
v 15 4 -16
v 15 5 -16
v 16 0 -16
v 16 6 -16
v -16 0 16
v 16 0 16
v -16 0 -16
v 16 0 -16
v -16 4 16
v -14 4 16
v -7 4 16
v -2 4 16
v 9 4 16
v 15 4 16
v 9 4 15
v 10 4 15
v 9 4 14
v 10 4 14
v 7 4 13
v 9 4 13
v -2 4 12
v -1 4 12
v 6 4 12
v 7 4 12
v -14 4 11
v -13 4 11
v -1 4 11
v 0 4 11
v 5 4 11
v 6 4 11
v -7 4 10
v -5 4 10
v 0 4 10
v 1 4 10
v 5 4 10
v 6 4 10
v -5 4 9
v -2 4 9
v 1 4 9
v 2 4 9
v 6 4 9
v 7 4 9
v -13 4 8
v -10 4 8
v 7 4 8
v 9 4 8
v -10 4 7
v -7 4 7
v 9 4 7
v 10 4 7
v -16 4 5
v -9 4 5
v -4 4 5
v -2 4 5
v 9 4 5
v 10 4 5
v 1 4 4
v 2 4 4
v 8 4 4
v 9 4 4
v -7 4 3
v -4 4 3
v 0 4 3
v 1 4 3
v 7 4 3
v 8 4 3
v -1 4 2
v 0 4 2
v 6 4 2
v 7 4 2
v -1 4 1
v 0 4 1
v 5 4 1
v 6 4 1
v -9 4 -0
v -8 4 -0
v 0 4 -0
v 2 4 -0
v 4 4 -0
v 5 4 -0
v -8 4 -1
v -7 4 -1
v 4 4 -1
v 5 4 -1
v -7 4 -2
v -6 4 -2
v 5 4 -2
v 6 4 -2
v -6 4 -3
v -5 4 -3
v 6 4 -3
v 7 4 -3
v -5 4 -4
v 0 4 -4
v 2 4 -4
v 3 4 -4
v 7 4 -4
v 8 4 -4
v 10 4 -4
v 15 4 -4
v -16 4 -5
v -15 4 -5
v 3 4 -5
v 4 4 -5
v 7 4 -6
v 8 4 -6
v 3 4 -7
v 4 4 -7
v 6 4 -7
v 7 4 -7
v 3 4 -8
v 6 4 -8
v 0 4 -10
v 10 4 -10
v -16 4 -13
v -15 4 -13
v -14 5 16
v -7 5 16
v -2 5 16
v 9 5 16
v 9 5 15
v 10 5 15
v 9 5 14
v 10 5 14
v 7 5 13
v 9 5 13
v -2 5 12
v -1 5 12
v 6 5 12
v 7 5 12
v -14 5 11
v -13 5 11
v -1 5 11
v 0 5 11
v 5 5 11
v 6 5 11
v -7 5 10
v -5 5 10
v 0 5 10
v 1 5 10
v 5 5 10
v 6 5 10
v -5 5 9
v -2 5 9
v 1 5 9
v 2 5 9
v 6 5 9
v 7 5 9
v -13 5 8
v -10 5 8
v 7 5 8
v 9 5 8
v -10 5 7
v -7 5 7
v 9 5 7
v 10 5 7
v -16 5 5
v -9 5 5
v -4 5 5
v -2 5 5
v 9 5 5
v 10 5 5
v -16 5 4
v -10 5 4
v 1 5 4
v 2 5 4
v 8 5 4
v 9 5 4
v -7 5 3
v -4 5 3
v 0 5 3
v 1 5 3
v 7 5 3
v 8 5 3
v -1 5 2
v 0 5 2
v 6 5 2
v 7 5 2
v -16 5 1
v -12 5 1
v -1 5 1
v 0 5 1
v 5 5 1
v 6 5 1
v -9 5 -0
v -8 5 -0
v 0 5 -0
v 2 5 -0
v 4 5 -0
v 5 5 -0
v -8 5 -1
v -7 5 -1
v 4 5 -1
v 5 5 -1
v -7 5 -2
v -6 5 -2
v 5 5 -2
v 6 5 -2
v -6 5 -3
v -5 5 -3
v 6 5 -3
v 7 5 -3
v -7 5 -4
v -6 5 -4
v -5 5 -4
v 0 5 -4
v 2 5 -4
v 3 5 -4
v 7 5 -4
v 8 5 -4
v 10 5 -4
v 12 5 -4
v -16 5 -5
v -15 5 -5
v 3 5 -5
v 4 5 -5
v 7 5 -6
v 8 5 -6
v 3 5 -7
v 4 5 -7
v 6 5 -7
v 7 5 -7
v 3 5 -8
v 6 5 -8
v -6 5 -10
v -5 5 -10
v 0 5 -10
v 10 5 -10
v -15 5 -12
v -12 5 -12
v -5 5 -12
v -4 5 -12
v -16 5 -13
v -15 5 -13
v -4 5 -13
v -3 5 -13
v -7 5 -14
v -5 5 -14
v -3 5 -14
v 12 5 -14
v -11 5 -15
v -10 5 -15
v -5 5 -15
v -2 5 -15
v -16 5 -16
v -15 5 -16
v -11 5 -16
v -2 5 -16
v 15 6 16
v 16 6 16
v -16 6 4
v -10 6 4
v -16 6 1
v -12 6 1
v -7 6 -4
v -6 6 -4
v 12 6 -4
v 15 6 -4
v -6 6 -10
v -5 6 -10
v -15 6 -12
v -12 6 -12
v -5 6 -12
v -4 6 -12
v -4 6 -13
v -3 6 -13
v -7 6 -14
v -5 6 -14
v -3 6 -14
v 12 6 -14
v -11 6 -15
v -10 6 -15
v -5 6 -15
v -2 6 -15
v -15 6 -16
v -11 6 -16
v -2 6 -16
v 16 6 -16

# faces
f 3/1/1 2/1/1 1/1/1
f 4/1/1 2/1/1 3/1/1
f 5/4/1 4/4/1 3/4/1
f 6/1/1 2/1/1 4/1/1
f 6/4/1 4/4/1 5/4/1
f 7/1/1 2/1/1 6/1/1
f 8/3/1 6/3/1 5/3/1
f 8/3/1 7/3/1 6/3/1
f 9/3/1 7/3/1 8/3/1
f 10/3/1 7/3/1 9/3/1
f 11/1/1 2/1/1 7/1/1
f 11/3/1 7/3/1 10/3/1
f 12/1/1 2/1/1 11/1/1
f 13/2/1 10/2/1 9/2/1
f 14/2/1 10/2/1 13/2/1
f 15/2/1 10/2/1 14/2/1
f 16/2/1 10/2/1 15/2/1
f 17/2/1 12/2/1 11/2/1
f 18/2/1 12/2/1 17/2/1
f 19/1/1 15/1/1 14/1/1
f 20/1/1 15/1/1 19/1/1
f 23/2/1 22/2/1 21/2/1
f 24/2/1 22/2/1 23/2/1
f 25/2/1 22/2/1 24/2/1
f 27/1/1 26/1/1 25/1/1
f 27/1/1 25/1/1 24/1/1
f 28/1/1 26/1/1 27/1/1
f 31/2/1 30/2/1 29/2/1
f 32/2/1 30/2/1 31/2/1
f 35/2/1 34/2/1 33/2/1
f 36/2/1 34/2/1 35/2/1
f 39/1/1 38/1/1 37/1/1
f 40/1/1 38/1/1 39/1/1
f 43/2/1 42/2/1 41/2/1
f 44/2/1 42/2/1 43/2/1
f 47/2/1 46/2/1 45/2/1
f 48/2/1 46/2/1 47/2/1
f 51/1/1 50/1/1 49/1/1
f 52/1/1 50/1/1 51/1/1
f 55/1/1 54/1/1 53/1/1
f 56/1/1 54/1/1 55/1/1
f 59/2/1 58/2/1 57/2/1
f 60/2/1 58/2/1 59/2/1
f 63/1/1 62/1/1 61/1/1
f 64/1/1 62/1/1 63/1/1
f 69/2/1 66/2/1 65/2/1
f 70/2/1 66/2/1 69/2/1
f 71/2/1 68/2/1 67/2/1
f 72/2/1 68/2/1 71/2/1
f 79/2/1 74/2/1 73/2/1
f 80/2/1 74/2/1 79/2/1
f 81/2/1 76/2/1 75/2/1
f 82/2/1 76/2/1 81/2/1
f 83/2/1 78/2/1 77/2/1
f 84/2/1 78/2/1 83/2/1
f 89/2/1 86/2/1 85/2/1
f 90/2/1 86/2/1 89/2/1
f 91/2/1 88/2/1 87/2/1
f 92/2/1 88/2/1 91/2/1
f 97/2/1 94/2/1 93/2/1
f 98/2/1 94/2/1 97/2/1
f 99/2/1 96/2/1 95/2/1
f 100/2/1 96/2/1 99/2/1
f 105/2/1 102/2/1 101/2/1
f 106/2/1 102/2/1 105/2/1
f 107/2/1 104/2/1 103/2/1
f 108/2/1 104/2/1 107/2/1
f 111/2/1 110/2/1 109/2/1
f 112/2/1 110/2/1 111/2/1
f 115/2/1 114/2/1 113/2/1
f 116/2/1 114/2/1 115/2/1
f 119/1/1 118/1/1 117/1/1
f 120/1/1 118/1/1 119/1/1
f 123/1/1 122/1/1 121/1/1
f 124/1/1 123/1/1 121/1/1
f 125/1/1 123/1/1 124/1/1
f 126/1/2 127/1/2 128/1/2
f 128/1/2 127/1/2 129/1/2
f 130/1/2 131/1/2 132/1/2
f 132/1/2 131/1/2 133/1/2
f 134/2/2 135/2/2 136/2/2
f 136/2/2 135/2/2 137/2/2
f 138/2/2 139/2/2 140/2/2
f 140/2/2 139/2/2 141/2/2
f 142/2/2 143/2/2 146/2/2
f 146/2/2 143/2/2 147/2/2
f 144/2/2 145/2/2 148/2/2
f 148/2/2 145/2/2 149/2/2
f 150/2/2 151/2/2 152/2/2
f 152/2/2 151/2/2 153/2/2
f 154/1/2 155/1/2 156/1/2
f 156/1/2 155/1/2 157/1/2
f 158/2/2 159/2/2 162/2/2
f 162/2/2 159/2/2 163/2/2
f 160/2/2 161/2/2 164/2/2
f 164/2/2 161/2/2 165/2/2
f 166/1/2 167/1/2 168/1/2
f 168/1/2 167/1/2 169/1/2
f 170/2/2 171/2/2 172/2/2
f 172/2/2 171/2/2 173/2/2
f 174/1/2 175/1/2 176/1/2
f 176/1/2 175/1/2 177/1/2
f 178/1/2 179/1/2 180/1/2
f 180/1/2 179/1/2 181/1/2
f 182/2/2 183/2/2 184/2/2
f 184/2/2 183/2/2 185/2/2
f 186/2/2 187/2/2 188/2/2
f 188/2/2 187/2/2 189/2/2
f 190/2/2 191/2/2 192/2/2
f 192/2/2 191/2/2 193/2/2
f 194/2/2 195/2/2 200/2/2
f 200/2/2 195/2/2 201/2/2
f 196/2/2 197/2/2 202/2/2
f 202/2/2 197/2/2 203/2/2
f 198/2/2 199/2/2 204/2/2
f 204/2/2 199/2/2 205/2/2
f 206/2/2 207/2/2 216/2/2
f 216/2/2 207/2/2 217/2/2
f 208/2/2 209/2/2 218/2/2
f 218/2/2 209/2/2 219/2/2
f 210/2/2 211/2/2 220/2/2
f 220/2/2 211/2/2 221/2/2
f 212/2/2 213/2/2 222/2/2
f 222/2/2 213/2/2 223/2/2
f 214/2/2 215/2/2 224/2/2
f 224/2/2 215/2/2 225/2/2
f 226/2/2 227/2/2 236/2/2
f 236/2/2 227/2/2 237/2/2
f 228/2/2 229/2/2 238/2/2
f 238/2/2 229/2/2 239/2/2
f 230/2/2 231/2/2 240/2/2
f 240/2/2 231/2/2 241/2/2
f 232/2/2 233/2/2 242/2/2
f 242/2/2 233/2/2 243/2/2
f 234/2/2 235/2/2 244/2/2
f 244/2/2 235/2/2 245/2/2
f 246/2/2 247/2/2 250/2/2
f 250/2/2 247/2/2 251/2/2
f 248/2/2 249/2/2 252/2/2
f 252/2/2 249/2/2 253/2/2
f 254/2/2 255/2/2 262/2/2
f 262/2/2 255/2/2 263/2/2
f 256/2/2 257/2/2 264/2/2
f 264/2/2 257/2/2 265/2/2
f 258/2/2 259/2/2 266/2/2
f 266/2/2 259/2/2 267/2/2
f 260/2/2 261/2/2 268/2/2
f 268/2/2 261/2/2 269/2/2
f 270/2/2 271/2/2 274/2/2
f 274/2/2 271/2/2 275/2/2
f 272/2/2 273/2/2 276/2/2
f 276/2/2 273/2/2 277/2/2
f 278/1/2 279/1/2 280/1/2
f 280/1/2 279/1/2 281/1/2
f 286/1/3 283/1/3 282/1/3
f 286/4/3 284/4/3 283/4/3
f 287/3/3 285/3/3 284/3/3
f 287/4/3 284/4/3 286/4/3
f 288/3/3 285/3/3 287/3/3
f 290/1/3 286/1/3 282/1/3
f 290/1/3 287/1/3 286/1/3
f 291/3/3 288/3/3 287/3/3
f 291/1/3 287/1/3 290/1/3
f 292/2/3 289/2/3 288/2/3
f 292/3/3 288/3/3 291/3/3
f 293/2/3 289/2/3 292/2/3
f 294/4/3 291/4/3 290/4/3
f 294/1/3 290/1/3 282/1/3
f 295/3/3 292/3/3 291/3/3
f 295/4/3 291/4/3 294/4/3
f 296/3/3 292/3/3 295/3/3
f 298/3/3 296/3/3 295/3/3
f 298/2/3 297/2/3 296/2/3
f 299/2/3 297/2/3 298/2/3
f 300/1/3 295/1/3 294/1/3
f 300/3/3 298/3/3 295/3/3
f 301/3/3 298/3/3 300/3/3
f 303/1/3 301/1/3 300/1/3
f 303/1/3 302/1/3 301/1/3
f 303/1/3 300/1/3 294/1/3
f 303/1/3 294/1/3 282/1/3
f 304/1/3 302/1/3 303/1/3
f 307/2/3 306/2/3 305/2/3
f 308/2/3 306/2/3 307/2/3
f 311/2/3 310/2/3 309/2/3
f 312/2/3 310/2/3 311/2/3
f 315/2/3 314/2/3 313/2/3
f 316/2/3 314/2/3 315/2/3
f 319/2/3 318/2/3 317/2/3
f 320/2/3 318/2/3 319/2/3
f 323/2/3 322/2/3 321/2/3
f 324/2/3 322/2/3 323/2/3
f 327/2/3 326/2/3 325/2/3
f 328/2/3 326/2/3 327/2/3
f 331/2/3 330/2/3 329/2/3
f 332/2/3 330/2/3 331/2/3
f 335/2/3 334/2/3 333/2/3
f 336/2/3 334/2/3 335/2/3
f 339/1/3 338/1/3 337/1/3
f 340/1/3 338/1/3 339/1/3
f 343/2/3 342/2/3 341/2/3
f 344/2/3 342/2/3 343/2/3
f 347/2/3 346/2/3 345/2/3
f 348/2/3 346/2/3 347/2/3
f 351/2/3 350/2/3 349/2/3
f 352/2/3 350/2/3 351/2/3
f 355/2/3 354/2/3 353/2/3
f 356/2/3 354/2/3 355/2/3
f 359/2/3 358/2/3 357/2/3
f 360/2/3 358/2/3 359/2/3
f 363/2/3 362/2/3 361/2/3
f 364/2/3 362/2/3 363/2/3
f 367/2/3 366/2/3 365/2/3
f 368/2/3 366/2/3 367/2/3
f 371/2/3 370/2/3 369/2/3
f 372/2/3 370/2/3 371/2/3
f 375/2/3 374/2/3 373/2/3
f 376/2/3 374/2/3 375/2/3
f 379/2/3 378/2/3 377/2/3
f 380/2/3 378/2/3 379/2/3
f 383/1/3 382/1/3 381/1/3
f 384/1/3 382/1/3 383/1/3
f 387/2/3 386/2/3 385/2/3
f 388/2/3 386/2/3 387/2/3
f 391/2/3 390/2/3 389/2/3
f 392/2/3 390/2/3 391/2/3
f 395/2/3 394/2/3 393/2/3
f 397/2/3 395/2/3 393/2/3
f 398/1/3 396/1/3 395/1/3
f 398/2/3 395/2/3 397/2/3
f 399/1/3 396/1/3 398/1/3
f 402/2/3 401/2/3 400/2/3
f 403/2/3 401/2/3 402/2/3
f 406/1/3 405/1/3 404/1/3
f 407/1/3 405/1/3 406/1/3
f 410/2/3 409/2/3 408/2/3
f 411/2/3 409/2/3 410/2/3
f 414/1/3 413/1/3 412/1/3
f 415/1/3 413/1/3 414/1/3
f 418/1/3 417/1/3 416/1/3
f 419/1/3 417/1/3 418/1/3
f 422/2/3 421/2/3 420/2/3
f 423/2/3 421/2/3 422/2/3
f 426/1/3 425/1/3 424/1/3
f 427/1/3 425/1/3 426/1/3
f 430/1/3 429/1/3 428/1/3
f 431/1/3 429/1/3 430/1/3
f 432/2/4 433/2/4 434/2/4
f 434/2/4 433/2/4 435/2/4
f 436/2/4 437/2/4 438/2/4
f 438/2/4 437/2/4 439/2/4
f 440/2/4 441/2/4 442/2/4
f 442/2/4 441/2/4 443/2/4
f 444/2/4 445/2/4 446/2/4
f 446/2/4 445/2/4 447/2/4
f 448/2/4 449/2/4 450/2/4
f 450/2/4 449/2/4 451/2/4
f 452/2/4 453/2/4 454/2/4
f 454/2/4 453/2/4 455/2/4
f 456/2/4 457/2/4 458/2/4
f 458/2/4 457/2/4 459/2/4
f 460/2/4 461/2/4 462/2/4
f 462/2/4 461/2/4 463/2/4
f 464/2/4 465/2/4 466/2/4
f 466/2/4 465/2/4 467/2/4
f 468/2/4 469/2/4 470/2/4
f 470/2/4 469/2/4 471/2/4
f 472/2/4 473/2/4 474/2/4
f 474/2/4 473/2/4 475/2/4
f 476/2/4 477/2/4 478/2/4
f 478/2/4 477/2/4 479/2/4
f 480/2/4 481/2/4 482/2/4
f 482/2/4 481/2/4 483/2/4
f 484/2/4 485/2/4 486/2/4
f 486/2/4 485/2/4 487/2/4
f 488/2/4 489/2/4 490/2/4
f 490/2/4 489/2/4 491/2/4
f 492/2/4 493/2/4 494/2/4
f 494/2/4 493/2/4 495/2/4
f 496/2/4 497/2/4 498/2/4
f 498/2/4 497/2/4 499/2/4
f 500/1/4 501/1/4 502/1/4
f 502/1/4 501/1/4 503/1/4
f 504/2/4 505/2/4 506/2/4
f 506/2/4 505/2/4 507/2/4
f 508/2/4 509/2/4 510/2/4
f 510/2/4 509/2/4 511/2/4
f 512/2/4 513/2/4 514/2/4
f 514/2/4 513/2/4 515/2/4
f 516/2/4 517/2/4 518/2/4
f 518/2/4 517/2/4 519/2/4
f 520/2/4 521/2/4 522/2/4
f 522/2/4 521/2/4 523/2/4
f 524/2/4 525/2/4 526/2/4
f 526/2/4 525/2/4 527/2/4
f 528/2/4 529/2/4 530/2/4
f 530/2/4 529/2/4 531/2/4
f 532/2/4 533/2/4 534/2/4
f 534/2/4 533/2/4 535/2/4
f 536/2/4 537/2/4 538/2/4
f 538/2/4 537/2/4 539/2/4
f 540/2/4 541/2/4 542/2/4
f 542/2/4 541/2/4 543/2/4
f 544/1/4 545/1/4 546/1/4
f 546/1/4 545/1/4 547/1/4
f 548/1/4 549/1/4 550/1/4
f 550/1/4 549/1/4 551/1/4
f 552/1/4 553/1/4 554/1/4
f 554/1/4 553/1/4 555/1/4
f 557/2/4 558/2/4 559/2/4
f 557/2/4 559/2/4 561/2/4
f 559/1/4 560/1/4 561/1/4
f 561/1/4 560/1/4 562/1/4
f 557/2/4 561/2/4 563/2/4
f 556/1/4 557/1/4 565/1/4
f 557/2/4 563/2/4 565/2/4
f 563/1/4 564/1/4 566/1/4
f 565/2/4 563/2/4 566/2/4
f 556/1/4 565/1/4 567/1/4
f 565/1/4 566/1/4 567/1/4
f 566/1/4 564/1/4 568/1/4
f 567/1/4 566/1/4 568/1/4
f 571/1/5 570/1/5 569/1/5
f 572/1/5 570/1/5 571/1/5
f 577/3/6 578/3/6 579/3/6
f 579/3/6 578/3/6 580/3/6
f 580/3/6 578/3/6 582/3/6
f 581/3/6 582/3/6 584/3/6
f 575/3/6 576/3/6 585/3/6
f 583/3/6 584/3/6 588/3/6
f 573/3/6 574/3/6 589/3/6
f 585/3/6 586/3/6 591/3/6
f 587/3/6 588/3/6 594/3/6
f 591/3/6 592/3/6 595/3/6
f 575/3/6 585/3/6 595/3/6
f 585/3/6 591/3/6 595/3/6
f 595/3/6 592/3/6 596/3/6
f 596/3/6 592/3/6 597/3/6
f 593/3/6 594/3/6 599/3/6
f 594/3/6 588/3/6 600/3/6
f 599/3/6 594/3/6 600/3/6
f 597/3/6 598/3/6 601/3/6
f 596/3/6 597/3/6 601/3/6
f 601/3/6 598/3/6 602/3/6
f 602/3/6 598/3/6 603/3/6
f 600/3/6 588/3/6 605/3/6
f 588/3/6 584/3/6 606/3/6
f 605/3/6 588/3/6 606/3/6
f 589/3/6 590/3/6 607/3/6
f 606/3/6 584/3/6 609/3/6
f 584/3/6 582/3/6 610/3/6
f 609/3/6 584/3/6 610/3/6
f 607/3/6 608/3/6 611/3/6
f 610/3/6 582/3/6 613/3/6
f 582/3/6 578/3/6 614/3/6
f 613/3/6 582/3/6 614/3/6
f 611/3/6 612/3/6 615/3/6
f 573/3/6 589/3/6 615/3/6
f 607/3/6 611/3/6 615/3/6
f 589/3/6 607/3/6 615/3/6
f 615/3/6 612/3/6 616/3/6
f 603/3/6 604/3/6 618/3/6
f 602/3/6 603/3/6 618/3/6
f 614/3/6 578/3/6 620/3/6
f 617/3/6 618/3/6 621/3/6
f 618/3/6 604/3/6 621/3/6
f 621/3/6 604/3/6 622/3/6
f 619/3/6 620/3/6 624/3/6
f 616/3/6 612/3/6 625/3/6
f 617/3/6 621/3/6 626/3/6
f 626/3/6 621/3/6 627/3/6
f 627/3/6 621/3/6 628/3/6
f 623/3/6 624/3/6 630/3/6
f 625/3/6 626/3/6 631/3/6
f 626/3/6 627/3/6 631/3/6
f 631/3/6 627/3/6 632/3/6
f 629/3/6 630/3/6 634/3/6
f 625/3/6 631/3/6 635/3/6
f 633/3/6 634/3/6 638/3/6
f 635/3/6 636/3/6 639/3/6
f 616/3/6 625/3/6 639/3/6
f 625/3/6 635/3/6 639/3/6
f 639/3/6 636/3/6 640/3/6
f 640/3/6 636/3/6 641/3/6
f 637/3/6 638/3/6 644/3/6
f 641/3/6 642/3/6 645/3/6
f 640/3/6 641/3/6 645/3/6
f 645/3/6 642/3/6 646/3/6
f 643/3/6 644/3/6 647/3/6
f 644/3/6 638/3/6 648/3/6
f 647/3/6 644/3/6 648/3/6
f 646/3/6 642/3/6 649/3/6
f 649/3/6 642/3/6 650/3/6
f 648/3/6 638/3/6 651/3/6
f 638/3/6 634/3/6 652/3/6
f 651/3/6 638/3/6 652/3/6
f 650/3/6 642/3/6 653/3/6
f 653/3/6 642/3/6 654/3/6
f 652/3/6 634/3/6 655/3/6
f 634/3/6 630/3/6 656/3/6
f 655/3/6 634/3/6 656/3/6
f 654/3/6 642/3/6 657/3/6
f 657/3/6 642/3/6 658/3/6
f 658/3/6 642/3/6 659/3/6
f 656/3/6 630/3/6 661/3/6
f 630/3/6 624/3/6 662/3/6
f 661/3/6 630/3/6 662/3/6
f 624/3/6 620/3/6 663/3/6
f 662/3/6 624/3/6 663/3/6
f 620/3/6 578/3/6 663/3/6
f 663/3/6 578/3/6 664/3/6
f 659/3/6 660/3/6 667/3/6
f 658/3/6 659/3/6 667/3/6
f 662/3/6 663/3/6 670/3/6
f 667/3/6 668/3/6 671/3/6
f 658/3/6 667/3/6 671/3/6
f 671/3/6 668/3/6 672/3/6
f 669/3/6 670/3/6 674/3/6
f 658/3/6 671/3/6 675/3/6
f 673/3/6 674/3/6 676/3/6
f 658/3/6 675/3/6 677/3/6
f 675/3/6 676/3/6 677/3/6
f 676/3/6 674/3/6 678/3/6
f 677/3/6 676/3/6 678/3/6
f 670/3/6 663/3/6 678/3/6
f 674/3/6 670/3/6 678/3/6
f 665/3/6 666/3/6 679/3/6
f 679/3/6 666/3/6 680/3/6
f 683/2/6 684/2/6 685/2/6
f 683/2/6 685/2/6 687/2/6
f 685/2/6 686/2/6 687/2/6
f 687/2/6 686/2/6 688/2/6
f 683/2/6 687/2/6 689/2/6
f 689/2/6 687/2/6 690/2/6
f 683/2/6 689/2/6 691/2/6
f 691/2/6 689/2/6 692/2/6
f 692/2/6 689/2/6 693/2/6
f 693/2/6 689/2/6 694/2/6
f 681/2/6 682/2/6 695/2/6
f 695/2/6 682/2/6 696/2/6
f 692/2/6 693/2/6 697/2/6
f 697/2/6 693/2/6 698/2/6
f 698/2/6 693/2/6 699/2/6
f 699/2/6 693/2/6 700/2/6
f 696/2/6 682/2/6 701/2/6
f 698/2/6 699/2/6 703/2/6
f 703/2/6 699/2/6 704/2/6
f 704/2/6 699/2/6 705/2/6
f 701/2/6 702/2/6 707/2/6
f 705/2/6 706/2/6 709/2/6
f 704/2/6 705/2/6 709/2/6
f 709/2/6 706/2/6 710/2/6
f 710/2/6 706/2/6 711/2/6
f 707/2/6 708/2/6 713/2/6
f 696/2/6 701/2/6 713/2/6
f 701/2/6 707/2/6 713/2/6
f 713/2/6 708/2/6 714/2/6
f 710/2/6 711/2/6 715/2/6
f 711/2/6 712/2/6 715/2/6
f 714/2/6 708/2/6 717/2/6
f 717/2/6 708/2/6 718/2/6
f 715/2/6 716/2/6 719/2/6
f 718/2/6 708/2/6 723/2/6
f 723/2/6 708/2/6 724/2/6
f 715/2/6 719/2/6 725/2/6
f 719/2/6 720/2/6 725/2/6
f 725/2/6 720/2/6 726/2/6
f 721/2/6 722/2/6 727/2/6
f 727/2/6 722/2/6 728/2/6
f 710/2/6 715/2/6 730/2/6
f 715/2/6 725/2/6 730/2/6
f 730/2/6 725/2/6 731/2/6
f 731/2/6 725/2/6 732/2/6
f 718/2/6 723/2/6 733/2/6
f 733/2/6 723/2/6 734/2/6
f 730/2/6 731/2/6 736/2/6
f 729/2/6 730/2/6 736/2/6
f 736/2/6 731/2/6 737/2/6
f 737/2/6 731/2/6 738/2/6
f 735/2/6 736/2/6 740/2/6
f 736/2/6 737/2/6 740/2/6
f 740/2/6 737/2/6 741/2/6
f 741/2/6 737/2/6 742/2/6
f 739/2/6 740/2/6 745/2/6
f 740/2/6 741/2/6 745/2/6
f 745/2/6 741/2/6 746/2/6
f 746/2/6 741/2/6 747/2/6
f 747/2/6 741/2/6 748/2/6
f 728/2/6 722/2/6 749/2/6
f 746/2/6 747/2/6 751/2/6
f 751/2/6 747/2/6 752/2/6
f 752/2/6 747/2/6 753/2/6
f 753/2/6 747/2/6 754/2/6
f 749/2/6 750/2/6 755/2/6
f 752/2/6 753/2/6 757/2/6
f 755/2/6 756/2/6 759/2/6
f 757/2/6 758/2/6 761/2/6
f 759/2/6 760/2/6 763/2/6
f 761/2/6 762/2/6 765/2/6
f 763/2/6 764/2/6 767/2/6
f 755/2/6 759/2/6 767/2/6
f 759/2/6 763/2/6 767/2/6
f 767/2/6 764/2/6 768/2/6
f 768/2/6 764/2/6 769/2/6
f 761/2/6 765/2/6 771/2/6
f 757/2/6 761/2/6 771/2/6
f 765/2/6 766/2/6 771/2/6
f 752/2/6 757/2/6 771/2/6
f 771/2/6 766/2/6 772/2/6
f 772/2/6 766/2/6 773/2/6
f 743/2/6 744/2/6 777/2/6
f 777/2/6 744/2/6 778/2/6
f 773/2/6 774/2/6 779/2/6
f 772/2/6 773/2/6 779/2/6
f 779/2/6 774/2/6 780/2/6
f 780/2/6 774/2/6 781/2/6
f 781/2/6 774/2/6 782/2/6
f 780/2/6 781/2/6 784/2/6
f 784/2/6 781/2/6 785/2/6
f 785/2/6 781/2/6 786/2/6
f 783/2/6 784/2/6 787/2/6
f 784/2/6 785/2/6 787/2/6
f 787/2/6 785/2/6 788/2/6
f 769/2/6 770/2/6 789/2/6
f 768/2/6 769/2/6 789/2/6
f 789/2/6 770/2/6 790/2/6
f 790/2/6 770/2/6 791/2/6
f 775/2/6 776/2/6 792/2/6
f 778/2/6 744/2/6 793/2/6
f 793/2/6 744/2/6 794/2/6
f 790/2/6 791/2/6 795/2/6
f 791/2/6 792/2/6 795/2/6
f 795/2/6 792/2/6 796/2/6
f 796/2/6 792/2/6 799/2/6
f 799/2/6 792/2/6 800/2/6
f 755/2/6 767/2/6 801/2/6
f 800/2/6 792/2/6 803/2/6
f 792/2/6 776/2/6 804/2/6
f 803/2/6 792/2/6 804/2/6
f 801/2/6 802/2/6 806/2/6
f 749/2/6 755/2/6 806/2/6
f 755/2/6 801/2/6 806/2/6
f 728/2/6 749/2/6 806/2/6
f 806/2/6 802/2/6 807/2/6
f 797/2/6 798/2/6 809/2/6
f 809/2/6 798/2/6 810/2/6
f 807/2/6 808/2/6 811/2/6
f 805/2/6 806/2/6 811/2/6
f 806/2/6 807/2/6 811/2/6
f 811/2/6 808/2/6 812/2/6
f 815/1/6 816/1/6 817/1/6
f 817/1/6 816/1/6 818/1/6
f 813/1/6 814/1/6 822/1/6
f 819/1/6 820/1/6 823/1/6
f 818/1/6 816/1/6 826/1/6
f 823/1/6 824/1/6 827/1/6
f 827/1/6 828/1/6 829/1/6
f 819/1/6 823/1/6 831/1/6
f 829/1/6 830/1/6 831/1/6
f 827/1/6 829/1/6 831/1/6
f 823/1/6 827/1/6 831/1/6
f 831/1/6 830/1/6 832/1/6
f 832/1/6 830/1/6 833/1/6
f 821/1/6 822/1/6 834/1/6
f 825/1/6 826/1/6 835/1/6
f 826/1/6 816/1/6 835/1/6
f 835/1/6 816/1/6 836/1/6
f 832/1/6 833/1/6 837/1/6
f 833/1/6 834/1/6 837/1/6
f 837/1/6 834/1/6 838/1/6
f 825/1/6 835/1/6 839/1/6
f 839/1/6 835/1/6 840/1/6
f 838/1/6 834/1/6 841/1/6
f 822/1/6 814/1/6 842/1/6
f 841/1/6 834/1/6 842/1/6
f 834/1/6 822/1/6 842/1/6
