# MagicaVoxel @ Ephtracy

# group
g GrassTile1.1

# material
mtllib GrassTile1.1.mtl
usemtl palette

# normals
vn -1 0 0
vn 1 0 0
vn 0 0 1
vn 0 0 -1
vn 0 -1 0
vn 0 1 0

# texcoords
vt 0.892578 0.5
vt 0.896484 0.5

# verts
v -16 0 16
v -16 0 -16
v -16 1 12
v -16 1 8
v -16 1 -1
v -16 1 -12
v -16 2 16
v -16 2 13
v -16 2 12
v -16 2 8
v -16 2 6
v -16 2 -0
v -16 2 -1
v -16 2 -12
v -16 2 -13
v -16 2 -16
v -16 3 16
v -16 3 13
v -16 3 6
v -16 3 -0
v -16 3 -13
v -16 3 -16
v -12 1 -1
v -12 1 -2
v -12 2 -1
v -12 2 -2
v -5 1 -2
v -5 1 -3
v -5 2 -2
v -5 2 -3
v -4 1 -3
v -4 1 -4
v -4 2 -3
v -4 2 -4
v -3 1 12
v -3 1 8
v -3 1 -4
v -3 1 -7
v -3 2 12
v -3 2 8
v -3 2 -4
v -3 2 -7
v -2 1 13
v -2 1 12
v -2 1 -7
v -2 1 -8
v -2 2 13
v -2 2 12
v -2 2 11
v -2 2 6
v -2 2 -7
v -2 2 -8
v -2 3 11
v -2 3 6
v -1 1 14
v -1 1 13
v -1 1 -8
v -1 1 -9
v -1 1 -11
v -1 1 -12
v -1 2 14
v -1 2 13
v -1 2 12
v -1 2 11
v -1 2 -8
v -1 2 -9
v -1 2 -11
v -1 2 -12
v -1 3 12
v -1 3 11
v 0 1 -9
v 0 1 -10
v 0 2 13
v 0 2 12
v 0 2 -8
v 0 2 -9
v 0 2 -10
v 0 2 -12
v 0 2 -13
v 0 3 13
v 0 3 12
v 0 3 -8
v 0 3 -9
v 0 3 -12
v 0 3 -13
v 2 1 15
v 2 1 14
v 2 2 15
v 2 2 14
v 3 1 16
v 3 1 15
v 3 2 16
v 3 2 15
v 3 2 14
v 3 2 13
v 3 3 14
v 3 3 13
v 4 2 16
v 4 2 14
v 4 3 16
v 4 3 14
v 5 1 -10
v 5 1 -16
v 5 2 3
v 5 2 -8
v 5 2 -10
v 5 2 -16
v 5 3 3
v 5 3 -8
v 6 2 -9
v 6 2 -16
v 6 3 -9
v 6 3 -16
v 8 3 -0
v 8 3 -2
v 8 4 -0
v 8 4 -2
v 9 3 1
v 9 3 -0
v 9 3 -2
v 9 3 -3
v 9 4 1
v 9 4 -0
v 9 4 -2
v 9 4 -3
v 11 2 8
v 11 2 7
v 11 3 8
v 11 3 7
v 12 2 16
v 12 2 8
v 12 3 16
v 12 3 8
v 12 3 2
v 12 3 1
v 12 3 -3
v 12 3 -4
v 12 4 2
v 12 4 1
v 12 4 -3
v 12 4 -4
v 14 3 3
v 14 3 2
v 14 3 -4
v 14 3 -6
v 14 4 3
v 14 4 2
v 14 4 -4
v 14 4 -6
v -6 2 14
v -6 2 13
v -6 3 14
v -6 3 13
v -5 2 15
v -5 2 14
v -5 3 15
v -5 3 14
v -4 1 14
v -4 1 12
v -4 2 16
v -4 2 15
v -4 2 14
v -4 2 12
v -4 3 16
v -4 3 15
v -3 1 15
v -3 1 14
v -3 2 15
v -3 2 14
v -2 1 16
v -2 1 15
v -2 2 16
v -2 2 15
v -1 2 3
v -1 2 -0
v -1 3 3
v -1 3 -0
v 2 2 -12
v 2 2 -16
v 2 3 -12
v 2 3 -16
v 3 1 -11
v 3 1 -16
v 3 2 -11
v 3 2 -16
v 4 2 10
v 4 2 8
v 4 3 10
v 4 3 8
v 5 2 11
v 5 2 10
v 5 2 8
v 5 2 7
v 5 3 11
v 5 3 10
v 5 3 8
v 5 3 7
v 10 2 16
v 10 2 11
v 10 3 16
v 10 3 11
v 16 0 16
v 16 0 -16
v 16 2 16
v 16 2 -16
v 16 3 16
v 16 3 3
v 16 3 -6
v 16 3 -16
v 16 4 3
v 16 4 -6
v -16 0 16
v -16 2 16
v -16 3 16
v -4 2 16
v -4 3 16
v -2 1 16
v -2 2 16
v 3 1 16
v 3 2 16
v 4 2 16
v 4 3 16
v 10 2 16
v 10 3 16
v 12 2 16
v 12 3 16
v 16 0 16
v 16 2 16
v 16 3 16
v 2 1 15
v 2 2 15
v 3 1 15
v 3 2 15
v -1 1 14
v -1 2 14
v 2 1 14
v 2 2 14
v 3 2 14
v 3 3 14
v 4 2 14
v 4 3 14
v -2 1 13
v -2 2 13
v -1 1 13
v -1 2 13
v 0 2 13
v 0 3 13
v 3 2 13
v 3 3 13
v -3 1 12
v -3 2 12
v -2 1 12
v -2 2 12
v -1 2 12
v -1 3 12
v 0 2 12
v 0 3 12
v -2 2 11
v -2 3 11
v -1 2 11
v -1 3 11
v -16 1 8
v -16 2 8
v -3 1 8
v -3 2 8
v 4 2 8
v 4 3 8
v 5 2 8
v 5 3 8
v 11 2 8
v 11 3 8
v 12 2 8
v 12 3 8
v 5 2 7
v 5 3 7
v 11 2 7
v 11 3 7
v -16 2 6
v -16 3 6
v -2 2 6
v -2 3 6
v 14 3 3
v 14 4 3
v 16 3 3
v 16 4 3
v 12 3 2
v 12 4 2
v 14 3 2
v 14 4 2
v 9 3 1
v 9 4 1
v 12 3 1
v 12 4 1
v 8 3 -0
v 8 4 -0
v 9 3 -0
v 9 4 -0
v 0 2 -8
v 0 3 -8
v 5 2 -8
v 5 3 -8
v -1 1 -11
v -1 2 -11
v 3 1 -11
v 3 2 -11
v -16 1 -12
v -16 2 -12
v -1 1 -12
v -1 2 -12
v 0 2 -12
v 0 3 -12
v 2 2 -12
v 2 3 -12
v -16 2 -13
v -16 3 -13
v 0 2 -13
v 0 3 -13
v -5 2 15
v -5 3 15
v -4 2 15
v -4 3 15
v -3 1 15
v -3 2 15
v -2 1 15
v -2 2 15
v -6 2 14
v -6 3 14
v -5 2 14
v -5 3 14
v -4 1 14
v -4 2 14
v -3 1 14
v -3 2 14
v -16 2 13
v -16 3 13
v -6 2 13
v -6 3 13
v -16 1 12
v -16 2 12
v -4 1 12
v -4 2 12
v 5 2 11
v 5 3 11
v 10 2 11
v 10 3 11
v 4 2 10
v 4 3 10
v 5 2 10
v 5 3 10
v -1 2 3
v -1 3 3
v 5 2 3
v 5 3 3
v -16 2 -0
v -16 3 -0
v -1 2 -0
v -1 3 -0
v -16 1 -1
v -16 2 -1
v -12 1 -1
v -12 2 -1
v -12 1 -2
v -12 2 -2
v -5 1 -2
v -5 2 -2
v 8 3 -2
v 8 4 -2
v 9 3 -2
v 9 4 -2
v -5 1 -3
v -5 2 -3
v -4 1 -3
v -4 2 -3
v 9 3 -3
v 9 4 -3
v 12 3 -3
v 12 4 -3
v -4 1 -4
v -4 2 -4
v -3 1 -4
v -3 2 -4
v 12 3 -4
v 12 4 -4
v 14 3 -4
v 14 4 -4
v 14 3 -6
v 14 4 -6
v 16 3 -6
v 16 4 -6
v -3 1 -7
v -3 2 -7
v -2 1 -7
v -2 2 -7
v -2 1 -8
v -2 2 -8
v -1 1 -8
v -1 2 -8
v -1 1 -9
v -1 2 -9
v 0 1 -9
v 0 2 -9
v 0 3 -9
v 6 2 -9
v 6 3 -9
v 0 1 -10
v 0 2 -10
v 5 1 -10
v 5 2 -10
v -16 0 -16
v -16 2 -16
v -16 3 -16
v 2 2 -16
v 2 3 -16
v 3 1 -16
v 3 2 -16
v 5 1 -16
v 5 2 -16
v 6 2 -16
v 6 3 -16
v 16 0 -16
v 16 2 -16
v 16 3 -16
v -16 0 16
v 16 0 16
v -16 0 -16
v 16 0 -16
v -2 1 16
v 3 1 16
v -3 1 15
v -2 1 15
v 2 1 15
v 3 1 15
v -4 1 14
v -3 1 14
v -1 1 14
v 2 1 14
v -2 1 13
v -1 1 13
v -16 1 12
v -4 1 12
v -3 1 12
v -2 1 12
v -16 1 8
v -3 1 8
v -16 1 -1
v -12 1 -1
v -12 1 -2
v -5 1 -2
v -5 1 -3
v -4 1 -3
v -4 1 -4
v -3 1 -4
v -3 1 -7
v -2 1 -7
v -2 1 -8
v -1 1 -8
v -1 1 -9
v 0 1 -9
v 0 1 -10
v 5 1 -10
v -1 1 -11
v 3 1 -11
v -16 1 -12
v -1 1 -12
v 3 1 -16
v 5 1 -16
v -4 2 16
v -2 2 16
v 3 2 16
v 4 2 16
v 10 2 16
v 12 2 16
v -5 2 15
v -4 2 15
v -3 2 15
v -2 2 15
v 2 2 15
v 3 2 15
v -6 2 14
v -5 2 14
v -4 2 14
v -3 2 14
v -1 2 14
v 2 2 14
v 3 2 14
v 4 2 14
v -16 2 13
v -6 2 13
v -2 2 13
v -1 2 13
v 0 2 13
v 3 2 13
v -16 2 12
v -4 2 12
v -3 2 12
v -2 2 12
v -1 2 12
v 0 2 12
v -2 2 11
v -1 2 11
v 5 2 11
v 10 2 11
v 4 2 10
v 5 2 10
v -16 2 8
v -3 2 8
v 4 2 8
v 5 2 8
v 11 2 8
v 12 2 8
v 5 2 7
v 11 2 7
v -16 2 6
v -2 2 6
v -1 2 3
v 5 2 3
v -16 2 -0
v -1 2 -0
v -16 2 -1
v -12 2 -1
v -12 2 -2
v -5 2 -2
v -5 2 -3
v -4 2 -3
v -4 2 -4
v -3 2 -4
v -3 2 -7
v -2 2 -7
v -2 2 -8
v -1 2 -8
v 0 2 -8
v 5 2 -8
v -1 2 -9
v 0 2 -9
v 6 2 -9
v 0 2 -10
v 5 2 -10
v -1 2 -11
v 3 2 -11
v -16 2 -12
v -1 2 -12
v 0 2 -12
v 2 2 -12
v -16 2 -13
v 0 2 -13
v 2 2 -16
v 3 2 -16
v 5 2 -16
v 6 2 -16
v -16 3 16
v -4 3 16
v 4 3 16
v 10 3 16
v 12 3 16
v 16 3 16
v -5 3 15
v -4 3 15
v -6 3 14
v -5 3 14
v 3 3 14
v 4 3 14
v -16 3 13
v -6 3 13
v 0 3 13
v 3 3 13
v -1 3 12
v 0 3 12
v -2 3 11
v -1 3 11
v 5 3 11
v 10 3 11
v 4 3 10
v 5 3 10
v 4 3 8
v 5 3 8
v 11 3 8
v 12 3 8
v 5 3 7
v 11 3 7
v -16 3 6
v -2 3 6
v -1 3 3
v 5 3 3
v 14 3 3
v 16 3 3
v 12 3 2
v 14 3 2
v 9 3 1
v 12 3 1
v -16 3 -0
v -1 3 -0
v 8 3 -0
v 9 3 -0
v 8 3 -2
v 9 3 -2
v 9 3 -3
v 12 3 -3
v 12 3 -4
v 14 3 -4
v 14 3 -6
v 16 3 -6
v 0 3 -8
v 5 3 -8
v 0 3 -9
v 6 3 -9
v 0 3 -12
v 2 3 -12
v -16 3 -13
v 0 3 -13
v -16 3 -16
v 2 3 -16
v 6 3 -16
v 16 3 -16
v 14 4 3
v 16 4 3
v 12 4 2
v 14 4 2
v 9 4 1
v 12 4 1
v 8 4 -0
v 9 4 -0
v 8 4 -2
v 9 4 -2
v 9 4 -3
v 12 4 -3
v 12 4 -4
v 14 4 -4
v 14 4 -6
v 16 4 -6

# faces
f 3/2/1 2/2/1 1/2/1
f 4/2/1 2/2/1 3/2/1
f 5/2/1 2/2/1 4/2/1
f 6/2/1 2/2/1 5/2/1
f 7/2/1 3/2/1 1/2/1
f 8/2/1 3/2/1 7/2/1
f 9/2/1 3/2/1 8/2/1
f 10/2/1 5/2/1 4/2/1
f 11/2/1 5/2/1 10/2/1
f 12/2/1 5/2/1 11/2/1
f 13/2/1 5/2/1 12/2/1
f 14/2/1 2/2/1 6/2/1
f 15/2/1 2/2/1 14/2/1
f 16/2/1 2/2/1 15/2/1
f 17/1/1 8/1/1 7/1/1
f 18/1/1 8/1/1 17/1/1
f 19/1/1 12/1/1 11/1/1
f 20/1/1 12/1/1 19/1/1
f 21/1/1 16/1/1 15/1/1
f 22/1/1 16/1/1 21/1/1
f 25/2/1 24/2/1 23/2/1
f 26/2/1 24/2/1 25/2/1
f 29/2/1 28/2/1 27/2/1
f 30/2/1 28/2/1 29/2/1
f 33/2/1 32/2/1 31/2/1
f 34/2/1 32/2/1 33/2/1
f 39/2/1 36/2/1 35/2/1
f 40/2/1 36/2/1 39/2/1
f 41/2/1 38/2/1 37/2/1
f 42/2/1 38/2/1 41/2/1
f 47/2/1 44/2/1 43/2/1
f 48/2/1 44/2/1 47/2/1
f 51/2/1 46/2/1 45/2/1
f 52/2/1 46/2/1 51/2/1
f 53/1/1 50/1/1 49/1/1
f 54/1/1 50/1/1 53/1/1
f 61/2/1 56/2/1 55/2/1
f 62/2/1 56/2/1 61/2/1
f 65/2/1 58/2/1 57/2/1
f 66/2/1 58/2/1 65/2/1
f 67/2/1 60/2/1 59/2/1
f 68/2/1 60/2/1 67/2/1
f 69/1/1 64/1/1 63/1/1
f 70/1/1 64/1/1 69/1/1
f 76/2/1 72/2/1 71/2/1
f 77/2/1 72/2/1 76/2/1
f 80/1/1 74/1/1 73/1/1
f 81/1/1 74/1/1 80/1/1
f 82/1/1 76/1/1 75/1/1
f 83/1/1 76/1/1 82/1/1
f 84/1/1 79/1/1 78/1/1
f 85/1/1 79/1/1 84/1/1
f 88/2/1 87/2/1 86/2/1
f 89/2/1 87/2/1 88/2/1
f 92/2/1 91/2/1 90/2/1
f 93/2/1 91/2/1 92/2/1
f 96/1/1 95/1/1 94/1/1
f 97/1/1 95/1/1 96/1/1
f 100/1/1 99/1/1 98/1/1
f 101/1/1 99/1/1 100/1/1
f 106/2/1 103/2/1 102/2/1
f 107/2/1 103/2/1 106/2/1
f 108/1/1 105/1/1 104/1/1
f 109/1/1 105/1/1 108/1/1
f 112/1/1 111/1/1 110/1/1
f 113/1/1 111/1/1 112/1/1
f 116/1/1 115/1/1 114/1/1
f 117/1/1 115/1/1 116/1/1
f 122/1/1 119/1/1 118/1/1
f 123/1/1 119/1/1 122/1/1
f 124/1/1 121/1/1 120/1/1
f 125/1/1 121/1/1 124/1/1
f 128/1/1 127/1/1 126/1/1
f 129/1/1 127/1/1 128/1/1
f 132/1/1 131/1/1 130/1/1
f 133/1/1 131/1/1 132/1/1
f 138/1/1 135/1/1 134/1/1
f 139/1/1 135/1/1 138/1/1
f 140/1/1 137/1/1 136/1/1
f 141/1/1 137/1/1 140/1/1
f 146/1/1 143/1/1 142/1/1
f 147/1/1 143/1/1 146/1/1
f 148/1/1 145/1/1 144/1/1
f 149/1/1 145/1/1 148/1/1
f 150/1/2 151/1/2 152/1/2
f 152/1/2 151/1/2 153/1/2
f 154/1/2 155/1/2 156/1/2
f 156/1/2 155/1/2 157/1/2
f 158/2/2 159/2/2 162/2/2
f 162/2/2 159/2/2 163/2/2
f 160/1/2 161/1/2 164/1/2
f 164/1/2 161/1/2 165/1/2
f 166/2/2 167/2/2 168/2/2
f 168/2/2 167/2/2 169/2/2
f 170/2/2 171/2/2 172/2/2
f 172/2/2 171/2/2 173/2/2
f 174/1/2 175/1/2 176/1/2
f 176/1/2 175/1/2 177/1/2
f 178/1/2 179/1/2 180/1/2
f 180/1/2 179/1/2 181/1/2
f 182/2/2 183/2/2 184/2/2
f 184/2/2 183/2/2 185/2/2
f 186/1/2 187/1/2 188/1/2
f 188/1/2 187/1/2 189/1/2
f 190/1/2 191/1/2 194/1/2
f 194/1/2 191/1/2 195/1/2
f 192/1/2 193/1/2 196/1/2
f 196/1/2 193/1/2 197/1/2
f 198/1/2 199/1/2 200/1/2
f 200/1/2 199/1/2 201/1/2
f 202/2/2 203/2/2 204/2/2
f 204/2/2 203/2/2 205/2/2
f 204/1/2 205/1/2 206/1/2
f 206/1/2 205/1/2 207/1/2
f 207/1/2 205/1/2 208/1/2
f 208/1/2 205/1/2 209/1/2
f 207/1/2 208/1/2 210/1/2
f 210/1/2 208/1/2 211/1/2
f 215/2/3 213/2/3 212/2/3
f 215/1/3 214/1/3 213/1/3
f 216/1/3 214/1/3 215/1/3
f 217/2/3 215/2/3 212/2/3
f 218/2/3 215/2/3 217/2/3
f 219/2/3 217/2/3 212/2/3
f 221/2/3 220/2/3 219/2/3
f 223/2/3 221/2/3 219/2/3
f 223/1/3 222/1/3 221/1/3
f 224/1/3 222/1/3 223/1/3
f 225/2/3 223/2/3 219/2/3
f 227/2/3 219/2/3 212/2/3
f 227/2/3 225/2/3 219/2/3
f 228/1/3 226/1/3 225/1/3
f 228/2/3 225/2/3 227/2/3
f 229/1/3 226/1/3 228/1/3
f 232/2/3 231/2/3 230/2/3
f 233/2/3 231/2/3 232/2/3
f 236/2/3 235/2/3 234/2/3
f 237/2/3 235/2/3 236/2/3
f 240/1/3 239/1/3 238/1/3
f 241/1/3 239/1/3 240/1/3
f 244/2/3 243/2/3 242/2/3
f 245/2/3 243/2/3 244/2/3
f 248/1/3 247/1/3 246/1/3
f 249/1/3 247/1/3 248/1/3
f 252/2/3 251/2/3 250/2/3
f 253/2/3 251/2/3 252/2/3
f 256/1/3 255/1/3 254/1/3
f 257/1/3 255/1/3 256/1/3
f 260/1/3 259/1/3 258/1/3
f 261/1/3 259/1/3 260/1/3
f 264/2/3 263/2/3 262/2/3
f 265/2/3 263/2/3 264/2/3
f 268/1/3 267/1/3 266/1/3
f 269/1/3 267/1/3 268/1/3
f 272/1/3 271/1/3 270/1/3
f 273/1/3 271/1/3 272/1/3
f 276/1/3 275/1/3 274/1/3
f 277/1/3 275/1/3 276/1/3
f 280/1/3 279/1/3 278/1/3
f 281/1/3 279/1/3 280/1/3
f 284/1/3 283/1/3 282/1/3
f 285/1/3 283/1/3 284/1/3
f 288/1/3 287/1/3 286/1/3
f 289/1/3 287/1/3 288/1/3
f 292/1/3 291/1/3 290/1/3
f 293/1/3 291/1/3 292/1/3
f 296/1/3 295/1/3 294/1/3
f 297/1/3 295/1/3 296/1/3
f 300/1/3 299/1/3 298/1/3
f 301/1/3 299/1/3 300/1/3
f 304/2/3 303/2/3 302/2/3
f 305/2/3 303/2/3 304/2/3
f 308/2/3 307/2/3 306/2/3
f 309/2/3 307/2/3 308/2/3
f 312/1/3 311/1/3 310/1/3
f 313/1/3 311/1/3 312/1/3
f 316/1/3 315/1/3 314/1/3
f 317/1/3 315/1/3 316/1/3
f 318/1/4 319/1/4 320/1/4
f 320/1/4 319/1/4 321/1/4
f 322/2/4 323/2/4 324/2/4
f 324/2/4 323/2/4 325/2/4
f 326/1/4 327/1/4 328/1/4
f 328/1/4 327/1/4 329/1/4
f 330/2/4 331/2/4 332/2/4
f 332/2/4 331/2/4 333/2/4
f 334/1/4 335/1/4 336/1/4
f 336/1/4 335/1/4 337/1/4
f 338/2/4 339/2/4 340/2/4
f 340/2/4 339/2/4 341/2/4
f 342/1/4 343/1/4 344/1/4
f 344/1/4 343/1/4 345/1/4
f 346/1/4 347/1/4 348/1/4
f 348/1/4 347/1/4 349/1/4
f 350/1/4 351/1/4 352/1/4
f 352/1/4 351/1/4 353/1/4
f 354/1/4 355/1/4 356/1/4
f 356/1/4 355/1/4 357/1/4
f 358/2/4 359/2/4 360/2/4
f 360/2/4 359/2/4 361/2/4
f 362/2/4 363/2/4 364/2/4
f 364/2/4 363/2/4 365/2/4
f 366/1/4 367/1/4 368/1/4
f 368/1/4 367/1/4 369/1/4
f 370/2/4 371/2/4 372/2/4
f 372/2/4 371/2/4 373/2/4
f 374/1/4 375/1/4 376/1/4
f 376/1/4 375/1/4 377/1/4
f 378/2/4 379/2/4 380/2/4
f 380/2/4 379/2/4 381/2/4
f 382/1/4 383/1/4 384/1/4
f 384/1/4 383/1/4 385/1/4
f 386/1/4 387/1/4 388/1/4
f 388/1/4 387/1/4 389/1/4
f 390/2/4 391/2/4 392/2/4
f 392/2/4 391/2/4 393/2/4
f 394/2/4 395/2/4 396/2/4
f 396/2/4 395/2/4 397/2/4
f 398/2/4 399/2/4 400/2/4
f 400/2/4 399/2/4 401/2/4
f 401/1/4 402/1/4 403/1/4
f 403/1/4 402/1/4 404/1/4
f 405/2/4 406/2/4 407/2/4
f 407/2/4 406/2/4 408/2/4
f 409/2/4 410/2/4 412/2/4
f 410/1/4 411/1/4 412/1/4
f 412/1/4 411/1/4 413/1/4
f 409/2/4 412/2/4 414/2/4
f 414/2/4 412/2/4 415/2/4
f 409/2/4 414/2/4 416/2/4
f 416/2/4 417/2/4 418/2/4
f 416/2/4 418/2/4 420/2/4
f 409/2/4 416/2/4 420/2/4
f 418/1/4 419/1/4 421/1/4
f 420/2/4 418/2/4 421/2/4
f 421/1/4 419/1/4 422/1/4
f 425/2/5 424/2/5 423/2/5
f 426/2/5 424/2/5 425/2/5
f 427/2/6 428/2/6 430/2/6
f 430/2/6 428/2/6 431/2/6
f 431/2/6 428/2/6 432/2/6
f 429/2/6 430/2/6 434/2/6
f 430/2/6 431/2/6 434/2/6
f 434/2/6 431/2/6 435/2/6
f 435/2/6 431/2/6 436/2/6
f 433/2/6 434/2/6 437/2/6
f 434/2/6 435/2/6 437/2/6
f 437/2/6 435/2/6 438/2/6
f 433/2/6 437/2/6 440/2/6
f 440/2/6 437/2/6 441/2/6
f 441/2/6 437/2/6 442/2/6
f 439/2/6 440/2/6 443/2/6
f 440/2/6 441/2/6 443/2/6
f 443/2/6 441/2/6 444/2/6
f 445/2/6 446/2/6 447/2/6
f 447/2/6 448/2/6 449/2/6
f 449/2/6 450/2/6 451/2/6
f 451/2/6 452/2/6 453/2/6
f 453/2/6 454/2/6 455/2/6
f 455/2/6 456/2/6 457/2/6
f 457/2/6 458/2/6 459/2/6
f 457/2/6 459/2/6 461/2/6
f 459/2/6 460/2/6 461/2/6
f 455/2/6 457/2/6 461/2/6
f 461/2/6 460/2/6 462/2/6
f 447/2/6 449/2/6 463/2/6
f 449/2/6 451/2/6 463/2/6
f 455/2/6 461/2/6 463/2/6
f 451/2/6 453/2/6 463/2/6
f 445/2/6 447/2/6 463/2/6
f 453/2/6 455/2/6 463/2/6
f 463/2/6 461/2/6 464/2/6
f 462/2/6 460/2/6 465/2/6
f 465/2/6 460/2/6 466/2/6
f 467/2/6 468/2/6 474/2/6
f 474/2/6 468/2/6 475/2/6
f 475/2/6 468/2/6 476/2/6
f 469/2/6 470/2/6 478/2/6
f 473/2/6 474/2/6 480/2/6
f 474/2/6 475/2/6 480/2/6
f 480/2/6 475/2/6 481/2/6
f 481/2/6 475/2/6 482/2/6
f 477/2/6 478/2/6 484/2/6
f 478/2/6 470/2/6 485/2/6
f 484/2/6 478/2/6 485/2/6
f 485/2/6 470/2/6 486/2/6
f 479/2/6 480/2/6 488/2/6
f 480/2/6 481/2/6 488/2/6
f 483/2/6 484/2/6 490/2/6
f 484/2/6 485/2/6 490/2/6
f 490/2/6 485/2/6 491/2/6
f 491/2/6 485/2/6 492/2/6
f 487/2/6 488/2/6 493/2/6
f 488/2/6 481/2/6 494/2/6
f 493/2/6 488/2/6 494/2/6
f 489/2/6 490/2/6 496/2/6
f 490/2/6 491/2/6 496/2/6
f 496/2/6 491/2/6 497/2/6
f 497/2/6 491/2/6 498/2/6
f 495/2/6 496/2/6 499/2/6
f 496/2/6 497/2/6 499/2/6
f 499/2/6 497/2/6 500/2/6
f 471/2/6 472/2/6 502/2/6
f 501/2/6 502/2/6 504/2/6
f 495/2/6 499/2/6 506/2/6
f 503/2/6 504/2/6 507/2/6
f 504/2/6 502/2/6 508/2/6
f 507/2/6 504/2/6 508/2/6
f 502/2/6 472/2/6 509/2/6
f 508/2/6 502/2/6 509/2/6
f 509/2/6 472/2/6 510/2/6
f 508/2/6 509/2/6 511/2/6
f 511/2/6 509/2/6 512/2/6
f 505/2/6 506/2/6 513/2/6
f 506/2/6 499/2/6 514/2/6
f 513/2/6 506/2/6 514/2/6
f 515/2/6 516/2/6 518/2/6
f 517/2/6 518/2/6 519/2/6
f 519/2/6 518/2/6 520/2/6
f 520/2/6 518/2/6 521/2/6
f 521/2/6 518/2/6 522/2/6
f 522/2/6 518/2/6 523/2/6
f 523/2/6 518/2/6 524/2/6
f 524/2/6 518/2/6 525/2/6
f 525/2/6 518/2/6 526/2/6
f 526/2/6 518/2/6 527/2/6
f 527/2/6 518/2/6 528/2/6
f 528/2/6 518/2/6 529/2/6
f 518/2/6 516/2/6 530/2/6
f 529/2/6 518/2/6 530/2/6
f 530/2/6 516/2/6 531/2/6
f 531/2/6 516/2/6 532/2/6
f 530/2/6 531/2/6 533/2/6
f 533/2/6 531/2/6 534/2/6
f 534/2/6 535/2/6 536/2/6
f 536/2/6 535/2/6 537/2/6
f 538/2/6 539/2/6 541/2/6
f 541/2/6 539/2/6 542/2/6
f 542/2/6 539/2/6 543/2/6
f 540/2/6 541/2/6 544/2/6
f 541/2/6 542/2/6 544/2/6
f 544/2/6 542/2/6 545/2/6
f 543/2/6 539/2/6 546/2/6
f 546/2/6 539/2/6 547/2/6
f 537/2/6 535/2/6 548/2/6
f 548/2/6 535/2/6 549/2/6
f 550/1/6 551/1/6 556/1/6
f 556/1/6 551/1/6 557/1/6
f 550/1/6 556/1/6 558/1/6
f 558/1/6 556/1/6 559/1/6
f 552/1/6 553/1/6 561/1/6
f 550/1/6 558/1/6 562/1/6
f 562/1/6 558/1/6 563/1/6
f 560/1/6 561/1/6 565/1/6
f 564/1/6 565/1/6 567/1/6
f 566/1/6 567/1/6 569/1/6
f 565/1/6 561/1/6 570/1/6
f 561/1/6 553/1/6 570/1/6
f 569/1/6 567/1/6 570/1/6
f 567/1/6 565/1/6 570/1/6
f 570/1/6 553/1/6 571/1/6
f 568/1/6 569/1/6 572/1/6
f 569/1/6 570/1/6 572/1/6
f 572/1/6 570/1/6 573/1/6
f 568/1/6 572/1/6 574/1/6
f 554/1/6 555/1/6 577/1/6
f 574/1/6 575/1/6 578/1/6
f 576/1/6 577/1/6 579/1/6
f 568/1/6 574/1/6 581/1/6
f 578/1/6 579/1/6 581/1/6
f 574/1/6 578/1/6 581/1/6
f 581/1/6 579/1/6 582/1/6
f 580/1/6 581/1/6 582/1/6
f 582/1/6 579/1/6 583/1/6
f 579/1/6 577/1/6 584/1/6
f 583/1/6 579/1/6 584/1/6
f 577/1/6 555/1/6 584/1/6
f 584/1/6 555/1/6 585/1/6
f 583/1/6 584/1/6 586/1/6
f 586/1/6 584/1/6 587/1/6
f 583/1/6 586/1/6 588/1/6
f 588/1/6 586/1/6 589/1/6
f 580/1/6 582/1/6 590/1/6
f 590/1/6 582/1/6 591/1/6
f 583/1/6 588/1/6 592/1/6
f 592/1/6 588/1/6 593/1/6
f 583/1/6 592/1/6 594/1/6
f 594/1/6 595/1/6 596/1/6
f 596/1/6 597/1/6 598/1/6
f 598/1/6 599/1/6 600/1/6
f 596/1/6 598/1/6 603/1/6
f 600/1/6 601/1/6 603/1/6
f 583/1/6 594/1/6 603/1/6
f 598/1/6 600/1/6 603/1/6
f 594/1/6 596/1/6 603/1/6
f 602/1/6 603/1/6 604/1/6
f 603/1/6 601/1/6 605/1/6
f 604/1/6 603/1/6 605/1/6
f 606/1/6 607/1/6 609/1/6
f 608/1/6 609/1/6 610/1/6
f 609/1/6 607/1/6 611/1/6
f 610/1/6 609/1/6 611/1/6
f 605/1/6 601/1/6 612/1/6
f 612/1/6 601/1/6 613/1/6
f 614/1/6 615/1/6 617/1/6
f 616/1/6 617/1/6 619/1/6
f 618/1/6 619/1/6 621/1/6
f 620/1/6 621/1/6 622/1/6
f 621/1/6 619/1/6 623/1/6
f 622/1/6 621/1/6 623/1/6
f 623/1/6 619/1/6 624/1/6
f 619/1/6 617/1/6 625/1/6
f 624/1/6 619/1/6 625/1/6
f 625/1/6 617/1/6 626/1/6
f 617/1/6 615/1/6 627/1/6
f 626/1/6 617/1/6 627/1/6
f 627/1/6 615/1/6 628/1/6
f 628/1/6 615/1/6 629/1/6
