# MagicaVoxel @ Ephtracy

# group
g GrassTile2.2

# material
mtllib GrassTile2.2.mtl
usemtl palette

# normals
vn -1 0 0
vn 1 0 0
vn 0 0 1
vn 0 0 -1
vn 0 -1 0
vn 0 1 0

# texcoords
vt 0.892578 0.5
vt 0.896484 0.5

# verts
v -16 0 16
v -16 0 -16
v -16 2 16
v -16 2 9
v -16 2 -16
v -16 3 9
v -16 3 6
v -16 3 -3
v -16 3 -16
v -16 4 6
v -16 4 4
v -16 4 -0
v -16 4 -3
v -16 5 4
v -16 5 -0
v -13 2 11
v -13 2 9
v -13 3 11
v -13 3 9
v -11 2 15
v -11 2 11
v -11 3 15
v -11 3 11
v -9 1 -7
v -9 1 -10
v -9 2 -7
v -9 2 -10
v -9 2 -15
v -9 2 -16
v -9 3 7
v -9 3 6
v -9 3 -15
v -9 3 -16
v -9 4 7
v -9 4 6
v -8 1 -6
v -8 1 -7
v -8 2 16
v -8 2 15
v -8 2 -6
v -8 2 -7
v -8 2 -13
v -8 2 -15
v -8 3 16
v -8 3 15
v -8 3 8
v -8 3 7
v -8 3 -13
v -8 3 -15
v -8 4 8
v -8 4 7
v -7 1 -5
v -7 1 -6
v -7 2 -5
v -7 2 -6
v -7 2 -12
v -7 2 -13
v -7 3 9
v -7 3 8
v -7 3 -12
v -7 3 -13
v -7 4 9
v -7 4 8
v -6 2 -10
v -6 2 -12
v -6 3 16
v -6 3 9
v -6 3 -10
v -6 3 -12
v -6 4 16
v -6 4 9
v -5 1 -3
v -5 1 -5
v -5 2 -3
v -5 2 -5
v -5 2 -7
v -5 2 -10
v -5 3 -7
v -5 3 -10
v -4 2 -2
v -4 2 -7
v -4 3 -2
v -4 3 -7
v 9 1 -9
v 9 1 -15
v 9 2 -9
v 9 2 -15
v 10 1 16
v 10 1 -3
v 10 1 -6
v 10 1 -9
v 10 2 16
v 10 2 -3
v 10 2 -6
v 10 2 -9
v 10 2 -11
v 10 2 -16
v 10 3 -11
v 10 3 -16
v 11 2 16
v 11 2 -2
v 11 3 16
v 11 3 -2
v 12 1 -5
v 12 1 -6
v 12 2 -5
v 12 2 -6
v 13 2 -6
v 13 2 -11
v 13 3 -6
v 13 3 -11
v -15 3 -2
v -15 3 -3
v -15 4 -2
v -15 4 -3
v -14 3 -1
v -14 3 -2
v -14 4 -1
v -14 4 -2
v -13 2 -2
v -13 2 -11
v -13 3 -2
v -13 3 -11
v -12 1 -3
v -12 1 -10
v -12 2 -3
v -12 2 -10
v -11 2 -13
v -11 2 -16
v -11 3 -13
v -11 3 -16
v -10 2 -12
v -10 2 -13
v -10 3 -12
v -10 3 -13
v -9 2 -11
v -9 2 -12
v -9 3 -11
v -9 3 -12
v -6 3 -0
v -6 3 -1
v -6 4 -0
v -6 4 -1
v -5 3 1
v -5 3 -0
v -5 4 4
v -5 4 1
v -5 5 4
v -5 5 -0
v -4 3 9
v -4 3 1
v -4 4 9
v -4 4 1
v -2 3 12
v -2 3 9
v -2 4 12
v -2 4 9
v -1 3 16
v -1 3 12
v -1 4 16
v -1 4 12
v 2 2 -6
v 2 2 -16
v 2 3 -6
v 2 3 -16
v 3 1 -7
v 3 1 -15
v 3 2 -7
v 3 2 -15
v 4 2 16
v 4 2 -6
v 4 3 16
v 4 3 -6
v 5 1 15
v 5 1 -7
v 5 2 15
v 5 2 -7
v 8 1 16
v 8 1 15
v 8 2 16
v 8 2 15
v 16 0 16
v 16 0 -16
v 16 1 -3
v 16 1 -5
v 16 2 16
v 16 2 -2
v 16 2 -3
v 16 2 -5
v 16 2 -6
v 16 2 -16
v 16 3 16
v 16 3 -2
v 16 3 -6
v 16 3 -16
v -16 0 16
v -16 2 16
v -8 2 16
v -8 3 16
v -6 3 16
v -6 4 16
v -1 3 16
v -1 4 16
v 4 2 16
v 4 3 16
v 8 1 16
v 8 2 16
v 10 1 16
v 10 2 16
v 11 2 16
v 11 3 16
v 16 0 16
v 16 2 16
v 16 3 16
v -11 2 15
v -11 3 15
v -8 2 15
v -8 3 15
v -13 2 11
v -13 3 11
v -11 2 11
v -11 3 11
v -16 2 9
v -16 3 9
v -13 2 9
v -13 3 9
v -7 3 9
v -7 4 9
v -6 3 9
v -6 4 9
v -8 3 8
v -8 4 8
v -7 3 8
v -7 4 8
v -9 3 7
v -9 4 7
v -8 3 7
v -8 4 7
v -16 3 6
v -16 4 6
v -9 3 6
v -9 4 6
v -16 4 4
v -16 5 4
v -5 4 4
v -5 5 4
v -7 1 -5
v -7 2 -5
v -5 1 -5
v -5 2 -5
v 12 1 -5
v 12 2 -5
v 16 1 -5
v 16 2 -5
v -8 1 -6
v -8 2 -6
v -7 1 -6
v -7 2 -6
v 10 1 -6
v 10 2 -6
v 12 1 -6
v 12 2 -6
v 13 2 -6
v 13 3 -6
v 16 2 -6
v 16 3 -6
v -9 1 -7
v -9 2 -7
v -8 1 -7
v -8 2 -7
v -5 2 -7
v -5 3 -7
v -4 2 -7
v -4 3 -7
v 9 1 -9
v 9 2 -9
v 10 1 -9
v 10 2 -9
v -12 1 -10
v -12 2 -10
v -9 1 -10
v -9 2 -10
v -6 2 -10
v -6 3 -10
v -5 2 -10
v -5 3 -10
v -13 2 -11
v -13 3 -11
v -9 2 -11
v -9 3 -11
v 10 2 -11
v 10 3 -11
v 13 2 -11
v 13 3 -11
v -7 2 -12
v -7 3 -12
v -6 2 -12
v -6 3 -12
v -8 2 -13
v -8 3 -13
v -7 2 -13
v -7 3 -13
v -9 2 -15
v -9 3 -15
v -8 2 -15
v -8 3 -15
v 3 1 -15
v 3 2 -15
v 9 1 -15
v 9 2 -15
v 5 1 15
v 5 2 15
v 8 1 15
v 8 2 15
v -2 3 12
v -2 4 12
v -1 3 12
v -1 4 12
v -4 3 9
v -4 4 9
v -2 3 9
v -2 4 9
v -5 3 1
v -5 4 1
v -4 3 1
v -4 4 1
v -16 4 -0
v -16 5 -0
v -6 3 -0
v -6 4 -0
v -5 3 -0
v -5 5 -0
v -14 3 -1
v -14 4 -1
v -6 3 -1
v -6 4 -1
v -15 3 -2
v -15 4 -2
v -14 3 -2
v -14 4 -2
v -13 2 -2
v -13 3 -2
v -4 2 -2
v -4 3 -2
v 11 2 -2
v 11 3 -2
v 16 2 -2
v 16 3 -2
v -16 3 -3
v -16 4 -3
v -15 3 -3
v -15 4 -3
v -12 1 -3
v -12 2 -3
v -5 1 -3
v -5 2 -3
v 10 1 -3
v 10 2 -3
v 16 1 -3
v 16 2 -3
v 2 2 -6
v 2 3 -6
v 4 2 -6
v 4 3 -6
v 3 1 -7
v 3 2 -7
v 5 1 -7
v 5 2 -7
v -10 2 -12
v -10 3 -12
v -9 2 -12
v -9 3 -12
v -11 2 -13
v -11 3 -13
v -10 2 -13
v -10 3 -13
v -16 0 -16
v -16 2 -16
v -16 3 -16
v -11 2 -16
v -11 3 -16
v -9 2 -16
v -9 3 -16
v 2 2 -16
v 2 3 -16
v 10 2 -16
v 10 3 -16
v 16 0 -16
v 16 2 -16
v 16 3 -16
v -16 0 16
v 16 0 16
v -16 0 -16
v 16 0 -16
v 8 1 16
v 10 1 16
v 5 1 15
v 8 1 15
v -12 1 -3
v -5 1 -3
v 10 1 -3
v 16 1 -3
v -7 1 -5
v -5 1 -5
v 12 1 -5
v 16 1 -5
v -8 1 -6
v -7 1 -6
v 10 1 -6
v 12 1 -6
v -9 1 -7
v -8 1 -7
v 3 1 -7
v 5 1 -7
v 9 1 -9
v 10 1 -9
v -12 1 -10
v -9 1 -10
v 3 1 -15
v 9 1 -15
v -16 2 16
v -8 2 16
v 4 2 16
v 8 2 16
v 10 2 16
v 11 2 16
v -11 2 15
v -8 2 15
v 5 2 15
v 8 2 15
v -13 2 11
v -11 2 11
v -16 2 9
v -13 2 9
v -13 2 -2
v -4 2 -2
v 11 2 -2
v 16 2 -2
v -12 2 -3
v -5 2 -3
v 10 2 -3
v 16 2 -3
v -7 2 -5
v -5 2 -5
v 12 2 -5
v 16 2 -5
v -8 2 -6
v -7 2 -6
v 2 2 -6
v 4 2 -6
v 10 2 -6
v 12 2 -6
v 13 2 -6
v 16 2 -6
v -9 2 -7
v -8 2 -7
v -5 2 -7
v -4 2 -7
v 3 2 -7
v 5 2 -7
v 9 2 -9
v 10 2 -9
v -12 2 -10
v -9 2 -10
v -6 2 -10
v -5 2 -10
v -13 2 -11
v -9 2 -11
v 10 2 -11
v 13 2 -11
v -10 2 -12
v -9 2 -12
v -7 2 -12
v -6 2 -12
v -11 2 -13
v -10 2 -13
v -8 2 -13
v -7 2 -13
v -9 2 -15
v -8 2 -15
v 3 2 -15
v 9 2 -15
v -11 2 -16
v -9 2 -16
v 2 2 -16
v 10 2 -16
v -8 3 16
v -6 3 16
v -1 3 16
v 4 3 16
v 11 3 16
v 16 3 16
v -11 3 15
v -8 3 15
v -2 3 12
v -1 3 12
v -13 3 11
v -11 3 11
v -16 3 9
v -13 3 9
v -7 3 9
v -6 3 9
v -4 3 9
v -2 3 9
v -8 3 8
v -7 3 8
v -9 3 7
v -8 3 7
v -16 3 6
v -9 3 6
v -5 3 1
v -4 3 1
v -6 3 -0
v -5 3 -0
v -14 3 -1
v -6 3 -1
v -15 3 -2
v -14 3 -2
v -13 3 -2
v -4 3 -2
v 11 3 -2
v 16 3 -2
v -16 3 -3
v -15 3 -3
v 2 3 -6
v 4 3 -6
v 13 3 -6
v 16 3 -6
v -5 3 -7
v -4 3 -7
v -6 3 -10
v -5 3 -10
v -13 3 -11
v -9 3 -11
v 10 3 -11
v 13 3 -11
v -10 3 -12
v -9 3 -12
v -7 3 -12
v -6 3 -12
v -11 3 -13
v -10 3 -13
v -8 3 -13
v -7 3 -13
v -9 3 -15
v -8 3 -15
v -16 3 -16
v -11 3 -16
v -9 3 -16
v 2 3 -16
v 10 3 -16
v 16 3 -16
v -6 4 16
v -1 4 16
v -2 4 12
v -1 4 12
v -7 4 9
v -6 4 9
v -4 4 9
v -2 4 9
v -8 4 8
v -7 4 8
v -9 4 7
v -8 4 7
v -16 4 6
v -9 4 6
v -16 4 4
v -5 4 4
v -5 4 1
v -4 4 1
v -16 4 -0
v -6 4 -0
v -14 4 -1
v -6 4 -1
v -15 4 -2
v -14 4 -2
v -16 4 -3
v -15 4 -3
v -16 5 4
v -5 5 4
v -16 5 -0
v -5 5 -0

# faces
f 3/2/1 2/2/1 1/2/1
f 4/2/1 2/2/1 3/2/1
f 5/2/1 2/2/1 4/2/1
f 6/1/1 5/1/1 4/1/1
f 7/1/1 5/1/1 6/1/1
f 8/1/1 5/1/1 7/1/1
f 9/1/1 5/1/1 8/1/1
f 10/1/1 8/1/1 7/1/1
f 11/1/1 8/1/1 10/1/1
f 12/1/1 8/1/1 11/1/1
f 13/1/1 8/1/1 12/1/1
f 14/1/1 12/1/1 11/1/1
f 15/1/1 12/1/1 14/1/1
f 18/1/1 17/1/1 16/1/1
f 19/1/1 17/1/1 18/1/1
f 22/1/1 21/1/1 20/1/1
f 23/1/1 21/1/1 22/1/1
f 26/2/1 25/2/1 24/2/1
f 27/2/1 25/2/1 26/2/1
f 32/1/1 29/1/1 28/1/1
f 33/1/1 29/1/1 32/1/1
f 34/1/1 31/1/1 30/1/1
f 35/1/1 31/1/1 34/1/1
f 40/2/1 37/2/1 36/2/1
f 41/2/1 37/2/1 40/2/1
f 44/1/1 39/1/1 38/1/1
f 45/1/1 39/1/1 44/1/1
f 48/1/1 43/1/1 42/1/1
f 49/1/1 43/1/1 48/1/1
f 50/1/1 47/1/1 46/1/1
f 51/1/1 47/1/1 50/1/1
f 54/2/1 53/2/1 52/2/1
f 55/2/1 53/2/1 54/2/1
f 60/1/1 57/1/1 56/1/1
f 61/1/1 57/1/1 60/1/1
f 62/1/1 59/1/1 58/1/1
f 63/1/1 59/1/1 62/1/1
f 68/1/1 65/1/1 64/1/1
f 69/1/1 65/1/1 68/1/1
f 70/1/1 67/1/1 66/1/1
f 71/1/1 67/1/1 70/1/1
f 74/2/1 73/2/1 72/2/1
f 75/2/1 73/2/1 74/2/1
f 78/1/1 77/1/1 76/1/1
f 79/1/1 77/1/1 78/1/1
f 82/1/1 81/1/1 80/1/1
f 83/1/1 81/1/1 82/1/1
f 86/2/1 85/2/1 84/2/1
f 87/2/1 85/2/1 86/2/1
f 92/2/1 89/2/1 88/2/1
f 93/2/1 89/2/1 92/2/1
f 94/2/1 91/2/1 90/2/1
f 95/2/1 91/2/1 94/2/1
f 98/1/1 97/1/1 96/1/1
f 99/1/1 97/1/1 98/1/1
f 102/1/1 101/1/1 100/1/1
f 103/1/1 101/1/1 102/1/1
f 106/2/1 105/2/1 104/2/1
f 107/2/1 105/2/1 106/2/1
f 110/1/1 109/1/1 108/1/1
f 111/1/1 109/1/1 110/1/1
f 112/1/2 113/1/2 114/1/2
f 114/1/2 113/1/2 115/1/2
f 116/1/2 117/1/2 118/1/2
f 118/1/2 117/1/2 119/1/2
f 120/1/2 121/1/2 122/1/2
f 122/1/2 121/1/2 123/1/2
f 124/2/2 125/2/2 126/2/2
f 126/2/2 125/2/2 127/2/2
f 128/1/2 129/1/2 130/1/2
f 130/1/2 129/1/2 131/1/2
f 132/1/2 133/1/2 134/1/2
f 134/1/2 133/1/2 135/1/2
f 136/1/2 137/1/2 138/1/2
f 138/1/2 137/1/2 139/1/2
f 140/1/2 141/1/2 142/1/2
f 142/1/2 141/1/2 143/1/2
f 144/1/2 145/1/2 147/1/2
f 146/1/2 147/1/2 148/1/2
f 147/1/2 145/1/2 149/1/2
f 148/1/2 147/1/2 149/1/2
f 150/1/2 151/1/2 152/1/2
f 152/1/2 151/1/2 153/1/2
f 154/1/2 155/1/2 156/1/2
f 156/1/2 155/1/2 157/1/2
f 158/1/2 159/1/2 160/1/2
f 160/1/2 159/1/2 161/1/2
f 162/1/2 163/1/2 164/1/2
f 164/1/2 163/1/2 165/1/2
f 166/2/2 167/2/2 168/2/2
f 168/2/2 167/2/2 169/2/2
f 170/1/2 171/1/2 172/1/2
f 172/1/2 171/1/2 173/1/2
f 174/2/2 175/2/2 176/2/2
f 176/2/2 175/2/2 177/2/2
f 178/2/2 179/2/2 180/2/2
f 180/2/2 179/2/2 181/2/2
f 182/2/2 183/2/2 184/2/2
f 184/2/2 183/2/2 185/2/2
f 182/2/2 184/2/2 186/2/2
f 186/2/2 184/2/2 187/2/2
f 187/2/2 184/2/2 188/2/2
f 185/2/2 183/2/2 189/2/2
f 189/2/2 183/2/2 190/2/2
f 190/2/2 183/2/2 191/2/2
f 186/1/2 187/1/2 192/1/2
f 192/1/2 187/1/2 193/1/2
f 190/1/2 191/1/2 194/1/2
f 194/1/2 191/1/2 195/1/2
f 198/2/3 197/2/3 196/2/3
f 200/1/3 199/1/3 198/1/3
f 202/1/3 200/1/3 198/1/3
f 202/1/3 201/1/3 200/1/3
f 203/1/3 201/1/3 202/1/3
f 204/2/3 198/2/3 196/2/3
f 204/1/3 202/1/3 198/1/3
f 205/1/3 202/1/3 204/1/3
f 206/2/3 204/2/3 196/2/3
f 207/2/3 204/2/3 206/2/3
f 208/2/3 206/2/3 196/2/3
f 210/2/3 209/2/3 208/2/3
f 212/2/3 210/2/3 208/2/3
f 212/2/3 208/2/3 196/2/3
f 213/1/3 211/1/3 210/1/3
f 213/2/3 210/2/3 212/2/3
f 214/1/3 211/1/3 213/1/3
f 217/1/3 216/1/3 215/1/3
f 218/1/3 216/1/3 217/1/3
f 221/1/3 220/1/3 219/1/3
f 222/1/3 220/1/3 221/1/3
f 225/1/3 224/1/3 223/1/3
f 226/1/3 224/1/3 225/1/3
f 229/1/3 228/1/3 227/1/3
f 230/1/3 228/1/3 229/1/3
f 233/1/3 232/1/3 231/1/3
f 234/1/3 232/1/3 233/1/3
f 237/1/3 236/1/3 235/1/3
f 238/1/3 236/1/3 237/1/3
f 241/1/3 240/1/3 239/1/3
f 242/1/3 240/1/3 241/1/3
f 245/1/3 244/1/3 243/1/3
f 246/1/3 244/1/3 245/1/3
f 249/2/3 248/2/3 247/2/3
f 250/2/3 248/2/3 249/2/3
f 253/2/3 252/2/3 251/2/3
f 254/2/3 252/2/3 253/2/3
f 257/2/3 256/2/3 255/2/3
f 258/2/3 256/2/3 257/2/3
f 261/2/3 260/2/3 259/2/3
f 262/2/3 260/2/3 261/2/3
f 265/1/3 264/1/3 263/1/3
f 266/1/3 264/1/3 265/1/3
f 269/2/3 268/2/3 267/2/3
f 270/2/3 268/2/3 269/2/3
f 273/1/3 272/1/3 271/1/3
f 274/1/3 272/1/3 273/1/3
f 277/2/3 276/2/3 275/2/3
f 278/2/3 276/2/3 277/2/3
f 281/2/3 280/2/3 279/2/3
f 282/2/3 280/2/3 281/2/3
f 285/1/3 284/1/3 283/1/3
f 286/1/3 284/1/3 285/1/3
f 289/1/3 288/1/3 287/1/3
f 290/1/3 288/1/3 289/1/3
f 293/1/3 292/1/3 291/1/3
f 294/1/3 292/1/3 293/1/3
f 297/1/3 296/1/3 295/1/3
f 298/1/3 296/1/3 297/1/3
f 301/1/3 300/1/3 299/1/3
f 302/1/3 300/1/3 301/1/3
f 305/1/3 304/1/3 303/1/3
f 306/1/3 304/1/3 305/1/3
f 309/2/3 308/2/3 307/2/3
f 310/2/3 308/2/3 309/2/3
f 311/2/4 312/2/4 313/2/4
f 313/2/4 312/2/4 314/2/4
f 315/1/4 316/1/4 317/1/4
f 317/1/4 316/1/4 318/1/4
f 319/1/4 320/1/4 321/1/4
f 321/1/4 320/1/4 322/1/4
f 323/1/4 324/1/4 325/1/4
f 325/1/4 324/1/4 326/1/4
f 327/1/4 328/1/4 330/1/4
f 329/1/4 330/1/4 331/1/4
f 330/1/4 328/1/4 332/1/4
f 331/1/4 330/1/4 332/1/4
f 333/1/4 334/1/4 335/1/4
f 335/1/4 334/1/4 336/1/4
f 337/1/4 338/1/4 339/1/4
f 339/1/4 338/1/4 340/1/4
f 341/1/4 342/1/4 343/1/4
f 343/1/4 342/1/4 344/1/4
f 345/1/4 346/1/4 347/1/4
f 347/1/4 346/1/4 348/1/4
f 349/1/4 350/1/4 351/1/4
f 351/1/4 350/1/4 352/1/4
f 353/2/4 354/2/4 355/2/4
f 355/2/4 354/2/4 356/2/4
f 357/2/4 358/2/4 359/2/4
f 359/2/4 358/2/4 360/2/4
f 361/1/4 362/1/4 363/1/4
f 363/1/4 362/1/4 364/1/4
f 365/2/4 366/2/4 367/2/4
f 367/2/4 366/2/4 368/2/4
f 369/1/4 370/1/4 371/1/4
f 371/1/4 370/1/4 372/1/4
f 373/1/4 374/1/4 375/1/4
f 375/1/4 374/1/4 376/1/4
f 377/2/4 378/2/4 380/2/4
f 378/1/4 379/1/4 380/1/4
f 380/1/4 379/1/4 381/1/4
f 377/2/4 380/2/4 382/2/4
f 377/2/4 382/2/4 384/2/4
f 382/1/4 383/1/4 384/1/4
f 384/1/4 383/1/4 385/1/4
f 377/2/4 384/2/4 386/2/4
f 377/2/4 386/2/4 388/2/4
f 386/1/4 387/1/4 389/1/4
f 388/2/4 386/2/4 389/2/4
f 389/1/4 387/1/4 390/1/4
f 393/2/5 392/2/5 391/2/5
f 394/2/5 392/2/5 393/2/5
f 395/2/6 396/2/6 398/2/6
f 398/2/6 396/2/6 401/2/6
f 397/2/6 398/2/6 401/2/6
f 399/2/6 400/2/6 403/2/6
f 403/2/6 400/2/6 404/2/6
f 401/2/6 402/2/6 405/2/6
f 405/2/6 402/2/6 406/2/6
f 399/2/6 403/2/6 407/2/6
f 407/2/6 403/2/6 408/2/6
f 397/2/6 401/2/6 409/2/6
f 401/2/6 405/2/6 409/2/6
f 409/2/6 405/2/6 410/2/6
f 399/2/6 407/2/6 411/2/6
f 411/2/6 407/2/6 412/2/6
f 397/2/6 409/2/6 414/2/6
f 413/2/6 414/2/6 415/2/6
f 414/2/6 409/2/6 415/2/6
f 415/2/6 409/2/6 416/2/6
f 399/2/6 411/2/6 417/2/6
f 417/2/6 411/2/6 418/2/6
f 413/2/6 415/2/6 419/2/6
f 419/2/6 415/2/6 420/2/6
f 421/2/6 422/2/6 427/2/6
f 427/2/6 422/2/6 428/2/6
f 423/2/6 424/2/6 429/2/6
f 429/2/6 424/2/6 430/2/6
f 421/2/6 427/2/6 431/2/6
f 431/2/6 427/2/6 432/2/6
f 421/2/6 431/2/6 433/2/6
f 433/2/6 431/2/6 434/2/6
f 425/2/6 426/2/6 437/2/6
f 435/2/6 436/2/6 439/2/6
f 439/2/6 436/2/6 440/2/6
f 437/2/6 438/2/6 441/2/6
f 425/2/6 437/2/6 441/2/6
f 441/2/6 438/2/6 442/2/6
f 440/2/6 436/2/6 444/2/6
f 443/2/6 444/2/6 448/2/6
f 423/2/6 429/2/6 450/2/6
f 445/2/6 446/2/6 452/2/6
f 452/2/6 446/2/6 453/2/6
f 453/2/6 446/2/6 454/2/6
f 447/2/6 448/2/6 456/2/6
f 444/2/6 436/2/6 457/2/6
f 448/2/6 444/2/6 457/2/6
f 456/2/6 448/2/6 457/2/6
f 457/2/6 436/2/6 458/2/6
f 449/2/6 450/2/6 459/2/6
f 450/2/6 429/2/6 460/2/6
f 459/2/6 450/2/6 460/2/6
f 451/2/6 452/2/6 462/2/6
f 452/2/6 453/2/6 462/2/6
f 435/2/6 439/2/6 463/2/6
f 455/2/6 456/2/6 464/2/6
f 456/2/6 457/2/6 464/2/6
f 464/2/6 457/2/6 465/2/6
f 465/2/6 457/2/6 466/2/6
f 435/2/6 463/2/6 467/2/6
f 463/2/6 464/2/6 467/2/6
f 464/2/6 465/2/6 467/2/6
f 467/2/6 465/2/6 468/2/6
f 461/2/6 462/2/6 469/2/6
f 462/2/6 453/2/6 469/2/6
f 469/2/6 453/2/6 470/2/6
f 468/2/6 465/2/6 472/2/6
f 472/2/6 465/2/6 473/2/6
f 473/2/6 465/2/6 474/2/6
f 471/2/6 472/2/6 476/2/6
f 472/2/6 473/2/6 476/2/6
f 476/2/6 473/2/6 477/2/6
f 477/2/6 473/2/6 478/2/6
f 475/2/6 476/2/6 479/2/6
f 476/2/6 477/2/6 479/2/6
f 479/2/6 477/2/6 480/2/6
f 449/2/6 459/2/6 481/2/6
f 461/2/6 469/2/6 482/2/6
f 475/2/6 479/2/6 483/2/6
f 483/2/6 479/2/6 484/2/6
f 449/2/6 481/2/6 485/2/6
f 481/2/6 482/2/6 485/2/6
f 482/2/6 469/2/6 486/2/6
f 485/2/6 482/2/6 486/2/6
f 487/1/6 488/1/6 494/1/6
f 489/1/6 490/1/6 496/1/6
f 493/1/6 494/1/6 498/1/6
f 497/1/6 498/1/6 500/1/6
f 494/1/6 488/1/6 501/1/6
f 498/1/6 494/1/6 501/1/6
f 500/1/6 498/1/6 501/1/6
f 501/1/6 488/1/6 502/1/6
f 495/1/6 496/1/6 504/1/6
f 499/1/6 500/1/6 505/1/6
f 500/1/6 501/1/6 505/1/6
f 505/1/6 501/1/6 506/1/6
f 499/1/6 505/1/6 507/1/6
f 507/1/6 505/1/6 508/1/6
f 499/1/6 507/1/6 509/1/6
f 509/1/6 507/1/6 510/1/6
f 503/1/6 504/1/6 512/1/6
f 511/1/6 512/1/6 514/1/6
f 513/1/6 514/1/6 516/1/6
f 515/1/6 516/1/6 518/1/6
f 518/1/6 516/1/6 519/1/6
f 512/1/6 504/1/6 520/1/6
f 519/1/6 516/1/6 520/1/6
f 514/1/6 512/1/6 520/1/6
f 516/1/6 514/1/6 520/1/6
f 491/1/6 492/1/6 521/1/6
f 521/1/6 492/1/6 522/1/6
f 518/1/6 519/1/6 524/1/6
f 517/1/6 518/1/6 524/1/6
f 520/1/6 504/1/6 525/1/6
f 504/1/6 496/1/6 525/1/6
f 496/1/6 490/1/6 525/1/6
f 525/1/6 490/1/6 526/1/6
f 520/1/6 525/1/6 530/1/6
f 529/1/6 530/1/6 532/1/6
f 523/1/6 524/1/6 533/1/6
f 524/1/6 519/1/6 533/1/6
f 527/1/6 528/1/6 536/1/6
f 533/1/6 534/1/6 537/1/6
f 537/1/6 534/1/6 538/1/6
f 531/1/6 532/1/6 540/1/6
f 533/1/6 537/1/6 541/1/6
f 541/1/6 537/1/6 542/1/6
f 539/1/6 540/1/6 544/1/6
f 543/1/6 544/1/6 546/1/6
f 523/1/6 533/1/6 547/1/6
f 533/1/6 541/1/6 547/1/6
f 547/1/6 541/1/6 548/1/6
f 545/1/6 546/1/6 549/1/6
f 544/1/6 540/1/6 550/1/6
f 549/1/6 546/1/6 550/1/6
f 532/1/6 530/1/6 550/1/6
f 530/1/6 525/1/6 550/1/6
f 540/1/6 532/1/6 550/1/6
f 546/1/6 544/1/6 550/1/6
f 535/1/6 536/1/6 551/1/6
f 536/1/6 528/1/6 552/1/6
f 551/1/6 536/1/6 552/1/6
f 553/1/6 554/1/6 555/1/6
f 555/1/6 554/1/6 556/1/6
f 553/1/6 555/1/6 558/1/6
f 558/1/6 555/1/6 559/1/6
f 559/1/6 555/1/6 560/1/6
f 557/1/6 558/1/6 562/1/6
f 558/1/6 559/1/6 562/1/6
f 561/1/6 562/1/6 564/1/6
f 563/1/6 564/1/6 566/1/6
f 565/1/6 566/1/6 567/1/6
f 562/1/6 559/1/6 568/1/6
f 567/1/6 566/1/6 568/1/6
f 564/1/6 562/1/6 568/1/6
f 566/1/6 564/1/6 568/1/6
f 568/1/6 559/1/6 569/1/6
f 569/1/6 559/1/6 570/1/6
f 571/1/6 572/1/6 573/1/6
f 573/1/6 572/1/6 574/1/6
f 571/1/6 573/1/6 575/1/6
f 575/1/6 573/1/6 576/1/6
f 571/1/6 575/1/6 577/1/6
f 577/1/6 575/1/6 578/1/6
f 579/1/6 580/1/6 581/1/6
f 581/1/6 580/1/6 582/1/6
