# MagicaVoxel @ Ephtracy

# group
g GrassTile3.2

# material
mtllib GrassTile3.2.mtl
usemtl palette

# normals
vn -1 0 0
vn 1 0 0
vn 0 0 1
vn 0 0 -1
vn 0 -1 0
vn 0 1 0

# texcoords
vt 0.892578 0.5
vt 0.896484 0.5

# verts
v -16 0 16
v -16 0 -16
v -16 2 16
v -16 2 -0
v -16 2 -2
v -16 2 -16
v -16 3 13
v -16 3 -0
v -16 3 -2
v -16 3 -16
v -16 4 16
v -16 4 13
v -11 1 -7
v -11 1 -8
v -11 2 -7
v -11 2 -8
v -9 1 -6
v -9 1 -7
v -9 2 -0
v -9 2 -1
v -9 2 -6
v -9 2 -7
v -9 2 -13
v -9 2 -16
v -9 3 14
v -9 3 12
v -9 3 -0
v -9 3 -1
v -9 3 -13
v -9 3 -16
v -9 4 14
v -9 4 12
v -8 2 -12
v -8 2 -13
v -8 3 5
v -8 3 2
v -8 3 -12
v -8 3 -13
v -8 4 5
v -8 4 2
v -7 2 -11
v -7 2 -12
v -7 3 12
v -7 3 11
v -7 3 -11
v -7 3 -12
v -7 4 12
v -7 4 11
v -6 3 11
v -6 3 10
v -6 3 6
v -6 3 5
v -6 4 11
v -6 4 10
v -6 4 6
v -6 4 5
v -5 2 -9
v -5 2 -11
v -5 3 10
v -5 3 6
v -5 3 -9
v -5 3 -11
v -5 4 10
v -5 4 6
v -4 1 -2
v -4 1 -8
v -4 2 -2
v -4 2 -4
v -4 2 -8
v -4 2 -9
v -4 3 -4
v -4 3 -9
v -1 2 15
v -1 2 13
v -1 3 15
v -1 3 13
v 0 3 15
v 0 3 12
v 0 4 15
v 0 4 12
v 3 2 -1
v 3 2 -2
v 3 3 -1
v 3 3 -2
v 3 3 -8
v 3 3 -9
v 3 4 -8
v 3 4 -9
v 4 3 -9
v 4 3 -10
v 4 4 -9
v 4 4 -10
v 5 2 -5
v 5 2 -7
v 5 3 -5
v 5 3 -7
v 6 3 -7
v 6 3 -8
v 6 3 -10
v 6 3 -11
v 6 4 -7
v 6 4 -8
v 6 4 -10
v 6 4 -11
v 9 3 -11
v 9 3 -12
v 9 4 -11
v 9 4 -12
v 10 3 -12
v 10 3 -13
v 10 4 -12
v 10 4 -13
v 12 2 -1
v 12 2 -2
v 12 3 -1
v 12 3 -2
v 14 2 -2
v 14 2 -5
v 14 3 -2
v 14 3 -5
v -15 3 14
v -15 3 13
v -15 4 14
v -15 4 13
v -13 1 -2
v -13 1 -8
v -13 2 -2
v -13 2 -8
v -13 2 -9
v -13 3 -2
v -13 3 -9
v -12 2 -9
v -12 2 -13
v -12 3 -9
v -12 3 -13
v -11 2 -13
v -11 2 -16
v -11 3 -13
v -11 3 -16
v -6 1 -6
v -6 1 -7
v -6 2 -6
v -6 2 -7
v -5 1 -7
v -5 1 -8
v -5 2 -7
v -5 2 -8
v -4 3 16
v -4 3 12
v -4 4 16
v -4 4 12
v -3 2 15
v -3 2 13
v -3 3 15
v -3 3 13
v 1 2 -4
v 1 2 -5
v 1 3 -4
v 1 3 -5
v 2 2 -5
v 2 2 -6
v 2 3 -5
v 2 3 -6
v 3 2 -6
v 3 2 -7
v 3 3 15
v 3 3 12
v 3 3 5
v 3 3 2
v 3 3 -6
v 3 3 -7
v 3 4 15
v 3 4 12
v 3 4 5
v 3 4 2
v 4 3 12
v 4 3 6
v 4 4 12
v 4 4 6
v 5 2 -1
v 5 2 -2
v 5 3 -1
v 5 3 -2
v 6 3 6
v 6 3 5
v 6 4 6
v 6 4 5
v 10 3 -7
v 10 3 -8
v 10 4 -7
v 10 4 -8
v 13 3 -8
v 13 3 -9
v 13 3 -12
v 13 3 -13
v 13 4 -8
v 13 4 -9
v 13 4 -12
v 13 4 -13
v 14 3 -9
v 14 3 -12
v 14 4 -9
v 14 4 -12
v 16 0 16
v 16 0 -16
v 16 2 16
v 16 2 -16
v 16 3 16
v 16 3 -16
v -16 0 16
v -16 2 16
v -16 4 16
v -4 3 16
v -4 4 16
v 16 0 16
v 16 2 16
v 16 3 16
v 0 3 15
v 0 4 15
v 3 3 15
v 3 4 15
v -3 2 13
v -3 3 13
v -1 2 13
v -1 3 13
v -4 3 12
v -4 4 12
v 0 3 12
v 0 4 12
v 3 3 12
v 3 4 12
v 4 3 12
v 4 4 12
v -6 3 6
v -6 4 6
v -5 3 6
v -5 4 6
v 4 3 6
v 4 4 6
v 6 3 6
v 6 4 6
v -8 3 5
v -8 4 5
v -6 3 5
v -6 4 5
v -16 2 -2
v -16 3 -2
v -13 2 -2
v -13 3 -2
v -4 2 -4
v -4 3 -4
v 1 2 -4
v 1 3 -4
v 1 2 -5
v 1 3 -5
v 2 2 -5
v 2 3 -5
v 5 2 -5
v 5 3 -5
v 14 2 -5
v 14 3 -5
v -9 1 -6
v -9 2 -6
v -6 1 -6
v -6 2 -6
v 2 2 -6
v 2 3 -6
v 3 2 -6
v 3 3 -6
v -11 1 -7
v -11 2 -7
v -9 1 -7
v -9 2 -7
v -6 1 -7
v -6 2 -7
v -5 1 -7
v -5 2 -7
v 3 2 -7
v 3 3 -7
v 5 2 -7
v 5 3 -7
v 6 3 -7
v 6 4 -7
v 10 3 -7
v 10 4 -7
v -13 1 -8
v -13 2 -8
v -11 1 -8
v -11 2 -8
v -5 1 -8
v -5 2 -8
v -4 1 -8
v -4 2 -8
v 3 3 -8
v 3 4 -8
v 6 3 -8
v 6 4 -8
v 10 3 -8
v 10 4 -8
v 13 3 -8
v 13 4 -8
v -13 2 -9
v -13 3 -9
v -12 2 -9
v -12 3 -9
v -5 2 -9
v -5 3 -9
v -4 2 -9
v -4 3 -9
v 13 3 -9
v 13 4 -9
v 14 3 -9
v 14 4 -9
v -7 2 -11
v -7 3 -11
v -5 2 -11
v -5 3 -11
v -8 2 -12
v -8 3 -12
v -7 2 -12
v -7 3 -12
v -12 2 -13
v -12 3 -13
v -11 2 -13
v -11 3 -13
v -9 2 -13
v -9 3 -13
v -8 2 -13
v -8 3 -13
v -3 2 15
v -3 3 15
v -1 2 15
v -1 3 15
v -15 3 14
v -15 4 14
v -9 3 14
v -9 4 14
v -16 3 13
v -16 4 13
v -15 3 13
v -15 4 13
v -9 3 12
v -9 4 12
v -7 3 12
v -7 4 12
v -7 3 11
v -7 4 11
v -6 3 11
v -6 4 11
v -6 3 10
v -6 4 10
v -5 3 10
v -5 4 10
v 3 3 5
v 3 4 5
v 6 3 5
v 6 4 5
v -8 3 2
v -8 4 2
v 3 3 2
v 3 4 2
v -16 2 -0
v -16 3 -0
v -9 2 -0
v -9 3 -0
v -9 2 -1
v -9 3 -1
v 3 2 -1
v 3 3 -1
v 5 2 -1
v 5 3 -1
v 12 2 -1
v 12 3 -1
v -13 1 -2
v -13 2 -2
v -4 1 -2
v -4 2 -2
v 3 2 -2
v 3 3 -2
v 5 2 -2
v 5 3 -2
v 12 2 -2
v 12 3 -2
v 14 2 -2
v 14 3 -2
v 3 3 -9
v 3 4 -9
v 4 3 -9
v 4 4 -9
v 4 3 -10
v 4 4 -10
v 6 3 -10
v 6 4 -10
v 6 3 -11
v 6 4 -11
v 9 3 -11
v 9 4 -11
v 9 3 -12
v 9 4 -12
v 10 3 -12
v 10 4 -12
v 13 3 -12
v 13 4 -12
v 14 3 -12
v 14 4 -12
v 10 3 -13
v 10 4 -13
v 13 3 -13
v 13 4 -13
v -16 0 -16
v -16 2 -16
v -16 3 -16
v -11 2 -16
v -11 3 -16
v -9 2 -16
v -9 3 -16
v 16 0 -16
v 16 2 -16
v 16 3 -16
v -16 0 16
v 16 0 16
v -16 0 -16
v 16 0 -16
v -13 1 -2
v -4 1 -2
v -9 1 -6
v -6 1 -6
v -11 1 -7
v -9 1 -7
v -6 1 -7
v -5 1 -7
v -13 1 -8
v -11 1 -8
v -5 1 -8
v -4 1 -8
v -3 2 15
v -1 2 15
v -3 2 13
v -1 2 13
v -16 2 -0
v -9 2 -0
v -9 2 -1
v 3 2 -1
v 5 2 -1
v 12 2 -1
v -16 2 -2
v -13 2 -2
v -4 2 -2
v 3 2 -2
v 5 2 -2
v 12 2 -2
v 14 2 -2
v -4 2 -4
v 1 2 -4
v 1 2 -5
v 2 2 -5
v 5 2 -5
v 14 2 -5
v -9 2 -6
v -6 2 -6
v 2 2 -6
v 3 2 -6
v -11 2 -7
v -9 2 -7
v -6 2 -7
v -5 2 -7
v 3 2 -7
v 5 2 -7
v -13 2 -8
v -11 2 -8
v -5 2 -8
v -4 2 -8
v -13 2 -9
v -12 2 -9
v -5 2 -9
v -4 2 -9
v -7 2 -11
v -5 2 -11
v -8 2 -12
v -7 2 -12
v -12 2 -13
v -11 2 -13
v -9 2 -13
v -8 2 -13
v -11 2 -16
v -9 2 -16
v -4 3 16
v 16 3 16
v -3 3 15
v -1 3 15
v 0 3 15
v 3 3 15
v -15 3 14
v -9 3 14
v -16 3 13
v -15 3 13
v -3 3 13
v -1 3 13
v -9 3 12
v -7 3 12
v -4 3 12
v 0 3 12
v 3 3 12
v 4 3 12
v -7 3 11
v -6 3 11
v -6 3 10
v -5 3 10
v -6 3 6
v -5 3 6
v 4 3 6
v 6 3 6
v -8 3 5
v -6 3 5
v 3 3 5
v 6 3 5
v -8 3 2
v 3 3 2
v -16 3 -0
v -9 3 -0
v -9 3 -1
v 3 3 -1
v 5 3 -1
v 12 3 -1
v -16 3 -2
v -13 3 -2
v 3 3 -2
v 5 3 -2
v 12 3 -2
v 14 3 -2
v -4 3 -4
v 1 3 -4
v 1 3 -5
v 2 3 -5
v 5 3 -5
v 14 3 -5
v 2 3 -6
v 3 3 -6
v 3 3 -7
v 5 3 -7
v 6 3 -7
v 10 3 -7
v 3 3 -8
v 6 3 -8
v 10 3 -8
v 13 3 -8
v -13 3 -9
v -12 3 -9
v -5 3 -9
v -4 3 -9
v 3 3 -9
v 4 3 -9
v 13 3 -9
v 14 3 -9
v 4 3 -10
v 6 3 -10
v -7 3 -11
v -5 3 -11
v 6 3 -11
v 9 3 -11
v -8 3 -12
v -7 3 -12
v 9 3 -12
v 10 3 -12
v 13 3 -12
v 14 3 -12
v -12 3 -13
v -11 3 -13
v -9 3 -13
v -8 3 -13
v 10 3 -13
v 13 3 -13
v -16 3 -16
v -11 3 -16
v -9 3 -16
v 16 3 -16
v -16 4 16
v -4 4 16
v 0 4 15
v 3 4 15
v -15 4 14
v -9 4 14
v -16 4 13
v -15 4 13
v -9 4 12
v -7 4 12
v -4 4 12
v 0 4 12
v 3 4 12
v 4 4 12
v -7 4 11
v -6 4 11
v -6 4 10
v -5 4 10
v -6 4 6
v -5 4 6
v 4 4 6
v 6 4 6
v -8 4 5
v -6 4 5
v 3 4 5
v 6 4 5
v -8 4 2
v 3 4 2
v 6 4 -7
v 10 4 -7
v 3 4 -8
v 6 4 -8
v 10 4 -8
v 13 4 -8
v 3 4 -9
v 4 4 -9
v 13 4 -9
v 14 4 -9
v 4 4 -10
v 6 4 -10
v 6 4 -11
v 9 4 -11
v 9 4 -12
v 10 4 -12
v 13 4 -12
v 14 4 -12
v 10 4 -13
v 13 4 -13

# faces
f 3/2/1 2/2/1 1/2/1
f 4/2/1 2/2/1 3/2/1
f 5/2/1 2/2/1 4/2/1
f 6/2/1 2/2/1 5/2/1
f 7/1/1 4/1/1 3/1/1
f 8/1/1 4/1/1 7/1/1
f 9/1/1 6/1/1 5/1/1
f 10/1/1 6/1/1 9/1/1
f 11/1/1 7/1/1 3/1/1
f 12/1/1 7/1/1 11/1/1
f 15/2/1 14/2/1 13/2/1
f 16/2/1 14/2/1 15/2/1
f 21/2/1 18/2/1 17/2/1
f 22/2/1 18/2/1 21/2/1
f 27/1/1 20/1/1 19/1/1
f 28/1/1 20/1/1 27/1/1
f 29/1/1 24/1/1 23/1/1
f 30/1/1 24/1/1 29/1/1
f 31/1/1 26/1/1 25/1/1
f 32/1/1 26/1/1 31/1/1
f 37/1/1 34/1/1 33/1/1
f 38/1/1 34/1/1 37/1/1
f 39/1/1 36/1/1 35/1/1
f 40/1/1 36/1/1 39/1/1
f 45/1/1 42/1/1 41/1/1
f 46/1/1 42/1/1 45/1/1
f 47/1/1 44/1/1 43/1/1
f 48/1/1 44/1/1 47/1/1
f 53/1/1 50/1/1 49/1/1
f 54/1/1 50/1/1 53/1/1
f 55/1/1 52/1/1 51/1/1
f 56/1/1 52/1/1 55/1/1
f 61/1/1 58/1/1 57/1/1
f 62/1/1 58/1/1 61/1/1
f 63/1/1 60/1/1 59/1/1
f 64/1/1 60/1/1 63/1/1
f 67/2/1 66/2/1 65/2/1
f 68/2/1 66/2/1 67/2/1
f 69/2/1 66/2/1 68/2/1
f 71/1/1 70/1/1 69/1/1
f 71/1/1 69/1/1 68/1/1
f 72/1/1 70/1/1 71/1/1
f 75/1/1 74/1/1 73/1/1
f 76/1/1 74/1/1 75/1/1
f 79/1/1 78/1/1 77/1/1
f 80/1/1 78/1/1 79/1/1
f 83/1/1 82/1/1 81/1/1
f 84/1/1 82/1/1 83/1/1
f 87/1/1 86/1/1 85/1/1
f 88/1/1 86/1/1 87/1/1
f 91/1/1 90/1/1 89/1/1
f 92/1/1 90/1/1 91/1/1
f 95/1/1 94/1/1 93/1/1
f 96/1/1 94/1/1 95/1/1
f 101/1/1 98/1/1 97/1/1
f 102/1/1 98/1/1 101/1/1
f 103/1/1 100/1/1 99/1/1
f 104/1/1 100/1/1 103/1/1
f 107/1/1 106/1/1 105/1/1
f 108/1/1 106/1/1 107/1/1
f 111/1/1 110/1/1 109/1/1
f 112/1/1 110/1/1 111/1/1
f 115/1/1 114/1/1 113/1/1
f 116/1/1 114/1/1 115/1/1
f 119/1/1 118/1/1 117/1/1
f 120/1/1 118/1/1 119/1/1
f 121/1/2 122/1/2 123/1/2
f 123/1/2 122/1/2 124/1/2
f 125/2/2 126/2/2 127/2/2
f 127/2/2 126/2/2 128/2/2
f 127/1/2 128/1/2 130/1/2
f 128/1/2 129/1/2 130/1/2
f 130/1/2 129/1/2 131/1/2
f 132/1/2 133/1/2 134/1/2
f 134/1/2 133/1/2 135/1/2
f 136/1/2 137/1/2 138/1/2
f 138/1/2 137/1/2 139/1/2
f 140/2/2 141/2/2 142/2/2
f 142/2/2 141/2/2 143/2/2
f 144/2/2 145/2/2 146/2/2
f 146/2/2 145/2/2 147/2/2
f 148/1/2 149/1/2 150/1/2
f 150/1/2 149/1/2 151/1/2
f 152/1/2 153/1/2 154/1/2
f 154/1/2 153/1/2 155/1/2
f 156/1/2 157/1/2 158/1/2
f 158/1/2 157/1/2 159/1/2
f 160/1/2 161/1/2 162/1/2
f 162/1/2 161/1/2 163/1/2
f 164/1/2 165/1/2 170/1/2
f 170/1/2 165/1/2 171/1/2
f 166/1/2 167/1/2 172/1/2
f 172/1/2 167/1/2 173/1/2
f 168/1/2 169/1/2 174/1/2
f 174/1/2 169/1/2 175/1/2
f 176/1/2 177/1/2 178/1/2
f 178/1/2 177/1/2 179/1/2
f 180/1/2 181/1/2 182/1/2
f 182/1/2 181/1/2 183/1/2
f 184/1/2 185/1/2 186/1/2
f 186/1/2 185/1/2 187/1/2
f 188/1/2 189/1/2 190/1/2
f 190/1/2 189/1/2 191/1/2
f 192/1/2 193/1/2 196/1/2
f 196/1/2 193/1/2 197/1/2
f 194/1/2 195/1/2 198/1/2
f 198/1/2 195/1/2 199/1/2
f 200/1/2 201/1/2 202/1/2
f 202/1/2 201/1/2 203/1/2
f 204/2/2 205/2/2 206/2/2
f 206/2/2 205/2/2 207/2/2
f 206/1/2 207/1/2 208/1/2
f 208/1/2 207/1/2 209/1/2
f 213/1/3 212/1/3 211/1/3
f 214/1/3 212/1/3 213/1/3
f 215/2/3 211/2/3 210/2/3
f 216/1/3 213/1/3 211/1/3
f 216/2/3 211/2/3 215/2/3
f 217/1/3 213/1/3 216/1/3
f 220/1/3 219/1/3 218/1/3
f 221/1/3 219/1/3 220/1/3
f 224/1/3 223/1/3 222/1/3
f 225/1/3 223/1/3 224/1/3
f 228/1/3 227/1/3 226/1/3
f 229/1/3 227/1/3 228/1/3
f 232/1/3 231/1/3 230/1/3
f 233/1/3 231/1/3 232/1/3
f 236/1/3 235/1/3 234/1/3
f 237/1/3 235/1/3 236/1/3
f 240/1/3 239/1/3 238/1/3
f 241/1/3 239/1/3 240/1/3
f 244/1/3 243/1/3 242/1/3
f 245/1/3 243/1/3 244/1/3
f 248/1/3 247/1/3 246/1/3
f 249/1/3 247/1/3 248/1/3
f 252/1/3 251/1/3 250/1/3
f 253/1/3 251/1/3 252/1/3
f 256/1/3 255/1/3 254/1/3
f 257/1/3 255/1/3 256/1/3
f 260/1/3 259/1/3 258/1/3
f 261/1/3 259/1/3 260/1/3
f 264/2/3 263/2/3 262/2/3
f 265/2/3 263/2/3 264/2/3
f 268/1/3 267/1/3 266/1/3
f 269/1/3 267/1/3 268/1/3
f 272/2/3 271/2/3 270/2/3
f 273/2/3 271/2/3 272/2/3
f 276/2/3 275/2/3 274/2/3
f 277/2/3 275/2/3 276/2/3
f 280/1/3 279/1/3 278/1/3
f 281/1/3 279/1/3 280/1/3
f 284/1/3 283/1/3 282/1/3
f 285/1/3 283/1/3 284/1/3
f 288/2/3 287/2/3 286/2/3
f 289/2/3 287/2/3 288/2/3
f 292/2/3 291/2/3 290/2/3
f 293/2/3 291/2/3 292/2/3
f 296/1/3 295/1/3 294/1/3
f 297/1/3 295/1/3 296/1/3
f 300/1/3 299/1/3 298/1/3
f 301/1/3 299/1/3 300/1/3
f 304/1/3 303/1/3 302/1/3
f 305/1/3 303/1/3 304/1/3
f 308/1/3 307/1/3 306/1/3
f 309/1/3 307/1/3 308/1/3
f 312/1/3 311/1/3 310/1/3
f 313/1/3 311/1/3 312/1/3
f 316/1/3 315/1/3 314/1/3
f 317/1/3 315/1/3 316/1/3
f 320/1/3 319/1/3 318/1/3
f 321/1/3 319/1/3 320/1/3
f 324/1/3 323/1/3 322/1/3
f 325/1/3 323/1/3 324/1/3
f 328/1/3 327/1/3 326/1/3
f 329/1/3 327/1/3 328/1/3
f 330/1/4 331/1/4 332/1/4
f 332/1/4 331/1/4 333/1/4
f 334/1/4 335/1/4 336/1/4
f 336/1/4 335/1/4 337/1/4
f 338/1/4 339/1/4 340/1/4
f 340/1/4 339/1/4 341/1/4
f 342/1/4 343/1/4 344/1/4
f 344/1/4 343/1/4 345/1/4
f 346/1/4 347/1/4 348/1/4
f 348/1/4 347/1/4 349/1/4
f 350/1/4 351/1/4 352/1/4
f 352/1/4 351/1/4 353/1/4
f 354/1/4 355/1/4 356/1/4
f 356/1/4 355/1/4 357/1/4
f 358/1/4 359/1/4 360/1/4
f 360/1/4 359/1/4 361/1/4
f 362/1/4 363/1/4 364/1/4
f 364/1/4 363/1/4 365/1/4
f 366/1/4 367/1/4 368/1/4
f 368/1/4 367/1/4 369/1/4
f 370/1/4 371/1/4 372/1/4
f 372/1/4 371/1/4 373/1/4
f 374/2/4 375/2/4 376/2/4
f 376/2/4 375/2/4 377/2/4
f 378/1/4 379/1/4 380/1/4
f 380/1/4 379/1/4 381/1/4
f 382/1/4 383/1/4 384/1/4
f 384/1/4 383/1/4 385/1/4
f 386/1/4 387/1/4 388/1/4
f 388/1/4 387/1/4 389/1/4
f 390/1/4 391/1/4 392/1/4
f 392/1/4 391/1/4 393/1/4
f 394/1/4 395/1/4 396/1/4
f 396/1/4 395/1/4 397/1/4
f 398/1/4 399/1/4 400/1/4
f 400/1/4 399/1/4 401/1/4
f 402/1/4 403/1/4 404/1/4
f 404/1/4 403/1/4 405/1/4
f 406/1/4 407/1/4 408/1/4
f 408/1/4 407/1/4 409/1/4
f 410/2/4 411/2/4 413/2/4
f 411/1/4 412/1/4 413/1/4
f 413/1/4 412/1/4 414/1/4
f 410/2/4 413/2/4 415/2/4
f 410/2/4 415/2/4 417/2/4
f 415/1/4 416/1/4 418/1/4
f 417/2/4 415/2/4 418/2/4
f 418/1/4 416/1/4 419/1/4
f 422/2/5 421/2/5 420/2/5
f 423/2/5 421/2/5 422/2/5
f 424/2/6 425/2/6 426/2/6
f 426/2/6 425/2/6 427/2/6
f 424/2/6 426/2/6 428/2/6
f 428/2/6 426/2/6 429/2/6
f 427/2/6 425/2/6 430/2/6
f 430/2/6 425/2/6 431/2/6
f 424/2/6 428/2/6 432/2/6
f 432/2/6 428/2/6 433/2/6
f 431/2/6 425/2/6 434/2/6
f 434/2/6 425/2/6 435/2/6
f 436/2/6 437/2/6 438/2/6
f 438/2/6 437/2/6 439/2/6
f 440/2/6 441/2/6 442/2/6
f 440/2/6 442/2/6 446/2/6
f 442/2/6 443/2/6 446/2/6
f 446/2/6 443/2/6 447/2/6
f 447/2/6 443/2/6 448/2/6
f 448/2/6 443/2/6 449/2/6
f 444/2/6 445/2/6 450/2/6
f 450/2/6 445/2/6 451/2/6
f 448/2/6 449/2/6 453/2/6
f 451/2/6 452/2/6 453/2/6
f 450/2/6 451/2/6 453/2/6
f 449/2/6 450/2/6 453/2/6
f 453/2/6 452/2/6 454/2/6
f 454/2/6 452/2/6 455/2/6
f 455/2/6 452/2/6 456/2/6
f 456/2/6 452/2/6 457/2/6
f 457/2/6 452/2/6 458/2/6
f 456/2/6 457/2/6 461/2/6
f 461/2/6 457/2/6 462/2/6
f 459/2/6 460/2/6 464/2/6
f 464/2/6 460/2/6 465/2/6
f 462/2/6 457/2/6 467/2/6
f 467/2/6 457/2/6 468/2/6
f 465/2/6 466/2/6 470/2/6
f 463/2/6 464/2/6 470/2/6
f 464/2/6 465/2/6 470/2/6
f 470/2/6 466/2/6 471/2/6
f 469/2/6 470/2/6 473/2/6
f 471/2/6 472/2/6 473/2/6
f 470/2/6 471/2/6 473/2/6
f 473/2/6 472/2/6 474/2/6
f 474/2/6 472/2/6 475/2/6
f 475/2/6 472/2/6 476/2/6
f 474/2/6 475/2/6 477/2/6
f 477/2/6 475/2/6 478/2/6
f 474/2/6 477/2/6 479/2/6
f 479/2/6 477/2/6 480/2/6
f 474/2/6 479/2/6 481/2/6
f 481/2/6 479/2/6 482/2/6
f 482/2/6 479/2/6 483/2/6
f 483/2/6 479/2/6 484/2/6
f 482/2/6 483/2/6 485/2/6
f 485/2/6 483/2/6 486/2/6
f 487/1/6 488/1/6 489/1/6
f 489/1/6 488/1/6 490/1/6
f 490/1/6 488/1/6 491/1/6
f 491/1/6 488/1/6 492/1/6
f 493/1/6 494/1/6 496/1/6
f 487/1/6 489/1/6 497/1/6
f 490/1/6 491/1/6 498/1/6
f 495/1/6 496/1/6 499/1/6
f 496/1/6 494/1/6 499/1/6
f 497/1/6 498/1/6 501/1/6
f 487/1/6 497/1/6 501/1/6
f 498/1/6 491/1/6 502/1/6
f 501/1/6 498/1/6 502/1/6
f 492/1/6 488/1/6 503/1/6
f 503/1/6 488/1/6 504/1/6
f 499/1/6 500/1/6 505/1/6
f 505/1/6 506/1/6 507/1/6
f 505/1/6 507/1/6 509/1/6
f 507/1/6 508/1/6 509/1/6
f 509/1/6 508/1/6 510/1/6
f 504/1/6 488/1/6 511/1/6
f 511/1/6 488/1/6 512/1/6
f 499/1/6 505/1/6 513/1/6
f 505/1/6 509/1/6 513/1/6
f 513/1/6 509/1/6 514/1/6
f 512/1/6 488/1/6 516/1/6
f 499/1/6 513/1/6 517/1/6
f 515/1/6 516/1/6 518/1/6
f 499/1/6 517/1/6 519/1/6
f 517/1/6 518/1/6 519/1/6
f 495/1/6 499/1/6 519/1/6
f 519/1/6 518/1/6 520/1/6
f 520/1/6 518/1/6 521/1/6
f 518/1/6 516/1/6 522/1/6
f 521/1/6 518/1/6 522/1/6
f 522/1/6 516/1/6 523/1/6
f 516/1/6 488/1/6 524/1/6
f 523/1/6 516/1/6 524/1/6
f 522/1/6 523/1/6 527/1/6
f 527/1/6 523/1/6 528/1/6
f 524/1/6 488/1/6 529/1/6
f 529/1/6 488/1/6 530/1/6
f 531/1/6 532/1/6 533/1/6
f 530/1/6 488/1/6 536/1/6
f 533/1/6 534/1/6 537/1/6
f 537/1/6 538/1/6 539/1/6
f 535/1/6 536/1/6 540/1/6
f 540/1/6 536/1/6 541/1/6
f 541/1/6 536/1/6 542/1/6
f 537/1/6 539/1/6 543/1/6
f 539/1/6 540/1/6 543/1/6
f 540/1/6 541/1/6 543/1/6
f 543/1/6 541/1/6 544/1/6
f 542/1/6 536/1/6 545/1/6
f 545/1/6 536/1/6 546/1/6
f 525/1/6 526/1/6 547/1/6
f 531/1/6 533/1/6 550/1/6
f 533/1/6 537/1/6 550/1/6
f 537/1/6 543/1/6 550/1/6
f 550/1/6 543/1/6 551/1/6
f 546/1/6 536/1/6 553/1/6
f 536/1/6 488/1/6 554/1/6
f 553/1/6 536/1/6 554/1/6
f 551/1/6 552/1/6 555/1/6
f 549/1/6 550/1/6 555/1/6
f 550/1/6 551/1/6 555/1/6
f 549/1/6 555/1/6 558/1/6
f 555/1/6 556/1/6 558/1/6
f 558/1/6 556/1/6 559/1/6
f 557/1/6 558/1/6 562/1/6
f 559/1/6 560/1/6 562/1/6
f 558/1/6 559/1/6 562/1/6
f 562/1/6 560/1/6 563/1/6
f 554/1/6 488/1/6 566/1/6
f 547/1/6 548/1/6 567/1/6
f 563/1/6 564/1/6 570/1/6
f 561/1/6 562/1/6 570/1/6
f 562/1/6 563/1/6 570/1/6
f 570/1/6 564/1/6 571/1/6
f 565/1/6 566/1/6 572/1/6
f 567/1/6 568/1/6 573/1/6
f 525/1/6 547/1/6 573/1/6
f 547/1/6 567/1/6 573/1/6
f 573/1/6 568/1/6 574/1/6
f 571/1/6 572/1/6 575/1/6
f 570/1/6 571/1/6 575/1/6
f 569/1/6 570/1/6 575/1/6
f 572/1/6 566/1/6 576/1/6
f 575/1/6 572/1/6 576/1/6
f 566/1/6 488/1/6 576/1/6
f 577/1/6 578/1/6 581/1/6
f 581/1/6 578/1/6 582/1/6
f 577/1/6 581/1/6 583/1/6
f 583/1/6 581/1/6 584/1/6
f 582/1/6 578/1/6 585/1/6
f 585/1/6 578/1/6 586/1/6
f 586/1/6 578/1/6 587/1/6
f 579/1/6 580/1/6 588/1/6
f 588/1/6 580/1/6 589/1/6
f 586/1/6 587/1/6 591/1/6
f 589/1/6 590/1/6 591/1/6
f 588/1/6 589/1/6 591/1/6
f 587/1/6 588/1/6 591/1/6
f 591/1/6 590/1/6 592/1/6
f 592/1/6 590/1/6 593/1/6
f 593/1/6 590/1/6 594/1/6
f 594/1/6 590/1/6 596/1/6
f 596/1/6 590/1/6 597/1/6
f 595/1/6 596/1/6 600/1/6
f 597/1/6 598/1/6 600/1/6
f 596/1/6 597/1/6 600/1/6
f 600/1/6 598/1/6 601/1/6
f 601/1/6 598/1/6 602/1/6
f 599/1/6 600/1/6 603/1/6
f 600/1/6 601/1/6 603/1/6
f 603/1/6 601/1/6 604/1/6
f 605/1/6 606/1/6 608/1/6
f 608/1/6 606/1/6 609/1/6
f 607/1/6 608/1/6 611/1/6
f 609/1/6 610/1/6 611/1/6
f 608/1/6 609/1/6 611/1/6
f 611/1/6 610/1/6 612/1/6
f 612/1/6 610/1/6 613/1/6
f 613/1/6 614/1/6 615/1/6
f 612/1/6 613/1/6 615/1/6
f 615/1/6 614/1/6 616/1/6
f 616/1/6 614/1/6 617/1/6
f 617/1/6 614/1/6 618/1/6
f 618/1/6 614/1/6 619/1/6
f 619/1/6 614/1/6 620/1/6
f 620/1/6 614/1/6 621/1/6
f 621/1/6 614/1/6 622/1/6
f 620/1/6 621/1/6 623/1/6
f 623/1/6 621/1/6 624/1/6
