# MagicaVoxel @ Ephtracy

# group
g ImpactGrenade

# material
mtllib ImpactGrenade.mtl
usemtl palette

# normals
vn -1 0 0
vn 1 0 0
vn 0 0 1
vn 0 0 -1
vn 0 -1 0
vn 0 1 0

# texcoords
vt 0.845703 0.5
vt 0.912109 0.5
vt 0.916016 0.5

# verts
v -2 1 1
v -2 1 -1
v -2 2 1
v -2 2 -1
v -2 5 1
v -2 5 -1
v -2 6 1
v -2 6 -1
v -1 1 2
v -1 1 1
v -1 1 -1
v -1 1 -2
v -1 2 2
v -1 2 1
v -1 2 -1
v -1 2 -2
v -1 3 1
v -1 3 -1
v -1 4 1
v -1 4 -1
v -1 5 2
v -1 5 1
v -1 5 -1
v -1 5 -2
v -1 6 2
v -1 6 1
v -1 6 -1
v -1 6 -2
v -1 7 1
v -1 7 -1
v 1 1 2
v 1 1 1
v 1 1 -1
v 1 1 -2
v 1 2 2
v 1 2 1
v 1 2 -1
v 1 2 -2
v 1 3 1
v 1 3 -1
v 1 4 1
v 1 4 -1
v 1 5 2
v 1 5 1
v 1 5 -1
v 1 5 -2
v 1 6 2
v 1 6 1
v 1 6 -1
v 1 6 -2
v 1 7 1
v 1 7 -1
v 2 1 1
v 2 1 -1
v 2 2 1
v 2 2 -1
v 2 5 1
v 2 5 -1
v 2 6 1
v 2 6 -1
v -1 1 2
v -1 2 2
v -1 5 2
v -1 6 2
v 1 1 2
v 1 2 2
v 1 5 2
v 1 6 2
v -2 1 1
v -2 2 1
v -2 5 1
v -2 6 1
v -1 1 1
v -1 2 1
v -1 3 1
v -1 4 1
v -1 5 1
v -1 6 1
v -1 7 1
v 1 1 1
v 1 2 1
v 1 3 1
v 1 4 1
v 1 5 1
v 1 6 1
v 1 7 1
v 2 1 1
v 2 2 1
v 2 5 1
v 2 6 1
v -2 1 -1
v -2 2 -1
v -2 5 -1
v -2 6 -1
v -1 1 -1
v -1 2 -1
v -1 3 -1
v -1 4 -1
v -1 5 -1
v -1 6 -1
v -1 7 -1
v 1 1 -1
v 1 2 -1
v 1 3 -1
v 1 4 -1
v 1 5 -1
v 1 6 -1
v 1 7 -1
v 2 1 -1
v 2 2 -1
v 2 5 -1
v 2 6 -1
v -1 1 -2
v -1 2 -2
v -1 5 -2
v -1 6 -2
v 1 1 -2
v 1 2 -2
v 1 5 -2
v 1 6 -2
v -1 1 2
v 1 1 2
v -2 1 1
v -1 1 1
v 1 1 1
v 2 1 1
v -2 1 -1
v -1 1 -1
v 1 1 -1
v 2 1 -1
v -1 1 -2
v 1 1 -2
v -1 5 2
v 1 5 2
v -2 5 1
v -1 5 1
v 1 5 1
v 2 5 1
v -2 5 -1
v -1 5 -1
v 1 5 -1
v 2 5 -1
v -1 5 -2
v 1 5 -2
v -1 2 2
v 1 2 2
v -2 2 1
v -1 2 1
v 1 2 1
v 2 2 1
v -2 2 -1
v -1 2 -1
v 1 2 -1
v 2 2 -1
v -1 2 -2
v 1 2 -2
v -1 6 2
v 1 6 2
v -2 6 1
v -1 6 1
v 1 6 1
v 2 6 1
v -2 6 -1
v -1 6 -1
v 1 6 -1
v 2 6 -1
v -1 6 -2
v 1 6 -2
v -1 7 1
v 1 7 1
v -1 7 -1
v 1 7 -1

# faces
f 3/2/1 2/2/1 1/2/1
f 4/2/1 2/2/1 3/2/1
f 7/2/1 6/2/1 5/2/1
f 8/2/1 6/2/1 7/2/1
f 13/2/1 10/2/1 9/2/1
f 14/2/1 10/2/1 13/2/1
f 15/2/1 12/2/1 11/2/1
f 16/2/1 12/2/1 15/2/1
f 17/3/1 15/3/1 14/3/1
f 18/3/1 15/3/1 17/3/1
f 19/2/1 18/2/1 17/2/1
f 20/2/1 18/2/1 19/2/1
f 22/3/1 20/3/1 19/3/1
f 23/3/1 20/3/1 22/3/1
f 25/2/1 22/2/1 21/2/1
f 26/2/1 22/2/1 25/2/1
f 27/2/1 24/2/1 23/2/1
f 28/2/1 24/2/1 27/2/1
f 29/1/1 27/1/1 26/1/1
f 30/1/1 27/1/1 29/1/1
f 31/2/2 32/2/2 35/2/2
f 35/2/2 32/2/2 36/2/2
f 33/2/2 34/2/2 37/2/2
f 37/2/2 34/2/2 38/2/2
f 36/3/2 37/3/2 39/3/2
f 39/3/2 37/3/2 40/3/2
f 39/2/2 40/2/2 41/2/2
f 41/2/2 40/2/2 42/2/2
f 41/3/2 42/3/2 44/3/2
f 44/3/2 42/3/2 45/3/2
f 43/2/2 44/2/2 47/2/2
f 47/2/2 44/2/2 48/2/2
f 45/2/2 46/2/2 49/2/2
f 49/2/2 46/2/2 50/2/2
f 48/1/2 49/1/2 51/1/2
f 51/1/2 49/1/2 52/1/2
f 53/2/2 54/2/2 55/2/2
f 55/2/2 54/2/2 56/2/2
f 57/2/2 58/2/2 59/2/2
f 59/2/2 58/2/2 60/2/2
f 65/2/3 62/2/3 61/2/3
f 66/2/3 62/2/3 65/2/3
f 67/2/3 64/2/3 63/2/3
f 68/2/3 64/2/3 67/2/3
f 73/2/3 70/2/3 69/2/3
f 74/2/3 70/2/3 73/2/3
f 77/2/3 72/2/3 71/2/3
f 78/2/3 72/2/3 77/2/3
f 81/3/3 75/3/3 74/3/3
f 82/2/3 76/2/3 75/2/3
f 82/3/3 75/3/3 81/3/3
f 83/3/3 77/3/3 76/3/3
f 83/2/3 76/2/3 82/2/3
f 84/3/3 77/3/3 83/3/3
f 85/1/3 79/1/3 78/1/3
f 86/1/3 79/1/3 85/1/3
f 87/2/3 81/2/3 80/2/3
f 88/2/3 81/2/3 87/2/3
f 89/2/3 85/2/3 84/2/3
f 90/2/3 85/2/3 89/2/3
f 91/2/4 92/2/4 95/2/4
f 95/2/4 92/2/4 96/2/4
f 93/2/4 94/2/4 99/2/4
f 99/2/4 94/2/4 100/2/4
f 96/3/4 97/3/4 103/3/4
f 97/2/4 98/2/4 104/2/4
f 103/3/4 97/3/4 104/3/4
f 98/3/4 99/3/4 105/3/4
f 104/2/4 98/2/4 105/2/4
f 105/3/4 99/3/4 106/3/4
f 100/1/4 101/1/4 107/1/4
f 107/1/4 101/1/4 108/1/4
f 102/2/4 103/2/4 109/2/4
f 109/2/4 103/2/4 110/2/4
f 106/2/4 107/2/4 111/2/4
f 111/2/4 107/2/4 112/2/4
f 113/2/4 114/2/4 117/2/4
f 117/2/4 114/2/4 118/2/4
f 115/2/4 116/2/4 119/2/4
f 119/2/4 116/2/4 120/2/4
f 124/2/5 122/2/5 121/2/5
f 125/2/5 122/2/5 124/2/5
f 127/2/5 124/2/5 123/2/5
f 127/2/5 126/2/5 125/2/5
f 127/2/5 125/2/5 124/2/5
f 128/2/5 126/2/5 127/2/5
f 129/2/5 126/2/5 128/2/5
f 130/2/5 126/2/5 129/2/5
f 131/2/5 129/2/5 128/2/5
f 132/2/5 129/2/5 131/2/5
f 136/2/5 134/2/5 133/2/5
f 137/2/5 134/2/5 136/2/5
f 139/2/5 136/2/5 135/2/5
f 140/2/5 136/2/5 139/2/5
f 141/2/5 138/2/5 137/2/5
f 142/2/5 138/2/5 141/2/5
f 143/2/5 141/2/5 140/2/5
f 144/2/5 141/2/5 143/2/5
f 145/2/6 146/2/6 148/2/6
f 148/2/6 146/2/6 149/2/6
f 147/2/6 148/2/6 151/2/6
f 151/2/6 148/2/6 152/2/6
f 149/2/6 150/2/6 153/2/6
f 153/2/6 150/2/6 154/2/6
f 152/2/6 153/2/6 155/2/6
f 155/2/6 153/2/6 156/2/6
f 157/2/6 158/2/6 160/2/6
f 160/2/6 158/2/6 161/2/6
f 159/2/6 160/2/6 163/2/6
f 163/2/6 160/2/6 164/2/6
f 161/2/6 162/2/6 165/2/6
f 165/2/6 162/2/6 166/2/6
f 164/2/6 165/2/6 167/2/6
f 167/2/6 165/2/6 168/2/6
f 169/1/6 170/1/6 171/1/6
f 171/1/6 170/1/6 172/1/6
