# MagicaVoxel @ Ephtracy

# group
g SnowVER2.2-4

# material
mtllib SnowVER2.2-4.mtl
usemtl palette

# normals
vn -1 0 0
vn 1 0 0
vn 0 0 1
vn 0 0 -1
vn 0 -1 0
vn 0 1 0

# texcoords
vt 0.916016 0.5
vt 0.919922 0.5

# verts
v -16 0 16
v -16 0 -16
v -16 2 16
v -16 2 15
v -16 2 -16
v -16 3 15
v -16 3 -16
v -15 2 16
v -15 2 15
v -15 3 16
v -15 3 15
v 2 2 2
v 2 2 1
v 2 3 2
v 2 3 1
v 3 1 1
v 3 1 -0
v 3 2 1
v 3 2 -0
v 3 2 -1
v 3 3 -0
v 3 3 -1
v 4 2 1
v 4 2 -0
v 4 3 1
v 4 3 -0
v -1 2 1
v -1 2 -0
v -1 3 1
v -1 3 -0
v 0 2 2
v 0 2 1
v 0 3 2
v 0 3 1
v 1 2 -0
v 1 2 -1
v 1 3 -0
v 1 3 -1
v 2 1 1
v 2 1 -0
v 2 2 1
v 2 2 -0
v 16 0 16
v 16 0 -16
v 16 2 16
v 16 2 -16
v 16 3 16
v 16 3 -16
v -16 0 16
v -16 2 16
v -15 2 16
v -15 3 16
v 16 0 16
v 16 2 16
v 16 3 16
v -16 2 15
v -16 3 15
v -15 2 15
v -15 3 15
v -1 2 -0
v -1 3 -0
v 1 2 -0
v 1 3 -0
v 2 1 -0
v 2 2 -0
v 3 1 -0
v 3 2 -0
v 3 3 -0
v 4 2 -0
v 4 3 -0
v 1 2 -1
v 1 3 -1
v 3 2 -1
v 3 3 -1
v 0 2 2
v 0 3 2
v 2 2 2
v 2 3 2
v -1 2 1
v -1 3 1
v 0 2 1
v 0 3 1
v 2 1 1
v 2 2 1
v 2 3 1
v 3 1 1
v 3 2 1
v 4 2 1
v 4 3 1
v -16 0 -16
v -16 2 -16
v -16 3 -16
v 16 0 -16
v 16 2 -16
v 16 3 -16
v -16 0 16
v 16 0 16
v -16 0 -16
v 16 0 -16
v 2 1 1
v 3 1 1
v 2 1 -0
v 3 1 -0
v -16 2 16
v -15 2 16
v -16 2 15
v -15 2 15
v 0 2 2
v 2 2 2
v -1 2 1
v 0 2 1
v 2 2 1
v 3 2 1
v 4 2 1
v -1 2 -0
v 1 2 -0
v 2 2 -0
v 3 2 -0
v 4 2 -0
v 1 2 -1
v 3 2 -1
v -15 3 16
v 16 3 16
v -16 3 15
v -15 3 15
v 0 3 2
v 2 3 2
v -1 3 1
v 0 3 1
v 2 3 1
v 4 3 1
v -1 3 -0
v 1 3 -0
v 3 3 -0
v 4 3 -0
v 1 3 -1
v 3 3 -1
v -16 3 -16
v 16 3 -16

# faces
f 3/2/1 2/2/1 1/2/1
f 4/2/1 2/2/1 3/2/1
f 5/2/1 2/2/1 4/2/1
f 6/1/1 5/1/1 4/1/1
f 7/1/1 5/1/1 6/1/1
f 10/1/1 9/1/1 8/1/1
f 11/1/1 9/1/1 10/1/1
f 14/1/1 13/1/1 12/1/1
f 15/1/1 13/1/1 14/1/1
f 18/2/1 17/2/1 16/2/1
f 19/2/1 17/2/1 18/2/1
f 21/1/1 20/1/1 19/1/1
f 22/1/1 20/1/1 21/1/1
f 25/1/1 24/1/1 23/1/1
f 26/1/1 24/1/1 25/1/1
f 27/1/2 28/1/2 29/1/2
f 29/1/2 28/1/2 30/1/2
f 31/1/2 32/1/2 33/1/2
f 33/1/2 32/1/2 34/1/2
f 35/1/2 36/1/2 37/1/2
f 37/1/2 36/1/2 38/1/2
f 39/2/2 40/2/2 41/2/2
f 41/2/2 40/2/2 42/2/2
f 43/2/2 44/2/2 45/2/2
f 45/2/2 44/2/2 46/2/2
f 45/1/2 46/1/2 47/1/2
f 47/1/2 46/1/2 48/1/2
f 51/2/3 50/2/3 49/2/3
f 53/2/3 51/2/3 49/2/3
f 54/1/3 52/1/3 51/1/3
f 54/2/3 51/2/3 53/2/3
f 55/1/3 52/1/3 54/1/3
f 58/1/3 57/1/3 56/1/3
f 59/1/3 57/1/3 58/1/3
f 62/1/3 61/1/3 60/1/3
f 63/1/3 61/1/3 62/1/3
f 66/2/3 65/2/3 64/2/3
f 67/2/3 65/2/3 66/2/3
f 69/1/3 68/1/3 67/1/3
f 70/1/3 68/1/3 69/1/3
f 73/1/3 72/1/3 71/1/3
f 74/1/3 72/1/3 73/1/3
f 75/1/4 76/1/4 77/1/4
f 77/1/4 76/1/4 78/1/4
f 79/1/4 80/1/4 81/1/4
f 81/1/4 80/1/4 82/1/4
f 83/2/4 84/2/4 86/2/4
f 84/1/4 85/1/4 87/1/4
f 86/2/4 84/2/4 87/2/4
f 87/1/4 85/1/4 88/1/4
f 88/1/4 85/1/4 89/1/4
f 90/2/4 91/2/4 93/2/4
f 91/1/4 92/1/4 94/1/4
f 93/2/4 91/2/4 94/2/4
f 94/1/4 92/1/4 95/1/4
f 98/2/5 97/2/5 96/2/5
f 99/2/5 97/2/5 98/2/5
f 100/2/6 101/2/6 102/2/6
f 102/2/6 101/2/6 103/2/6
f 104/2/6 105/2/6 106/2/6
f 106/2/6 105/2/6 107/2/6
f 108/2/6 109/2/6 111/2/6
f 111/2/6 109/2/6 112/2/6
f 110/2/6 111/2/6 115/2/6
f 111/2/6 112/2/6 115/2/6
f 115/2/6 112/2/6 116/2/6
f 116/2/6 112/2/6 117/2/6
f 113/2/6 114/2/6 118/2/6
f 118/2/6 114/2/6 119/2/6
f 116/2/6 117/2/6 120/2/6
f 117/2/6 118/2/6 120/2/6
f 120/2/6 118/2/6 121/2/6
f 122/1/6 123/1/6 125/1/6
f 125/1/6 123/1/6 126/1/6
f 124/1/6 125/1/6 126/1/6
f 126/1/6 123/1/6 127/1/6
f 124/1/6 126/1/6 128/1/6
f 128/1/6 126/1/6 129/1/6
f 127/1/6 123/1/6 130/1/6
f 130/1/6 123/1/6 131/1/6
f 124/1/6 128/1/6 132/1/6
f 131/1/6 123/1/6 135/1/6
f 132/1/6 133/1/6 136/1/6
f 134/1/6 135/1/6 137/1/6
f 132/1/6 136/1/6 138/1/6
f 136/1/6 137/1/6 138/1/6
f 124/1/6 132/1/6 138/1/6
f 137/1/6 135/1/6 139/1/6
f 138/1/6 137/1/6 139/1/6
f 135/1/6 123/1/6 139/1/6
