# MagicaVoxel @ Ephtracy

# group
g SnowVER2.3-1

# material
mtllib SnowVER2.3-1.mtl
usemtl palette

# normals
vn -1 0 0
vn 1 0 0
vn 0 0 1
vn 0 0 -1
vn 0 -1 0
vn 0 1 0

# texcoords
vt 0.916016 0.5
vt 0.919922 0.5

# verts
v -16 0 16
v -16 0 -16
v -16 2 16
v -16 2 -4
v -16 2 -9
v -16 2 -16
v -16 3 16
v -16 3 -4
v -16 3 -9
v -16 3 -16
v -14 2 -6
v -14 2 -7
v -14 3 -6
v -14 3 -7
v -13 2 -8
v -13 2 -9
v -13 3 -8
v -13 3 -9
v -12 2 -5
v -12 2 -8
v -12 3 -5
v -12 3 -8
v -11 2 -0
v -11 2 -1
v -11 3 -0
v -11 3 -1
v -9 2 2
v -9 2 1
v -9 2 -1
v -9 2 -2
v -9 3 2
v -9 3 1
v -9 3 -1
v -9 3 -2
v -8 2 1
v -8 2 -0
v -8 2 -2
v -8 2 -3
v -8 3 1
v -8 3 -0
v -8 3 -2
v -8 3 -3
v -7 2 7
v -7 2 6
v -7 3 7
v -7 3 6
v -6 2 -4
v -6 2 -5
v -6 3 -4
v -6 3 -5
v -5 2 2
v -5 2 1
v -5 3 2
v -5 3 1
v -3 2 7
v -3 2 6
v -3 2 -13
v -3 2 -14
v -3 3 7
v -3 3 6
v -3 3 -13
v -3 3 -14
v -2 2 -3
v -2 2 -4
v -2 3 -3
v -2 3 -4
v -1 2 -4
v -1 2 -7
v -1 3 -4
v -1 3 -7
v 0 2 6
v 0 2 4
v 0 3 6
v 0 3 4
v 1 2 4
v 1 2 2
v 1 2 -2
v 1 2 -3
v 1 3 4
v 1 3 2
v 1 3 -2
v 1 3 -3
v 5 2 2
v 5 2 1
v 5 3 2
v 5 3 1
v 6 2 1
v 6 2 -1
v 6 3 1
v 6 3 -1
v 11 2 8
v 11 2 7
v 11 3 8
v 11 3 7
v -15 2 2
v -15 2 1
v -15 2 -2
v -15 2 -3
v -15 3 2
v -15 3 1
v -15 3 -2
v -15 3 -3
v -14 2 1
v -14 2 -2
v -14 3 1
v -14 3 -2
v -13 2 3
v -13 2 2
v -13 2 -6
v -13 2 -7
v -13 3 3
v -13 3 2
v -13 3 -6
v -13 3 -7
v -12 2 -3
v -12 2 -4
v -12 3 -3
v -12 3 -4
v -10 2 6
v -10 2 5
v -10 3 6
v -10 3 5
v -9 2 7
v -9 2 6
v -9 2 5
v -9 2 3
v -9 2 -5
v -9 2 -6
v -9 3 7
v -9 3 6
v -9 3 5
v -9 3 3
v -9 3 -5
v -9 3 -6
v -7 2 -2
v -7 2 -3
v -7 3 -2
v -7 3 -3
v -6 2 2
v -6 2 1
v -6 3 2
v -6 3 1
v -5 2 7
v -5 2 6
v -5 2 1
v -5 2 -0
v -5 3 7
v -5 3 6
v -5 3 1
v -5 3 -0
v -4 2 2
v -4 2 1
v -4 2 -13
v -4 2 -14
v -4 3 2
v -4 3 1
v -4 3 -13
v -4 3 -14
v -3 2 -4
v -3 2 -5
v -3 3 -4
v -3 3 -5
v -2 2 -0
v -2 2 -1
v -2 2 -6
v -2 2 -7
v -2 3 -0
v -2 3 -1
v -2 3 -6
v -2 3 -7
v 10 2 8
v 10 2 7
v 10 3 8
v 10 3 7
v 16 0 16
v 16 0 -16
v 16 2 16
v 16 2 -16
v 16 3 16
v 16 3 -16
v -16 0 16
v -16 2 16
v -16 3 16
v 16 0 16
v 16 2 16
v 16 3 16
v 10 2 7
v 10 3 7
v 11 2 7
v 11 3 7
v -10 2 5
v -10 3 5
v -9 2 5
v -9 3 5
v -9 2 2
v -9 3 2
v -6 2 2
v -6 3 2
v -5 2 2
v -5 3 2
v -4 2 2
v -4 3 2
v -15 2 1
v -15 3 1
v -14 2 1
v -14 3 1
v -6 2 1
v -6 3 1
v -5 2 1
v -5 3 1
v -11 2 -0
v -11 3 -0
v -8 2 -0
v -8 3 -0
v -5 2 -0
v -5 3 -0
v -2 2 -0
v -2 3 -0
v -2 2 -1
v -2 3 -1
v 6 2 -1
v 6 3 -1
v -15 2 -3
v -15 3 -3
v -12 2 -3
v -12 3 -3
v -2 2 -3
v -2 3 -3
v 1 2 -3
v 1 3 -3
v -6 2 -4
v -6 3 -4
v -3 2 -4
v -3 3 -4
v -12 2 -5
v -12 3 -5
v -9 2 -5
v -9 3 -5
v -14 2 -6
v -14 3 -6
v -13 2 -6
v -13 3 -6
v -9 2 -6
v -9 3 -6
v -2 2 -6
v -2 3 -6
v -2 2 -7
v -2 3 -7
v -1 2 -7
v -1 3 -7
v -13 2 -8
v -13 3 -8
v -12 2 -8
v -12 3 -8
v -16 2 -9
v -16 3 -9
v -13 2 -9
v -13 3 -9
v -4 2 -14
v -4 3 -14
v -3 2 -14
v -3 3 -14
v 10 2 8
v 10 3 8
v 11 2 8
v 11 3 8
v -9 2 7
v -9 3 7
v -7 2 7
v -7 3 7
v -5 2 7
v -5 3 7
v -3 2 7
v -3 3 7
v -10 2 6
v -10 3 6
v -9 2 6
v -9 3 6
v -7 2 6
v -7 3 6
v -5 2 6
v -5 3 6
v -3 2 6
v -3 3 6
v 0 2 6
v 0 3 6
v 0 2 4
v 0 3 4
v 1 2 4
v 1 3 4
v -13 2 3
v -13 3 3
v -9 2 3
v -9 3 3
v -15 2 2
v -15 3 2
v -13 2 2
v -13 3 2
v 1 2 2
v 1 3 2
v 5 2 2
v 5 3 2
v -9 2 1
v -9 3 1
v -8 2 1
v -8 3 1
v -5 2 1
v -5 3 1
v -4 2 1
v -4 3 1
v 5 2 1
v 5 3 1
v 6 2 1
v 6 3 1
v -11 2 -1
v -11 3 -1
v -9 2 -1
v -9 3 -1
v -15 2 -2
v -15 3 -2
v -14 2 -2
v -14 3 -2
v -9 2 -2
v -9 3 -2
v -8 2 -2
v -8 3 -2
v -7 2 -2
v -7 3 -2
v 1 2 -2
v 1 3 -2
v -8 2 -3
v -8 3 -3
v -7 2 -3
v -7 3 -3
v -16 2 -4
v -16 3 -4
v -12 2 -4
v -12 3 -4
v -2 2 -4
v -2 3 -4
v -1 2 -4
v -1 3 -4
v -6 2 -5
v -6 3 -5
v -3 2 -5
v -3 3 -5
v -14 2 -7
v -14 3 -7
v -13 2 -7
v -13 3 -7
v -4 2 -13
v -4 3 -13
v -3 2 -13
v -3 3 -13
v -16 0 -16
v -16 2 -16
v -16 3 -16
v 16 0 -16
v 16 2 -16
v 16 3 -16
v -16 0 16
v 16 0 16
v -16 0 -16
v 16 0 -16
v 10 2 8
v 11 2 8
v -9 2 7
v -7 2 7
v -5 2 7
v -3 2 7
v 10 2 7
v 11 2 7
v -10 2 6
v -9 2 6
v -7 2 6
v -5 2 6
v -3 2 6
v 0 2 6
v -10 2 5
v -9 2 5
v 0 2 4
v 1 2 4
v -13 2 3
v -9 2 3
v -15 2 2
v -13 2 2
v -9 2 2
v -6 2 2
v -5 2 2
v -4 2 2
v 1 2 2
v 5 2 2
v -15 2 1
v -14 2 1
v -9 2 1
v -8 2 1
v -6 2 1
v -5 2 1
v -4 2 1
v 5 2 1
v 6 2 1
v -11 2 -0
v -8 2 -0
v -5 2 -0
v -2 2 -0
v -11 2 -1
v -9 2 -1
v -2 2 -1
v 6 2 -1
v -15 2 -2
v -14 2 -2
v -9 2 -2
v -8 2 -2
v -7 2 -2
v 1 2 -2
v -15 2 -3
v -12 2 -3
v -8 2 -3
v -7 2 -3
v -2 2 -3
v 1 2 -3
v -16 2 -4
v -12 2 -4
v -6 2 -4
v -3 2 -4
v -2 2 -4
v -1 2 -4
v -12 2 -5
v -9 2 -5
v -6 2 -5
v -3 2 -5
v -14 2 -6
v -13 2 -6
v -9 2 -6
v -2 2 -6
v -14 2 -7
v -13 2 -7
v -2 2 -7
v -1 2 -7
v -13 2 -8
v -12 2 -8
v -16 2 -9
v -13 2 -9
v -4 2 -13
v -3 2 -13
v -4 2 -14
v -3 2 -14
v -16 3 16
v 16 3 16
v 10 3 8
v 11 3 8
v -9 3 7
v -7 3 7
v -5 3 7
v -3 3 7
v 10 3 7
v 11 3 7
v -10 3 6
v -9 3 6
v -7 3 6
v -5 3 6
v -3 3 6
v 0 3 6
v -10 3 5
v -9 3 5
v 0 3 4
v 1 3 4
v -13 3 3
v -9 3 3
v -15 3 2
v -13 3 2
v -9 3 2
v -6 3 2
v -5 3 2
v -4 3 2
v 1 3 2
v 5 3 2
v -15 3 1
v -14 3 1
v -9 3 1
v -8 3 1
v -6 3 1
v -5 3 1
v -4 3 1
v 5 3 1
v 6 3 1
v -11 3 -0
v -8 3 -0
v -5 3 -0
v -2 3 -0
v -11 3 -1
v -9 3 -1
v -2 3 -1
v 6 3 -1
v -15 3 -2
v -14 3 -2
v -9 3 -2
v -8 3 -2
v -7 3 -2
v 1 3 -2
v -15 3 -3
v -12 3 -3
v -8 3 -3
v -7 3 -3
v -2 3 -3
v 1 3 -3
v -16 3 -4
v -12 3 -4
v -6 3 -4
v -3 3 -4
v -2 3 -4
v -1 3 -4
v -12 3 -5
v -9 3 -5
v -6 3 -5
v -3 3 -5
v -14 3 -6
v -13 3 -6
v -9 3 -6
v -2 3 -6
v -14 3 -7
v -13 3 -7
v -2 3 -7
v -1 3 -7
v -13 3 -8
v -12 3 -8
v -16 3 -9
v -13 3 -9
v -4 3 -13
v -3 3 -13
v -4 3 -14
v -3 3 -14
v -16 3 -16
v 16 3 -16

# faces
f 3/2/1 2/2/1 1/2/1
f 4/2/1 2/2/1 3/2/1
f 5/2/1 2/2/1 4/2/1
f 6/2/1 2/2/1 5/2/1
f 7/1/1 4/1/1 3/1/1
f 8/1/1 4/1/1 7/1/1
f 9/1/1 6/1/1 5/1/1
f 10/1/1 6/1/1 9/1/1
f 13/1/1 12/1/1 11/1/1
f 14/1/1 12/1/1 13/1/1
f 17/1/1 16/1/1 15/1/1
f 18/1/1 16/1/1 17/1/1
f 21/1/1 20/1/1 19/1/1
f 22/1/1 20/1/1 21/1/1
f 25/1/1 24/1/1 23/1/1
f 26/1/1 24/1/1 25/1/1
f 31/1/1 28/1/1 27/1/1
f 32/1/1 28/1/1 31/1/1
f 33/1/1 30/1/1 29/1/1
f 34/1/1 30/1/1 33/1/1
f 39/1/1 36/1/1 35/1/1
f 40/1/1 36/1/1 39/1/1
f 41/1/1 38/1/1 37/1/1
f 42/1/1 38/1/1 41/1/1
f 45/1/1 44/1/1 43/1/1
f 46/1/1 44/1/1 45/1/1
f 49/1/1 48/1/1 47/1/1
f 50/1/1 48/1/1 49/1/1
f 53/1/1 52/1/1 51/1/1
f 54/1/1 52/1/1 53/1/1
f 59/1/1 56/1/1 55/1/1
f 60/1/1 56/1/1 59/1/1
f 61/1/1 58/1/1 57/1/1
f 62/1/1 58/1/1 61/1/1
f 65/1/1 64/1/1 63/1/1
f 66/1/1 64/1/1 65/1/1
f 69/1/1 68/1/1 67/1/1
f 70/1/1 68/1/1 69/1/1
f 73/1/1 72/1/1 71/1/1
f 74/1/1 72/1/1 73/1/1
f 79/1/1 76/1/1 75/1/1
f 80/1/1 76/1/1 79/1/1
f 81/1/1 78/1/1 77/1/1
f 82/1/1 78/1/1 81/1/1
f 85/1/1 84/1/1 83/1/1
f 86/1/1 84/1/1 85/1/1
f 89/1/1 88/1/1 87/1/1
f 90/1/1 88/1/1 89/1/1
f 93/1/1 92/1/1 91/1/1
f 94/1/1 92/1/1 93/1/1
f 95/1/2 96/1/2 99/1/2
f 99/1/2 96/1/2 100/1/2
f 97/1/2 98/1/2 101/1/2
f 101/1/2 98/1/2 102/1/2
f 103/1/2 104/1/2 105/1/2
f 105/1/2 104/1/2 106/1/2
f 107/1/2 108/1/2 111/1/2
f 111/1/2 108/1/2 112/1/2
f 109/1/2 110/1/2 113/1/2
f 113/1/2 110/1/2 114/1/2
f 115/1/2 116/1/2 117/1/2
f 117/1/2 116/1/2 118/1/2
f 119/1/2 120/1/2 121/1/2
f 121/1/2 120/1/2 122/1/2
f 123/1/2 124/1/2 129/1/2
f 129/1/2 124/1/2 130/1/2
f 125/1/2 126/1/2 131/1/2
f 131/1/2 126/1/2 132/1/2
f 127/1/2 128/1/2 133/1/2
f 133/1/2 128/1/2 134/1/2
f 135/1/2 136/1/2 137/1/2
f 137/1/2 136/1/2 138/1/2
f 139/1/2 140/1/2 141/1/2
f 141/1/2 140/1/2 142/1/2
f 143/1/2 144/1/2 147/1/2
f 147/1/2 144/1/2 148/1/2
f 145/1/2 146/1/2 149/1/2
f 149/1/2 146/1/2 150/1/2
f 151/1/2 152/1/2 155/1/2
f 155/1/2 152/1/2 156/1/2
f 153/1/2 154/1/2 157/1/2
f 157/1/2 154/1/2 158/1/2
f 159/1/2 160/1/2 161/1/2
f 161/1/2 160/1/2 162/1/2
f 163/1/2 164/1/2 167/1/2
f 167/1/2 164/1/2 168/1/2
f 165/1/2 166/1/2 169/1/2
f 169/1/2 166/1/2 170/1/2
f 171/1/2 172/1/2 173/1/2
f 173/1/2 172/1/2 174/1/2
f 175/2/2 176/2/2 177/2/2
f 177/2/2 176/2/2 178/2/2
f 177/1/2 178/1/2 179/1/2
f 179/1/2 178/1/2 180/1/2
f 184/2/3 182/2/3 181/2/3
f 185/1/3 183/1/3 182/1/3
f 185/2/3 182/2/3 184/2/3
f 186/1/3 183/1/3 185/1/3
f 189/1/3 188/1/3 187/1/3
f 190/1/3 188/1/3 189/1/3
f 193/1/3 192/1/3 191/1/3
f 194/1/3 192/1/3 193/1/3
f 197/1/3 196/1/3 195/1/3
f 198/1/3 196/1/3 197/1/3
f 201/1/3 200/1/3 199/1/3
f 202/1/3 200/1/3 201/1/3
f 205/1/3 204/1/3 203/1/3
f 206/1/3 204/1/3 205/1/3
f 209/1/3 208/1/3 207/1/3
f 210/1/3 208/1/3 209/1/3
f 213/1/3 212/1/3 211/1/3
f 214/1/3 212/1/3 213/1/3
f 217/1/3 216/1/3 215/1/3
f 218/1/3 216/1/3 217/1/3
f 221/1/3 220/1/3 219/1/3
f 222/1/3 220/1/3 221/1/3
f 225/1/3 224/1/3 223/1/3
f 226/1/3 224/1/3 225/1/3
f 229/1/3 228/1/3 227/1/3
f 230/1/3 228/1/3 229/1/3
f 233/1/3 232/1/3 231/1/3
f 234/1/3 232/1/3 233/1/3
f 237/1/3 236/1/3 235/1/3
f 238/1/3 236/1/3 237/1/3
f 241/1/3 240/1/3 239/1/3
f 242/1/3 240/1/3 241/1/3
f 245/1/3 244/1/3 243/1/3
f 246/1/3 244/1/3 245/1/3
f 249/1/3 248/1/3 247/1/3
f 250/1/3 248/1/3 249/1/3
f 253/1/3 252/1/3 251/1/3
f 254/1/3 252/1/3 253/1/3
f 257/1/3 256/1/3 255/1/3
f 258/1/3 256/1/3 257/1/3
f 261/1/3 260/1/3 259/1/3
f 262/1/3 260/1/3 261/1/3
f 263/1/4 264/1/4 265/1/4
f 265/1/4 264/1/4 266/1/4
f 267/1/4 268/1/4 269/1/4
f 269/1/4 268/1/4 270/1/4
f 271/1/4 272/1/4 273/1/4
f 273/1/4 272/1/4 274/1/4
f 275/1/4 276/1/4 277/1/4
f 277/1/4 276/1/4 278/1/4
f 279/1/4 280/1/4 281/1/4
f 281/1/4 280/1/4 282/1/4
f 283/1/4 284/1/4 285/1/4
f 285/1/4 284/1/4 286/1/4
f 287/1/4 288/1/4 289/1/4
f 289/1/4 288/1/4 290/1/4
f 291/1/4 292/1/4 293/1/4
f 293/1/4 292/1/4 294/1/4
f 295/1/4 296/1/4 297/1/4
f 297/1/4 296/1/4 298/1/4
f 299/1/4 300/1/4 301/1/4
f 301/1/4 300/1/4 302/1/4
f 303/1/4 304/1/4 305/1/4
f 305/1/4 304/1/4 306/1/4
f 307/1/4 308/1/4 309/1/4
f 309/1/4 308/1/4 310/1/4
f 311/1/4 312/1/4 313/1/4
f 313/1/4 312/1/4 314/1/4
f 315/1/4 316/1/4 317/1/4
f 317/1/4 316/1/4 318/1/4
f 319/1/4 320/1/4 321/1/4
f 321/1/4 320/1/4 322/1/4
f 323/1/4 324/1/4 325/1/4
f 325/1/4 324/1/4 326/1/4
f 327/1/4 328/1/4 329/1/4
f 329/1/4 328/1/4 330/1/4
f 331/1/4 332/1/4 333/1/4
f 333/1/4 332/1/4 334/1/4
f 335/1/4 336/1/4 337/1/4
f 337/1/4 336/1/4 338/1/4
f 339/1/4 340/1/4 341/1/4
f 341/1/4 340/1/4 342/1/4
f 343/1/4 344/1/4 345/1/4
f 345/1/4 344/1/4 346/1/4
f 347/1/4 348/1/4 349/1/4
f 349/1/4 348/1/4 350/1/4
f 351/1/4 352/1/4 353/1/4
f 353/1/4 352/1/4 354/1/4
f 355/2/4 356/2/4 358/2/4
f 356/1/4 357/1/4 359/1/4
f 358/2/4 356/2/4 359/2/4
f 359/1/4 357/1/4 360/1/4
f 363/2/5 362/2/5 361/2/5
f 364/2/5 362/2/5 363/2/5
f 365/2/6 366/2/6 371/2/6
f 371/2/6 366/2/6 372/2/6
f 367/2/6 368/2/6 374/2/6
f 374/2/6 368/2/6 375/2/6
f 369/2/6 370/2/6 376/2/6
f 376/2/6 370/2/6 377/2/6
f 374/2/6 375/2/6 379/2/6
f 377/2/6 378/2/6 379/2/6
f 376/2/6 377/2/6 379/2/6
f 375/2/6 376/2/6 379/2/6
f 373/2/6 374/2/6 379/2/6
f 379/2/6 378/2/6 380/2/6
f 380/2/6 378/2/6 381/2/6
f 380/2/6 381/2/6 384/2/6
f 381/2/6 382/2/6 384/2/6
f 383/2/6 384/2/6 386/2/6
f 384/2/6 382/2/6 387/2/6
f 386/2/6 384/2/6 387/2/6
f 387/2/6 382/2/6 388/2/6
f 388/2/6 382/2/6 389/2/6
f 389/2/6 382/2/6 390/2/6
f 390/2/6 382/2/6 391/2/6
f 385/2/6 386/2/6 393/2/6
f 386/2/6 387/2/6 393/2/6
f 393/2/6 387/2/6 394/2/6
f 394/2/6 387/2/6 395/2/6
f 388/2/6 389/2/6 397/2/6
f 397/2/6 389/2/6 398/2/6
f 391/2/6 392/2/6 399/2/6
f 390/2/6 391/2/6 399/2/6
f 399/2/6 392/2/6 400/2/6
f 395/2/6 396/2/6 402/2/6
f 394/2/6 395/2/6 402/2/6
f 402/2/6 396/2/6 403/2/6
f 400/2/6 401/2/6 404/2/6
f 399/2/6 400/2/6 404/2/6
f 398/2/6 399/2/6 404/2/6
f 404/2/6 401/2/6 405/2/6
f 394/2/6 402/2/6 406/2/6
f 405/2/6 401/2/6 408/2/6
f 408/2/6 401/2/6 409/2/6
f 406/2/6 407/2/6 411/2/6
f 394/2/6 406/2/6 411/2/6
f 411/2/6 407/2/6 412/2/6
f 410/2/6 411/2/6 416/2/6
f 411/2/6 412/2/6 416/2/6
f 412/2/6 413/2/6 416/2/6
f 416/2/6 413/2/6 417/2/6
f 417/2/6 413/2/6 418/2/6
f 414/2/6 415/2/6 419/2/6
f 419/2/6 415/2/6 420/2/6
f 420/2/6 415/2/6 421/2/6
f 417/2/6 418/2/6 423/2/6
f 419/2/6 420/2/6 423/2/6
f 418/2/6 419/2/6 423/2/6
f 423/2/6 420/2/6 424/2/6
f 424/2/6 420/2/6 425/2/6
f 425/2/6 420/2/6 426/2/6
f 422/2/6 423/2/6 428/2/6
f 423/2/6 424/2/6 428/2/6
f 428/2/6 424/2/6 429/2/6
f 429/2/6 424/2/6 430/2/6
f 426/2/6 427/2/6 431/2/6
f 425/2/6 426/2/6 431/2/6
f 422/2/6 428/2/6 432/2/6
f 432/2/6 428/2/6 433/2/6
f 429/2/6 430/2/6 434/2/6
f 430/2/6 431/2/6 434/2/6
f 431/2/6 427/2/6 435/2/6
f 434/2/6 431/2/6 435/2/6
f 422/2/6 432/2/6 436/2/6
f 433/2/6 428/2/6 437/2/6
f 435/2/6 427/2/6 438/2/6
f 438/2/6 427/2/6 439/2/6
f 436/2/6 437/2/6 440/2/6
f 437/2/6 428/2/6 440/2/6
f 440/2/6 428/2/6 441/2/6
f 422/2/6 436/2/6 442/2/6
f 436/2/6 440/2/6 442/2/6
f 442/2/6 440/2/6 443/2/6
f 444/2/6 445/2/6 446/2/6
f 446/2/6 445/2/6 447/2/6
f 448/1/6 449/1/6 450/1/6
f 450/1/6 449/1/6 451/1/6
f 448/1/6 450/1/6 452/1/6
f 452/1/6 450/1/6 453/1/6
f 453/1/6 450/1/6 454/1/6
f 454/1/6 450/1/6 455/1/6
f 455/1/6 450/1/6 456/1/6
f 451/1/6 449/1/6 457/1/6
f 448/1/6 452/1/6 458/1/6
f 458/1/6 452/1/6 459/1/6
f 453/1/6 454/1/6 460/1/6
f 460/1/6 454/1/6 461/1/6
f 455/1/6 456/1/6 462/1/6
f 456/1/6 457/1/6 462/1/6
f 462/1/6 457/1/6 463/1/6
f 448/1/6 458/1/6 464/1/6
f 463/1/6 457/1/6 466/1/6
f 466/1/6 457/1/6 467/1/6
f 464/1/6 465/1/6 468/1/6
f 448/1/6 464/1/6 468/1/6
f 468/1/6 465/1/6 469/1/6
f 448/1/6 468/1/6 470/1/6
f 470/1/6 468/1/6 471/1/6
f 467/1/6 457/1/6 476/1/6
f 476/1/6 457/1/6 477/1/6
f 448/1/6 470/1/6 478/1/6
f 472/1/6 473/1/6 480/1/6
f 480/1/6 473/1/6 481/1/6
f 481/1/6 473/1/6 482/1/6
f 474/1/6 475/1/6 483/1/6
f 483/1/6 475/1/6 484/1/6
f 477/1/6 457/1/6 485/1/6
f 485/1/6 457/1/6 486/1/6
f 481/1/6 482/1/6 488/1/6
f 482/1/6 483/1/6 488/1/6
f 488/1/6 483/1/6 489/1/6
f 487/1/6 488/1/6 491/1/6
f 489/1/6 490/1/6 491/1/6
f 488/1/6 489/1/6 491/1/6
f 491/1/6 490/1/6 492/1/6
f 492/1/6 490/1/6 493/1/6
f 486/1/6 457/1/6 494/1/6
f 478/1/6 479/1/6 495/1/6
f 448/1/6 478/1/6 495/1/6
f 495/1/6 479/1/6 496/1/6
f 492/1/6 493/1/6 497/1/6
f 493/1/6 494/1/6 497/1/6
f 497/1/6 494/1/6 498/1/6
f 498/1/6 494/1/6 499/1/6
f 499/1/6 494/1/6 500/1/6
f 448/1/6 495/1/6 501/1/6
f 498/1/6 499/1/6 503/1/6
f 503/1/6 499/1/6 504/1/6
f 500/1/6 494/1/6 506/1/6
f 501/1/6 502/1/6 507/1/6
f 448/1/6 501/1/6 507/1/6
f 507/1/6 502/1/6 508/1/6
f 505/1/6 506/1/6 511/1/6
f 511/1/6 506/1/6 512/1/6
f 509/1/6 510/1/6 515/1/6
f 515/1/6 510/1/6 516/1/6
f 513/1/6 514/1/6 519/1/6
f 517/1/6 518/1/6 521/1/6
f 521/1/6 518/1/6 522/1/6
f 519/1/6 520/1/6 523/1/6
f 512/1/6 506/1/6 524/1/6
f 523/1/6 524/1/6 526/1/6
f 519/1/6 523/1/6 526/1/6
f 513/1/6 519/1/6 526/1/6
f 525/1/6 526/1/6 528/1/6
f 526/1/6 524/1/6 529/1/6
f 527/1/6 528/1/6 529/1/6
f 528/1/6 526/1/6 529/1/6
f 529/1/6 524/1/6 530/1/6
f 527/1/6 529/1/6 531/1/6
f 530/1/6 524/1/6 532/1/6
f 527/1/6 531/1/6 533/1/6
f 531/1/6 532/1/6 533/1/6
f 457/1/6 449/1/6 534/1/6
f 533/1/6 532/1/6 534/1/6
f 524/1/6 506/1/6 534/1/6
f 506/1/6 494/1/6 534/1/6
f 532/1/6 524/1/6 534/1/6
f 494/1/6 457/1/6 534/1/6
